<svg id="Layer_1" data-name="Layer 1" xmlns="http://www.w3.org/2000/svg" viewBox="0 0 192.95 174.51"><defs><style>.cls-1{fill:#ebebeb;}.cls-2{fill:#e0e0e0;}.cls-3{fill:#f5f5f5;}.cls-4{fill:#263238;}.cls-5{fill:#455a64;}.cls-14,.cls-6{fill:#fff;}.cls-7{fill:#109cf1;}.cls-8,.cls-9{opacity:0.3;}.cls-11,.cls-14,.cls-9{isolation:isolate;}.cls-10,.cls-11{opacity:0.5;}.cls-12{fill:#eb996e;}.cls-13,.cls-14{opacity:0.4;}.cls-15{fill:#ffbe9d;}.cls-16{fill:#fafafa;}</style></defs><path class="cls-1" d="M470.16,273.18s-3.09-2.26-7.6,4.86a97,97,0,0,0-6.32,11.23s-1.16,1.47-2.2.4-2.36-4.05-4.3-3.66-2.81,2.43-2.66,5.53.2,9.88.2,10.49-.43,1.46-1.28.81-5.47-6.3-8.17-4-.82,10.81-.63,11.75,0,1.31-.51,1.51-1.84-1.85-3.23-3.41-3.29-3.15-4.74-1.72-2.34,7.69,3.19,18.32l2.9,4.77,5.82.08c12.48-.53,17.81-4.3,18.43-6.19s-1.76-2.7-3.87-3.11-4.66-.55-4.71-1,.19-.86,1.15-1.16,9.75-2.83,10.52-6.18-6.7-4.46-7.67-4.86-.4-1.16.16-1.45,6.85-3.52,9.77-4.89,4.41-3,3.81-4.9-4-1.45-5.45-1.8-.7-2-.7-2a97.24,97.24,0,0,0,7.31-10.69c4.37-7.18.7-8.68.7-8.68" transform="translate(-299.44 -218.32)"/><path class="cls-2" d="M466.11,279.55l-.08.15-.27.45c-.23.4-.58,1-1,1.7-.88,1.48-2.18,3.62-3.8,6.24-3.23,5.27-7.76,12.49-12.79,20.46s-9.57,15.19-12.83,20.43l-3.83,6.22-1.05,1.68-.28.44a1.5,1.5,0,0,1-.1.15l.08-.16.26-.44,1-1.71c.88-1.48,2.18-3.61,3.8-6.24,3.23-5.26,7.76-12.49,12.79-20.46s9.57-15.19,12.83-20.43l3.84-6.21,1-1.69.28-.43C466.07,279.57,466.11,279.55,466.11,279.55Z" transform="translate(-299.44 -218.32)"/><path class="cls-2" d="M451.41,290.21a2.4,2.4,0,0,1,.12.38c.06.25.15.61.24,1.06.2.9.43,2.14.67,3.52s.43,2.59.6,3.53c.07.43.13.78.18,1.07a1.83,1.83,0,0,1,0,.4,2.4,2.4,0,0,1-.12-.38c-.06-.24-.15-.61-.24-1.06-.19-.89-.41-2.14-.65-3.52s-.45-2.58-.61-3.52c-.08-.41-.14-.78-.19-1.07A1.84,1.84,0,0,1,451.41,290.21Z" transform="translate(-299.44 -218.32)"/><path class="cls-2" d="M453.79,300.3c0-.05,2.68-.63,6-1.29s6-1.17,6-1.13-2.67.63-6,1.29S453.81,300.34,453.79,300.3Z" transform="translate(-299.44 -218.32)"/><path class="cls-2" d="M445.5,312.21a1.48,1.48,0,0,1,.42,0l1.16.08c1,.06,2.34.15,3.84.2s2.85.05,3.83,0h1.17a1.48,1.48,0,0,1,.42,0,2,2,0,0,1-.42.05c-.28,0-.68,0-1.17.06-1,0-2.34.06-3.83,0s-2.86-.16-3.84-.25l-1.16-.14A1.93,1.93,0,0,1,445.5,312.21Z" transform="translate(-299.44 -218.32)"/><path class="cls-2" d="M441.22,303.53a1.38,1.38,0,0,1,.2.33c.13.25.3.55.5.91.42.77,1,1.83,1.57,3s1.14,2.26,1.52,3c.17.36.32.67.42.93a1.17,1.17,0,0,1,.14.35,1.55,1.55,0,0,1-.2-.32l-.49-.91c-.43-.77-1-1.84-1.57-3s-1.15-2.26-1.53-3l-.42-.93A1.58,1.58,0,0,1,441.22,303.53Z" transform="translate(-299.44 -218.32)"/><path class="cls-2" d="M432.49,313.16a2.8,2.8,0,0,1,.25.41l.64,1.16c.53,1,1.25,2.35,2,3.86s1.5,2.88,2,3.88l.59,1.19a2.44,2.44,0,0,1,.19.44,3.42,3.42,0,0,1-.26-.4l-.63-1.16c-.54-1-1.26-2.35-2.05-3.86s-1.49-2.89-2-3.89l-.59-1.18A1.79,1.79,0,0,1,432.49,313.16Z" transform="translate(-299.44 -218.32)"/><path class="cls-2" d="M438.14,323.81h.54l1.48.06c1.24.05,3,.1,4.87.11s3.62,0,4.86-.05l1.48,0h.54a2.35,2.35,0,0,1-.54.06l-1.47.09c-1.25.06-3,.12-4.87.1s-3.63-.08-4.88-.16l-1.47-.1A3.33,3.33,0,0,1,438.14,323.81Z" transform="translate(-299.44 -218.32)"/><path class="cls-2" d="M315.46,286.75H313l.59,103.47h2.45Z" transform="translate(-299.44 -218.32)"/><path class="cls-2" d="M321.32,286.72h-2.45l.59,103.47h2.45Z" transform="translate(-299.44 -218.32)"/><path class="cls-2" d="M372.59,286.45l-2.45,0,.59,103.47,2.45,0Z" transform="translate(-299.44 -218.32)"/><path class="cls-2" d="M378.46,286.42H376l.59,103.48,2.45,0Z" transform="translate(-299.44 -218.32)"/><path class="cls-2" d="M378.46,286.42l-65.45.34v2.36l65.45-.34Z" transform="translate(-299.44 -218.32)"/><path class="cls-2" d="M378.58,307.66l-65.45.34v.7l65.45-.33Z" transform="translate(-299.44 -218.32)"/><path class="cls-2" d="M378.69,327.69l-65.45.34v.7l65.46-.33Z" transform="translate(-299.44 -218.32)"/><path class="cls-2" d="M378.81,347.71l-65.46.34v.7l65.45-.33Z" transform="translate(-299.44 -218.32)"/><path class="cls-2" d="M378.92,367.73l-65.45.34v.71l65.45-.34Z" transform="translate(-299.44 -218.32)"/><path class="cls-1" d="M352.24,355.92l-11.59.11.12,11.69,11.59-.11Z" transform="translate(-299.44 -218.32)"/><path class="cls-3" d="M363.11,356.13l-11.6.06.07,11.69,11.59-.06Z" transform="translate(-299.44 -218.32)"/><path class="cls-2" d="M340,359.45c7.7.07,15.43,0,23.14-.1l.06,0a.08.08,0,0,0,0-.12.07.07,0,0,0-.06,0c-7.71,0-15.44,0-23.14.12a.05.05,0,0,0-.05,0s0,0,0,.05,0,0,0,.05Z" transform="translate(-299.44 -218.32)"/><path class="cls-1" d="M348.67,311.94l-8.49.09.09,8.55,8.49-.08Z" transform="translate(-299.44 -218.32)"/><path class="cls-3" d="M357.12,311.86l-8.49.09.09,8.55,8.5-.08Z" transform="translate(-299.44 -218.32)"/><path class="cls-2" d="M339.73,314.61c5.65.05,11.29,0,16.95-.07a.05.05,0,0,0,.05,0,.14.14,0,0,0,0-.06.08.08,0,0,0,0-.05.05.05,0,0,0-.05,0c-5.64,0-11.3,0-16.95.1l-.05,0s0,0,0,.05,0,0,0,0S339.71,314.61,339.73,314.61Z" transform="translate(-299.44 -218.32)"/><path class="cls-1" d="M350.36,320.36l-15.43.14.07,7,15.43-.15Z" transform="translate(-299.44 -218.32)"/><path class="cls-3" d="M365.71,320.21l-15.43.14.08,7,15.43-.15Z" transform="translate(-299.44 -218.32)"/><path class="cls-2" d="M334.43,322.64c10.23.11,20.54,0,30.79-.14l0,0a.14.14,0,0,0,0-.06.08.08,0,0,0,0-.05.1.1,0,0,0,0,0c-10.25,0-20.54,0-30.79.17a.05.05,0,0,0-.05,0s0,0,0,.05,0,0,0,.05Z" transform="translate(-299.44 -218.32)"/><path class="cls-1" d="M338.72,293.55l-3.87,0,.08,14.36,3.87,0Z" transform="translate(-299.44 -218.32)"/><path class="cls-2" d="M334.79,297.45l-3.87,0,.06,10.44,3.87,0Z" transform="translate(-299.44 -218.32)"/><path class="cls-2" d="M344.81,296.21l-6,0,.07,11.64,6,0Z" transform="translate(-299.44 -218.32)"/><path class="cls-1" d="M347,296l-1.92,0,.12,11.63,1.92,0Z" transform="translate(-299.44 -218.32)"/><path class="cls-2" d="M348.56,298.88h-1.92l.06,8.94h1.91Z" transform="translate(-299.44 -218.32)"/><path class="cls-2" d="M337.91,335.59l-3.59-1.39L329,346.65l3.58,1.4Z" transform="translate(-299.44 -218.32)"/><path class="cls-1" d="M341.26,333.63l-3.87,0,.08,14.36,3.87,0Z" transform="translate(-299.44 -218.32)"/><path class="cls-2" d="M349.29,336.28l-6,0,.07,11.63,6,0Z" transform="translate(-299.44 -218.32)"/><path class="cls-1" d="M343.24,332h-1.32L342,348h1.32Z" transform="translate(-299.44 -218.32)"/><path class="cls-3" d="M341.93,334.5h-.65l.07,13.46H342Z" transform="translate(-299.44 -218.32)"/><path class="cls-3" d="M349.4,347.32V348l14.16-.07v-.63Z" transform="translate(-299.44 -218.32)"/><path class="cls-1" d="M364.77,343.52l-15.44.08,0,3.72,15.44-.08Z" transform="translate(-299.44 -218.32)"/><path class="cls-2" d="M362.31,339.47l-12.41.12,0,3.72,12.41-.12Z" transform="translate(-299.44 -218.32)"/><path class="cls-2" d="M395,234.19c.55-2.47.22-5.28.25-7.8s.37-5.34-.11-7.82a.38.38,0,0,0-.13-.18.41.41,0,0,0-.22-.07.39.39,0,0,0-.35.25c-.47,2.49-.19,5.29-.22,7.82s-.42,5.33.13,7.8a.3.3,0,0,0,.12.17.37.37,0,0,0,.21.06.36.36,0,0,0,.2-.06A.3.3,0,0,0,395,234.19Z" transform="translate(-299.44 -218.32)"/><path class="cls-3" d="M371.55,253.81h46.94s-4.33-19.7-23.82-19.7C377.33,234.11,371.55,253.81,371.55,253.81Z" transform="translate(-299.44 -218.32)"/><path class="cls-4" d="M492.39,390.25c0,.06-43.19.11-96.47.11s-96.48-.05-96.48-.11,43.19-.1,96.48-.1S492.39,390.19,492.39,390.25Z" transform="translate(-299.44 -218.32)"/><path class="cls-5" d="M430.09,272.84H360a4.8,4.8,0,0,0-4.92,4.67V385.44a4.81,4.81,0,0,0,4.92,4.68h70.14a4.81,4.81,0,0,0,4.92-4.68V277.51A4.8,4.8,0,0,0,430.09,272.84Z" transform="translate(-299.44 -218.32)"/><path class="cls-4" d="M397.47,384.66a2.87,2.87,0,0,1-.62,1.57,3.12,3.12,0,0,1-1.43,1,3.16,3.16,0,0,1-1.75.08,3.07,3.07,0,0,1-1.52-.85,2.8,2.8,0,0,1-.57-3.15,2.94,2.94,0,0,1,1.14-1.28,3.19,3.19,0,0,1,1.68-.48,3.3,3.3,0,0,1,2.22,1A2.93,2.93,0,0,1,397.47,384.66Z" transform="translate(-299.44 -218.32)"/><path class="cls-4" d="M406.54,276.21H383.49a.51.51,0,0,0-.52.5v.3a.51.51,0,0,0,.52.5h23.05a.51.51,0,0,0,.52-.5v-.3A.51.51,0,0,0,406.54,276.21Z" transform="translate(-299.44 -218.32)"/><path class="cls-4" d="M432.69,279.57H357.76v98.95h74.93Z" transform="translate(-299.44 -218.32)"/><path class="cls-6" d="M413.24,368.3l.28,0a7.6,7.6,0,0,0,.8-.1,5.92,5.92,0,0,0,1.23-.41,5.31,5.31,0,0,0,1.46-1,5.07,5.07,0,0,0,1.22-1.76,5.26,5.26,0,0,0,.34-2.48,4.92,4.92,0,0,0-1.21-2.8,5.39,5.39,0,0,0-2.68-1.65,6.49,6.49,0,0,0-.88-.16c-.31,0-.62,0-.94,0h-36a5.76,5.76,0,0,0-2.58.64,5.19,5.19,0,0,0-1.9,1.73,4.89,4.89,0,0,0-.79,2.39,5.07,5.07,0,0,0,.39,2.43,5.24,5.24,0,0,0,1.48,1.93,5.56,5.56,0,0,0,2.21,1,11.17,11.17,0,0,0,2.45.15h2.42l17,0,11.48,0,3.12,0H409l-11.48,0-17,0h-3.67a3.44,3.44,0,0,1-.64,0,6.17,6.17,0,0,1-.62-.1,5.63,5.63,0,0,1-2.3-1.09,5.32,5.32,0,0,1-1.55-2,5.24,5.24,0,0,1-.41-2.5,5,5,0,0,1,.83-2.43,5.39,5.39,0,0,1,2-1.8,5.81,5.81,0,0,1,2.69-.66h36c.31,0,.63,0,.95,0a7,7,0,0,1,.91.18,5.48,5.48,0,0,1,2.75,1.72,5.07,5.07,0,0,1,1.21,2.92,5.19,5.19,0,0,1-.37,2.52,5,5,0,0,1-1.25,1.78,5.14,5.14,0,0,1-1.49,1,6,6,0,0,1-1.26.4,5.29,5.29,0,0,1-.8.08Z" transform="translate(-299.44 -218.32)"/><path class="cls-6" d="M389.38,362.4l-.27.31a.86.86,0,0,0-.33-.23,1.16,1.16,0,0,0-.79,0,.84.84,0,0,0-.33.19.73.73,0,0,0-.22.3.85.85,0,0,0-.08.35.86.86,0,0,0,.08.36.81.81,0,0,0,.22.3,1,1,0,0,0,.33.19,1,1,0,0,0,.38.05,1.05,1.05,0,0,0,.74-.3l.27.28a1.53,1.53,0,0,1-1,.41,1.42,1.42,0,0,1-.54-.08,1.47,1.47,0,0,1-.47-.27,1.31,1.31,0,0,1-.31-.43,1.24,1.24,0,0,1,0-1,1.31,1.31,0,0,1,.31-.43,1.47,1.47,0,0,1,.47-.27,1.42,1.42,0,0,1,.54-.08A1.53,1.53,0,0,1,389.38,362.4Z" transform="translate(-299.44 -218.32)"/><path class="cls-6" d="M392.39,363.29a1.24,1.24,0,0,1-.2.77,1.4,1.4,0,0,1-.63.52,1.45,1.45,0,0,1-.82.11,1.5,1.5,0,0,1-.75-.36,1.3,1.3,0,0,1-.34-1.48,1.4,1.4,0,0,1,.52-.61,1.44,1.44,0,0,1,.8-.24,1.43,1.43,0,0,1,.54.09,1.33,1.33,0,0,1,.46.27,1.27,1.27,0,0,1,.31.42A1.3,1.3,0,0,1,392.39,363.29Zm-2.38,0a.88.88,0,0,0,.28.64,1,1,0,0,0,.68.27,1.06,1.06,0,0,0,.53-.16.92.92,0,0,0,.35-.41.93.93,0,0,0,0-.52.9.9,0,0,0-.27-.47,1,1,0,0,0-.49-.24,1,1,0,0,0-.55.05.94.94,0,0,0-.42.34A.83.83,0,0,0,390,363.29Z" transform="translate(-299.44 -218.32)"/><path class="cls-6" d="M394.78,364.57l-1.43-1.83v1.83h-.45V362h.42l1.44,1.84V362h.43v2.56Z" transform="translate(-299.44 -218.32)"/><path class="cls-6" d="M396.39,362.4v.74h1.22v.38h-1.22v1.05h-.46V362h1.81v.39Z" transform="translate(-299.44 -218.32)"/><path class="cls-6" d="M398.14,364.57V362h.45v2.56Z" transform="translate(-299.44 -218.32)"/><path class="cls-6" d="M400.49,363.78h-.76v.77h-.43V362h1.09c.68,0,1.08.31,1.08.87a.78.78,0,0,1-.14.49.8.8,0,0,1-.42.32l.61.85H401Zm-.12-.38c.42,0,.65-.17.65-.51s-.23-.5-.65-.5h-.64v1Z" transform="translate(-299.44 -218.32)"/><path class="cls-6" d="M404.49,364.57v-1.91l-.85,1.62h-.3l-.85-1.62v1.91h-.43V362h.56l.89,1.7.88-1.7h.54v2.56Z" transform="translate(-299.44 -218.32)"/><path class="cls-7" d="M366.27,314.06l56.76-.39,1.58,36.66-58.77-.52Z" transform="translate(-299.44 -218.32)"/><path class="cls-7" d="M366.27,314.06l28.81-22.15L423,313.67" transform="translate(-299.44 -218.32)"/><g class="cls-8"><path class="cls-9" d="M366.27,314.06l28.81-22.15L423,313.67" transform="translate(-299.44 -218.32)"/></g><path class="cls-4" d="M365.84,349.81c-.07-.06,4.47-4.77,10.15-10.53s10.33-10.36,10.4-10.29-4.47,4.77-10.15,10.53S365.91,349.88,365.84,349.81Z" transform="translate(-299.44 -218.32)"/><path class="cls-4" d="M424.61,350.33c-.07.06-4.5-4.55-9.88-10.31s-9.69-10.48-9.62-10.53,4.5,4.55,9.88,10.31S424.68,350.27,424.61,350.33Z" transform="translate(-299.44 -218.32)"/><g class="cls-10"><path class="cls-11" d="M423,313.67l-28.5,21.63-28.26-21.24" transform="translate(-299.44 -218.32)"/></g><path class="cls-1" d="M369.13,316.06,369,300.38l49.72-1.16.54,17.16L394.53,335Z" transform="translate(-299.44 -218.32)"/><path class="cls-7" d="M395.22,329.38a12.88,12.88,0,0,1-5.06-1,12.27,12.27,0,0,1-4.18-2.9,11.5,11.5,0,0,1-2.57-4.27,11.12,11.12,0,0,1-.5-4.89,11.55,11.55,0,0,1,4.58-7.87,12.84,12.84,0,0,1,9.1-2.48,12.58,12.58,0,0,1,8.28,4.35,11.36,11.36,0,0,1,2.61,8.65,11.52,11.52,0,0,1-4,7.43A12.7,12.7,0,0,1,395.22,329.38Zm0-23.08a12.36,12.36,0,0,0-6.48,1.83,11.56,11.56,0,0,0-4.4,4.88,10.77,10.77,0,0,0-.89,6.37,11,11,0,0,0,2.89,5.81,12,12,0,0,0,5.75,3.39,12.62,12.62,0,0,0,6.76-.13,12,12,0,0,0,5.61-3.61,10.87,10.87,0,0,0,2.25-10.33,11.28,11.28,0,0,0-2.13-3.94,11.91,11.91,0,0,0-3.56-2.85,12.32,12.32,0,0,0-4.44-1.35,10.24,10.24,0,0,0-1.36-.09Z" transform="translate(-299.44 -218.32)"/><path class="cls-7" d="M386.79,319.26l2.07-2.4,4.83,3.31,7.86-8.79,2.37,2-10.11,11.06Z" transform="translate(-299.44 -218.32)"/><path class="cls-4" d="M448.7,335.17a.52.52,0,0,0,.11.19.5.5,0,0,0,.19.13.61.61,0,0,0,.23,0,.52.52,0,0,0,.22-.07.73.73,0,0,0,.29-.36.77.77,0,0,0,.05-.45,2.32,2.32,0,0,0-.38-.83.92.92,0,0,0,.4.11,1,1,0,0,0,.42-.07.89.89,0,0,0,.34-.23.86.86,0,0,0,.2-.36.9.9,0,0,0,0-.4,1,1,0,0,0-.5-.62,1,1,0,0,0-.41-.1,2.61,2.61,0,0,0,1.12-.44,1,1,0,0,0,.33-.48.86.86,0,0,0,0-.57.52.52,0,0,0-.18-.21.66.66,0,0,0-.27-.12.57.57,0,0,0-.29,0,.6.6,0,0,0-.26.14,2,2,0,0,0,.57-.47.55.55,0,0,0,.12-.33.58.58,0,0,0-.09-.34.66.66,0,0,0-.38-.19.68.68,0,0,0-.42.05,6.79,6.79,0,0,0-.75.41,2.05,2.05,0,0,1-2-.07l-1.59,1.25Z" transform="translate(-299.44 -218.32)"/><path class="cls-4" d="M440.2,328.31a2.38,2.38,0,0,0-1.12.74,2.22,2.22,0,0,0-.53,1.19,1.11,1.11,0,0,0,0,.48,1.15,1.15,0,0,0,.21.43,1.22,1.22,0,0,0,.52.29,1.15,1.15,0,0,0,.61,0,2.9,2.9,0,0,0,1.07-.53,2,2,0,0,0,.63-.53,1.94,1.94,0,0,0,.37-.73,1.25,1.25,0,0,0-.21-.77,1.39,1.39,0,0,0-.64-.5,2,2,0,0,0-.83-.12,2,2,0,0,0-.8.21" transform="translate(-299.44 -218.32)"/><path class="cls-4" d="M441.58,335.79a4.73,4.73,0,0,1-.7,1.51,2.08,2.08,0,0,1-.62.56,2.16,2.16,0,0,1-.82.28,1.4,1.4,0,0,1-.83-.17,1.3,1.3,0,0,1-.55-.61,1,1,0,0,1-.26.41,1.07,1.07,0,0,1-.45.23.78.78,0,0,1-.5-.05.73.73,0,0,1-.37-.32.59.59,0,0,1-.05-.47.65.65,0,0,1,.29-.38,1.2,1.2,0,0,1-1.1.18.7.7,0,0,1-.3-.38,1.56,1.56,0,0,1,.53-1.45,3,3,0,0,0,.89-1.33,2.86,2.86,0,0,0-.2-1.26,3,3,0,0,1-.06-1.42,2,2,0,0,1,.3-.66,1.86,1.86,0,0,1,.56-.48,1.35,1.35,0,0,1,.72-.17,1.32,1.32,0,0,1,.69.25l.07.68,2.78,5.05" transform="translate(-299.44 -218.32)"/><path class="cls-12" d="M448.21,343.82s1,10,.16,11.28S437.29,370,437.29,370h0l-.65.25a3.44,3.44,0,0,1-1.11.18,5.49,5.49,0,0,1-1.4-.12c-.42-.14-.78.27-.56.58a3.84,3.84,0,0,0,2.74.58c1.39-.13-.18,1.33-.74,1.87a12.74,12.74,0,0,0-2.16,2.6c.06.44.56.46,1.11-.1s2.29-2.11,2.58-1.82-2.6,3-2.6,3-.71.49-.39.84c.58.63,3.41-2.49,3.68-2.79s.51.09.3.31-2.94,2.66-2.36,3.31,2.36-2.55,3.22-2.75-1.7,2.16-1.25,2.63c.17.17.32.27,1.58-1.3a43.24,43.24,0,0,0,2.75-4.24c1.34-1.38,14.58-15,14.68-17.58s.62-11.77.62-11.77Z" transform="translate(-299.44 -218.32)"/><path class="cls-7" d="M432.43,388.25l-.13-3.71,7.31-.26.24,5.42-.45.05c-2,.17-10.23.76-11.61.42S432.43,388.25,432.43,388.25Z" transform="translate(-299.44 -218.32)"/><g class="cls-13"><path class="cls-14" d="M429.42,389.11s-2.15.67-1.87,1,8.63,0,12.3-.41l0-.15-9.72.43S429.85,389.11,429.42,389.11Z" transform="translate(-299.44 -218.32)"/></g><path class="cls-4" d="M439.94,389.54h-.12l-.36,0-1.33.11c-1.12.07-2.67.16-4.38.23s-3.26.08-4.39.09H428l1.33,0c1.13,0,2.68-.06,4.39-.12s3.26-.14,4.38-.21l1.32-.07h.37Z" transform="translate(-299.44 -218.32)"/><path class="cls-4" d="M430.11,390.1a2.88,2.88,0,0,0-.27-.59,3.05,3.05,0,0,0-.48-.47,1,1,0,0,1,.55.41A.9.9,0,0,1,430.11,390.1Z" transform="translate(-299.44 -218.32)"/><path class="cls-4" d="M432.22,389a1.26,1.26,0,0,1-.24-.26.75.75,0,0,1-.17-.3.9.9,0,0,1,.24.25C432.17,388.81,432.24,389,432.22,389Z" transform="translate(-299.44 -218.32)"/><path class="cls-4" d="M432.8,388.65a1,1,0,0,1-.26-.16c-.13-.1-.22-.19-.21-.21s.14.05.27.15S432.82,388.63,432.8,388.65Z" transform="translate(-299.44 -218.32)"/><path class="cls-4" d="M433.15,388a.82.82,0,0,1-.38.06.21.21,0,0,1-.08.11.28.28,0,0,1-.13,0,.23.23,0,0,1-.12-.06.18.18,0,0,1-.05-.12.17.17,0,0,1,.05-.12.14.14,0,0,1,.12-.06.15.15,0,0,1,.13,0,.15.15,0,0,1,.08.11A1,1,0,0,1,433.15,388Z" transform="translate(-299.44 -218.32)"/><path class="cls-4" d="M433.26,387.51a.78.78,0,0,1-.42.14.88.88,0,0,1-.43,0,3,3,0,0,1,.43-.05A3,3,0,0,1,433.26,387.51Z" transform="translate(-299.44 -218.32)"/><path class="cls-4" d="M432,388.37a1.24,1.24,0,0,1-.47,0,2.74,2.74,0,0,1-.5-.08l-.29-.1a.25.25,0,0,1-.13-.14.17.17,0,0,1,0-.1.16.16,0,0,1,.06-.08.94.94,0,0,1,.57-.09.85.85,0,0,1,.5.29.77.77,0,0,1,.17.29.24.24,0,0,1,0,.12,1.43,1.43,0,0,0-.23-.37.92.92,0,0,0-.43-.24.88.88,0,0,0-.28,0,.9.9,0,0,0-.28.08c-.07.06,0,.14.05.18a1.17,1.17,0,0,0,.26.1,2.84,2.84,0,0,0,.49.1C431.77,388.36,432,388.36,432,388.37Z" transform="translate(-299.44 -218.32)"/><path class="cls-4" d="M431.83,388.4a.43.43,0,0,1-.07-.31.66.66,0,0,1,.12-.33.41.41,0,0,1,.15-.17.48.48,0,0,1,.23-.07.19.19,0,0,1,.12.07.14.14,0,0,1,0,.13.37.37,0,0,1-.07.2,1.86,1.86,0,0,1-.21.28.71.71,0,0,1-.26.19s.09-.09.21-.23a2.22,2.22,0,0,0,.19-.27c.06-.1.09-.27,0-.29s-.23.11-.3.2a.67.67,0,0,0-.13.3C431.82,388.2,431.82,388.3,431.83,388.4Z" transform="translate(-299.44 -218.32)"/><path class="cls-4" d="M439.71,387.64a4.89,4.89,0,0,0-.53,0,2.35,2.35,0,0,0-1.16.51,2.21,2.21,0,0,0-.7,1c-.1.3-.1.5-.12.5v-.14a1.69,1.69,0,0,1,.07-.38,2.09,2.09,0,0,1,.7-1.06,2.29,2.29,0,0,1,1.2-.5h.4Z" transform="translate(-299.44 -218.32)"/><path class="cls-4" d="M438.85,384.78a13.79,13.79,0,0,1,.12,1.43,11.34,11.34,0,0,1,0,1.43,11.49,11.49,0,0,1-.12-1.43A8.52,8.52,0,0,1,438.85,384.78Z" transform="translate(-299.44 -218.32)"/><path class="cls-4" d="M436.25,389.1a4.74,4.74,0,0,1-1.06.14,4.89,4.89,0,0,1-1.08-.05s.48,0,1.07,0A7.45,7.45,0,0,1,436.25,389.1Z" transform="translate(-299.44 -218.32)"/><path class="cls-4" d="M437.68,389l-.08.21c0,.1-.07.2-.09.2s-.05-.11,0-.24S437.65,389,437.68,389Z" transform="translate(-299.44 -218.32)"/><path class="cls-4" d="M438.19,388.38a.38.38,0,0,1-.1.17c-.07.08-.14.13-.16.11s0-.09.1-.17S438.18,388.37,438.19,388.38Z" transform="translate(-299.44 -218.32)"/><path class="cls-4" d="M439,388.08s-.1,0-.2.07a1.42,1.42,0,0,1-.2.08s0-.12.17-.17S439,388,439,388.08Z" transform="translate(-299.44 -218.32)"/><path class="cls-4" d="M439.5,387.91s0,.06-.09.08-.12,0-.13,0,0-.06.09-.08S439.49,387.89,439.5,387.91Z" transform="translate(-299.44 -218.32)"/><g class="cls-8"><path class="cls-9" d="M439.7,387.46l-7.3.15,0-.84,7.37.25Z" transform="translate(-299.44 -218.32)"/></g><path class="cls-4" d="M459.93,363.11l-23.1-.3s-6.43.56-6.43,8.52l.82,15.66h9.84l-.67-15c.55,0,8,.23,8,.23Z" transform="translate(-299.44 -218.32)"/><path class="cls-5" d="M431.22,387a1.24,1.24,0,0,1,0-.27c0-.2,0-.46-.05-.78l-.17-2.86c-.15-2.43-.43-5.75-.63-9.44a31.34,31.34,0,0,1,0-5.22,6.56,6.56,0,0,1,.25-1.15,5.63,5.63,0,0,1,.47-1,6.14,6.14,0,0,1,1.34-1.54,7.18,7.18,0,0,1,1.45-.9,7.68,7.68,0,0,1,1.23-.4l.46-.11.34-.05a1.43,1.43,0,0,1,.29,0,1.28,1.28,0,0,1-.28.07l-.34.07-.45.12a8.1,8.1,0,0,0-1.19.45,6.94,6.94,0,0,0-1.41.91,6,6,0,0,0-1.28,1.51,5.87,5.87,0,0,0-.42,1,7.33,7.33,0,0,0-.24,1.13,32,32,0,0,0,0,5.18c.19,3.68.46,7,.57,9.44.06,1.21.09,2.18.1,2.86v.78A1.13,1.13,0,0,1,431.22,387Z" transform="translate(-299.44 -218.32)"/><path class="cls-7" d="M475.3,388.25l-3.9.25-.5-6.93,5.69-.4.06.4c.26,1.91,1.17,9.72.85,11C477.14,394,475.3,388.25,475.3,388.25Z" transform="translate(-299.44 -218.32)"/><g class="cls-13"><path class="cls-14" d="M476.31,391.07s.78,2,1.12,1.74-.27-8.19-.85-11.65h-.16l.79,9.22S476.29,390.67,476.31,391.07Z" transform="translate(-299.44 -218.32)"/></g><path class="cls-4" d="M476.39,381.07a.53.53,0,0,1,0,.12c0,.1,0,.21,0,.34.05.34.1.76.16,1.25.12,1.06.27,2.53.39,4.15s.21,3.1.26,4.17c0,.49,0,.92,0,1.26v.34a2.12,2.12,0,0,0,0-.34c0-.34-.05-.76-.08-1.26-.06-1.07-.14-2.54-.27-4.16s-.27-3.09-.37-4.15c-.05-.5-.09-.92-.13-1.26a3.07,3.07,0,0,0,0-.34C476.4,381.08,476.39,381.07,476.39,381.07Z" transform="translate(-299.44 -218.32)"/><path class="cls-4" d="M477.31,390.39a3.33,3.33,0,0,0-.61.27,3.05,3.05,0,0,0-.48.47.94.94,0,0,1,.43-.53A1,1,0,0,1,477.31,390.39Z" transform="translate(-299.44 -218.32)"/><path class="cls-4" d="M476.06,388.42a1,1,0,0,1-.26.24c-.15.11-.3.19-.32.17s.11-.13.27-.24A.79.79,0,0,1,476.06,388.42Z" transform="translate(-299.44 -218.32)"/><path class="cls-4" d="M475.71,387.88a1.16,1.16,0,0,1-.15.26c-.11.13-.21.22-.23.2a.61.61,0,0,1,.16-.26C475.59,388,475.69,387.87,475.71,387.88Z" transform="translate(-299.44 -218.32)"/><path class="cls-4" d="M475,387.57s.06.16.08.36a.77.77,0,0,1,0,.37s-.06-.16-.08-.36A1,1,0,0,1,475,387.57Z" transform="translate(-299.44 -218.32)"/><path class="cls-4" d="M474.5,387.49a.64.64,0,0,1,.15.4.81.81,0,0,1,0,.41,1.45,1.45,0,0,1-.06-.41A1.87,1.87,0,0,1,474.5,387.49Z" transform="translate(-299.44 -218.32)"/><path class="cls-4" d="M475.44,388.7a1.08,1.08,0,0,1,0,.44,2.53,2.53,0,0,1-.08.48,1.31,1.31,0,0,1-.09.28.24.24,0,0,1-.14.12h-.1A.15.15,0,0,1,475,390a.69.69,0,0,1-.11-.54.82.82,0,0,1,.28-.49.87.87,0,0,1,.3-.16.19.19,0,0,1,.13,0,1.09,1.09,0,0,0-.39.23.9.9,0,0,0-.23.4.74.74,0,0,0,.08.53c.06.07.15,0,.19-.05a1.25,1.25,0,0,0,.09-.25,2,2,0,0,0,.09-.47C475.44,388.89,475.43,388.7,475.44,388.7Z" transform="translate(-299.44 -218.32)"/><path class="cls-4" d="M475.48,388.81a.54.54,0,0,1-.33.08.88.88,0,0,1-.35-.1.43.43,0,0,1-.18-.15.49.49,0,0,1-.08-.21.15.15,0,0,1,.07-.11.2.2,0,0,1,.13,0,.79.79,0,0,1,.22.06,1.53,1.53,0,0,1,.3.19.79.79,0,0,1,.21.24,2.8,2.8,0,0,0-.25-.19,2.14,2.14,0,0,0-.3-.17c-.1-.05-.28-.08-.29,0s.12.22.22.28a.82.82,0,0,0,.31.11A1.72,1.72,0,0,0,475.48,388.81Z" transform="translate(-299.44 -218.32)"/><path class="cls-4" d="M474.41,381.35a3,3,0,0,0,.06.51,2.18,2.18,0,0,0,.57,1.08,2.34,2.34,0,0,0,1.09.63,4.94,4.94,0,0,0,.53.09h-.15a1.83,1.83,0,0,1-.4-.05A2.22,2.22,0,0,1,475,383a2,2,0,0,1-.57-1.13,1.21,1.21,0,0,1,0-.38A.28.28,0,0,1,474.41,381.35Z" transform="translate(-299.44 -218.32)"/><path class="cls-4" d="M471.43,382.28a12.34,12.34,0,0,1,1.49-.16,10.77,10.77,0,0,1,1.5-.08,14.75,14.75,0,0,1-1.49.16C472.43,382.25,471.93,382.28,471.43,382.28Z" transform="translate(-299.44 -218.32)"/><path class="cls-4" d="M476.06,384.59a3.83,3.83,0,0,1,.18,1,3.49,3.49,0,0,1,0,1s0-.45-.08-1S476,384.6,476.06,384.59Z" transform="translate(-299.44 -218.32)"/><path class="cls-4" d="M476,383.22l.22.07c.11,0,.21,0,.21.08s-.11,0-.24,0S475.93,383.25,476,383.22Z" transform="translate(-299.44 -218.32)"/><path class="cls-4" d="M475.24,382.77a.44.44,0,0,1,.18.09c.08.06.14.13.12.15s-.1,0-.18-.09S475.23,382.79,475.24,382.77Z" transform="translate(-299.44 -218.32)"/><path class="cls-4" d="M474.88,382.06s0,.09.07.19.12.17.1.19-.12,0-.18-.15S474.86,382.06,474.88,382.06Z" transform="translate(-299.44 -218.32)"/><path class="cls-4" d="M474.69,381.55a.14.14,0,0,1,.09.08c0,.06,0,.11,0,.12s-.06,0-.09-.08S474.67,381.56,474.69,381.55Z" transform="translate(-299.44 -218.32)"/><g class="cls-8"><path class="cls-9" d="M474.21,381.37l.42,6.93-.88.05v-7Z" transform="translate(-299.44 -218.32)"/></g><path class="cls-4" d="M451.42,381.4s19.68-10.21,21.91-13.53a7,7,0,0,0,1.19-3.24,6.84,6.84,0,0,0-.54-3.4l-16.56,2.1-11.77,11.21c-2.56,1.93-7.2,6-7.2,9.94,0,6.82,9.28,5.7,15.93,5.72l19.31.06,0-9.29Z" transform="translate(-299.44 -218.32)"/><path class="cls-5" d="M446.74,383.35a18.5,18.5,0,0,0,2.42-.91,17.81,17.81,0,0,0,2.35-1.07,18.5,18.5,0,0,0-2.42.91A17.81,17.81,0,0,0,446.74,383.35Z" transform="translate(-299.44 -218.32)"/><path class="cls-5" d="M448.3,381.07a8.23,8.23,0,0,0,1.71.14,8.33,8.33,0,0,0,1.73,0A8.12,8.12,0,0,0,450,381,8.36,8.36,0,0,0,448.3,381.07Z" transform="translate(-299.44 -218.32)"/><path class="cls-5" d="M456.13,364.91l-.19.19-.56.53-2.09,1.91-7,6.26c-1.36,1.22-2.68,2.36-3.84,3.44a17.93,17.93,0,0,0-2.71,3.14,8.44,8.44,0,0,0-1.12,2.51l-.1.41a2.36,2.36,0,0,1,0,.31,2,2,0,0,1,0,.26,1.13,1.13,0,0,1,0-.26,1.89,1.89,0,0,1,0-.32c0-.12.05-.27.08-.43a7.84,7.84,0,0,1,1.07-2.57,16.79,16.79,0,0,1,2.7-3.2c1.14-1.1,2.46-2.24,3.83-3.46l7-6.21,2.13-1.86.59-.5A1.14,1.14,0,0,1,456.13,364.91Z" transform="translate(-299.44 -218.32)"/><path class="cls-15" d="M450.22,344.62a3.73,3.73,0,0,1-1.35.38,3.65,3.65,0,0,1-1.39-.18,3.4,3.4,0,0,1-1.19-.7,3.19,3.19,0,0,1-.79-1.1l-.75-1.74a3.29,3.29,0,0,1-3.84-1.35c-.72-1.25-1.75-3.37-2.51-5a4.15,4.15,0,0,1,.43-4.2c2.08-2.49,3.74-2.08,7.05-1.57l.49.08,5.34,11.24a3.07,3.07,0,0,1,.11,2.34A3.26,3.26,0,0,1,450.22,344.62Z" transform="translate(-299.44 -218.32)"/><path class="cls-4" d="M440,336a.41.41,0,0,0,0-.22.36.36,0,0,0-.12-.18.4.4,0,0,0-.2-.09.45.45,0,0,0-.23,0,.36.36,0,0,0-.16.14.42.42,0,0,0-.06.21.5.5,0,0,0,.08.2.38.38,0,0,0,.18.13l.15,0a.42.42,0,0,0,.15,0l.12-.08Z" transform="translate(-299.44 -218.32)"/><path class="cls-4" d="M439,335.66c.06,0,.19-.26.51-.43s.65-.13.66-.19-.06-.07-.21-.09a.87.87,0,0,0-.55.1.89.89,0,0,0-.39.4C438.93,335.57,439,335.66,439,335.66Z" transform="translate(-299.44 -218.32)"/><path class="cls-4" d="M442.83,334.22a.3.3,0,0,0-.05.21.32.32,0,0,0,.08.2.32.32,0,0,0,.18.12.36.36,0,0,0,.23,0,.45.45,0,0,0,.19-.11.4.4,0,0,0,.09-.2.32.32,0,0,0,0-.21.38.38,0,0,0-.15-.16.33.33,0,0,0-.14,0,.26.26,0,0,0-.15,0,.35.35,0,0,0-.14.06A.52.52,0,0,0,442.83,334.22Z" transform="translate(-299.44 -218.32)"/><path class="cls-4" d="M442.51,334.15c.06,0,.19-.27.51-.44s.65-.13.66-.18-.06-.08-.21-.1a.87.87,0,0,0-.55.1.84.84,0,0,0-.39.4C442.47,334.05,442.48,334.14,442.51,334.15Z" transform="translate(-299.44 -218.32)"/><path class="cls-4" d="M442.76,337.4a1.67,1.67,0,0,0-.58.16c-.09,0-.16.05-.19,0a.5.5,0,0,1-.08-.26l-.09-.75a9.7,9.7,0,0,0-.38-1.93,9.07,9.07,0,0,0,.17,1.95q.06.39.12.75a.54.54,0,0,0,.14.36.19.19,0,0,0,.1.05h.11l.16-.05C442.59,337.53,442.79,337.42,442.76,337.4Z" transform="translate(-299.44 -218.32)"/><path class="cls-12" d="M444.73,341.26a6.13,6.13,0,0,0,2.59-2.4,3.13,3.13,0,0,1-2.27,3Z" transform="translate(-299.44 -218.32)"/><path class="cls-15" d="M447.42,331.74s1.88-1.07,2.42.83c.48,1.65-1.49,1.94-1.51,1.88S447.42,331.74,447.42,331.74Z" transform="translate(-299.44 -218.32)"/><path class="cls-12" d="M448.68,333.49h.1a.32.32,0,0,0,.21-.08.58.58,0,0,0,.15-.35.67.67,0,0,0-.05-.37,1,1,0,0,0-.24-.37.32.32,0,0,0-.13-.1.45.45,0,0,0-.16,0,.18.18,0,0,0-.1,0,.41.41,0,0,0,0,.09v.09s0,0-.05-.08a.16.16,0,0,1,0-.12.25.25,0,0,1,.15-.1.42.42,0,0,1,.22,0,.36.36,0,0,1,.18.12,1,1,0,0,1,.26.4.71.71,0,0,1,.05.43.78.78,0,0,1-.2.38.35.35,0,0,1-.14.06.23.23,0,0,1-.14,0C448.7,333.53,448.68,333.49,448.68,333.49Z" transform="translate(-299.44 -218.32)"/><path class="cls-7" d="M446.57,344.34s4.58-7.29,11.67-1.15a178,178,0,0,1,14.86,15.52c.6.72,1.55,1.83.89,2.51-2,2.07-7.53,6.72-17.72,3.24l-9.67-12.78a6.08,6.08,0,0,1,0-7.33Z" transform="translate(-299.44 -218.32)"/><path class="cls-7" d="M452.44,340.87l-1.29-2-6.6,5,1.23,1.89Z" transform="translate(-299.44 -218.32)"/><g class="cls-8"><path class="cls-9" d="M452.16,341.13s-5.19,4.27-5.27,4.2-2.07-1.45-2.07-1.45l1.83,1Z" transform="translate(-299.44 -218.32)"/></g><path class="cls-4" d="M452.5,340.85a1.29,1.29,0,0,0-.33.17c-.21.12-.5.3-.86.54-.71.46-1.67,1.14-2.73,1.88-.72.51-1.4,1-2,1.36h.09l-1.5-.76a3.79,3.79,0,0,0-.58-.26,2.47,2.47,0,0,0,.54.34l1.46.81,0,0,0,0c.6-.38,1.28-.83,2-1.34l2.7-1.93.82-.58A1.63,1.63,0,0,0,452.5,340.85Z" transform="translate(-299.44 -218.32)"/><path class="cls-15" d="M424.33,360l-1.26-.48a11.57,11.57,0,0,1-2.13-.78,3,3,0,0,1-.91-.62,4.42,4.42,0,0,1-.89-1,.41.41,0,0,0-.16-.21.43.43,0,0,0-.27-.08.44.44,0,0,0-.26.1.37.37,0,0,0-.14.22,3.47,3.47,0,0,0,1.48,2.26c1,.85-1.12.81-1.92.81a13.81,13.81,0,0,0-3.47.35c-.29.34.05.7.85.68s3.2.08,3.18.48-4.09.35-4.09.35-.85-.14-.9.32c-.07.84,4.26.58,4.68.54s.29.41,0,.43-4-.13-4.13.72c-.06.65,3.56-.18,4.32.25s-2.82.37-2.85,1c0,.23,0,.4,2.08.16s7.71-1.8,7.71-1.8l-.94-3.73" transform="translate(-299.44 -218.32)"/><path class="cls-15" d="M448.81,346.89s-6.74,8.82-8.3,9.17S421.58,359,421.58,359l.85,5.38s21.56-.57,23.65-2.38,8.4-11,8.4-11Z" transform="translate(-299.44 -218.32)"/><path class="cls-12" d="M444.07,361.84a.4.4,0,0,0,.18.15,1.08,1.08,0,0,0,.64.13,1,1,0,0,0,.47-.15,1.11,1.11,0,0,0,.36-.32,1.05,1.05,0,0,0,0-1.13.85.85,0,0,0-1.1-.36.83.83,0,0,0-.21.16,1,1,0,0,0-.12.23.69.69,0,0,0,0,.25.5.5,0,0,0,.09.23.54.54,0,0,0,.28.19.5.5,0,0,0,.34,0c.15-.06.19-.15.18-.15a1.68,1.68,0,0,1-.2.08.49.49,0,0,1-.27,0,.52.52,0,0,1-.22-.16.41.41,0,0,1,0-.19.37.37,0,0,1,0-.18.56.56,0,0,1,.09-.17.61.61,0,0,1,.16-.12.69.69,0,0,1,.47,0,.8.8,0,0,1,.39.31.94.94,0,0,1,0,.88,1.08,1.08,0,0,1-.3.34,1.3,1.3,0,0,1-.44.17A1.57,1.57,0,0,1,444.07,361.84Z" transform="translate(-299.44 -218.32)"/><path class="cls-7" d="M456.51,349.57,450.11,360l-7.37-5.8s5.11-7.94,7.52-10.4Z" transform="translate(-299.44 -218.32)"/><path class="cls-5" d="M438.17,369.48a3.21,3.21,0,0,1,1.49,1,3,3,0,0,1,.66,1.64A5.2,5.2,0,0,0,438.17,369.48Z" transform="translate(-299.44 -218.32)"/><path class="cls-4" d="M445.8,332.69a.64.64,0,0,0,.19.21.68.68,0,0,0,.27.1c.19,0,.39,0,.59.07a1.39,1.39,0,0,1,.78.44,2.37,2.37,0,0,0,.27.28.29.29,0,0,0,.18.07.32.32,0,0,0,.19,0c.17-.13.09-.38,0-.56L447.08,331l-2.26.47,1,1.07" transform="translate(-299.44 -218.32)"/><path class="cls-4" d="M438.42,330.13c.26-.3.65-.54,1-.29a1.93,1.93,0,0,1,.53,1,2.92,2.92,0,0,0,.4,1.1,1.33,1.33,0,0,0,.58.46,1.58,1.58,0,0,0,.75.12,1.43,1.43,0,0,0,1.17-.84,4.71,4.71,0,0,0,1.06,1.21,1.83,1.83,0,0,0,.75.34,1.76,1.76,0,0,0,.82-.05,1.08,1.08,0,0,0,.34-.21.9.9,0,0,0,.23-.32.81.81,0,0,0,.09-.37,1,1,0,0,0-.08-.38,1.79,1.79,0,0,0,1,.37,1,1,0,0,0,.52-.14.9.9,0,0,0,.37-.38.8.8,0,0,0,.05-.26.77.77,0,0,0-.07-.26.55.55,0,0,0-.17-.2.56.56,0,0,0-.24-.13,1.35,1.35,0,0,0,.71.19,1.31,1.31,0,0,0,.69-.22,1,1,0,0,0,.38-.59,1,1,0,0,0-.11-.68,1,1,0,0,0-.59-.38,1,1,0,0,0-.69.13,1.86,1.86,0,0,0,.72-.61.59.59,0,0,0,.07-.45.58.58,0,0,0-.27-.36c-.36-.16-.74.16-1.12.22-.63.11-1.15-.42-1.66-.81a4.39,4.39,0,0,0-1.58-.64,4.33,4.33,0,0,0-1.72,0,6.87,6.87,0,0,0-3,1.53c-.57.47-1.12,1.16-.89,1.84" transform="translate(-299.44 -218.32)"/><path class="cls-4" d="M439.78,334.49c0,.18-.18.33-.39.41a.58.58,0,0,1-.29.06.56.56,0,0,1-.28-.1c-.13-.13,0-.41.33-.55S439.78,334.32,439.78,334.49Z" transform="translate(-299.44 -218.32)"/><path class="cls-4" d="M443.14,333c0,.18-.27.29-.49.39a.78.78,0,0,1-.63.09.29.29,0,0,1-.08-.14.37.37,0,0,1,0-.15.8.8,0,0,1,.41-.38.77.77,0,0,1,.56,0C443.08,332.78,443.15,332.87,443.14,333Z" transform="translate(-299.44 -218.32)"/><path class="cls-4" d="M444.12,336.69a.86.86,0,0,1,0,.85c-.21.44-.63.64-.65.59s.26-.28.42-.68S444,336.7,444.12,336.69Z" transform="translate(-299.44 -218.32)"/><path class="cls-5" d="M449,330.22l-.1,0a.88.88,0,0,1-.32.07,1.24,1.24,0,0,1-.6-.15,1,1,0,0,1-.43-.43l.11,0a2.21,2.21,0,0,1-1.4.53,2.25,2.25,0,0,1-.93-.16,2.18,2.18,0,0,1-.78-.52l.19-.07a.77.77,0,0,1-.11.39.92.92,0,0,1-.29.3,1.33,1.33,0,0,1-.83.19,2.11,2.11,0,0,1-1.16-.67c-.29-.31-.53-.62-.8-.87a1.71,1.71,0,0,0-.89-.49,1.68,1.68,0,0,0-.89.1,3.39,3.39,0,0,0-1.1.76,2.41,2.41,0,0,1-.37.34,2.38,2.38,0,0,1,.31-.4,2.91,2.91,0,0,1,1.09-.84,1.77,1.77,0,0,1,1-.14,1.9,1.9,0,0,1,1,.52c.3.26.54.58.82.87a1.89,1.89,0,0,0,1,.6c.47.06,1-.25,1-.66v-.3l.2.23a2,2,0,0,0,.71.47,2.07,2.07,0,0,0,.85.16,2.12,2.12,0,0,0,1.31-.45l.07-.07,0,.09a1,1,0,0,0,.37.4,1.1,1.1,0,0,0,.53.16A2.58,2.58,0,0,0,449,330.22Z" transform="translate(-299.44 -218.32)"/><path class="cls-4" d="M457.58,348s0-.24-.1-.66a4.63,4.63,0,0,0-.7-1.69,4.56,4.56,0,0,0-2.11-1.71,5,5,0,0,0-3.36-.11,5.21,5.21,0,0,0-1.55.81,7.39,7.39,0,0,0-1.19,1.11A18.45,18.45,0,0,0,447,348c-.43.66-.78,1.21-1,1.56-.12.18-.23.31-.3.4a1.64,1.64,0,0,1-.12.14,4.36,4.36,0,0,1,.35-.59l1-1.59a17.1,17.1,0,0,1,1.6-2.29,6.48,6.48,0,0,1,2.83-2,5.16,5.16,0,0,1,3.51.13,4.91,4.91,0,0,1,1.9,1.43,4.5,4.5,0,0,1,.91,2.13,2.19,2.19,0,0,1,0,.51A.46.46,0,0,1,457.58,348Z" transform="translate(-299.44 -218.32)"/><path class="cls-16" d="M455.7,351.78a.59.59,0,0,0-.05-.19.79.79,0,0,0-.12-.15.83.83,0,0,0-.43-.15,1.45,1.45,0,0,1-1.33-.68,1.88,1.88,0,0,1-.34-.78c-.09-.3-.15-.61-.27-.92a1.66,1.66,0,0,0-.58-.78,2.19,2.19,0,0,0-1-.32,8.34,8.34,0,0,0-1,0,3.57,3.57,0,0,1-1.71-.24,1.51,1.51,0,0,1-.47-.36,1.44,1.44,0,0,1-.28-.5,1.06,1.06,0,0,1,0-.31l0-.1a3,3,0,0,0,.08.41,1.38,1.38,0,0,0,.74.74,3.52,3.52,0,0,0,1.64.18,3.48,3.48,0,0,1,2.1.36,1.78,1.78,0,0,1,.65.88c.12.33.19.65.27.94a1.72,1.72,0,0,0,.28.72,1.84,1.84,0,0,0,.57.54,2.23,2.23,0,0,0,.62.14.81.81,0,0,1,.47.21.41.41,0,0,1,.1.13.44.44,0,0,1,.05.15Z" transform="translate(-299.44 -218.32)"/><path class="cls-16" d="M453.15,355.24a1.75,1.75,0,0,0-.18-.32,1.59,1.59,0,0,0-.85-.51c-.43-.14-1-.12-1.58-.31a1.57,1.57,0,0,1-.81-.55c-.2-.27-.31-.58-.49-.84a2.55,2.55,0,0,0-1.62-.81,4.25,4.25,0,0,1-1.52-.54,1.44,1.44,0,0,1-.6-.87.53.53,0,0,1,0-.39s0,.14.05.36a1.45,1.45,0,0,0,.59.77,4.53,4.53,0,0,0,1.47.48,5,5,0,0,1,.93.27,1.9,1.9,0,0,1,.83.62c.2.29.31.61.49.84a1.4,1.4,0,0,0,.7.49c.55.18,1.11.18,1.55.34a1.68,1.68,0,0,1,.9.61.63.63,0,0,1,.1.27C453.16,355.21,453.16,355.24,453.15,355.24Z" transform="translate(-299.44 -218.32)"/><path class="cls-16" d="M464.93,349.75a.48.48,0,0,1,0,.17,1.66,1.66,0,0,1-.19.46,3.19,3.19,0,0,1-1.43,1.13l-1.18.47a3.71,3.71,0,0,0-1.2.74,9.31,9.31,0,0,0-1.59,2.76,4.41,4.41,0,0,1-1,1.4,1.8,1.8,0,0,1-.34.26,2.12,2.12,0,0,1-.36.21,3.15,3.15,0,0,1-.77.25c-1,.21-2,.16-2.72.38a2.35,2.35,0,0,0-1.43,1,2.17,2.17,0,0,0-.22.6v-.17a1.25,1.25,0,0,1,.15-.46,2.23,2.23,0,0,1,.61-.69,2.56,2.56,0,0,1,.85-.4c.76-.25,1.72-.21,2.71-.43a3,3,0,0,0,.73-.24,1.38,1.38,0,0,0,.33-.2,1.91,1.91,0,0,0,.32-.24,4.42,4.42,0,0,0,.93-1.34,9.18,9.18,0,0,1,1.65-2.81,3.85,3.85,0,0,1,1.28-.76c.42-.17.83-.3,1.18-.45a3.18,3.18,0,0,0,1.43-1A2.48,2.48,0,0,0,464.93,349.75Z" transform="translate(-299.44 -218.32)"/><path class="cls-16" d="M469.21,354.76a1.23,1.23,0,0,1-.27.63,3.39,3.39,0,0,1-1.56,1.12c-.75.34-1.74.49-2.68,1a2.75,2.75,0,0,0-1.16,1.08,15,15,0,0,0-.72,1.58,5.43,5.43,0,0,1-2.35,2.51,5.58,5.58,0,0,1-2.81.69,5.68,5.68,0,0,1-1.91-.37c-.17-.07-.33-.14-.48-.22l-.16-.1s.24.09.67.24a6,6,0,0,0,1.89.3,5.52,5.52,0,0,0,2.7-.7,5.34,5.34,0,0,0,2.25-2.43,11.79,11.79,0,0,1,.73-1.62,3,3,0,0,1,1.25-1.14,24.65,24.65,0,0,1,2.73-.93,3.71,3.71,0,0,0,1.54-1A2.84,2.84,0,0,0,469.21,354.76Z" transform="translate(-299.44 -218.32)"/><path class="cls-16" d="M473.08,358.72a8.1,8.1,0,0,0-1.71,1,5.46,5.46,0,0,0-1.35,1.6c-.19.33-.33.72-.51,1.12a2.42,2.42,0,0,1-.85,1.1,3,3,0,0,1-1.37.4c-.46.05-.89.06-1.28.13a7.78,7.78,0,0,0-2.06.62,11.41,11.41,0,0,0-1.71,1,2,2,0,0,1,.39-.37,6.46,6.46,0,0,1,1.24-.81,7.38,7.38,0,0,1,2.1-.68c.43-.07.86-.09,1.28-.14a3,3,0,0,0,1.28-.38,2.13,2.13,0,0,0,.78-1,10,10,0,0,1,.53-1.14,5.52,5.52,0,0,1,1.43-1.62,5.2,5.2,0,0,1,1.28-.72l.38-.13C473,358.7,473.07,358.71,473.08,358.72Z" transform="translate(-299.44 -218.32)"/><path class="cls-16" d="M456,351.23a2.84,2.84,0,0,0,1-.59,3.07,3.07,0,0,0,.68-1,8.93,8.93,0,0,0,.46-1.41,7.25,7.25,0,0,1,.51-1.44,2.94,2.94,0,0,1,.8-1,2,2,0,0,1,.78-.41.7.7,0,0,1,.32,0,2.66,2.66,0,0,0-1,.52,3.23,3.23,0,0,0-.72,1,8,8,0,0,0-.47,1.41,9.4,9.4,0,0,1-.49,1.44,3.28,3.28,0,0,1-.76,1,2.05,2.05,0,0,1-.76.43A.59.59,0,0,1,456,351.23Z" transform="translate(-299.44 -218.32)"/><path class="cls-16" d="M454.75,343.94a2.32,2.32,0,0,1,.6-1.16,2.63,2.63,0,0,1,1.16-.68c0,.06-.51.31-1,.81S454.8,344,454.75,343.94Z" transform="translate(-299.44 -218.32)"/><path class="cls-16" d="M451.75,339.79a5.63,5.63,0,0,1-.67.95,12.37,12.37,0,0,1-.8,1,2,2,0,0,1-.65.46,2.23,2.23,0,0,1-.85.13,5.48,5.48,0,0,0-.81,0,2.06,2.06,0,0,0-.69.22,1.89,1.89,0,0,0-.82.86,2.43,2.43,0,0,0-.17,1.1.59.59,0,0,1-.09-.31,1.74,1.74,0,0,1,.12-.84,1.89,1.89,0,0,1,.85-1,2.2,2.2,0,0,1,.76-.25,4.83,4.83,0,0,1,.85,0,1.85,1.85,0,0,0,.74-.1,1.46,1.46,0,0,0,.61-.42c.33-.32.59-.67.83-.94A5.77,5.77,0,0,1,451.75,339.79Z" transform="translate(-299.44 -218.32)"/><path class="cls-5" d="M471.45,390.26c-.06,0-.11-2.07-.11-4.62s.05-4.62.11-4.62.11,2.07.11,4.62S471.51,390.26,471.45,390.26Z" transform="translate(-299.44 -218.32)"/><path class="cls-7" d="M327.33,367.32a4.72,4.72,0,0,1,1.84.5,4.77,4.77,0,0,1,1.49,1.14,8,8,0,0,1,1.67,3.27,13.47,13.47,0,0,1-.51,7.24c-2.59-.91-4.17-3.55-4.88-4.94-1.13-2.2-1.76-6.82.4-7.21" transform="translate(-299.44 -218.32)"/><path class="cls-7" d="M335.53,382.27a3.85,3.85,0,0,1-.63-1.93,3.78,3.78,0,0,1,.47-2,5.26,5.26,0,0,1,1.39-1.55,5.68,5.68,0,0,1,1.9-.92,2.48,2.48,0,0,1,1-.14,2.19,2.19,0,0,1,.94.25,1.7,1.7,0,0,1,.56.69,1.63,1.63,0,0,1,.1.87,3.27,3.27,0,0,1-.76,1.59C339.2,380.78,337.65,382.12,335.53,382.27Z" transform="translate(-299.44 -218.32)"/><path class="cls-4" d="M335.77,389.89a2.4,2.4,0,0,1-.11-.48c-.07-.33-.15-.77-.26-1.3a12.84,12.84,0,0,1-.24-4.37,8.12,8.12,0,0,1,1.74-4.05,5.89,5.89,0,0,1,1-.94l.31-.2.12-.07a9.48,9.48,0,0,0-1.32,1.29,8.31,8.31,0,0,0-1.66,4,13.7,13.7,0,0,0,.19,4.33c.09.55.15,1,.2,1.31A2.74,2.74,0,0,1,335.77,389.89Z" transform="translate(-299.44 -218.32)"/><path class="cls-4" d="M328.14,370.79a1.74,1.74,0,0,1,.1.19l.26.55c.22.48.54,1.18.93,2.05.77,1.73,1.79,4.14,2.86,6.83s2,5.14,2.61,6.92c.31.89.56,1.62.72,2.12.08.23.15.43.19.57a.83.83,0,0,1,.06.21.82.82,0,0,1-.09-.19l-.22-.57c-.19-.52-.46-1.21-.78-2.1-.67-1.77-1.59-4.22-2.66-6.89s-2.07-5.09-2.81-6.84c-.36-.85-.66-1.56-.85-2.06l-.23-.57A.47.47,0,0,1,328.14,370.79Z" transform="translate(-299.44 -218.32)"/><path class="cls-7" d="M332.71,384.84a9.38,9.38,0,0,0-3.12-3.08,10.1,10.1,0,0,0-4.25-1.38c-.78-.05-1.71.06-2,.71s.11,1.44.62,2a8.21,8.21,0,0,0,4.1,2.24,8.52,8.52,0,0,0,4.72-.29" transform="translate(-299.44 -218.32)"/><path class="cls-4" d="M326.49,382.35a2.57,2.57,0,0,1,.48,0,3.57,3.57,0,0,1,.56.07c.21,0,.46.06.73.13s.58.15.86.24a8.72,8.72,0,0,1,1,.36,9.76,9.76,0,0,1,3.73,2.79,9.3,9.3,0,0,1,.59.81,7.07,7.07,0,0,1,.43.76c.13.23.21.46.3.65a3.84,3.84,0,0,1,.19.51,3.17,3.17,0,0,1,.12.44s-.22-.62-.73-1.55a5.51,5.51,0,0,0-.45-.73,9.3,9.3,0,0,0-.59-.81,10.85,10.85,0,0,0-1.67-1.58,12,12,0,0,0-2-1.17,7.89,7.89,0,0,0-1-.36,8.34,8.34,0,0,0-.85-.26C327.17,382.43,326.48,382.41,326.49,382.35Z" transform="translate(-299.44 -218.32)"/></svg>