<svg id="Layer_1" data-name="Layer 1" xmlns="http://www.w3.org/2000/svg" xmlns:xlink="http://www.w3.org/1999/xlink" viewBox="0 0 201 85.01"><defs><style>.cls-1{fill:#3f3d56;}.cls-2{fill:#57b894;}.cls-16,.cls-3,.cls-9{opacity:0.1;}.cls-11,.cls-19,.cls-3,.cls-6,.cls-9{isolation:isolate;}.cls-4{fill:#f2f2f2;}.cls-5,.cls-6{fill:#109cf1;}.cls-6{opacity:0.3;}.cls-7{fill:#192534;}.cls-8{fill:#a0616a;}.cls-17,.cls-9{fill:none;stroke-miterlimit:10;}.cls-9{stroke:#000;}.cls-10{fill:#ffc1c7;}.cls-11{opacity:0.05;}.cls-12{fill:#fbbebe;}.cls-13{fill:url(#linear-gradient);}.cls-14{fill:#575a89;}.cls-15{fill:#cbceda;}.cls-17{stroke:#3f3d56;stroke-width:4px;}.cls-18{fill:#656380;}.cls-19{opacity:0.2;}</style><linearGradient id="linear-gradient" x1="637.95" y1="350.14" x2="637.95" y2="350.18" gradientTransform="matrix(1, 0, 0, -1, 0, 770)" gradientUnits="userSpaceOnUse"><stop offset="0" stop-color="gray" stop-opacity="0.25"/><stop offset="0.54" stop-color="gray" stop-opacity="0.12"/><stop offset="1" stop-color="gray" stop-opacity="0.1"/></linearGradient></defs><path class="cls-1" d="M682.83,426.13c55.51,0,100.5-1.62,100.5-3.61s-45-3.61-100.5-3.61-100.5,1.61-100.5,3.61S627.33,426.13,682.83,426.13Z" transform="translate(-582.33 -341.12)"/><path class="cls-1" d="M761.22,402.32a4.36,4.36,0,0,0,.56-2.15c0-1.95-1.2-3.53-2.68-3.53s-2.68,1.58-2.68,3.53a4.36,4.36,0,0,0,.56,2.15,4.45,4.45,0,0,0,0,4.32,4.43,4.43,0,0,0,0,4.31,4.43,4.43,0,0,0,0,4.31,4.4,4.4,0,0,0-.56,2.16c0,1.95,1.2,3.53,2.68,3.53s2.68-1.58,2.68-3.53a4.4,4.4,0,0,0-.56-2.16,4.43,4.43,0,0,0,0-4.31,4.43,4.43,0,0,0,0-4.31,4.45,4.45,0,0,0,0-4.32Z" transform="translate(-582.33 -341.12)"/><path class="cls-1" d="M759.09,399.38c1.48,0,2.68-1.58,2.68-3.53s-1.2-3.52-2.68-3.52-2.67,1.58-2.67,3.52S757.61,399.38,759.09,399.38Z" transform="translate(-582.33 -341.12)"/><path class="cls-1" d="M759.09,395.07c1.48,0,2.68-1.58,2.68-3.53s-1.2-3.53-2.68-3.53-2.67,1.58-2.67,3.53S757.61,395.07,759.09,395.07Z" transform="translate(-582.33 -341.12)"/><path class="cls-2" d="M749.07,362a13.57,13.57,0,0,1-1-1.47l7-1.17-7.61.06a13,13,0,0,1-.24-10.23l10.2,5.33-9.41-7a12.94,12.94,0,0,1,3.48-3.92,12.77,12.77,0,0,1,10-2.31,12.79,12.79,0,0,1,4.84,2A13,13,0,0,1,769.23,362a12.72,12.72,0,0,1,1.46,2.36l-9.13,4.78,9.73-3.29a12.8,12.8,0,0,1,.49,6.32,12.93,12.93,0,0,1-2.56,5.8A13,13,0,0,1,766,396.92a12.72,12.72,0,0,1-13.6,0,13,13,0,0,1-6-12.33,13.06,13.06,0,0,1,2.67-6.6,13,13,0,0,1,0-16Z" transform="translate(-582.33 -341.12)"/><path class="cls-3" d="M772,370a13,13,0,0,1-2.75,8A13,13,0,0,1,766,396.92a12.74,12.74,0,0,1-13.61,0A13,13,0,0,1,749.08,378C747.35,375.8,772,368.56,772,370Z" transform="translate(-582.33 -341.12)"/><path class="cls-4" d="M750.56,342.33H615.11a3.51,3.51,0,0,0-3.49,3.52v71.39a3.51,3.51,0,0,0,3.49,3.52H750.56a3.51,3.51,0,0,0,3.49-3.52V345.85A3.51,3.51,0,0,0,750.56,342.33Z" transform="translate(-582.33 -341.12)"/><path class="cls-5" d="M611.71,346.2h45.76v74.64H615.19a3.5,3.5,0,0,1-3.48-3.51Z" transform="translate(-582.33 -341.12)"/><path class="cls-1" d="M754.05,345.85v2H611.62v-2a3.5,3.5,0,0,1,.27-1.35,3.58,3.58,0,0,1,.75-1.14,3.75,3.75,0,0,1,1.13-.76,3.63,3.63,0,0,1,1.34-.26H750.56a3.43,3.43,0,0,1,2.46,1,3.61,3.61,0,0,1,.76,1.14A3.5,3.5,0,0,1,754.05,345.85Z" transform="translate(-582.33 -341.12)"/><path class="cls-5" d="M615.29,346.2a1,1,0,1,0-1-1A1,1,0,0,0,615.29,346.2Z" transform="translate(-582.33 -341.12)"/><path class="cls-5" d="M617.85,346.2a1,1,0,1,0-1-1A1,1,0,0,0,617.85,346.2Z" transform="translate(-582.33 -341.12)"/><path class="cls-5" d="M620.42,346.2a1,1,0,1,0-1-1A1,1,0,0,0,620.42,346.2Z" transform="translate(-582.33 -341.12)"/><path class="cls-6" d="M745.64,357.15H686.8a.21.21,0,0,0-.21.21v1.46a.22.22,0,0,0,.21.22h58.84a.22.22,0,0,0,.21-.22v-1.46A.21.21,0,0,0,745.64,357.15Z" transform="translate(-582.33 -341.12)"/><path class="cls-5" d="M744.78,360.76h-12a.21.21,0,0,0-.21.21v3.87a.21.21,0,0,0,.21.21h12a.21.21,0,0,0,.22-.21V361A.21.21,0,0,0,744.78,360.76Z" transform="translate(-582.33 -341.12)"/><path class="cls-6" d="M745.64,380.15H686.8a.22.22,0,0,0-.21.21v1.47a.21.21,0,0,0,.21.21h58.84a.21.21,0,0,0,.21-.21v-1.47A.22.22,0,0,0,745.64,380.15Z" transform="translate(-582.33 -341.12)"/><path class="cls-5" d="M744.78,383.76h-12a.21.21,0,0,0-.21.21v3.88a.21.21,0,0,0,.21.21h12a.22.22,0,0,0,.22-.21V384A.21.21,0,0,0,744.78,383.76Z" transform="translate(-582.33 -341.12)"/><path class="cls-6" d="M745.64,403.54H686.8a.21.21,0,0,0-.21.21v1.47a.22.22,0,0,0,.21.21h58.84a.22.22,0,0,0,.21-.21v-1.47A.21.21,0,0,0,745.64,403.54Z" transform="translate(-582.33 -341.12)"/><path class="cls-5" d="M744.78,407.15h-12a.21.21,0,0,0-.21.21v3.88a.21.21,0,0,0,.21.21h12a.22.22,0,0,0,.22-.21v-3.88A.22.22,0,0,0,744.78,407.15Z" transform="translate(-582.33 -341.12)"/><path class="cls-1" d="M673.73,392.62a8.52,8.52,0,1,0-8.46-8.52A8.49,8.49,0,0,0,673.73,392.62Z" transform="translate(-582.33 -341.12)"/><path class="cls-7" d="M681.19,388.6l0,0-.3.45a8.38,8.38,0,0,1-3.72,2.91,4.69,4.69,0,0,1-.45.18,3.5,3.5,0,0,1-.39-.38,2.93,2.93,0,0,1-.68-1.43,3.08,3.08,0,0,1-.68.07h-.07a4.46,4.46,0,0,1-3.94-3.18l0-.08a6.44,6.44,0,0,1-.13-3.74.53.53,0,0,1,0-.12,4.62,4.62,0,0,1,3.91-3.57h.39c2.3.09,4.15,2.32,4.23,5.12a3,3,0,0,1,1.07,1.26,2.87,2.87,0,0,0,.79,2.46Z" transform="translate(-582.33 -341.12)"/><path class="cls-3" d="M681.16,388.65a5,5,0,0,1-.3.45,3.05,3.05,0,0,0-.46-.61,3.11,3.11,0,0,0,0-.43,3,3,0,0,0-.35-1.41,3,3,0,0,0-1-1.07c-.09-2.86-2-5.14-4.38-5.14a4.37,4.37,0,0,0-3.89,2.87s0,.08-.05.13-.12.3-.18.45a7.4,7.4,0,0,1,.26-.92l0,0a4.5,4.5,0,0,1,3.85-3.19h.39c2.26.14,4.08,2.36,4.16,5.13a3,3,0,0,1,1.31,2.91A2.93,2.93,0,0,1,681.16,388.65Z" transform="translate(-582.33 -341.12)"/><path class="cls-8" d="M672.25,386.21a1.16,1.16,0,0,1-.06.52c-.1.23-.34.44-.28.68a.62.62,0,0,0,.15.2.49.49,0,0,0,.22.1,8.53,8.53,0,0,0,2.32.14l.78,0a1.27,1.27,0,0,0,.72-.26,6.83,6.83,0,0,1-1.14-.72,1.58,1.58,0,0,1-.23-.22,1.46,1.46,0,0,1-.2-.79v-.82h-1.67c-.17,0-.72,0-.78.16s.09.38.11.48A4.43,4.43,0,0,1,672.25,386.21Z" transform="translate(-582.33 -341.12)"/><path class="cls-3" d="M672.25,386.21a1.16,1.16,0,0,1-.06.52c-.1.23-.34.44-.28.68a.62.62,0,0,0,.15.2.49.49,0,0,0,.22.1,8.53,8.53,0,0,0,2.32.14l.78,0a1.27,1.27,0,0,0,.72-.26,6.83,6.83,0,0,1-1.14-.72,1.58,1.58,0,0,1-.23-.22,1.46,1.46,0,0,1-.2-.79v-.82h-1.67c-.17,0-.72,0-.78.16s.09.38.11.48A4.43,4.43,0,0,1,672.25,386.21Z" transform="translate(-582.33 -341.12)"/><path class="cls-8" d="M673.39,386a2,2,0,1,0-2-2A2,2,0,0,0,673.39,386Z" transform="translate(-582.33 -341.12)"/><path class="cls-5" d="M677.11,389.72a1.11,1.11,0,0,1,0,.17,5.08,5.08,0,0,1-.28.94,4,4,0,0,1-.26.6c-.07.13-.17.25-.25.38l-.11.19a2.64,2.64,0,0,0-.18.38,7,7,0,0,1-1,.19,8.39,8.39,0,0,1-1,.06,9.18,9.18,0,0,1-5.07-1.42s.2-.14.17-.17,0-.16,0-.24a1.8,1.8,0,0,1,.1-.6,1.13,1.13,0,0,1,.29-.48c.17-.18.4-.28.58-.45a1.75,1.75,0,0,0,.48-.83c0-.14.07-.29.1-.43a2.23,2.23,0,0,1,.16-.56l0-.06a.27.27,0,0,1,.09-.12,2.06,2.06,0,0,1,.6-.41c.19-.1.45-.17.58,0h0c0,.1.08.2.11.3s.39.25.63.24a20.91,20.91,0,0,0,2.49-.21l.4-.06c.28-.05.49.2.65.45A3.51,3.51,0,0,1,677.11,389.72Z" transform="translate(-582.33 -341.12)"/><path class="cls-9" d="M671.12,389.85c-.18,0-.29.23-.38.4a2.06,2.06,0,0,0-.16,1.29.51.51,0,0,0,.22.3" transform="translate(-582.33 -341.12)"/><path class="cls-7" d="M676,383.11c.15-.58-.69-1.3-1.86-1.6s-2.25-.07-2.39.51.68,1.3,1.85,1.6S675.87,383.7,676,383.11Z" transform="translate(-582.33 -341.12)"/><path class="cls-3" d="M673.73,383.21c-1-.27-1.81-.86-1.87-1.4a.56.56,0,0,0-.11.2c-.15.59.69,1.3,1.86,1.61s2.25.07,2.39-.52a.44.44,0,0,0,0-.2C675.7,383.34,674.76,383.47,673.73,383.21Z" transform="translate(-582.33 -341.12)"/><path class="cls-8" d="M677.16,391.12c0,.3,0,.6,0,.89a4.7,4.7,0,0,1-.45.17,5.31,5.31,0,0,1-.68.2,5.67,5.67,0,0,1-1,.18,11.51,11.51,0,0,1-.13-2.12,3.53,3.53,0,0,1,.55-1.54,1.31,1.31,0,0,1,.5-.49.64.64,0,0,1,.33-.07.6.6,0,0,1,.32.12,1,1,0,0,1,.24.44,7.28,7.28,0,0,1,.27,1s0,.08,0,.12A5.9,5.9,0,0,1,677.16,391.12Z" transform="translate(-582.33 -341.12)"/><path class="cls-1" d="M682.19,407.5a8.51,8.51,0,0,1-1,4.07,4.49,4.49,0,0,1-.24.42.1.1,0,0,1,0,.05,3.52,3.52,0,0,1-.3.45,8.51,8.51,0,0,1-2.41,2.26l0,0a7.42,7.42,0,0,1-1,.5c-.09.05-.19.08-.28.12l-.28.11-.15.06h0l-.31.1-.08,0-.29.07a6.91,6.91,0,0,1-1,.19,7.93,7.93,0,0,1-1,.06h-.11a7.83,7.83,0,0,1-1.36-.13h-.08l-.26-.06-.15,0-.5-.14a6.8,6.8,0,0,1-1-.37h0a8.78,8.78,0,0,1-1.33-.76l-.1-.07a8.47,8.47,0,0,1-2.74-3.31,8.54,8.54,0,0,1,.59-8.32,8.5,8.5,0,0,1,3.19-2.88,8.37,8.37,0,0,1,4.17-.94,8.49,8.49,0,0,1,8.15,8.51Z" transform="translate(-582.33 -341.12)"/><path class="cls-7" d="M675.78,405.44a1.81,1.81,0,0,1-.56,1.23,1.79,1.79,0,0,1-1.24.5,1.81,1.81,0,0,1-1.24-.5,1.84,1.84,0,0,1-.55-1.23v-.09a1.84,1.84,0,0,1,.52-1.27,1.8,1.8,0,0,1,3.07,1.27A.27.27,0,0,0,675.78,405.44Z" transform="translate(-582.33 -341.12)"/><path class="cls-3" d="M675.78,405.44a1.81,1.81,0,0,1-1.8,1.73,1.79,1.79,0,0,1-1.79-1.73v-.08a2.8,2.8,0,0,1,3.59,0S675.78,405.41,675.78,405.44Z" transform="translate(-582.33 -341.12)"/><path class="cls-7" d="M674,410.58a2.86,2.86,0,1,0-2.83-2.86A2.84,2.84,0,0,0,674,410.58Z" transform="translate(-582.33 -341.12)"/><path class="cls-7" d="M672.26,405a1.85,1.85,0,0,1,.45-1.19,1.8,1.8,0,0,1,1.11-.6,1.9,1.9,0,0,0-.75.06,1.83,1.83,0,0,0-.67.37,1.83,1.83,0,0,0-.45,2.11,1.78,1.78,0,0,0,1.12,1,1.59,1.59,0,0,0,.75.06,1.75,1.75,0,0,1-1.11-.6A1.8,1.8,0,0,1,672.26,405Z" transform="translate(-582.33 -341.12)"/><path class="cls-7" d="M670.78,408.88a1.82,1.82,0,0,1-.3-2.36,1.37,1.37,0,0,0-.17.17,1.92,1.92,0,0,0-.37.61,1.73,1.73,0,0,0-.1.71,1.89,1.89,0,0,0,.17.7,2,2,0,0,0,.43.57,1.85,1.85,0,0,0,1.32.44,1.72,1.72,0,0,0,1.24-.64l.15-.19a1.8,1.8,0,0,1-1.19.45A1.85,1.85,0,0,1,670.78,408.88Z" transform="translate(-582.33 -341.12)"/><path class="cls-10" d="M672.5,411.34a1.69,1.69,0,0,0-.43.15.76.76,0,0,0-.15.8,2.18,2.18,0,0,0,1.15,1.51,2.9,2.9,0,0,0,1.17.18,1.46,1.46,0,0,0,1.18-.4,1.65,1.65,0,0,0,.24-.6,4.71,4.71,0,0,0,.21-1.58,1,1,0,0,1-.75-.13c-.21-.16-.25-.48-.34-.74a.26.26,0,0,0-.07-.11.25.25,0,0,0-.12,0,4.4,4.4,0,0,1-.81,0c-.18,0-.59-.2-.71-.05s0,.44-.11.59a1,1,0,0,1-.19.27A.74.74,0,0,1,672.5,411.34Z" transform="translate(-582.33 -341.12)"/><path class="cls-11" d="M672.5,411.34a1.69,1.69,0,0,0-.43.15.76.76,0,0,0-.15.8,2.18,2.18,0,0,0,1.15,1.51,2.9,2.9,0,0,0,1.17.18,1.46,1.46,0,0,0,1.18-.4,1.65,1.65,0,0,0,.24-.6,4.71,4.71,0,0,0,.21-1.58,1,1,0,0,1-.75-.13c-.21-.16-.25-.48-.34-.74a.26.26,0,0,0-.07-.11.25.25,0,0,0-.12,0,4.4,4.4,0,0,1-.81,0c-.18,0-.59-.2-.71-.05s0,.44-.11.59a1,1,0,0,1-.19.27A.74.74,0,0,1,672.5,411.34Z" transform="translate(-582.33 -341.12)"/><path class="cls-10" d="M673.94,411.1a2,2,0,1,0-2-2A2,2,0,0,0,673.94,411.1Z" transform="translate(-582.33 -341.12)"/><path class="cls-5" d="M678.28,413.42l0,.06-.08.11a6.32,6.32,0,0,0-1,1.69l-.29.12-.28.11-.15.06h0l-.32.1-.08,0-.29.07a6.78,6.78,0,0,1-1,.19,8.22,8.22,0,0,1-1,.06h-.1a9,9,0,0,1-1.37-.13l-.08,0-.25-.05-.16,0-.5-.14a1.39,1.39,0,0,1,.37-.77c-.39-.47-1-.65-1.43-1.09a1.47,1.47,0,0,1-.1-.13.31.31,0,0,1,0-.1.29.29,0,0,1,0-.09,1.36,1.36,0,0,1,0-.2,1.64,1.64,0,0,1,.39-1.35,1.68,1.68,0,0,1,.61-.27,7.59,7.59,0,0,0,1.11-.45.84.84,0,0,1,.07.24c0,.2,0,.41.07.6a1.45,1.45,0,0,0,.61.86,2.25,2.25,0,0,0,1,.37,1.94,1.94,0,0,0,1-.26,1,1,0,0,0,.39-.22,1,1,0,0,0,.23-.63c0-.23,0-.46,0-.69a.17.17,0,0,0,0-.07.27.27,0,0,1,.06-.17.3.3,0,0,1,.14-.1.36.36,0,0,1,.18,0l.64.25a4.48,4.48,0,0,1,.8.37,2.2,2.2,0,0,1,.68.71A2.14,2.14,0,0,1,678.28,413.42Z" transform="translate(-582.33 -341.12)"/><path class="cls-3" d="M672.26,415.88h-.08a2.27,2.27,0,0,1-.25-.06l-.16,0a4.1,4.1,0,0,1-.5-.14,7.28,7.28,0,0,1-1-.37,4.21,4.21,0,0,1-.17-1.62,3.16,3.16,0,0,1,.14-.68c.36.34,1,.15,1.38.42a.83.83,0,0,1,.26.3,2.19,2.19,0,0,1,.23.71c0,.13,0,.27.07.4v.13a1.53,1.53,0,0,1,0,.3A4.72,4.72,0,0,1,672.26,415.88Z" transform="translate(-582.33 -341.12)"/><path class="cls-5" d="M672.18,415.86l-.25-.05-.16,0-.5-.14a7.28,7.28,0,0,1-1-.37h0a4.4,4.4,0,0,1-.22-1.8,2.9,2.9,0,0,1,.14-.65c.36.34,1,.15,1.38.43a1,1,0,0,1,.34.45,4.94,4.94,0,0,1,.15.55c0,.2.07.4.09.6a.28.28,0,0,1,0,.09v.14A7,7,0,0,1,672.18,415.86Z" transform="translate(-582.33 -341.12)"/><path class="cls-3" d="M678.11,414.78a8.74,8.74,0,0,1-1,.5l-.29.12-.28.11-.15.05h0l-.32.11-.08,0a3.62,3.62,0,0,1,0-.47c0-.12,0-.24,0-.37a.13.13,0,0,1,0-.06v-.05l.06-.35a2.4,2.4,0,0,1,.23-.7,1,1,0,0,1,.27-.3c.4-.27,1-.09,1.36-.42a2.57,2.57,0,0,1,.14.61A4,4,0,0,1,678.11,414.78Z" transform="translate(-582.33 -341.12)"/><path class="cls-5" d="M678.16,414.74l0,0a6.83,6.83,0,0,1-1,.5l-.28.12-.28.11-.15.05h0l-.31.11c0-.2,0-.41,0-.61a.39.39,0,0,1,0-.15v-.13c0-.18,0-.36.09-.55a2.72,2.72,0,0,1,.15-.54,1.11,1.11,0,0,1,.34-.46c.41-.27,1-.08,1.37-.42a3,3,0,0,1,.14.66A3.85,3.85,0,0,1,678.16,414.74Z" transform="translate(-582.33 -341.12)"/><path class="cls-7" d="M673.9,408.82c1.31,0,2.38-.71,2.38-1.59s-1.07-1.6-2.38-1.6-2.38.72-2.38,1.6S672.59,408.82,673.9,408.82Z" transform="translate(-582.33 -341.12)"/><path class="cls-11" d="M671.93,415.57v.23h0l-.16,0a.14.14,0,0,1,0-.09,1.1,1.1,0,0,1,.1-.47,1,1,0,0,1,.28-.37s0,0,.05-.05a1.17,1.17,0,0,1,.31-.17.87.87,0,0,1,.32-.06h.07a1.11,1.11,0,0,0-.68.34l-.06.07A1.05,1.05,0,0,0,671.93,415.57Z" transform="translate(-582.33 -341.12)"/><path class="cls-5" d="M673.66,415.69a1.82,1.82,0,0,1,0,.32,9,9,0,0,1-1.37-.13l-.08,0-.25-.05h0v-.23a1.23,1.23,0,0,1,.22-.64l.06-.06a1,1,0,0,1,.29-.24.72.72,0,0,1,.29-.06h.11A1.06,1.06,0,0,1,673.66,415.69Z" transform="translate(-582.33 -341.12)"/><path class="cls-11" d="M676.58,415.51l-.15.05a1.09,1.09,0,0,0-.3-.65l0-.05a1.11,1.11,0,0,0-.61-.28h.06a1,1,0,0,1,.33.06l.23.11,0,0a1,1,0,0,1,.29.31A1,1,0,0,1,676.58,415.51Z" transform="translate(-582.33 -341.12)"/><path class="cls-5" d="M676.43,415.56h0l-.32.11-.08,0-.29.07a7,7,0,0,1-1,.18,1.09,1.09,0,0,1,0-.26,1.07,1.07,0,0,1,.77-1.11h.1a.78.78,0,0,1,.52.23l0,0A1.23,1.23,0,0,1,676.43,415.56Z" transform="translate(-582.33 -341.12)"/><path class="cls-3" d="M673.9,408.66c-1.27,0-2.31-.67-2.37-1.51v.08c0,.88,1.06,1.59,2.38,1.59s2.37-.71,2.37-1.59v-.08C676.21,408,675.17,408.66,673.9,408.66Z" transform="translate(-582.33 -341.12)"/><path class="cls-1" d="M665.27,361.1a8.52,8.52,0,0,0,1,4.08,3.38,3.38,0,0,0,.24.41.21.21,0,0,0,0,.06,4.27,4.27,0,0,0,.3.44,8.78,8.78,0,0,0,1.22,1.36l.27.23a7.85,7.85,0,0,0,.93.67l.05,0a8.82,8.82,0,0,0,1,.51l.29.11.28.11.15.06h0l.32.1.08,0,.29.07a2.23,2.23,0,0,0,.39.09l.61.1a8.22,8.22,0,0,0,1,.06h.1a8.82,8.82,0,0,0,1.36-.13l.09,0,.25,0,.16,0,.49-.14.3-.1a6,6,0,0,0,.59-.23l.09,0h0c.25-.12.5-.25.74-.39a5.36,5.36,0,0,0,.59-.38h0a.24.24,0,0,0,.09-.06,8.48,8.48,0,0,0,2.75-3.3,8.72,8.72,0,0,0,.78-4.24,8.59,8.59,0,0,0-1.37-4.08,8.41,8.41,0,0,0-3.19-2.88,8.41,8.41,0,0,0-8.28.3,8.51,8.51,0,0,0-4.05,7.27Z" transform="translate(-582.33 -341.12)"/><path class="cls-5" d="M675.61,364.48a.78.78,0,0,1,.24.42,1.12,1.12,0,0,1-.72-.17,9.25,9.25,0,0,0-2.23-.73.35.35,0,0,1-.18-.06.37.37,0,0,1-.05-.18.28.28,0,0,1,.06-.18c.09-.09.25-.08.37-.09a3.45,3.45,0,0,1,1.35.22,3.34,3.34,0,0,1,1.16.76Z" transform="translate(-582.33 -341.12)"/><path class="cls-12" d="M673.11,363.79a1,1,0,0,1-.23.35,1,1,0,0,1-.34.22c-.13.05-.28.06-.42.1a.61.61,0,0,0-.2.09.46.46,0,0,0-.13.18.57.57,0,0,0,0,.18,4,4,0,0,0,.2,1.76,3.73,3.73,0,0,0,.94,1.19,4.16,4.16,0,0,0,1.45,1,1.1,1.1,0,0,0,1-.09,1.75,1.75,0,0,0,.28-.33,4.19,4.19,0,0,0,.48-.82,4.05,4.05,0,0,0,.07-1.93.13.13,0,0,0,0-.1.17.17,0,0,0-.12,0,.76.76,0,0,1-.42-.09.74.74,0,0,1-.29-.32,1,1,0,0,1,0-.38v-.74a.45.45,0,0,0,0-.23.53.53,0,0,0-.3-.27,7,7,0,0,0-1.25-.49c-.18-.06-.33-.15-.41.05S673.21,363.58,673.11,363.79Z" transform="translate(-582.33 -341.12)"/><path class="cls-3" d="M673.11,363.79a1,1,0,0,1-.23.35,1,1,0,0,1-.34.22c-.13.05-.28.06-.42.1a.61.61,0,0,0-.2.09.46.46,0,0,0-.13.18.57.57,0,0,0,0,.18,4,4,0,0,0,.2,1.76,3.73,3.73,0,0,0,.94,1.19,4.16,4.16,0,0,0,1.45,1,1.1,1.1,0,0,0,1-.09,1.75,1.75,0,0,0,.28-.33,4.19,4.19,0,0,0,.48-.82,4.05,4.05,0,0,0,.07-1.93.13.13,0,0,0,0-.1.17.17,0,0,0-.12,0,.76.76,0,0,1-.42-.09.74.74,0,0,1-.29-.32,1,1,0,0,1,0-.38v-.74a.45.45,0,0,0,0-.23.53.53,0,0,0-.3-.27,7,7,0,0,0-1.25-.49c-.18-.06-.33-.15-.41.05S673.21,363.58,673.11,363.79Z" transform="translate(-582.33 -341.12)"/><path class="cls-12" d="M675.09,364.39a2.25,2.25,0,1,0-2.24-2.25A2.24,2.24,0,0,0,675.09,364.39Z" transform="translate(-582.33 -341.12)"/><path class="cls-4" d="M672.12,369.46l.61.1a8.22,8.22,0,0,0,1,.06h.1a9,9,0,0,0,1.37-.13l.08,0,.25-.05.16,0,.5-.14.3-.1a6,6,0,0,0,.59-.23,3.59,3.59,0,0,1-.12-.47,4.86,4.86,0,0,1-.07-1c0-.28,0-.55,0-.82a1.8,1.8,0,0,0-.09-.65.83.83,0,0,0-.16-.29.86.86,0,0,0-.26-.2,1.15,1.15,0,0,0-.89,0l-.08.05a.66.66,0,0,0-.12.17c-.08.21-.17.42-.25.62a2,2,0,0,1-.2.41,1,1,0,0,1-1.1.37l-.08,0c-.34-.14-.65-.44-1-.36a.87.87,0,0,0-.27.14.74.74,0,0,0-.17.25l0,0a1.81,1.81,0,0,0-.12.56A7.82,7.82,0,0,0,672.12,369.46Z" transform="translate(-582.33 -341.12)"/><path class="cls-5" d="M668.1,367.45l.27.23a6.86,6.86,0,0,0,.93.67l.05,0c.31.18.63.35,1,.5l.29.12.28.11.15.05h0l.32.11h.08l.29.08.39.09a6,6,0,0,0,.61.09,8.22,8.22,0,0,0,1,.06h.1a6.89,6.89,0,0,0,1.36-.13h.09l.25-.05.16,0c.17,0,.34-.08.49-.13l.3-.1.59-.23.09,0,0,0a7.39,7.39,0,0,0,.74-.38,12.94,12.94,0,0,0,.42-1.38v0c-.26-.48-.5-1-.76-1.45a1.12,1.12,0,0,0-.35-.45,1.08,1.08,0,0,0-.53-.22,2.29,2.29,0,0,0-.58-.11,1.64,1.64,0,0,1-.32-.05c-.23-.05-.47-.1-.55,0h0a.44.44,0,0,0,0,.34c0,.11.09.23.12.32a.59.59,0,0,1,0,.14,4,4,0,0,1,0,.6c0,.29-.21.55-.28.83a3.2,3.2,0,0,0-.07.41,4.59,4.59,0,0,1-.24.9.56.56,0,0,1-.09.17c-.14.18-.37.11-.59.08s-.15-.38-.17-.59a3.23,3.23,0,0,0-.31-1l-.06-.12c-.17-.36-.34-.71-.5-1.07a1.88,1.88,0,0,1-.25-1.41c0-.13.13-.26.18-.39a.14.14,0,0,0,0-.06.41.41,0,0,0,0-.16.34.34,0,0,0,0-.14.47.47,0,0,0-.07-.12l0,0h0a.42.42,0,0,0-.19-.06.43.43,0,0,0-.19,0,.82.82,0,0,0-.19.09,9,9,0,0,0-1,.63.5.5,0,0,0-.2.23l0,.2c0,.12-.2.16-.32.18a3.86,3.86,0,0,0-2.48,1.84,2.18,2.18,0,0,0-.21.47A1.94,1.94,0,0,0,668.1,367.45Z" transform="translate(-582.33 -341.12)"/><path class="cls-7" d="M676.07,360.87a1.57,1.57,0,0,1-1.22.32V361l-.6.22a1.81,1.81,0,0,0,.4-.43.47.47,0,0,0-.15-.06.28.28,0,0,0-.15,0,.58.58,0,0,0-.22.22,2.08,2.08,0,0,0-.32.87,2,2,0,0,0,.1.91.34.34,0,0,1-.2,0,.33.33,0,0,1-.19-.06.66.66,0,0,1-.25-.32.42.42,0,0,0-.16-.21.2.2,0,0,0-.11,0,.2.2,0,0,0-.08.08.34.34,0,0,0,0,.22,5.08,5.08,0,0,0,.17.51c0,.18.28.31.15.43a1.66,1.66,0,0,1-.49.11.14.14,0,0,1-.08-.05.15.15,0,0,1-.06-.09,7.11,7.11,0,0,1-.17-1,2.76,2.76,0,0,0-.35-.71l-.13-.18a.37.37,0,0,1-.13-.15c0-.06,0-.15.08-.14a3.17,3.17,0,0,0-.34-.28,5,5,0,0,0,.34-.46c0-.05.08-.12,0-.18s0,0-.06-.07l-.31-.21c0-.14.29-.09.33-.22a.2.2,0,0,0,0-.11l-.1-.39.4.18a.28.28,0,0,0,.15,0c.11,0,.16-.14.17-.25a.85.85,0,0,1,0-.32h.55a.35.35,0,0,0-.07-.26l1.35-.08a1.94,1.94,0,0,1,.68.05.46.46,0,0,0,.23.05c.08,0,.16-.08.13-.15a2.29,2.29,0,0,1,.55.42.48.48,0,0,0,.16.13.16.16,0,0,0,.1,0,.18.18,0,0,0,.09,0s0-.11.11-.11.06,0,.08.05a1.06,1.06,0,0,1,.18.33,1.38,1.38,0,0,0,.29-.08.27.27,0,0,0-.08.16.27.27,0,0,0,0,.18,2.11,2.11,0,0,0,.18.33,1.2,1.2,0,0,1,.1.37c0,.16,0,.37-.11.45a.38.38,0,0,1-.21,0,.4.4,0,0,1-.18-.1C676.38,360.54,676.32,360.61,676.07,360.87Z" transform="translate(-582.33 -341.12)"/><path class="cls-5" d="M668.37,367.68a6.86,6.86,0,0,0,.93.67l.05,0c.31.18.63.35,1,.5l.29.12.28.11.15.05c-.06-.17-.1-.34-.16-.51a2.93,2.93,0,0,0-.73-1.22c-.29-.29-.76-.72-1.19-.46a1.37,1.37,0,0,0-.35.33,1.69,1.69,0,0,0-.21.31S668.38,367.66,668.37,367.68Z" transform="translate(-582.33 -341.12)"/><path class="cls-5" d="M676.49,369.15l.59-.23.09,0,0,0a7.24,7.24,0,0,0,.73-.38c.21-.12.4-.24.6-.38h0a2.72,2.72,0,0,1,0-.57.67.67,0,0,0,0-.2.64.64,0,0,0-.1-.13.27.27,0,0,1-.07-.08c-.19-.22-.35-.45-.68-.42a1,1,0,0,0-.76.65.36.36,0,0,0,0,.09,6,6,0,0,0-.22.91c0,.2-.1.38-.14.57S676.5,369.07,676.49,369.15Z" transform="translate(-582.33 -341.12)"/><path class="cls-13" d="M638,419.82l-.07,0Z" transform="translate(-582.33 -341.12)"/><path class="cls-14" d="M627.5,410.53c-.66,1.91.11,5,.47,6.4a19.54,19.54,0,0,1,.47,3.05,6.36,6.36,0,0,0,2.42-.05l-.58-2.86c.42-1.69,0-6.2,0-6.2a10.89,10.89,0,0,0,1-4.41c.08-2.62.72-3.46.74-3.49,1.32.69,3,8.12,3,8.12a17.36,17.36,0,0,0,.58,6.06,7.69,7.69,0,0,1,.41,3,.82.82,0,0,0,.36.15.74.74,0,0,0,.39,0,5,5,0,0,0,1.73-.81s-.31-8.08-.53-8.39a6.33,6.33,0,0,1,0-2.05l-.36-2.83s.06-4.79-.46-5.62a5.8,5.8,0,0,1-.58-2.31v-.08l-.8-1s-7.7-.59-8.28,0a1.63,1.63,0,0,0-.28.87,20.05,20.05,0,0,0,0,3.31s.23,1.52.57,3.07a7.1,7.1,0,0,1,0,2.83A8.45,8.45,0,0,1,627.5,410.53Z" transform="translate(-582.33 -341.12)"/><path class="cls-15" d="M628,422.68c.34.46,2.36.26,2.71.12s.19-.48.14-.89-.09-.53-.12-.73a6.78,6.78,0,0,1,.18-1.51s-.46.49-.57,0a.49.49,0,0,0-.14-.24.6.6,0,0,0-.25-.13,1,1,0,0,0-.71,0c-.36.16-1,.49-.86.94a2.7,2.7,0,0,1-.38,1.55.68.68,0,0,0-.15.43.66.66,0,0,0,.15.43Z" transform="translate(-582.33 -341.12)"/><path class="cls-3" d="M628,422.68c.34.46,2.36.26,2.71.12s.19-.48.14-.89a2.33,2.33,0,0,1-1.2.13,3.1,3.1,0,0,0-.43,0,9.52,9.52,0,0,1-1.31,0,.6.6,0,0,0,0,.35A.58.58,0,0,0,628,422.68Z" transform="translate(-582.33 -341.12)"/><path class="cls-3" d="M635,411.09a17.37,17.37,0,0,0,.57,6.06,7.52,7.52,0,0,1,.42,3,.9.9,0,0,0,.74.14c-.17-1.16-.87-6.2-1.32-10.18a16.76,16.76,0,0,0-2.93-7.64L632,403C633.36,403.66,635,411.09,635,411.09Z" transform="translate(-582.33 -341.12)"/><path class="cls-12" d="M628.8,382l.35,1.67,1.64,2.78,2-.87s2.76-2.91,1-3.33a1.51,1.51,0,0,1-.58-.25,1.15,1.15,0,0,1-.34-.45,1.2,1.2,0,0,1-.11-.56,3.09,3.09,0,0,1,.28-1.19l-3.55-1.12a6,6,0,0,1,.26,1.45,2,2,0,0,1-.63,1.68A.91.91,0,0,1,628.8,382Z" transform="translate(-582.33 -341.12)"/><path class="cls-3" d="M629.55,378.64a6,6,0,0,1,.26,1.45,2.09,2.09,0,0,0,.2.22,2.78,2.78,0,0,0,1.93.78,2.56,2.56,0,0,0,.87-.14,3.09,3.09,0,0,1,.28-1.19Z" transform="translate(-582.33 -341.12)"/><path class="cls-12" d="M629.14,378.18a2.81,2.81,0,0,0,.47,1.57,2.86,2.86,0,0,0,1.26,1.05,2.81,2.81,0,0,0,1.62.16,2.76,2.76,0,0,0,1.44-.78,2.84,2.84,0,0,0,.61-3.08,2.75,2.75,0,0,0-1-1.27,2.8,2.8,0,0,0-3.54.35,2.69,2.69,0,0,0-.61.92A2.85,2.85,0,0,0,629.14,378.18Z" transform="translate(-582.33 -341.12)"/><path class="cls-3" d="M628.8,382l.35,1.66,1.64,2.78,2-.87s2.76-2.91,1-3.33a1.51,1.51,0,0,1-.58-.25c.31.86-1,2.67-1,2.67-.15.22-.49.08-.49.08-.84-.13-2.37-2.54-2.62-2.94A1.07,1.07,0,0,1,628.8,382Z" transform="translate(-582.33 -341.12)"/><path class="cls-3" d="M627.21,398.08a18.37,18.37,0,0,0,4.22.56c1.13-.17,3.32-.27,3.32-.27a6.45,6.45,0,0,0,1.83-.13v-.08l-.8-1s-7.7-.58-8.28,0A1.69,1.69,0,0,0,627.21,398.08Z" transform="translate(-582.33 -341.12)"/><path class="cls-1" d="M632.29,384.71s1.45-2,.9-2.81l2.45,1s1.48-.18,2,2a3.86,3.86,0,0,1,.09,1.12,3.54,3.54,0,0,0,.4,1.69c.61,1.22.47,4-.77,4.3a3.57,3.57,0,0,1-1.67.13s.17,5.07.88,5.66-1.83.44-1.83.44-2.19.11-3.32.28a18.89,18.89,0,0,1-4.29-.58s.47-2.14.63-3.5.55-4.24.55-4.24l-2.8-3.83s-.5-2.31,1.23-3.34a21,21,0,0,1,2.4-1.28s1.74,2.86,2.65,3C631.79,384.79,632.14,384.93,632.29,384.71Z" transform="translate(-582.33 -341.12)"/><path class="cls-3" d="M635.5,385.51a4.3,4.3,0,0,1-.13,1.28c-.17.36-.77,2.35-.77,2.35H636s-.74-.8-.68-1.19S635.5,385.51,635.5,385.51Z" transform="translate(-582.33 -341.12)"/><path class="cls-12" d="M631.43,392.41s3-.74,3.32-1.38,1.07-2.07,1.07-2.07l-.32-.43L634,389.7a9.38,9.38,0,0,1-2.59,1.54C630.6,391.38,631.43,392.41,631.43,392.41Z" transform="translate(-582.33 -341.12)"/><path class="cls-11" d="M631.43,392.41s3-.74,3.32-1.38,1.07-2.07,1.07-2.07l-.32-.43L634,389.7a9.38,9.38,0,0,1-2.59,1.54C630.6,391.38,631.43,392.41,631.43,392.41Z" transform="translate(-582.33 -341.12)"/><path class="cls-12" d="M628.8,388.81v1.66h.27a7.68,7.68,0,0,1,3.74,1l.5.27.13.08.85-1.94-.79-.72h0a4.71,4.71,0,0,1-1.39,0,2.27,2.27,0,0,0-1.77-.22c-.49.12-.91.68-1.39.51Z" transform="translate(-582.33 -341.12)"/><path class="cls-3" d="M626.15,385.79l-.55.62v1.52s.47,4.77,1.95,5.29,4.14-.3,4.14-.3.68-1.83.36-1.94-2.83-.78-2.83-.78,0-2.8-.51-3.63c0,0,.36-2.6-.88-2.66S626.15,385.79,626.15,385.79Z" transform="translate(-582.33 -341.12)"/><path class="cls-1" d="M626.07,385.79l-.55.62v1.52s.46,4.77,2,5.29,4.13-.3,4.13-.3.68-1.83.37-1.94-2.84-.78-2.84-.78,0-2.8-.51-3.63c0,0,.36-2.6-.88-2.66S626.07,385.79,626.07,385.79Z" transform="translate(-582.33 -341.12)"/><path class="cls-3" d="M629.91,379.39a1.22,1.22,0,0,1,.06-.54.39.39,0,0,1,.18-.2.4.4,0,0,1,.26-.06c.23.06.34.37.57.44a.42.42,0,0,0,.29,0,.43.43,0,0,0,.2-.22,1.25,1.25,0,0,0,.1-.6v-.69a1.21,1.21,0,0,1,.16-.72,1.26,1.26,0,0,1,.95-.35.75.75,0,0,1,.53.22.83.83,0,0,0,.26.17.66.66,0,0,0,.31,0,.47.47,0,0,0,.25-.11.51.51,0,0,0,.15-.23h0a2.88,2.88,0,0,0-.87-.76,2.82,2.82,0,0,0-1.1-.34,2.76,2.76,0,0,0-1.14.12,3,3,0,0,0-1,.58,2.83,2.83,0,0,0-.68.93,2.92,2.92,0,0,0,0,2.27,2.82,2.82,0,0,0,.65,1A8,8,0,0,1,629.91,379.39Z" transform="translate(-582.33 -341.12)"/><path class="cls-1" d="M633.78,376.75a.47.47,0,0,0,.25-.11.57.57,0,0,0,.15-.23c0-.09,0-.19,0-.28s.3-.33.45-.49a1.13,1.13,0,0,0,.07-1.28.9.9,0,0,0-.88-.53c-.22,0-.41.2-.64.22a1.42,1.42,0,0,1-.61-.2,2.28,2.28,0,0,0-1.52-.14.84.84,0,0,0-.42.21,2.27,2.27,0,0,0-.22.32,1.78,1.78,0,0,1-1.13.47c-.41.07-.87.23-1,.63a1.76,1.76,0,0,0,0,.82.2.2,0,0,1,0,.17c-.06.11-.22.06-.34.09s-.29.34-.3.59,0,.55,0,.82a.78.78,0,0,0,0,.37.75.75,0,0,0,.21.32l.91,1.1a2.35,2.35,0,0,1,.75,1.68c.19.09.41-.08.48-.28a1.35,1.35,0,0,0,0-.63,6.38,6.38,0,0,1-.15-1.08,1.12,1.12,0,0,1,.07-.54.41.41,0,0,1,.17-.2.47.47,0,0,1,.26-.05c.24.06.34.36.57.44a.48.48,0,0,0,.29,0,.5.5,0,0,0,.21-.22,1.24,1.24,0,0,0,.09-.6v-.69a1.17,1.17,0,0,1,.17-.73,1.27,1.27,0,0,1,.94-.34.79.79,0,0,1,.54.22.63.63,0,0,0,.26.16A.77.77,0,0,0,633.78,376.75Z" transform="translate(-582.33 -341.12)"/><path class="cls-3" d="M633.15,385.44,632.3,389S631.61,389,633.15,385.44Z" transform="translate(-582.33 -341.12)"/><path class="cls-3" d="M630.21,384.85a5.68,5.68,0,0,1,.68,3.78l-.21,0S631.06,387.76,630.21,384.85Z" transform="translate(-582.33 -341.12)"/><path class="cls-3" d="M629.49,395.38s-1.38-.46-1.48.61C628,396,628.27,395.25,629.49,395.38Z" transform="translate(-582.33 -341.12)"/><path class="cls-3" d="M633.5,389.22a5.54,5.54,0,0,1-.23,2.72,5.92,5.92,0,0,0,2.43.33l.17-3Z" transform="translate(-582.33 -341.12)"/><path class="cls-3" d="M633.31,391.72l.13.08.86-1.94-.8-.72h0A6.18,6.18,0,0,1,633.31,391.72Z" transform="translate(-582.33 -341.12)"/><path class="cls-1" d="M633.5,389.14a5.54,5.54,0,0,1-.23,2.72,6.09,6.09,0,0,0,2.43.33l1-3.05Z" transform="translate(-582.33 -341.12)"/><path class="cls-15" d="M635.87,421.5a.65.65,0,0,0,.18.37.59.59,0,0,0,.36.18,20.18,20.18,0,0,1,3,.62,5.15,5.15,0,0,0,3-.19.5.5,0,0,0,0-.17.48.48,0,0,0,0-.17.9.9,0,0,0-.37-.4l-.17-.07a3.57,3.57,0,0,1-1.46-.77,9.15,9.15,0,0,1-1.3-1.38.84.84,0,0,0-.23-.23.67.67,0,0,0-.3-.1c-.24,0-.52.11-.62.64,0,0-1.32.76-1.68.1a3.86,3.86,0,0,1-.27,1.3A.38.38,0,0,0,635.87,421.5Z" transform="translate(-582.33 -341.12)"/><path class="cls-3" d="M635.87,421.5a.7.7,0,0,0,.17.37.65.65,0,0,0,.36.18,20.07,20.07,0,0,1,3,.62,5.07,5.07,0,0,0,3-.2.43.43,0,0,0,0-.16.48.48,0,0,0,0-.17.9.9,0,0,0-.37-.4c-.37.25-1.2.5-3,.21a13.3,13.3,0,0,1-3-.72A.38.38,0,0,0,635.87,421.5Z" transform="translate(-582.33 -341.12)"/><g class="cls-16"><path class="cls-3" d="M628.37,376.2h0a3.42,3.42,0,0,1-.09-.63,4.5,4.5,0,0,0,.08.51A.53.53,0,0,1,628.37,376.2Z" transform="translate(-582.33 -341.12)"/><path class="cls-3" d="M630,378.79a1.14,1.14,0,0,0-.07.32,1.1,1.1,0,0,1,.07-.44.46.46,0,0,1,.18-.21.47.47,0,0,1,.26,0c.23.06.34.37.57.44a.42.42,0,0,0,.29,0,.56.56,0,0,0,.21-.22,1.24,1.24,0,0,0,.09-.6v-.69a1.2,1.2,0,0,1,.16-.72,1.28,1.28,0,0,1,.95-.35.79.79,0,0,1,.54.22.65.65,0,0,0,.26.17.77.77,0,0,0,.3,0,.47.47,0,0,0,.25-.11.51.51,0,0,0,.15-.23c0-.09,0-.19,0-.27s.3-.34.45-.5a.86.86,0,0,0,.23-.59.81.81,0,0,1,0,.38.78.78,0,0,1-.19.33c-.15.18-.38.28-.45.5s0,.18,0,.27a.51.51,0,0,1-.15.23.58.58,0,0,1-.25.12.61.61,0,0,1-.3,0,.65.65,0,0,1-.26-.17.84.84,0,0,0-.54-.22,1.28,1.28,0,0,0-.95.35,1.18,1.18,0,0,0-.16.72v.69a1.24,1.24,0,0,1-.09.6.45.45,0,0,1-.21.22.42.42,0,0,1-.29,0c-.23-.07-.34-.38-.57-.44a.4.4,0,0,0-.26.06A.39.39,0,0,0,630,378.79Z" transform="translate(-582.33 -341.12)"/><path class="cls-3" d="M627.71,378a1,1,0,0,0,.24.38l.9,1.1a2.46,2.46,0,0,1,.76,1.59,2.75,2.75,0,0,0-.76-1.47l-.9-1.1a.77.77,0,0,1-.22-.31.78.78,0,0,1,0-.37A1.1,1.1,0,0,0,627.71,378Z" transform="translate(-582.33 -341.12)"/><path class="cls-3" d="M630.08,380.91a.4.4,0,0,0,0-.15.65.65,0,0,1,0,.28.39.39,0,0,1-.48.28.49.49,0,0,0,0-.12.4.4,0,0,0,.3-.05A.35.35,0,0,0,630.08,380.91Z" transform="translate(-582.33 -341.12)"/></g><path class="cls-3" d="M639.22,419.77s-.28.52-1.32.06Z" transform="translate(-582.33 -341.12)"/><path class="cls-3" d="M630.41,419.9a1.58,1.58,0,0,1-2,.34Z" transform="translate(-582.33 -341.12)"/><path class="cls-3" d="M627.8,407.29s.63.4.66.63-.33-.17-.33-.17Z" transform="translate(-582.33 -341.12)"/><path class="cls-3" d="M627.55,410.36a1.3,1.3,0,0,0,.78.3c.48,0,.44.65.13.46A7.48,7.48,0,0,1,627.55,410.36Z" transform="translate(-582.33 -341.12)"/><path class="cls-3" d="M627.43,410.76s.3,1.5.55,1.21Z" transform="translate(-582.33 -341.12)"/><path class="cls-17" d="M596.56,420.2c.51-.95-.07-2.11-.74-2.95s-1.47-1.72-1.45-2.81c0-1.54,1.66-2.46,3-3.28A14.48,14.48,0,0,0,600,409a4,4,0,0,0,.81-1.1,4.46,4.46,0,0,0,.25-2c-.06-2.21-.17-4.41-.33-6.62" transform="translate(-582.33 -341.12)"/><path class="cls-2" d="M603.2,399.22a2.44,2.44,0,0,0-.34-1.15,2.41,2.41,0,0,0-.85-.83l-.54,1.07,0-1.3a2.41,2.41,0,0,0-1.48.05,2.35,2.35,0,0,0-1.17.91,2.39,2.39,0,0,0-.41,1.44,2.31,2.31,0,0,0,.51,1.4,2.38,2.38,0,0,0,1.23.83,2.35,2.35,0,0,0,1.48-.06,2.41,2.41,0,0,0,1.16-.93,2.35,2.35,0,0,0,.39-1.43Z" transform="translate(-582.33 -341.12)"/><path class="cls-2" d="M598.93,415.55a2.4,2.4,0,0,1-2.76,1.22,2.45,2.45,0,0,1-1.31-.92,2.4,2.4,0,1,1,4.18-2.24l-1.49,1.22,1.64-.38A2.47,2.47,0,0,1,598.93,415.55Z" transform="translate(-582.33 -341.12)"/><path class="cls-2" d="M597.74,410.87a2.42,2.42,0,0,1-1.65-.52,2.37,2.37,0,0,1-.87-1.5,2.41,2.41,0,0,1,1.76-2.72v1l.54-1.09a2.66,2.66,0,0,1,.93.14,2.27,2.27,0,0,1,.8.49,2.5,2.5,0,0,1,.56.76,2.34,2.34,0,0,1,.22.91,2.5,2.5,0,0,1-.1.82,2.41,2.41,0,0,1-2.18,1.71Z" transform="translate(-582.33 -341.12)"/><path class="cls-2" d="M603.56,407a2.21,2.21,0,0,1-1.07-.21,2.42,2.42,0,0,1-.86-.66,2.49,2.49,0,0,1-.49-1,2.48,2.48,0,0,1,.49-2.08,2.42,2.42,0,0,1,1.94-.87,2.4,2.4,0,0,1,1,.3l-.42,1.17.87-.85a2.41,2.41,0,0,1-1.51,4.19Z" transform="translate(-582.33 -341.12)"/><path class="cls-3" d="M602.88,399.86c-.55.06-1.09.23-1.65.27a1.78,1.78,0,0,1-1.51-.54,7.52,7.52,0,0,1-.45-.78,1.64,1.64,0,0,0-.6-.57,2.3,2.3,0,0,0-.23,1,2.34,2.34,0,0,0,.18,1,2.26,2.26,0,0,0,.56.83,2.46,2.46,0,0,0,1.83.66,2.39,2.39,0,0,0,1-.29,2.27,2.27,0,0,0,.76-.65,2.34,2.34,0,0,0,.43-.9Z" transform="translate(-582.33 -341.12)"/><path class="cls-3" d="M603.56,407a2.25,2.25,0,0,1-1.19-.25,2.48,2.48,0,0,1-.92-.81,2.43,2.43,0,0,1-.39-1.17,2.36,2.36,0,0,1,.22-1.2,1.57,1.57,0,0,1,.48.48,8.06,8.06,0,0,0,.48.8,2,2,0,0,0,1.59.56c.58,0,1.14-.19,1.71-.25h.24a2.43,2.43,0,0,1-.8,1.3A2.39,2.39,0,0,1,603.56,407Z" transform="translate(-582.33 -341.12)"/><path class="cls-3" d="M597.74,410.86a2.3,2.3,0,0,1-1.18-.24,2.42,2.42,0,0,1-.91-.8,2.29,2.29,0,0,1-.41-1.15,2.35,2.35,0,0,1,.2-1.2,1.86,1.86,0,0,1,.52.49,7,7,0,0,0,.52.81,2.22,2.22,0,0,0,1.69.6c.61,0,1.17-.16,1.76-.21a2.36,2.36,0,0,1-.83,1.2A2.31,2.31,0,0,1,597.74,410.86Z" transform="translate(-582.33 -341.12)"/><path class="cls-3" d="M598.93,415.55a2.43,2.43,0,0,1-1.33,1.27,2.4,2.4,0,0,1-3.09-1.4,2.4,2.4,0,0,1,0-1.84,2.33,2.33,0,0,1,.52.47,8.82,8.82,0,0,0,.65.86,3,3,0,0,0,2,.71A10,10,0,0,0,598.93,415.55Z" transform="translate(-582.33 -341.12)"/><path class="cls-18" d="M592.94,419.11a6.62,6.62,0,0,0,2.46-.47c.56-.41,2.9-.89,3.05-.24s2.84,3.27.71,3.28a18.18,18.18,0,0,1-5.54-.69C593.05,420.65,592.94,419.11,592.94,419.11Z" transform="translate(-582.33 -341.12)"/><path class="cls-19" d="M599.2,421.45a17.53,17.53,0,0,1-5.53-.69c-.43-.26-.61-1.22-.66-1.66h-.07s.12,1.54.69,1.89,3.39.71,5.53.69c.61,0,.83-.22.82-.55C599.9,421.33,599.67,421.45,599.2,421.45Z" transform="translate(-582.33 -341.12)"/></svg>