<svg id="Layer_1" data-name="Layer 1" xmlns="http://www.w3.org/2000/svg" viewBox="0 0 295.3 231.11"><defs><style>.cls-1{fill:#3f3d56;}.cls-2{fill:#d0cde1;}.cls-3{fill:#2f2e41;}.cls-4{fill:#a0616a;}.cls-5{opacity:0.15;}.cls-5,.cls-6{isolation:isolate;}.cls-6{opacity:0.1;}.cls-7{fill:#109cf1;}</style></defs><path class="cls-1" d="M260.17,214.92c0-.09-2.1-9.63,2.15-17.56s13.32-11.42,13.42-11.46l.41-.15.1.43c0,.1,2.1,9.64-2.15,17.57s-13.32,11.42-13.42,11.45l-.4.16Zm15.42-28.11c-1.83.78-9,4.22-12.58,10.92s-2.52,14.61-2.17,16.57c1.82-.79,9-4.22,12.58-10.92S275.93,188.77,275.59,186.81Z"/><path class="cls-2" d="M270.86,201c-7.64,4.62-10.58,13.8-10.58,13.8s9.44,1.68,17.08-2.94S287.93,198,287.93,198,278.5,196.35,270.86,201Z"/><path class="cls-1" d="M104.9,173.16c-.92,0-1.83,0-2.73,0v-.66c1.3,0,2.62,0,3.92,0v.66Zm5.15-.15,0-.66c1.3-.08,2.6-.18,3.9-.32l.07.66C112.68,172.82,111.36,172.93,110.05,173Zm-11.82-.1c-1.29-.1-2.63-.24-3.93-.4l.08-.65q2,.24,3.9.39Zm19.66-.73-.09-.65c1.28-.2,2.58-.42,3.85-.68l.13.65C120.49,171.75,119.18,172,117.89,172.18Zm-27.49-.24c-1.28-.22-2.58-.47-3.86-.75l.14-.64c1.27.27,2.57.52,3.84.74Zm35.21-1.3-.14-.64c1.25-.32,2.52-.66,3.77-1l.18.63C128.17,170,126.9,170.32,125.61,170.64Zm-42.89-.38c-1.27-.34-2.56-.71-3.79-1.11l.19-.63c1.24.4,2.5.77,3.76,1.1Zm50.45-1.88-.21-.62c1.22-.43,2.46-.89,3.66-1.38l.24.61C135.66,167.48,134.41,168,133.17,168.38Zm-58-.51c-1.24-.46-2.47-1-3.68-1.46l.24-.61c1.21.51,2.44,1,3.66,1.45Zm65.3-2.43-.27-.6c1.17-.54,2.36-1.11,3.51-1.71l.31.59C142.87,164.32,141.68,164.9,140.49,165.44Zm7-3.6-.32-.57c1.12-.65,2.26-1.33,3.35-2l.34.56C149.77,160.5,148.63,161.19,147.49,161.84Zm6.66-4.23-.39-.54c1.08-.75,2.14-1.53,3.17-2.33l.4.53C156.28,156.07,155.22,156.86,154.15,157.61Zm-99.79-.93c-1.06-.77-2.12-1.58-3.15-2.4l.42-.52c1,.82,2,1.62,3.11,2.39Zm106-3.9-.41-.5c1-.84,2-1.72,2.92-2.61l.45.49C162.38,151.05,161.39,151.93,160.39,152.78Zm-112.2-1.05c-1-.86-2-1.77-2.9-2.68l.45-.47c.93.9,1.91,1.8,2.87,2.66Zm118-4.33-.47-.46c.92-.93,1.83-1.9,2.7-2.87l.48.45C168,145.49,167.1,146.46,166.17,147.4ZM42.5,146.24c-.9-1-1.8-1.94-2.65-2.93l.5-.43c.85,1,1.73,2,2.63,2.91Zm129-4.73-.5-.42c.82-1,1.64-2.05,2.41-3.1l.53.4C173.1,139.44,172.28,140.49,171.45,141.51ZM37.33,140.26c-.8-1-1.61-2.1-2.38-3.16l.55-.39c.75,1.06,1.54,2.12,2.34,3.14Zm138.85-5.1-.54-.37c.72-1.08,1.44-2.2,2.12-3.31l.56.35C177.63,133,176.91,134.07,176.18,135.16ZM32.74,133.83c-.72-1.1-1.41-2.23-2.09-3.36l.58-.34c.66,1.13,1.35,2.25,2.06,3.34Zm147.57-5.43-.58-.32c.63-1.15,1.24-2.32,1.81-3.49l.6.29c-.58,1.18-1.21,2.36-1.83,3.52Zm3.5-7.12-.61-.27c.53-1.19,1-2.42,1.49-3.64l.61.23c-.47,1.23-1,2.47-1.49,3.68ZM25.39,119.86c-.51-1.21-1-2.45-1.43-3.69l.61-.22c.45,1.22.92,2.45,1.41,3.65Zm161.24-6-.61-.21c.4-1.23.79-2.5,1.14-3.76l.63.18C187.43,111.34,187.05,112.61,186.63,113.86ZM22.69,112.42c-.38-1.26-.75-2.54-1.09-3.81l.64-.17c.32,1.27.69,2.54,1.08,3.78Zm166.08-6.19-.63-.15c.29-1.27.55-2.56.79-3.85l.64.12C189.33,103.65,189.07,105,188.77,106.23ZM20.69,104.75c-.28-1.28-.52-2.59-.73-3.89l.65-.11c.21,1.29.45,2.59.72,3.86Zm169.5-6.31-.64-.09c.18-1.29.32-2.61.44-3.91l.65.06C190.53,95.81,190.37,97.14,190.19,98.44ZM19.4,96.93c-.16-1.3-.27-2.63-.37-3.94l.65,0c.09,1.3.22,2.62.38,3.91Zm171.52-6.39-.66,0c.05-1.3.08-2.62.08-3.93H191C191,87.89,191,89.23,190.92,90.54ZM18.83,89c0-.81,0-1.63,0-2.45,0-.51,0-1,0-1.52h.66c0,.51,0,1,0,1.51,0,.81,0,1.63,0,2.43Zm.78-7.89-.64,0c.08-1.31.19-2.64.34-3.95l.64.08c-.15,1.29-.26,2.61-.34,3.91Zm170.31-4c-.13-1.3-.3-1.93-.5-3.23l.65-.09c.19,1.3.35,2.29.48,3.6ZM20.46,73.33l-.64-.11c.19-1.3.43-2.61.69-3.9l.64.13c-.25,1.28-.5,2.58-.69,3.88ZM188.77,70c-.26-1.29-.55-2.58-.85-3.84l.64-.16c.3,1.27.59,2.58.85,3.87ZM22,65.62l-.62-.16c.32-1.28.67-2.56,1-3.83l.63.19C22.68,63.08,22.32,64.35,22,65.62Zm164.9-3.23c-.36-1.26-.75-2.52-1.18-3.75l.62-.22c.42,1.25.82,2.52,1.19,3.78ZM24.27,58.07l-.63-.22c.45-1.24.91-2.49,1.4-3.71l.61.24C25.16,55.6,24.7,56.84,24.27,58.07ZM184.37,55c-.48-1.22-1-2.43-1.53-3.62l.6-.27c.54,1.2,1.06,2.42,1.54,3.64ZM27.2,50.77l-.59-.28c.54-1.2,1.12-2.4,1.73-3.57l.58.3C28.33,48.39,27.75,49.58,27.2,50.77Zm154-3c-.58-1.16-1.2-2.33-1.85-3.46l.58-.33c.64,1.15,1.27,2.32,1.86,3.49Zm-150.36-4-.56-.33c.64-1.14,1.33-2.29,2-3.4l.57.36C32.13,41.5,31.44,42.63,30.8,43.77ZM177.31,41c-.69-1.11-1.41-2.22-2.15-3.29l.54-.37c.74,1.08,1.48,2.19,2.17,3.31ZM35,37.13l-.55-.38c.76-1.08,1.54-2.15,2.35-3.19l.53.4C36.54,35,35.76,36.06,35,37.13ZM172.86,34.5c-.78-1-1.6-2.07-2.44-3.07l.5-.43c.83,1,1.67,2,2.46,3.1ZM39.8,30.91l-.5-.43c.85-1,1.74-2,2.64-3l.48.45C41.52,28.93,40.65,29.92,39.8,30.91Zm128-2.44c-.88-1-1.8-1.92-2.71-2.84l.46-.46c.93.92,1.85,1.89,2.73,2.85ZM45.15,25.16l-.45-.47c.93-.92,1.89-1.83,2.87-2.71l.43.49c-1,.87-1.92,1.77-2.85,2.69Zm117.14-2.23c-1-.88-2-1.75-3-2.58l.42-.51c1,.84,2,1.71,3,2.6ZM51,19.92l-.42-.51c1-.83,2-1.65,3.11-2.43l.39.53C53,18.28,52,19.1,51,19.92Zm6.27-4.68-.37-.55c1.09-.73,2.2-1.45,3.33-2.13l.33.56c-1.1.68-2.21,1.39-3.29,2.12Zm6.68-4.08-.32-.58c1.15-.63,2.32-1.24,3.5-1.82l.29.59C66.23,9.92,65.08,10.53,63.94,11.16Zm79-1.53c-1.17-.58-2.36-1.15-3.56-1.67l.27-.61c1.21.53,2.41,1.1,3.58,1.69ZM71,7.71,70.7,7.1c1.18-.52,2.42-1,3.64-1.49l.22.62C73.36,6.69,72.14,7.19,71,7.71Zm64.84-1.26c-1.22-.48-2.46-.93-3.69-1.35l.21-.62c1.25.42,2.48.87,3.72,1.35ZM78.25,4.92l-.2-.63c1.25-.41,2.52-.79,3.77-1.14l.17.63c-1.25.35-2.5.73-3.74,1.14Zm50.11-1c-1.25-.36-2.52-.69-3.79-1l.16-.64c1.27.3,2.55.63,3.81,1ZM85.78,2.81l-.14-.64c1.28-.29,2.58-.56,3.86-.79l.12.65C88.35,2.26,87.05,2.52,85.78,2.81Zm35-.68c-1.28-.24-2.58-.45-3.87-.63l.1-.65c1.3.18,2.6.4,3.88.64ZM93.48,1.42,93.4.77C94.69.59,96,.44,97.32.33l.05.66C96.08,1.1,94.77,1.25,93.48,1.42ZM113,1c-1.28-.12-2.6-.22-3.9-.28l0-.66c1.32.07,2.63.16,3.93.29ZM101.28.74l0-.66c1.21,0,2.43-.08,3.65-.08h.3l0,.66h-.28C103.69.66,102.47.68,101.28.74Z"/><path class="cls-1" d="M295.3,214.74h-240v.65h240Z"/><path class="cls-3" d="M195.78,104l3.27,51s7.87,20.08,7.53,39.17c0,0-2.94,7.57-.66,8.89s3.61,2.3,2.3,3.29-2.3,3.29-1.3,4,1.3,1.65,1,1.65h-9.83s2-4.94-1-6.26-1.32-4.61-1.32-4.61l-21.94-64.52-17.35,59.26s3,2,.66,3-3.27-1-2.29,1-.33,3-.33,3.29-9.82-1-9.82-1,4.91-4.28,2.62-5.27-3.28-2-2.62-2.63,3.28-6.91,3.28-6.91,1.3-23.71,1.63-24.69,0-5.6,0-7.9-.33-11.53.65-13.83,2-30.62,7.2-33.91S195.78,104,195.78,104Z"/><path class="cls-3" d="M154.2,201.48s6.55,13.5,2,15.14-10.48.33-11.79,2.31-15.72,4.28-16-.66,15.71-14.16,15.71-14.16l2.09-3.38Z"/><path class="cls-3" d="M207.24,211.36s6.55,13.5,2,15.14-10.48.33-11.78,2.31-15.73,4.28-16-.66S197.08,214,197.08,214l2.09-3.38Z"/><path class="cls-4" d="M177,42a10.86,10.86,0,1,0-10.8-10.86A10.83,10.83,0,0,0,177,42Z"/><path class="cls-4" d="M184.32,36.88,183,46.43,173.18,54l-2.61-3.62V37.87Z"/><path class="cls-1" d="M168.93,49.06s10.14,1,15.39-2.63l10.48,62.22s-37,3-38.64,1V90.21l6.54-31.6Z"/><path class="cls-2" d="M183.42,43.45l3.52,3s14.41,2.3,13.43,6.25l-3.93,46.75,1.3,15.8s-11.12-3-19.65,0-1.75-63.67-1.75-63.67S184.16,44.43,183.42,43.45Z"/><path class="cls-2" d="M170.57,47.06s-10.48,7.6-11.78,12.54-5.57,57-5.57,57,2-1,2.94.66S172.2,49.66,170.57,47.06Z"/><path class="cls-3" d="M166.15,30.65a5.23,5.23,0,0,1-.72-3.67,10.8,10.8,0,0,0,.32-3.3,32.76,32.76,0,0,1,1.9-4.79c.94-1.72.49-2.45,3.46-3s1.75-4.43,9.58-.23a2.23,2.23,0,0,0,1.05.82,2.33,2.33,0,0,0,1.33.09c1.62-.32,2.2,1.94,2.2,1.94s1.09-.63,1.49.28,3.29-.55,3.29,5.56a25.33,25.33,0,0,1-3.29,11.56s.24-10.27-5.1-11.31-11.12-4.07-12.51-.18A29.47,29.47,0,0,1,166.15,30.65Z"/><path class="cls-4" d="M186.89,33.09c.58,0,1-.64,1-1.42s-.46-1.41-1-1.41-1.06.63-1.06,1.41S186.29,33.09,186.89,33.09Z"/><path class="cls-2" d="M142.51,133.48a11.71,11.71,0,0,0-6.9-1.33,10.17,10.17,0,0,0,11.3,6.84A11.85,11.85,0,0,0,142.51,133.48Z"/><path class="cls-2" d="M154.68,164.56H138.49a3.58,3.58,0,0,0-2.57,1.08,3.66,3.66,0,0,0,2.57,6.25h16.19a3.67,3.67,0,0,0,0-7.33Z"/><path class="cls-2" d="M228,125.89H137.22a8.07,8.07,0,0,0-5.68,2.37,8,8,0,0,0-1.75,2.62,8.2,8.2,0,0,0-.61,3.1v44.47a8.12,8.12,0,0,0,2.36,5.72,8,8,0,0,0,5.68,2.37H228a7.86,7.86,0,0,0,3.06-.62,8.08,8.08,0,0,0,2.62-1.75,8.4,8.4,0,0,0,1.75-2.63,8.18,8.18,0,0,0,.61-3.09V134a8.2,8.2,0,0,0-.61-3.1,8.48,8.48,0,0,0-1.75-2.62,8.08,8.08,0,0,0-2.62-1.75A7.86,7.86,0,0,0,228,125.89Zm-93,5.51a12.73,12.73,0,0,1,8,1.38,12.86,12.86,0,0,1,4.93,6.42l.14.44-.46.08a13,13,0,0,1-2,.15,11.66,11.66,0,0,1-6-1.52,12.58,12.58,0,0,1-4.92-6.42l-.15-.44Zm19.71,41.3H138.49a4.43,4.43,0,0,1-3.15-1.31,4.48,4.48,0,0,1,3.15-7.65h16.19a4.43,4.43,0,0,1,3.14,1.31,4.47,4.47,0,0,1,0,6.34A4.39,4.39,0,0,1,154.68,172.7Zm73.66-.82a4.87,4.87,0,0,1-4.84,4.89H211.35a4.87,4.87,0,0,1-4.85-4.89v-7.32a4.87,4.87,0,0,1,4.85-4.89H223.5a4.87,4.87,0,0,1,4.84,4.89Z"/><path class="cls-2" d="M215.2,170.46h-5.26a1.45,1.45,0,0,0-1,.42,1.49,1.49,0,0,0-.4,1,1.4,1.4,0,0,0,1.42,1.42h5.26a1.36,1.36,0,0,0,1-.42,1.34,1.34,0,0,0,.42-1,1.38,1.38,0,0,0-.42-1A1.36,1.36,0,0,0,215.2,170.46Zm0,2h-5.26a.7.7,0,0,1-.25-.05.92.92,0,0,1-.19-.13,1,1,0,0,1-.13-.2.59.59,0,0,1,0-.23.67.67,0,0,1,0-.24,1.37,1.37,0,0,1,.13-.2,1.62,1.62,0,0,1,.19-.13.69.69,0,0,1,.25,0h5.26a.51.51,0,0,1,.22,0,.74.74,0,0,1,.21.13.86.86,0,0,1,.13.2.69.69,0,0,1,.05.24.59.59,0,0,1-.05.23.69.69,0,0,1-.13.2.57.57,0,0,1-.21.13A.51.51,0,0,1,215.2,172.5Z"/><path class="cls-2" d="M224.91,170.46h-5.27a1.35,1.35,0,0,0-.52.11,1.38,1.38,0,0,0-.47.31,1.44,1.44,0,0,0-.31.46,1.29,1.29,0,0,0-.11.55,1.27,1.27,0,0,0,.11.54,1.48,1.48,0,0,0,.31.47,1.35,1.35,0,0,0,.47.3,1.19,1.19,0,0,0,.52.11h5.27a1.43,1.43,0,0,0,1.43-1.42,1.47,1.47,0,0,0-.42-1A1.42,1.42,0,0,0,224.91,170.46Zm0,2h-5.27a.59.59,0,0,1-.22-.05.43.43,0,0,1-.19-.13.59.59,0,0,1-.15-.2,1.6,1.6,0,0,1,0-.23,2,2,0,0,1,0-.24.7.7,0,0,1,.15-.2.53.53,0,0,1,.19-.13.57.57,0,0,1,.22,0h5.27a.58.58,0,0,1,.43.18.62.62,0,0,1,.18.43.64.64,0,0,1-.18.43A.62.62,0,0,1,224.91,172.5Z"/><path class="cls-2" d="M215.2,166.8h-5.26a1.45,1.45,0,0,0-1,.42,1.49,1.49,0,0,0-.4,1,1.47,1.47,0,0,0,.4,1,1.45,1.45,0,0,0,1,.42h5.26a1.45,1.45,0,0,0,.54-.11,1.17,1.17,0,0,0,.45-.31,1.44,1.44,0,0,0,.31-.46,1.27,1.27,0,0,0,.11-.54,1.29,1.29,0,0,0-.11-.55,1.44,1.44,0,0,0-.31-.46,1.29,1.29,0,0,0-.45-.31A1.45,1.45,0,0,0,215.2,166.8Zm0,2h-5.26a.6.6,0,0,1-.61-.61.64.64,0,0,1,.17-.44.62.62,0,0,1,.44-.17h5.26a.61.61,0,0,1,.42.17.62.62,0,0,1-.42,1.05Z"/><path class="cls-2" d="M224.91,166.8h-5.27a1.35,1.35,0,0,0-.52.11,1.38,1.38,0,0,0-.47.31,1.44,1.44,0,0,0-.31.46,1.29,1.29,0,0,0-.11.55,1.27,1.27,0,0,0,.11.54,1.44,1.44,0,0,0,.31.46,1.25,1.25,0,0,0,.47.31,1.35,1.35,0,0,0,.52.11h5.27a1.42,1.42,0,0,0,1-.42,1.44,1.44,0,0,0,.42-1,1.47,1.47,0,0,0-.42-1A1.42,1.42,0,0,0,224.91,166.8Zm0,2h-5.27a.58.58,0,0,1-.41-.18.62.62,0,0,1,0-.87.57.57,0,0,1,.41-.17h5.27a.61.61,0,0,1,.43.17.62.62,0,0,1,0,.87A.62.62,0,0,1,224.91,168.84Z"/><path class="cls-2" d="M215.2,163.13h-5.26a1.45,1.45,0,0,0-1,.42,1.42,1.42,0,0,0,1,2.43h5.26a1.42,1.42,0,0,0,1-2.43A1.36,1.36,0,0,0,215.2,163.13Zm0,2h-5.26a.63.63,0,0,1-.44-.18.63.63,0,0,1,0-.86.59.59,0,0,1,.44-.18h5.26a.58.58,0,0,1,.42.18.58.58,0,0,1,0,.86A.62.62,0,0,1,215.2,165.17Z"/><path class="cls-2" d="M224.91,163.13h-5.27a1.35,1.35,0,0,0-.52.11,1.38,1.38,0,0,0-.47.31,1.44,1.44,0,0,0-.31.46,1.32,1.32,0,0,0-.11.55,1.24,1.24,0,0,0,.11.54,1.48,1.48,0,0,0,.31.47,1.54,1.54,0,0,0,.47.31,1.34,1.34,0,0,0,.52.1h5.27a1.42,1.42,0,0,0,1-.42,1.41,1.41,0,0,0,.4-1,1.45,1.45,0,0,0-.4-1A1.42,1.42,0,0,0,224.91,163.13Zm0,2h-5.27a.58.58,0,0,1-.41-.18.6.6,0,0,1,0-.86.54.54,0,0,1,.41-.18h5.27a.58.58,0,0,1,.43.18.61.61,0,0,1-.43,1Z"/><path class="cls-4" d="M199.37,115.89l-2.34,7.7s-.59,14.35-8.46,12.38,2.3-18.77,2.3-18.77l2.29-3.62Z"/><path class="cls-4" d="M154.86,115.89l-2.35,7.7s-.61,14.35-8.46,12.38,2.3-18.77,2.3-18.77l2.28-3.62Z"/><path class="cls-2" d="M197.74,50.38S203,49.06,204.62,58s3.6,34.24,3.6,34.24l-7.85,26.66s-7.86-4.28-9.5-3.62l6.18-23.15-5.2-23.6S196.44,50.38,197.74,50.38Z"/><path class="cls-5" d="M190.13,68.93,197,92l-6.87,23.37L194.06,92Z"/><path class="cls-2" d="M158.79,68.48,147,115.23s6.23,2.06,8.52,3.71Z"/><path class="cls-1" d="M35.15,186A32.92,32.92,0,1,0,2.41,153,32.83,32.83,0,0,0,35.15,186Z"/><path class="cls-6" d="M35.15,181.35A28.31,28.31,0,1,0,7,153,28.23,28.23,0,0,0,35.15,181.35Z"/><path class="cls-7" d="M33.8,169.75v-4.12a9.47,9.47,0,0,1-5.46-1.8l.85-2.73a8.73,8.73,0,0,0,5.14,1.75,4,4,0,0,0,4.25-4c0-2.24-1.38-3.63-4-4.85-3.64-1.63-5.89-3.51-5.89-7.06a6.41,6.41,0,0,1,5.4-6.57v-4.12h2.21v4a8.62,8.62,0,0,1,4.64,1.43l-.9,2.69a7.84,7.84,0,0,0-4.49-1.39,3.44,3.44,0,0,0-3.79,3.51c0,2.12,1.31,3.18,4.43,4.65,3.67,1.72,5.53,3.84,5.53,7.47a6.82,6.82,0,0,1-5.64,6.94v4.24Z"/><path class="cls-1" d="M69.73,220A234.84,234.84,0,0,1,0,220v-7.9a260.91,260.91,0,0,0,69.73,0Z"/><path class="cls-1" d="M69.73,207.82a234.84,234.84,0,0,1-69.73,0v-7.9a260.91,260.91,0,0,0,69.73,0Z"/><path class="cls-1" d="M69.73,195.64a234.84,234.84,0,0,1-69.73,0v-7.9a260.91,260.91,0,0,0,69.73,0Z"/></svg>