<svg id="Layer_1" data-name="Layer 1" xmlns="http://www.w3.org/2000/svg" xmlns:xlink="http://www.w3.org/1999/xlink" viewBox="0 0 114 92"><defs><style>.cls-1{fill:none;}.cls-2{clip-path:url(#clip-path);}.cls-3{fill:#109cf1;}.cls-4{fill:#2f2e41;}.cls-5{fill:#e6e6e6;}.cls-6{fill:#fff;}.cls-7{fill:#3f3d56;}</style><clipPath id="clip-path" transform="translate(-625.95 -337.57)"><rect class="cls-1" x="625.95" y="337.57" width="114" height="92"/></clipPath></defs><g class="cls-2"><path class="cls-3" d="M646.49,398.19a1,1,0,0,1-.3-.05,1.06,1.06,0,0,1-.33-.18.76.76,0,0,1-.23-.3l-.93-1.81a1,1,0,0,1,.41-1.3l15.06-7.78a.93.93,0,0,1,.73-.06,1,1,0,0,1,.56.48l.94,1.81a1,1,0,0,1,.06.73,1,1,0,0,1-.48.57l-15.05,7.78A1,1,0,0,1,646.49,398.19Z" transform="translate(-625.95 -337.57)"/><path class="cls-4" d="M652,391.14a1,1,0,0,1,.1.17l1.59,3.49a.9.9,0,0,1,.08.36,1,1,0,0,1-.06.38,1.27,1.27,0,0,1-.2.31.93.93,0,0,1-.31.22L647.8,398a2.45,2.45,0,0,1-1.71-.05,2.42,2.42,0,0,1-1.25-1.17l.06,0-.06,0a2.42,2.42,0,0,1-.13-1.79,2.38,2.38,0,0,1,1.13-1.38l4.93-2.74a1,1,0,0,1,.65-.05,1,1,0,0,1,.53.37Z" transform="translate(-625.95 -337.57)"/><path class="cls-5" d="M715,382H689.18a2.42,2.42,0,0,1-1.6-.61L677,372a2,2,0,0,0-1.32-.5h-9.17V339.85a2.29,2.29,0,0,1,2.28-2.28h43.92a2.27,2.27,0,0,1,2.27,2.28Z" transform="translate(-625.95 -337.57)"/><path class="cls-6" d="M677,352.27a4.83,4.83,0,1,0-4.82-4.83A4.82,4.82,0,0,0,677,352.27Z" transform="translate(-625.95 -337.57)"/><path class="cls-6" d="M695.75,344.85h-9a.61.61,0,0,0-.61.62.59.59,0,0,0,.18.44.58.58,0,0,0,.43.18h9a.58.58,0,0,0,.43-.18.59.59,0,0,0,.18-.44.61.61,0,0,0-.61-.62Z" transform="translate(-625.95 -337.57)"/><path class="cls-6" d="M708.74,348.79H686.68a.56.56,0,0,0-.5.62.57.57,0,0,0,.5.62h22.06a.58.58,0,0,0,.5-.62A.57.57,0,0,0,708.74,348.79Z" transform="translate(-625.95 -337.57)"/><path class="cls-6" d="M707,357.1H674.43a.57.57,0,0,0-.48.62.56.56,0,0,0,.48.62H707c.27,0,.48-.27.48-.62A.56.56,0,0,0,707,357.1Z" transform="translate(-625.95 -337.57)"/><path class="cls-6" d="M707,361H674.43a.64.64,0,0,0,0,1.24H707a.64.64,0,0,0,0-1.24Z" transform="translate(-625.95 -337.57)"/><path class="cls-6" d="M707,364.83H674.43a.57.57,0,0,0-.48.62.56.56,0,0,0,.48.62H707c.27,0,.48-.27.48-.62A.56.56,0,0,0,707,364.83Z" transform="translate(-625.95 -337.57)"/><path class="cls-6" d="M707,368.7H674.43a.56.56,0,0,0-.48.62.57.57,0,0,0,.48.62H707a.56.56,0,0,0,.48-.62C707.48,369,707.27,368.7,707,368.7Z" transform="translate(-625.95 -337.57)"/><path class="cls-3" d="M736.3,382H689.18a2.38,2.38,0,0,1-1.32-.4l0,0V349.37a2.31,2.31,0,0,1,.66-1.61,2.28,2.28,0,0,1,1.61-.67H734a2.29,2.29,0,0,1,2.28,2.28Z" transform="translate(-625.95 -337.57)"/><path class="cls-6" d="M698.36,361.8a4.84,4.84,0,1,0-4.82-4.84A4.83,4.83,0,0,0,698.36,361.8Z" transform="translate(-625.95 -337.57)"/><path class="cls-6" d="M717.09,354.38h-9a.6.6,0,0,0-.44.18.59.59,0,0,0-.18.44.62.62,0,0,0,.18.44.65.65,0,0,0,.44.18h9a.61.61,0,0,0,.62-.62.63.63,0,0,0-.18-.44A.62.62,0,0,0,717.09,354.38Z" transform="translate(-625.95 -337.57)"/><path class="cls-6" d="M730.08,358.31H708a.63.63,0,0,0,0,1.24h22.06a.63.63,0,0,0,0-1.24Z" transform="translate(-625.95 -337.57)"/><path class="cls-6" d="M728.35,366.63H695.78c-.27,0-.48.27-.48.62a.56.56,0,0,0,.48.62h32.57a.57.57,0,0,0,.48-.62A.56.56,0,0,0,728.35,366.63Z" transform="translate(-625.95 -337.57)"/><path class="cls-6" d="M728.35,370.49H695.78a.56.56,0,0,0-.48.62c0,.35.21.62.48.62h32.57a.56.56,0,0,0,.48-.62A.57.57,0,0,0,728.35,370.49Z" transform="translate(-625.95 -337.57)"/><path class="cls-6" d="M728.35,374.36H695.78c-.27,0-.48.27-.48.62a.56.56,0,0,0,.48.62h32.57a.57.57,0,0,0,.48-.62A.56.56,0,0,0,728.35,374.36Z" transform="translate(-625.95 -337.57)"/><path class="cls-6" d="M728.35,378.22H695.78a.56.56,0,0,0-.48.62c0,.35.21.63.48.63h32.57a.65.65,0,0,0,0-1.25Z" transform="translate(-625.95 -337.57)"/><path class="cls-7" d="M737.61,381.67H689.18a2,2,0,0,1-1.28-.44l-.09-.07-4.1-3.63-6.52-5.76a2.3,2.3,0,0,0-1.54-.59H663.8a2.36,2.36,0,0,0-1.66.69,2.39,2.39,0,0,0-.68,1.66v53.7a2.34,2.34,0,0,0,2.34,2.34h73.81a2.36,2.36,0,0,0,2.34-2.34V384a2.36,2.36,0,0,0-2.34-2.35Zm2.06,45.56a2.08,2.08,0,0,1-.61,1.46,2,2,0,0,1-1.45.61H663.8a2.08,2.08,0,0,1-2.07-2.07v-53.7a2.08,2.08,0,0,1,2.07-2.07h11.85A2,2,0,0,1,677,372l6.29,5.55,4.33,3.83a2.34,2.34,0,0,0,1.55.59h48.43a2,2,0,0,1,1.45.61,2.06,2.06,0,0,1,.61,1.46Z" transform="translate(-625.95 -337.57)"/><path class="cls-3" d="M640.16,390a7.39,7.39,0,1,0-7.37-7.39A7.38,7.38,0,0,0,640.16,390Z" transform="translate(-625.95 -337.57)"/><path class="cls-3" d="M640.1,429.49h-2a1,1,0,0,1-1-1v-17a1,1,0,0,1,1-1h2a1,1,0,0,1,1,1v17a1,1,0,0,1-1,1Z" transform="translate(-625.95 -337.57)"/><path class="cls-3" d="M644.51,429.49h-2a1,1,0,0,1-.68-.28,1,1,0,0,1-.29-.69v-17a1,1,0,0,1,.29-.68,1,1,0,0,1,.68-.28h2a1,1,0,0,1,.68.28,1,1,0,0,1,.28.68v17a1,1,0,0,1-.28.69A1,1,0,0,1,644.51,429.49Z" transform="translate(-625.95 -337.57)"/><path class="cls-4" d="M651.89,407.78c0,6-5.65,8-11.66,8s-10.1-1.94-10.1-8,4-16.28,10.06-16.28S651.89,401.76,651.89,407.78Z" transform="translate(-625.95 -337.57)"/><path class="cls-4" d="M640,385.32V385a2.2,2.2,0,0,0,1.3-.29.81.81,0,0,0,.24-.28.79.79,0,0,0,.09-.35.39.39,0,0,0,0-.21.46.46,0,0,0-.13-.18.81.81,0,0,0-.85,0l-.23.1.44-3.2.27,0-.37,2.72a1,1,0,0,1,.92.13.76.76,0,0,1,.2.28.68.68,0,0,1,.06.34,1.06,1.06,0,0,1-.13.47,1.12,1.12,0,0,1-.31.37A2.53,2.53,0,0,1,640,385.32Z" transform="translate(-625.95 -337.57)"/><path class="cls-4" d="M643.94,380.89h-1.49v.28h1.49Z" transform="translate(-625.95 -337.57)"/><path class="cls-4" d="M639.26,380.89h-1.49v.28h1.49Z" transform="translate(-625.95 -337.57)"/><path class="cls-5" d="M722.05,420.05H681.56a2.08,2.08,0,0,1-1.46-.61,2.11,2.11,0,0,1-.6-1.46V395.61a2.07,2.07,0,0,1,2.06-2.07h40.49a2.07,2.07,0,0,1,2.06,2.07V418a2.11,2.11,0,0,1-.6,1.46A2.08,2.08,0,0,1,722.05,420.05Zm-40.49-26.23a1.81,1.81,0,0,0-1.79,1.79V418a1.81,1.81,0,0,0,1.79,1.79h40.49a1.81,1.81,0,0,0,1.79-1.79V395.61a1.81,1.81,0,0,0-1.79-1.79Z" transform="translate(-625.95 -337.57)"/><path class="cls-5" d="M688.1,406.66a4.83,4.83,0,1,0-4.82-4.83A4.82,4.82,0,0,0,688.1,406.66Z" transform="translate(-625.95 -337.57)"/><path class="cls-5" d="M706.83,399.24h-9a.62.62,0,0,0-.44.18.65.65,0,0,0-.18.44.67.67,0,0,0,.18.44.62.62,0,0,0,.44.18h9a.6.6,0,0,0,.44-.18.62.62,0,0,0,.18-.44.61.61,0,0,0-.62-.62Z" transform="translate(-625.95 -337.57)"/><path class="cls-5" d="M719.82,403.17H697.76a.58.58,0,0,0-.5.62.57.57,0,0,0,.5.62h22.06a.57.57,0,0,0,.51-.62A.58.58,0,0,0,719.82,403.17Z" transform="translate(-625.95 -337.57)"/><path class="cls-5" d="M718.09,411.49H685.52a.64.64,0,0,0,0,1.24h32.57a.64.64,0,0,0,0-1.24Z" transform="translate(-625.95 -337.57)"/><path class="cls-5" d="M718.09,415.35H685.52a.57.57,0,0,0-.48.62.56.56,0,0,0,.48.62h32.57a.56.56,0,0,0,.48-.62A.57.57,0,0,0,718.09,415.35Z" transform="translate(-625.95 -337.57)"/><path class="cls-4" d="M634.28,380.55a3.33,3.33,0,0,1,2.58-1.32,11.75,11.75,0,0,1,3.29.32,8.69,8.69,0,0,0,3.69.16,3.55,3.55,0,0,0,1.47-.72,3.59,3.59,0,0,0,1-1.28,4.63,4.63,0,0,0,.27-3.11,5.63,5.63,0,0,0-1.84-2.8,9.46,9.46,0,0,0-6.38-2.11,10.77,10.77,0,0,0-6.24,2.2,10.13,10.13,0,0,0-3.6,5.66,10.53,10.53,0,0,0,.51,6.67c.5,1.16,1.21,2.2,1.77,3.32a5,5,0,0,1,.59,3.44,3.18,3.18,0,0,1-2.15,2.22,2.26,2.26,0,0,1-2.51-1,1.93,1.93,0,0,1,.25-2.56,1.81,1.81,0,0,1,.68-.37,1.91,1.91,0,0,1,1.5.15,1.84,1.84,0,0,1,.58.5,2,2,0,0,1,.4,1.45c0,.26.36.37.4.11a2.33,2.33,0,0,0-.3-1.59,2.4,2.4,0,0,0-1.24-1,2.33,2.33,0,0,0-2.81,1.1,2.52,2.52,0,0,0,.38,2.71,2.64,2.64,0,0,0,2.69,1,3.53,3.53,0,0,0,2.39-2.14,4.55,4.55,0,0,0-.2-3.49c-.49-1.19-1.22-2.25-1.79-3.4a9.54,9.54,0,0,1-1-3.3,10.42,10.42,0,0,1,1.49-6.63,9.7,9.7,0,0,1,5.34-4.07,10,10,0,0,1,6.71.18c2.1.83,4.12,2.63,4.1,5.06a3.73,3.73,0,0,1-1.19,2.78,4.39,4.39,0,0,1-3.45.77c-1.2-.13-2.36-.48-3.57-.57a5.52,5.52,0,0,0-3.1.53,3,3,0,0,0-1.08,1c-.15.22.21.43.35.21Z" transform="translate(-625.95 -337.57)"/><path class="cls-3" d="M632.16,415.17H632l-2-.3a1,1,0,0,1-.64-.39.94.94,0,0,1-.17-.71L631.75,397a1,1,0,0,1,1.09-.81l2,.31a.89.89,0,0,1,.63.38.93.93,0,0,1,.18.72l-2.55,16.78a1,1,0,0,1-.32.59A1,1,0,0,1,632.16,415.17Z" transform="translate(-625.95 -337.57)"/><path class="cls-4" d="M634.56,403.73a.65.65,0,0,1-.2,0l-3.75-.75a1,1,0,0,1-.34-.15,1,1,0,0,1-.27-.27,1.17,1.17,0,0,1-.14-.35,1,1,0,0,1,0-.38l1.63-5.44a2.4,2.4,0,0,1,1-1.36,2.37,2.37,0,0,1,1.68-.32v0a2.4,2.4,0,0,1,2,2.67L635.5,403a.94.94,0,0,1-.94.76Z" transform="translate(-625.95 -337.57)"/><path class="cls-7" d="M652.36,429.57H630.75a.15.15,0,0,1-.1,0,.15.15,0,0,1,0-.2.15.15,0,0,1,.1,0h21.61a.15.15,0,0,1,.1,0,.14.14,0,0,1,0,.2A.15.15,0,0,1,652.36,429.57Z" transform="translate(-625.95 -337.57)"/></g></svg>