<svg id="Layer_1" data-name="Layer 1" xmlns="http://www.w3.org/2000/svg" viewBox="0 0 294.66 240.61"><defs><style>.cls-1{fill:#e6e6e6;}.cls-2{fill:#fff;}.cls-3{fill:#ffb8b8;}.cls-4{fill:#2f2e41;}.cls-5{fill:#109cf1;}</style></defs><path class="cls-1" d="M276.72,223.79c5.06-5.72,28.89-33.86,11.94-38.5C276,181.8,274.52,201,275,213.84c-2-8.67-6-18.79-12.94-14.32-10,6.43,8.76,20.68,13.65,24.18.07.71.13,1.11.13,1.11s.21-.22.55-.62l.44.3S276.77,224.24,276.72,223.79Z"/><path class="cls-1" d="M20.16,239.45c5.78-6.55,33.07-38.79,13.68-44.1-14.57-4-16.19,18-15.71,32.7-2.33-9.93-6.85-21.53-14.82-16.41-11.45,7.38,10,23.7,15.64,27.7l.14,1.27s.25-.25.65-.71l.5.35Z"/><path class="cls-1" d="M84,19.21a1.89,1.89,0,0,0-1.34.55,1.81,1.81,0,0,0-.56,1.33V222.37a1.81,1.81,0,0,0,.56,1.32,1.9,1.9,0,0,0,1.34.56H247.31a1.92,1.92,0,0,0,1.34-.56,1.89,1.89,0,0,0,.56-1.32V21.09a1.89,1.89,0,0,0-1.9-1.88Z"/><path class="cls-2" d="M221.36,107.1H110a2.82,2.82,0,1,1,0-5.64H221.36a2.85,2.85,0,0,1,2,.83,2.81,2.81,0,0,1,0,4A2.85,2.85,0,0,1,221.36,107.1Z"/><path class="cls-2" d="M222.3,54.52H148.41c-1,0-1.88-1.26-1.88-2.82s.85-2.82,1.88-2.82H222.3c1,0,1.89,1.26,1.89,2.82S223.35,54.52,222.3,54.52Z"/><path class="cls-2" d="M222.3,70.7H148.41c-1,0-1.88-1.26-1.88-2.82s.85-2.82,1.88-2.82H222.3c1,0,1.89,1.26,1.89,2.82S223.35,70.7,222.3,70.7Z"/><path class="cls-2" d="M221.36,125.35H110a2.81,2.81,0,0,1-2-.83,2.82,2.82,0,0,1,2-4.81H221.36a2.85,2.85,0,0,1,2,.82,2.81,2.81,0,0,1,0,4A2.85,2.85,0,0,1,221.36,125.35Z"/><path class="cls-2" d="M221.36,143.6H110a2.83,2.83,0,0,1,0-5.65H221.36a2.85,2.85,0,0,1,2,.83,2.81,2.81,0,0,1,0,4A2.85,2.85,0,0,1,221.36,143.6Z"/><path class="cls-2" d="M221.36,161.84H110a2.85,2.85,0,0,1-2-.82,2.8,2.8,0,0,1-.84-2,2.76,2.76,0,0,1,.84-2,2.81,2.81,0,0,1,2-.83H221.36a2.85,2.85,0,0,1,2,.83,2.75,2.75,0,0,1,.83,2,2.79,2.79,0,0,1-.83,2A2.89,2.89,0,0,1,221.36,161.84Z"/><path class="cls-2" d="M221.36,180.09H110a2.82,2.82,0,1,1,0-5.64H221.36a2.85,2.85,0,0,1,2,.82,2.81,2.81,0,0,1,0,4A2.85,2.85,0,0,1,221.36,180.09Z"/><path class="cls-2" d="M221.36,198.33H110a2.82,2.82,0,1,1,0-5.64H221.36a2.85,2.85,0,0,1,2,.83,2.81,2.81,0,0,1,0,4A2.85,2.85,0,0,1,221.36,198.33Z"/><path class="cls-2" d="M122.1,74.84a14.86,14.86,0,1,0-15-14.86A14.9,14.9,0,0,0,122.1,74.84Z"/><path class="cls-3" d="M110.77,112.1l-22.3,11.78-.3-9.82a66.22,66.22,0,0,0,20.63-6.73l2.33-5.73a3.76,3.76,0,0,1,1.21-1.58,3.87,3.87,0,0,1,3.82-.58,4,4,0,0,1,1.62,1.16,3.82,3.82,0,0,1,.87,2.71,3.77,3.77,0,0,1-1.22,2.58Z"/><path class="cls-4" d="M56.25,180.12a4.29,4.29,0,0,1-.09-1.82,4.15,4.15,0,0,1,.65-1.7l4.91-7.47a8.46,8.46,0,0,1,5-3.58,8.59,8.59,0,0,1,6.12.67c-2.06,3.48-1.78,6.53.71,9.19A44.3,44.3,0,0,0,63,182.57a4.38,4.38,0,0,1-4,.49,4.26,4.26,0,0,1-1.71-1.14A4.46,4.46,0,0,1,56.25,180.12Z"/><path class="cls-4" d="M111.8,170.35a8.48,8.48,0,0,1-3,3,8.36,8.36,0,0,1-4.1,1.1l-32.57.24-1.41-8.13,14.4-4.21-12.14-9.26L86.2,137.63l24.12,22.31a8.33,8.33,0,0,1,1.48,10.41Z"/><path class="cls-4" d="M67,226H59.37c-6.85-46.61-13.83-93.35,6.78-110.8l24.29,3.93-3.1,20.47L73.77,155Z"/><path class="cls-4" d="M72.93,240.31a4.41,4.41,0,0,1-3.54-.55l-7.51-4.87a8.49,8.49,0,0,1-3-11c3.51,2,6.59,1.76,9.26-.71a44.24,44.24,0,0,0,7.22,10.51,4.32,4.32,0,0,1,.49,4,4.39,4.39,0,0,1-1.15,1.7A4.32,4.32,0,0,1,72.93,240.31Z"/><path class="cls-4" d="M100.29,82.79H64c-6.69-9.41-7.48-18.4,0-26.82,0-3.72,4.85-6.74,10.83-6.74h0c4.67,0,8.82,1.87,10.27,4.65Z"/><path class="cls-3" d="M85.07,84.05,71,80.69C73.3,75.92,73.49,70.61,72.36,65L82,64.69A72.19,72.19,0,0,0,85.07,84.05Z"/><path class="cls-5" d="M89,127.56c-10.29,7-17.54.24-23.09-10.13.77-6.34-.49-13.94-2.79-22.18A15.09,15.09,0,0,1,72.36,77l12.15,5C94.83,90.44,96.86,99.48,93,109Z"/><path class="cls-3" d="M59.37,91.06,48.07,97l20.05,11.78,2.79,6.83a3.41,3.41,0,0,1,.26,1.44,3.62,3.62,0,0,1-.31,1.42,3.81,3.81,0,0,1-.87,1.19,3.73,3.73,0,0,1-1.28.74,3.68,3.68,0,0,1-1.65.17,3.68,3.68,0,0,1-2.7-1.8,3.64,3.64,0,0,1-.48-1.58l-.27-4.77L38.11,104a6,6,0,0,1-2.28-1.38,5.89,5.89,0,0,1,.78-9.12l20.49-14Z"/><path class="cls-5" d="M70.67,92.19c-4.71-2-9,.17-14.41,2l-.85-14.87c5.37-2.84,10.5-3.61,15.26-1.4Z"/><path class="cls-4" d="M99.61,82.79h-8c-5-9.12-4.76-25.23-15.44-21.64-6.87-4-2.93,11.85-4.64,21.64h-7c-1.88-9.57-1.92-19.15.32-26.95a3.58,3.58,0,0,1,.36-1.47,3.81,3.81,0,0,1,1-1.18,7.68,7.68,0,0,1,1.12-.85A12.3,12.3,0,0,1,75,49.93a22,22,0,0,1,5.94.81l.75.23c.33.12.65.24.94.37a6.52,6.52,0,0,1,3.4,2.72C92.83,62.07,96.28,72.19,99.61,82.79Z"/><path class="cls-3" d="M76.3,72.06a9,9,0,1,0-9-9A9,9,0,0,0,76.3,72.06Z"/><path class="cls-4" d="M85.45,59.65c-2.72-3.67-9.8.71-18.29,3.84v-8.7c7-3.06,11.07-3.94,15.71-.77Z"/><path class="cls-5" d="M244,43.39a21.7,21.7,0,1,0-21.85-21.7A21.78,21.78,0,0,0,244,43.39Z"/><path class="cls-2" d="M234.93,20.26a1.47,1.47,0,0,0-1,.42,1.44,1.44,0,0,0,0,2,1.5,1.5,0,0,0,1,.41h7.65v7.61a1.49,1.49,0,0,0,.42,1,1.52,1.52,0,0,0,1,.41,1.44,1.44,0,0,0,1-.41,1.4,1.4,0,0,0,.42-1V23.12h7.67a1.44,1.44,0,0,0,1-.41,1.44,1.44,0,0,0-1-2.45h-7.67V12.65A1.42,1.42,0,0,0,244,11.23a1.42,1.42,0,0,0-1.45,1.42v7.61Z"/></svg>