<svg id="Layer_1" data-name="Layer 1" xmlns="http://www.w3.org/2000/svg" xmlns:xlink="http://www.w3.org/1999/xlink" viewBox="0 0 170.62 105"><defs><style>.cls-1{fill:none;}.cls-2{clip-path:url(#clip-path);}.cls-3{fill:#e6e6e6;}.cls-4{fill:#2f2e41;}.cls-5{fill:#fbbebe;}.cls-6{fill:#109cf1;}.cls-7{fill:#fff;}</style><clipPath id="clip-path" transform="translate(-597.52 -331.07)"><rect class="cls-1" x="597.52" y="331.07" width="170.62" height="105"/></clipPath></defs><g class="cls-2"><path class="cls-3" d="M621,436.07c13,0,23.47-1.26,23.47-2.82S634,430.42,621,430.42s-23.47,1.27-23.47,2.83S608,436.07,621,436.07Z" transform="translate(-597.52 -331.07)"/><path class="cls-4" d="M627,358.39a1.16,1.16,0,0,1,0,.18,16.25,16.25,0,0,0,.29,8.15h-13l2-9.44a4.93,4.93,0,0,1,.43-2,4.8,4.8,0,0,1,1.21-1.64l.28-.22a4.7,4.7,0,0,1,2.88-1h1.12a5,5,0,0,1,1.95.39l.3.15a5,5,0,0,1,3.19,5.28,16.18,16.18,0,0,0,1.23,8.06l-.67.08A16,16,0,0,1,627,358.39Z" transform="translate(-597.52 -331.07)"/><path class="cls-5" d="M619.11,359.76s1,4.47-1,4.81,5.3,1.37,5.3,1.37-.51-3.61.68-4.81Z" transform="translate(-597.52 -331.07)"/><path class="cls-5" d="M610.55,390.69s-.41,5.26,1.37,5.33.79-5.18.79-5.18Z" transform="translate(-597.52 -331.07)"/><path class="cls-5" d="M634.32,393.28s1.71,5,0,5.5-2.05-4.81-2.05-4.81Z" transform="translate(-597.52 -331.07)"/><path class="cls-6" d="M625.26,368.52l2.4-.37,1,.72.85,2.58,2.05,10.48,1.54,6.88,2.39,4.81-3.93,1.72L627.82,383Z" transform="translate(-597.52 -331.07)"/><path class="cls-4" d="M615.78,381.33s-1,6.88-.34,8.25c0,0-1.28,8-2.23,13.24l-1.36,7.56-3.08,11.52,5,1.38,10.08-28.2,2.9,15.82.52,11.35,5.29-.17-.68-19.78s3.07-13.06-2.22-17.88-6.15-4.81-6.15-4.81Z" transform="translate(-597.52 -331.07)"/><path class="cls-4" d="M630.9,421.56l1.36,4.64.86,4.13s3.07,4.64,0,4.12-3.42-2.23-3.42-2.23v-1l-.85-.52V429s-1.2-.86,0-2.23l-.52-4.82Z" transform="translate(-597.52 -331.07)"/><path class="cls-4" d="M610.05,421.56l-1.36,4.64-.86,4.13s-3.07,4.64,0,4.12,3.42-2.23,3.42-2.23v-1l.85-.52V429s1.2-.86,0-2.23l.52-4.82Z" transform="translate(-597.52 -331.07)"/><path class="cls-5" d="M622.36,362.16a4.3,4.3,0,1,0-4.28-4.3A4.28,4.28,0,0,0,622.36,362.16Z" transform="translate(-597.52 -331.07)"/><path class="cls-6" d="M618.08,363.71s4.45,1.89,5.64,1.55,1.54,1.2,1.54,1.2l3.42,2.41-1,5.84s.86,3.1-.17,5.16c0,0,2.74.86,1.71,2.23a2.26,2.26,0,0,1,.85,3.1s-5.12-1.38-5.63-4l-5.3.69-3.76,2.92s-1.88-.17-1.2-2.92a9.73,9.73,0,0,0-.17-5.16l-1.88-12Z" transform="translate(-597.52 -331.07)"/><path class="cls-6" d="M612.67,364.58l-.68.18a1.17,1.17,0,0,0-.61.39l-.23.26a1.6,1.6,0,0,0-.37.91l-.15,2.19-.24,10.67.21,7.05-1.12,5.26,4.23.68.57-12.93-1-14.26a.6.6,0,0,0-.06-.19.35.35,0,0,0-.13-.14.37.37,0,0,0-.18-.08A.41.41,0,0,0,612.67,364.58Z" transform="translate(-597.52 -331.07)"/><path class="cls-4" d="M623.19,366.23c-.7-1.71-1.74-3.52-2.42-5.14-.48-1.89-.6-3.51.47-4.34,0-1.83.07-3-1.37-3.91a5.06,5.06,0,0,0-1,.58h0l-.17.13-.06.06,0,0h0a4.82,4.82,0,0,0-1.22,1.64,4.93,4.93,0,0,0-.43,2v9.09h5.3c-.18-.76-.41-1.56-.65-2.35.38.76.76,1.54,1.07,2.29Z" transform="translate(-597.52 -331.07)"/><path class="cls-4" d="M627.22,356.74a16.44,16.44,0,0,1-7.68,0v-3.43h4.27a3.41,3.41,0,0,1,2.41,1,3.46,3.46,0,0,1,1,2.43Z" transform="translate(-597.52 -331.07)"/><path class="cls-3" d="M768.14,338.88h-106V405.3h106Z" transform="translate(-597.52 -331.07)"/><path class="cls-7" d="M688.67,351.68H669.26v12.7h19.41Z" transform="translate(-597.52 -331.07)"/><path class="cls-7" d="M712.8,351.68H693.38v12.7H712.8Z" transform="translate(-597.52 -331.07)"/><path class="cls-7" d="M736.92,351.68H717.5v12.7h19.42Z" transform="translate(-597.52 -331.07)"/><path class="cls-7" d="M761,351.68H741.63v12.7H761Z" transform="translate(-597.52 -331.07)"/><path class="cls-7" d="M688.67,369.65H669.26v12.7h19.41Z" transform="translate(-597.52 -331.07)"/><path class="cls-7" d="M712.8,369.65H693.38v12.7H712.8Z" transform="translate(-597.52 -331.07)"/><path class="cls-7" d="M736.92,369.65H717.5v12.7h19.42Z" transform="translate(-597.52 -331.07)"/><path class="cls-7" d="M761,369.65H741.63v12.7H761Z" transform="translate(-597.52 -331.07)"/><path class="cls-7" d="M688.67,387.62H669.26v12.69h19.41Z" transform="translate(-597.52 -331.07)"/><path class="cls-7" d="M712.8,387.62H693.38v12.69H712.8Z" transform="translate(-597.52 -331.07)"/><path class="cls-7" d="M736.92,387.62H717.5v12.69h19.42Z" transform="translate(-597.52 -331.07)"/><path class="cls-7" d="M761,387.62H741.63v12.69H761Z" transform="translate(-597.52 -331.07)"/><path class="cls-7" d="M689.91,346.7a2.93,2.93,0,1,0-2.91-2.93A2.93,2.93,0,0,0,689.91,346.7Z" transform="translate(-597.52 -331.07)"/><path class="cls-7" d="M738.05,346.7a2.93,2.93,0,1,0-2.91-2.93A2.93,2.93,0,0,0,738.05,346.7Z" transform="translate(-597.52 -331.07)"/><path class="cls-3" d="M691.08,331.07h-2.33v13.48h2.33Z" transform="translate(-597.52 -331.07)"/><path class="cls-3" d="M739.22,331.07h-2.33v13.48h2.33Z" transform="translate(-597.52 -331.07)"/><path class="cls-6" d="M755.72,358a4.41,4.41,0,0,1-1.07,2.88,4.37,4.37,0,0,1-7.51-1.66,4.48,4.48,0,0,1,.23-3.08,4.38,4.38,0,0,1,8.35,1.86Z" transform="translate(-597.52 -331.07)"/><path class="cls-7" d="M755,355.67,750.72,360c-.27-.42-1.78-2.39-1.78-2.39a6.57,6.57,0,0,1,.62-.55l1.25,1.69,3.73-3.75A3.58,3.58,0,0,1,755,355.67Z" transform="translate(-597.52 -331.07)"/><path class="cls-6" d="M707.48,376a4.38,4.38,0,0,1-6.76,3.69,4.43,4.43,0,0,1-1.82-2.47,4.37,4.37,0,0,1,7.9-3.58A4.44,4.44,0,0,1,707.48,376Z" transform="translate(-597.52 -331.07)"/><path class="cls-7" d="M706.8,373.64,702.48,378c-.27-.43-1.79-2.39-1.79-2.39a6.42,6.42,0,0,1,.62-.55l1.26,1.68,3.72-3.75A4.14,4.14,0,0,1,706.8,373.64Z" transform="translate(-597.52 -331.07)"/><path class="cls-6" d="M683.36,376a4.42,4.42,0,0,1-1.08,2.88,4.36,4.36,0,0,1-5.68.81,4.5,4.5,0,0,1-1.83-2.47,4.43,4.43,0,0,1,.24-3.08,4.38,4.38,0,0,1,5.23-2.37,4.42,4.42,0,0,1,3.12,4.23Z" transform="translate(-597.52 -331.07)"/><path class="cls-7" d="M682.68,373.64,678.36,378c-.27-.43-1.79-2.39-1.79-2.39a6.42,6.42,0,0,1,.62-.55l1.26,1.68,3.72-3.75A4.14,4.14,0,0,1,682.68,373.64Z" transform="translate(-597.52 -331.07)"/></g></svg>