<svg id="Layer_1" data-name="Layer 1" xmlns="http://www.w3.org/2000/svg" xmlns:xlink="http://www.w3.org/1999/xlink" viewBox="0 0 109.65 140"><defs><style>.cls-1{fill:none;}.cls-2{clip-path:url(#clip-path);}.cls-3{fill:#3f3d56;}.cls-4{fill:#a0616a;}.cls-5{fill:#2f2e41;}.cls-6{fill:#109cf1;}.cls-7{opacity:0.2;isolation:isolate;}.cls-8{fill:#e6e6e6;}.cls-9{fill:#fff;}</style><clipPath id="clip-path" transform="translate(-628.17 -314.54)"><rect class="cls-1" x="628.17" y="314.54" width="109.65" height="140"/></clipPath></defs><g class="cls-2"><path class="cls-3" d="M694.22,451.82H628.17v-.54H694.3Z" transform="translate(-628.17 -314.54)"/><path class="cls-4" d="M651,444l-3.85.26.52-40.24h9.48Z" transform="translate(-628.17 -314.54)"/><path class="cls-4" d="M669.43,444l-3.83.26.51-40.24h6.13Z" transform="translate(-628.17 -314.54)"/><path class="cls-5" d="M673.53,439.64a13.47,13.47,0,0,1-11.4.2l-1.91-46.07-5.5,45.66a28.15,28.15,0,0,1-12.19.21c1-6.84,5-48.49,4.61-56.12l26.91-1.29Z" transform="translate(-628.17 -314.54)"/><path class="cls-5" d="M650.3,454.54a3.9,3.9,0,0,1-1.54-.32,3.72,3.72,0,0,1-1.28-.9,3.87,3.87,0,0,1-.83-1.34,4,4,0,0,1-.23-1.56l.37-6.26c1.49-2.68,3.31-2.69,5.43-.2l1.77,5.49a3.59,3.59,0,0,1,.15,1.81,3.93,3.93,0,0,1-.68,1.68,4.15,4.15,0,0,1-1.39,1.18,3.91,3.91,0,0,1-1.77.42Z" transform="translate(-628.17 -314.54)"/><path class="cls-5" d="M668.49,454.54a4,4,0,0,1-2.83-1.22,3.68,3.68,0,0,1-.81-1.34,4,4,0,0,1-.24-1.56l.38-6.26c1.49-2.68,3.3-2.69,5.41-.2l1.8,5.49a4.1,4.1,0,0,1,.14,1.81,4,4,0,0,1-.7,1.68,4,4,0,0,1-1.38,1.18,3.85,3.85,0,0,1-1.77.42Z" transform="translate(-628.17 -314.54)"/><path class="cls-4" d="M663.28,332.52a7.44,7.44,0,1,0-7.42-7.44A7.44,7.44,0,0,0,663.28,332.52Z" transform="translate(-628.17 -314.54)"/><path class="cls-4" d="M663,339.18l-12-4.87c2.88-1.41,4.84-4,6.4-7.18h5.38C662.52,331.92,662.32,336.59,663,339.18Z" transform="translate(-628.17 -314.54)"/><path class="cls-6" d="M674.82,384l-28.7.77a340.93,340.93,0,0,0-1.7-42.49,7.46,7.46,0,0,1,4.82-7.73l2.77-1,11.28,3.07,5.32,4.08a5.41,5.41,0,0,1,1.64,2.09,5.61,5.61,0,0,1,.48,2.62C669.91,357.16,671.72,370.26,674.82,384Z" transform="translate(-628.17 -314.54)"/><path class="cls-4" d="M678,393.73a3,3,0,0,1-2.1-.7,3.11,3.11,0,0,1-1-1.95l-.63-5.71,3.39-.95,2.8,4.83a3.07,3.07,0,0,1,.41,1.45,3,3,0,0,1-1.38,2.57A3.13,3.13,0,0,1,678,393.73Z" transform="translate(-628.17 -314.54)"/><path class="cls-6" d="M681,385.82l-6.67.26-5.12-20.51L667.9,340.2a5.31,5.31,0,0,1,3.1,1.52,5.21,5.21,0,0,1,1.51,3.1L674.82,363Z" transform="translate(-628.17 -314.54)"/><path class="cls-7" d="M649.33,347.77l-.26,16.91,11.28,19-10-19.47Z" transform="translate(-628.17 -314.54)"/><path class="cls-7" d="M645.92,373.31l6.69,11.49-2.37-.13Z" transform="translate(-628.17 -314.54)"/><path class="cls-8" d="M661.4,371.08a1.13,1.13,0,0,0-.82.34,1.18,1.18,0,0,0-.35.83v72.92a1.18,1.18,0,0,0,.35.83,1.14,1.14,0,0,0,.82.35h75.24a1.21,1.21,0,0,0,.85-.35,1.17,1.17,0,0,0,.34-.83V372.25a1.17,1.17,0,0,0-.34-.83,1.2,1.2,0,0,0-.85-.34Z" transform="translate(-628.17 -314.54)"/><path class="cls-9" d="M663.17,443.4h71.7V374h-71.7Z" transform="translate(-628.17 -314.54)"/><path class="cls-8" d="M669.55,385.07c-.47,0-.85.69-.85,1.53s.38,1.53.85,1.53h32.71c.48,0,.87-.68.87-1.53s-.39-1.53-.87-1.53Z" transform="translate(-628.17 -314.54)"/><path class="cls-8" d="M669.55,394.48c-.47,0-.85.69-.85,1.53s.38,1.53.85,1.53h32.71c.48,0,.87-.68.87-1.53s-.39-1.53-.87-1.53Z" transform="translate(-628.17 -314.54)"/><path class="cls-8" d="M669.55,403.78c-.47,0-.85.69-.85,1.53s.38,1.53.85,1.53h32.71c.48,0,.87-.68.87-1.53s-.39-1.53-.87-1.53Z" transform="translate(-628.17 -314.54)"/><path class="cls-8" d="M669.55,413.19c-.47,0-.85.69-.85,1.53s.38,1.53.85,1.53h32.71c.48,0,.87-.68.87-1.53s-.39-1.53-.87-1.53Z" transform="translate(-628.17 -314.54)"/><path class="cls-8" d="M718.84,385.18a1.5,1.5,0,0,0-1.09.45,1.54,1.54,0,0,0-.45,1.08,1.57,1.57,0,0,0,.45,1.08,1.5,1.5,0,0,0,1.09.45H725a1.47,1.47,0,0,0,1.07-.45,1.5,1.5,0,0,0,.46-1.08,1.55,1.55,0,0,0-1.53-1.53Z" transform="translate(-628.17 -314.54)"/><path class="cls-8" d="M718.84,394.41a1.53,1.53,0,0,0-1.09.44,1.53,1.53,0,0,0,0,2.17,1.53,1.53,0,0,0,1.09.44H725a1.53,1.53,0,0,0,0-3Z" transform="translate(-628.17 -314.54)"/><path class="cls-8" d="M718.84,403.63a1.5,1.5,0,0,0-1.09.45,1.54,1.54,0,0,0-.45,1.08,1.57,1.57,0,0,0,.45,1.08,1.5,1.5,0,0,0,1.09.45H725a1.47,1.47,0,0,0,1.07-.45,1.5,1.5,0,0,0,.46-1.08,1.55,1.55,0,0,0-1.53-1.53Z" transform="translate(-628.17 -314.54)"/><path class="cls-8" d="M718.84,412.85a1.54,1.54,0,0,0-1.54,1.53,1.54,1.54,0,0,0,.45,1.08,1.5,1.5,0,0,0,1.09.45H725a1.55,1.55,0,0,0,1.53-1.53,1.5,1.5,0,0,0-.46-1.08,1.56,1.56,0,0,0-1.07-.45Z" transform="translate(-628.17 -314.54)"/><path class="cls-6" d="M717,428.33a1.95,1.95,0,1,0,0,3.89h7.78a1.95,1.95,0,0,0,0-3.89Z" transform="translate(-628.17 -314.54)"/><path class="cls-8" d="M726.45,423.11H668.79v.51h57.66Z" transform="translate(-628.17 -314.54)"/><path class="cls-4" d="M662.1,392.47a3,3,0,0,1-3.93-1.24l-2.78-5,2.77-2.18,4.45,3.39a3.05,3.05,0,0,1,.92,1.18,2.83,2.83,0,0,1,.23,1.49,2.88,2.88,0,0,1-.52,1.41,2.92,2.92,0,0,1-1.14,1Z" transform="translate(-628.17 -314.54)"/><path class="cls-6" d="M660.22,384.28l-5.64,3.08-12.82-22-1.47-19.38a10,10,0,0,1,1.55-6.19,10.15,10.15,0,0,1,4.92-4l1.66-.63,1,29.21Z" transform="translate(-628.17 -314.54)"/><path class="cls-5" d="M669.6,316.92l.07,1.24-.64-1.7a10,10,0,0,0-5.5-1.89h0a7.37,7.37,0,0,0-3.45.5,7.28,7.28,0,0,0-2.84,2.06,7.51,7.51,0,0,0-1.56,3.13,7.27,7.27,0,0,0,.09,3.5l.09,1.07,2-2.82h0a7.4,7.4,0,0,1,3.27-1.7,7.29,7.29,0,0,1,3.68.14,11.91,11.91,0,0,1,2.56,1.12,14.51,14.51,0,0,1,3.31,2.74l.17-1.21A4.93,4.93,0,0,0,669.6,316.92Z" transform="translate(-628.17 -314.54)"/></g></svg>