<svg id="Layer_1" data-name="Layer 1" xmlns="http://www.w3.org/2000/svg" xmlns:xlink="http://www.w3.org/1999/xlink" viewBox="0 0 193 140"><defs><style>.cls-1,.cls-10,.cls-11{fill:none;}.cls-2{clip-path:url(#clip-path);}.cls-3{fill:#f2f2f2;}.cls-4{fill:#2f2e41;}.cls-5{fill:#ffb9b9;}.cls-6{opacity:0.1;}.cls-10,.cls-6,.cls-8{isolation:isolate;}.cls-7{fill:#575a89;}.cls-10,.cls-8{opacity:0.2;}.cls-9{fill:#109cf1;}.cls-10{stroke:#000;}.cls-10,.cls-11{stroke-miterlimit:10;stroke-width:2px;}.cls-11{stroke:#3f3d56;}.cls-12{fill:#3f3d56;}.cls-13{fill:#9f616a;}.cls-14{fill:#d0cde1;}.cls-15{fill:#57b894;}</style><clipPath id="clip-path" transform="translate(-586.5 -314.5)"><rect class="cls-1" x="586.5" y="314.5" width="193" height="140"/></clipPath></defs><g class="cls-2"><path class="cls-3" d="M669.22,445.43A65.47,65.47,0,1,0,603.71,380,65.48,65.48,0,0,0,669.22,445.43Z" transform="translate(-586.5 -314.5)"/><path class="cls-3" d="M612.49,454.5c14.36,0,26-1.86,26-4.16s-11.63-4.15-26-4.15-26,1.86-26,4.15S598.14,454.5,612.49,454.5Z" transform="translate(-586.5 -314.5)"/><path class="cls-3" d="M739.28,450.28c22.21,0,40.22-2.88,40.22-6.44s-18-6.43-40.22-6.43-40.21,2.88-40.21,6.43S717.07,450.28,739.28,450.28Z" transform="translate(-586.5 -314.5)"/><path class="cls-4" d="M730.35,382s.34,1.14-1.6,2.17-2.51,4.9-.23,6,3,2.63,1.83,3.65-3.2,3.77-.46,4.45,3.08,2.06,2.28,2.63,1.83-1,1.83-1,.46,2.74,2.85,2.05,9.13-13.69,5.71-15.51S730.35,382,730.35,382Z" transform="translate(-586.5 -314.5)"/><path class="cls-5" d="M734.48,393.05s1.19,4.14-.88,4.44A8,8,0,0,0,730,399l3.85,5H741l4.43-4.43s-5.91-4.44-4.73-7.1S734.48,393.05,734.48,393.05Z" transform="translate(-586.5 -314.5)"/><path class="cls-6" d="M734.48,393.05s1.19,4.14-.88,4.44A8,8,0,0,0,730,399l3.85,5H741l4.43-4.43s-5.91-4.44-4.73-7.1S734.48,393.05,734.48,393.05Z" transform="translate(-586.5 -314.5)"/><path class="cls-5" d="M736.26,444.51l6.81,2.37,4.73.3-.29-4.15-9.77-2.88Z" transform="translate(-586.5 -314.5)"/><path class="cls-7" d="M745,443.63s0,4.14.59,4.14,8.59-.89,10.95,0,5.92-2.37,4.15-4.14-4.67-4.44-6.48-3.85-9.21,2.07-9.21,2.07Z" transform="translate(-586.5 -314.5)"/><path class="cls-7" d="M723.24,439.78s-3.55,7.1-1.18,7.69a8.18,8.18,0,0,0,5.32-.59c.3-.3,4.44-1.48,5-.89s.6-2.36.6-2.36Z" transform="translate(-586.5 -314.5)"/><path class="cls-4" d="M726.2,430s-5.62,7.69-1.48,9.76,24,2.07,25.45,0,2.07-8.58,0-9.17S726.2,430,726.2,430Z" transform="translate(-586.5 -314.5)"/><path class="cls-8" d="M726.2,430s-5.62,7.69-1.48,9.76,24,2.07,25.45,0,2.07-8.58,0-9.17S726.2,430,726.2,430Z" transform="translate(-586.5 -314.5)"/><path class="cls-5" d="M736.85,395.12a6.81,6.81,0,1,0-6.81-6.8A6.81,6.81,0,0,0,736.85,395.12Z" transform="translate(-586.5 -314.5)"/><path class="cls-9" d="M726.2,399l5.92-1.18s1.48,4.73,6.21,3.85,5.92-3.85,5.92-3.85,3.55,1.48,3.85,1.48,4.14,1.48,4.14,2.37-4.44,9.76-4.44,9.76l.6,16-21.9-.59L728,411.09Z" transform="translate(-586.5 -314.5)"/><path class="cls-5" d="M722.94,406.65s-1.77,15.68-.59,16.86,5.92,4.44,5.92,4.44V424.4L725.9,420l2.37-10.35Z" transform="translate(-586.5 -314.5)"/><path class="cls-5" d="M753.58,406.21s-1,16.12-1,16.71-2.66,2.67-3.55,2.67-1.48-1.48-1.48-1.48l2.07-2.37-1.48-12.13Z" transform="translate(-586.5 -314.5)"/><path class="cls-4" d="M750.76,428.84s13.32-7.4,13.62,0-6.81,10.35-6.81,10.35-18.35,5.5-19.09,3.49-2.22-5.27-1-5.56,2.66-.89,3.25-.3,8-4.43,8-4.43Z" transform="translate(-586.5 -314.5)"/><path class="cls-10" d="M757,428a16.52,16.52,0,0,0-3.55,2.07c-.89.89-4.74,2.37-4.74,2.37" transform="translate(-586.5 -314.5)"/><path class="cls-9" d="M728,399.56,726.2,399s-6.51,6.8-4.44,8.57,3.25,2.37,3.85,3,3.55.89,3.55.89Z" transform="translate(-586.5 -314.5)"/><path class="cls-9" d="M749.58,401l2.66.6a43,43,0,0,0,2.67,5c.59.59-.89.29-1.78,1.47s-1.78,3.26-3.55,3.26-4.14-3-4.14-3Z" transform="translate(-586.5 -314.5)"/><path class="cls-4" d="M726.79,431.5s-11.24-8-15.09-2.07,16.57,13.9,19.53,15.08,5.62,2.37,5.62,2.37,2.67-6.51,2.67-7.69-2.07-1.18-2.67-1.18-3.25-.6-3.84-1.48S726.79,431.5,726.79,431.5Z" transform="translate(-586.5 -314.5)"/><path class="cls-10" d="M720.57,429.43a17.08,17.08,0,0,0,5.63,3,5.5,5.5,0,0,1,3.55,2.07" transform="translate(-586.5 -314.5)"/><path class="cls-7" d="M724.75,418.31l.23,12.52a1.57,1.57,0,0,0,.48,1.1,1.55,1.55,0,0,0,1.11.44l23.32-.26a1.59,1.59,0,0,0,1.07-.44,1.56,1.56,0,0,0,.48-1l.71-12.26a1.63,1.63,0,0,0-.43-1.17,1.57,1.57,0,0,0-.52-.36,1.64,1.64,0,0,0-.62-.13H726.32a1.58,1.58,0,0,0-.61.12,1.5,1.5,0,0,0-.51.35,1.61,1.61,0,0,0-.34.52A1.41,1.41,0,0,0,724.75,418.31Z" transform="translate(-586.5 -314.5)"/><path class="cls-4" d="M737.22,379.77s.38,1.26-1.77,2.4-2.78,5.43-.26,6.7,3.29,2.9,2,4-3.54,4.17-.51,4.93,3.41,2.27,2.53,2.9,2-1.13,2-1.13.51,3,3.16,2.27,5.31-14.54,2.35-18.09C744,380.49,737.22,379.77,737.22,379.77Z" transform="translate(-586.5 -314.5)"/><path class="cls-4" d="M736.41,378.47c0-1.85,5.54-.52,7.92,2.06,1.64,1.79,4.14,4.49,2,6.38s3.59,4.39,5.11,5.14,4.54,3.06,1.82,4.61-2.68,3.11-1.65,3.48-2.26-.55-2.26-.55.33,3.06-2.43,3-10.68-15.18-8.79-19.39C739.94,379.32,736.41,378.47,736.41,378.47Z" transform="translate(-586.5 -314.5)"/><path class="cls-4" d="M737.61,378.06c-7.41-.44-8.15,5.13-8.15,5.13,0,3.23,5.17,1.66,6.6,2.14,1.71-1.24,5-3.57,7.39-5.24A11.25,11.25,0,0,0,737.61,378.06Z" transform="translate(-586.5 -314.5)"/><path class="cls-11" d="M735.5,413.64s-6.65-31.14-48.26-53.73" transform="translate(-586.5 -314.5)"/><path class="cls-12" d="M689,359.23l.08.35-1.68.4.53,1.65-.33.11-.65-2Z" transform="translate(-586.5 -314.5)"/><path class="cls-9" d="M598.53,445.45c0,3.94-2.35,5.32-5.24,5.32h-.2l-.4,0c-2.61-.19-4.64-1.63-4.64-5.3s4.85-8.59,5.21-8.94h0l0,0S598.53,441.51,598.53,445.45Z" transform="translate(-586.5 -314.5)"/><path class="cls-12" d="M593.1,450.17l1.91-2.68-1.92,3v.31l-.4,0,.2-3.95v0h0l0-.38-1.93-3,1.93,2.69v.08l.15-3-1.65-3.07,1.67,2.55.17-6.18v0l0,4.87,1.64-1.93-1.65,2.35,0,2.67,1.53-2.56-1.54,2.95,0,1.49,2.22-3.57-2.23,4.09Z" transform="translate(-586.5 -314.5)"/><path class="cls-4" d="M623.51,444.43l1.12-.84s.75,4.15-.08,4.77-3.93,1.65-3.93,2.89-7,2.9-7.25,1a4.14,4.14,0,0,1,.62-2.9s3.32-3.31,3.73-3.93,1.45-1.86,1.45-1.86Z" transform="translate(-586.5 -314.5)"/><path class="cls-4" d="M607,392.93s0,.18.08.51.12.72.2,1.23c.87,5.3,3.41,20.91,3.24,21.42s-1.66,2.9,0,3.52a1.23,1.23,0,0,1,.51.56,12,12,0,0,1,.88,2.06,90.56,90.56,0,0,1,2.65,10.62c.27,1.39.45,2.51.5,3.1a1.89,1.89,0,0,1,0,.41c-.21.83,1.24,3.73,1.86,4.55s1.66,1.66,1.45,2.48,5.18,3.11,5.8,1.66a24.41,24.41,0,0,0,.82-2.69c.21-.41.42-3.31-.62-3.72s-.41-7.66-1.45-9.1a20.5,20.5,0,0,1-1.42-4.08c-.22-.77-.44-1.59-.65-2.41-.88-3.37-1.65-6.75-1.65-6.75l.21-24.2L608,390.65l-.29.65-.58,1.27Z" transform="translate(-586.5 -314.5)"/><path class="cls-4" d="M606.34,432.64s-1.66-1.66-2.49,0-1.65,8.06-3.1,9.51-3.31,8.69-1.24,9.1,4.34-.62,4.55-1.86,4.55-7.65,4.55-8.27-2.89-2.9-2.89-2.9Z" transform="translate(-586.5 -314.5)"/><path class="cls-4" d="M631.79,381.55s-2.69,24.2-3.31,26.48-3.93,11-5,12.41-7.65,13.23-8.48,13.85-2.48,2.28-2.48,2.28-3.11,3.1-3.52,3.72-3.93-1.24-4.14-2.48a12.89,12.89,0,0,1,.41-4.14c.21-.82-.41-2.07.21-2.69s3.72-3.72,3.72-5.17,5.39-9.92,7.45-11.78,1.66-5,1.66-5V396.44L607,392.93S607.58,383,609,383,629.52,379.69,631.79,381.55Z" transform="translate(-586.5 -314.5)"/><path class="cls-13" d="M615,347a6.83,6.83,0,1,0-6.83-6.83A6.83,6.83,0,0,0,615,347Z" transform="translate(-586.5 -314.5)"/><path class="cls-13" d="M617.31,345.56s.82,3.1,1.86,3.93-2.69,4.34-2.69,4.34l-7,.42-1.24-3.93s2.28-4.55,1.66-7.45S617.31,345.56,617.31,345.56Z" transform="translate(-586.5 -314.5)"/><path class="cls-9" d="M620.2,349.08s-1.86.2-2.27.83-3.31,2.48-5.59,2.06-3.73-1-4.14-.82S607,355.7,607,355.7l2.28,6.62-.42,18.2-.62,5s-1.24-1.65,3.73-.62,11.38-.83,13.45-1,5.59-.83,5.79-2.07-.62-5.79-.62-5.79l-3.31-13.86-2.07-7.45Z" transform="translate(-586.5 -314.5)"/><path class="cls-14" d="M618.25,348.14s1.75-.92,2.37-.1,8.48,2.07,8.48,2.69,1.66,17.37,1.24,18.82a4.25,4.25,0,0,0,.83,3.11l1.45,6.2s3.93,11.79,2.28,12.2a10.65,10.65,0,0,1-3.73,0c-.62,0-.41-7.86-2.07-9.92s-3.93-7.24-4.34-8.28-5.59-15.3-5.38-17S618.25,348.14,618.25,348.14Z" transform="translate(-586.5 -314.5)"/><path class="cls-14" d="M609.65,349.08s-1.66,0-1.86.41a22.9,22.9,0,0,1-3.11,3.73c-.83.62-3.72,3.3-3.72,3.93s6,5.17,6,5.17,2.48,12.2,1.24,16.34-3.1,14.06-2.28,14.68,2.69.83,2.69,0,1.25-9.72,2.28-11.58,4.14-13.65,2.9-17S609.65,349.08,609.65,349.08Z" transform="translate(-586.5 -314.5)"/><path class="cls-13" d="M637,369.55s.2,6.42-2.07,9.73a39.28,39.28,0,0,0-3.73,7s-3.72-1-4.34-2.28-4.56-.2-4.56-.62,4.76-2.48,5.18-2.89,1.86-.42,2.69-1.24a5.44,5.44,0,0,0,1-2.69l.83-5.38Z" transform="translate(-586.5 -314.5)"/><path class="cls-4" d="M619.73,336a4,4,0,0,0,1.54-.35,2.06,2.06,0,0,0,.52-3,3.73,3.73,0,0,0-.73-.58l-1.57-1.07a7.54,7.54,0,0,0-2.22-1.18,6.9,6.9,0,0,0-2.27-.13,15.66,15.66,0,0,0-4.35.78,7.35,7.35,0,0,0-3.52,2.58,7.72,7.72,0,0,0-.61,6.75,22.51,22.51,0,0,0,3.5,6.05l.71-3.47a1.24,1.24,0,0,1,.4-.83c.64-.46,1.42.48,2.21.47a1.33,1.33,0,0,0,1.12-.88,5.35,5.35,0,0,0,.25-1.49c.09-1.06.46-2.55,1.47-3.13S618.68,336.07,619.73,336Z" transform="translate(-586.5 -314.5)"/><path class="cls-6" d="M619.35,393.09s-.7,20.21-1.11,20.83,0-20.89,0-20.89Z" transform="translate(-586.5 -314.5)"/><path class="cls-14" d="M627.45,350.73h1.65s7,9.51,6.21,10.13,0,2.28,0,2.28l1.66,3.1s2.07,1.86,1.45,2.28a7.32,7.32,0,0,0-1.45,2.07s-4.14-.62-5.38,1.86l-2.69-3.39Z" transform="translate(-586.5 -314.5)"/><path class="cls-4" d="M628,353.79l-5.68,2.35,4.37,10.58,5.68-2.35Z" transform="translate(-586.5 -314.5)"/><path class="cls-9" d="M627.37,360a1.14,1.14,0,1,0-1.57-.57A1.18,1.18,0,0,0,627.37,360Z" transform="translate(-586.5 -314.5)"/><path class="cls-13" d="M623.31,367.28s-14.9,12.41-17.39,8.48,2.69-7.24,2.69-7.24a18.21,18.21,0,0,0,9.73-3.1l5.17-2.28s4.73-6.74,6.34-4.17S627.1,366,623.31,367.28Z" transform="translate(-586.5 -314.5)"/><path class="cls-14" d="M603.23,356.32l-2.27.82v6.21l-.83,1.24s.21,2.48.83,3.1,1.86.42,1.45,1.86a7.88,7.88,0,0,0-.21,2.9s3.72,4.76,3.93,4.14,3.1-8.28,3.52-8.28-4.14-12-4.14-12Z" transform="translate(-586.5 -314.5)"/><path class="cls-4" d="M630.45,387.65s2.14-2.07,1.07-2.17-4.8-2.17-5.42-1.14S630.45,387.65,630.45,387.65Z" transform="translate(-586.5 -314.5)"/><path class="cls-15" d="M671.15,348.2c1.64,0,3-.71,3-1.58s-1.34-1.58-3-1.58-3,.71-3,1.58S669.5,348.2,671.15,348.2Z" transform="translate(-586.5 -314.5)"/><path class="cls-11" d="M682.56,351.88a27.7,27.7,0,0,0-20.19,0v-8.25a35.06,35.06,0,0,1,20.19,0Z" transform="translate(-586.5 -314.5)"/><path class="cls-11" d="M679.75,350.18a19.92,19.92,0,0,0-14.57,0v-6a25.28,25.28,0,0,1,14.57,0Z" transform="translate(-586.5 -314.5)"/><path class="cls-11" d="M672.2,347.49c1.65,0,3-.7,3-1.57s-1.34-1.58-3-1.58-3,.7-3,1.58S670.55,347.49,672.2,347.49Z" transform="translate(-586.5 -314.5)"/><path class="cls-15" d="M673.34,358.09c1.62-.33,2.78-1.29,2.61-2.15s-1.63-1.28-3.24-.95-2.79,1.29-2.61,2.15S671.72,358.42,673.34,358.09Z" transform="translate(-586.5 -314.5)"/><path class="cls-11" d="M685.26,359.42a27.71,27.71,0,0,0-19.79,4l-1.65-8.09a35,35,0,0,1,19.79-4Z" transform="translate(-586.5 -314.5)"/><path class="cls-11" d="M682.17,358.31a20,20,0,0,0-14.28,2.91l-1.19-5.83A25.23,25.23,0,0,1,681,352.48Z" transform="translate(-586.5 -314.5)"/><path class="cls-11" d="M674.23,357.19c1.62-.33,2.79-1.29,2.61-2.14s-1.62-1.28-3.24-1-2.78,1.29-2.61,2.15S672.62,357.52,674.23,357.19Z" transform="translate(-586.5 -314.5)"/><path class="cls-15" d="M675.38,366.57c.07-.87-1.22-1.67-2.86-1.79s-3,.5-3.09,1.37,1.22,1.67,2.87,1.78S675.32,367.43,675.38,366.57Z" transform="translate(-586.5 -314.5)"/><path class="cls-11" d="M683.43,372.41a27.66,27.66,0,0,0-20.15-1.4l.57-8.23a34.92,34.92,0,0,1,20.15,1.4Z" transform="translate(-586.5 -314.5)"/><path class="cls-11" d="M680.74,370.51a19.94,19.94,0,0,0-14.54-1l.41-5.94a25.27,25.27,0,0,1,14.55,1Z" transform="translate(-586.5 -314.5)"/><path class="cls-11" d="M676.48,365.94c.06-.87-1.22-1.67-2.86-1.78s-3,.5-3.09,1.37,1.22,1.66,2.87,1.78S676.42,366.81,676.48,365.94Z" transform="translate(-586.5 -314.5)"/><path class="cls-11" d="M659.37,352.08s-12.91-1.77-22.13,3.63" transform="translate(-586.5 -314.5)"/><path class="cls-12" d="M637.55,353.9l.34.1-.53,1.65,1.69.4-.08.34-2.05-.49Z" transform="translate(-586.5 -314.5)"/></g></svg>