<svg id="Layer_1" data-name="Layer 1" xmlns="http://www.w3.org/2000/svg" xmlns:xlink="http://www.w3.org/1999/xlink" viewBox="0 0 194.5 141.17"><defs><style>.cls-1,.cls-10,.cls-11{fill:none;}.cls-2{clip-path:url(#clip-path);}.cls-3{fill:#f2f2f2;}.cls-4{fill:#2f2e41;}.cls-5{fill:#ffb9b9;}.cls-6{opacity:0.1;}.cls-10,.cls-6,.cls-8{isolation:isolate;}.cls-7{fill:#575a89;}.cls-10,.cls-8{opacity:0.2;}.cls-9{fill:#109cf1;}.cls-10{stroke:#000;}.cls-10,.cls-11{stroke-miterlimit:10;stroke-width:0.35px;}.cls-11{stroke:#3f3d56;}.cls-12{fill:#3f3d56;}.cls-13{fill:#9f616a;}.cls-14{fill:#d0cde1;}.cls-15{fill:#57b894;}</style><clipPath id="clip-path" transform="translate(-585.75 -313.91)"><rect class="cls-1" x="585.75" y="313.91" width="194.5" height="141.17"/></clipPath></defs><g class="cls-2"><path class="cls-3" d="M669.11,445.94a66,66,0,1,0-66-66A66,66,0,0,0,669.11,445.94Z" transform="translate(-585.75 -313.91)"/><path class="cls-3" d="M611.94,455.08c14.47,0,26.2-1.88,26.2-4.19s-11.73-4.19-26.2-4.19-26.19,1.88-26.19,4.19S597.48,455.08,611.94,455.08Z" transform="translate(-585.75 -313.91)"/><path class="cls-3" d="M739.72,450.82c22.38,0,40.53-2.9,40.53-6.48s-18.15-6.49-40.53-6.49-40.53,2.9-40.53,6.49S717.34,450.82,739.72,450.82Z" transform="translate(-585.75 -313.91)"/><path class="cls-4" d="M730.72,382s.34,1.15-1.61,2.19-2.53,4.94-.23,6.09,3,2.65,1.84,3.68-3.22,3.8-.46,4.49,3.1,2.07,2.3,2.64,1.84-1,1.84-1,.46,2.76,2.87,2.07,9.2-13.8,5.75-15.64S730.72,382,730.72,382Z" transform="translate(-585.75 -313.91)"/><path class="cls-5" d="M734.89,393.12s1.19,4.18-.9,4.48a8.15,8.15,0,0,0-3.58,1.49l3.88,5.07h7.16l4.47-4.48s-6-4.47-4.77-7.15S734.89,393.12,734.89,393.12Z" transform="translate(-585.75 -313.91)"/><path class="cls-6" d="M734.89,393.12s1.19,4.18-.9,4.48a8.15,8.15,0,0,0-3.58,1.49l3.88,5.07h7.16l4.47-4.48s-6-4.47-4.77-7.15S734.89,393.12,734.89,393.12Z" transform="translate(-585.75 -313.91)"/><path class="cls-5" d="M736.67,445l6.86,2.39,4.78.3-.3-4.18-9.84-2.91Z" transform="translate(-585.75 -313.91)"/><path class="cls-7" d="M745.47,444.12s0,4.17.6,4.17,8.65-.89,11,0,6-2.38,4.17-4.17-4.71-4.48-6.53-3.88-9.28,2.09-9.28,2.09Z" transform="translate(-585.75 -313.91)"/><path class="cls-7" d="M723.55,440.24S720,447.4,722.36,448a8.34,8.34,0,0,0,5.37-.59c.29-.3,4.47-1.49,5.07-.9s.59-2.38.59-2.38Z" transform="translate(-585.75 -313.91)"/><path class="cls-4" d="M726.53,430.4s-5.66,7.75-1.49,9.84,24.16,2.09,25.65,0,2.09-8.65,0-9.25S726.53,430.4,726.53,430.4Z" transform="translate(-585.75 -313.91)"/><path class="cls-8" d="M726.53,430.4s-5.66,7.75-1.49,9.84,24.16,2.09,25.65,0,2.09-8.65,0-9.25S726.53,430.4,726.53,430.4Z" transform="translate(-585.75 -313.91)"/><path class="cls-5" d="M737.27,395.2a6.86,6.86,0,1,0-6.86-6.86A6.86,6.86,0,0,0,737.27,395.2Z" transform="translate(-585.75 -313.91)"/><path class="cls-9" d="M726.53,399.08l6-1.19s1.49,4.77,6.26,3.88,6-3.88,6-3.88,3.58,1.49,3.87,1.49,4.18,1.49,4.18,2.39-4.47,9.84-4.47,9.84l.59,16.1-22.07-.59,1.49-15.81Z" transform="translate(-585.75 -313.91)"/><path class="cls-5" d="M723.25,406.84s-1.79,15.8-.59,17,6,4.47,6,4.47v-3.58l-2.38-4.47,2.38-10.44Z" transform="translate(-585.75 -313.91)"/><path class="cls-5" d="M754.12,406.39s-1,16.26-1,16.85-2.69,2.68-3.58,2.68-1.49-1.49-1.49-1.49l2.09-2.38-1.5-12.23Z" transform="translate(-585.75 -313.91)"/><path class="cls-4" d="M751.29,429.2s13.42-7.45,13.72,0-6.86,10.44-6.86,10.44-18.49,5.55-19.24,3.52-2.24-5.31-1-5.6,2.68-.9,3.28-.3,8.05-4.48,8.05-4.48Z" transform="translate(-585.75 -313.91)"/><path class="cls-10" d="M757.55,428.31A16.65,16.65,0,0,0,754,430.4c-.9.89-4.78,2.38-4.78,2.38" transform="translate(-585.75 -313.91)"/><path class="cls-9" d="M728.32,399.68l-1.79-.6s-6.56,6.86-4.47,8.65,3.28,2.39,3.88,3,3.58.9,3.58.9Z" transform="translate(-585.75 -313.91)"/><path class="cls-9" d="M750.1,401.17l2.68.6a43.68,43.68,0,0,0,2.69,5.07c.59.59-.9.3-1.79,1.49s-1.79,3.28-3.58,3.28-4.18-3-4.18-3Z" transform="translate(-585.75 -313.91)"/><path class="cls-4" d="M727.13,431.89s-11.33-8.05-15.21-2.09,16.7,14,19.69,15.21,5.66,2.39,5.66,2.39,2.69-6.56,2.69-7.76-2.09-1.19-2.69-1.19-3.28-.6-3.88-1.49S727.13,431.89,727.13,431.89Z" transform="translate(-585.75 -313.91)"/><path class="cls-10" d="M720.87,429.8a17.13,17.13,0,0,0,5.66,3,5.54,5.54,0,0,1,3.58,2.09" transform="translate(-585.75 -313.91)"/><path class="cls-7" d="M725.07,418.59l.24,12.63a1.59,1.59,0,0,0,.48,1.1,1.61,1.61,0,0,0,1.12.45l23.5-.27a1.6,1.6,0,0,0,1.08-.43A1.58,1.58,0,0,0,752,431l.72-12.36a1.52,1.52,0,0,0-.1-.63,1.43,1.43,0,0,0-.33-.54,1.64,1.64,0,0,0-.53-.37,1.47,1.47,0,0,0-.62-.13H726.66a1.67,1.67,0,0,0-.62.12,1.5,1.5,0,0,0-.51.35,1.42,1.42,0,0,0-.34.53,1.58,1.58,0,0,0-.12.61Z" transform="translate(-585.75 -313.91)"/><path class="cls-4" d="M737.64,379.73s.38,1.28-1.79,2.42-2.8,5.48-.25,6.75,3.31,2.94,2,4.08-3.57,4.21-.51,5,3.44,2.29,2.55,2.93,2-1.15,2-1.15.5,3.06,3.18,2.3,5.35-14.66,2.36-18.24C744.49,380.46,737.64,379.73,737.64,379.73Z" transform="translate(-585.75 -313.91)"/><path class="cls-4" d="M736.82,378.42c0-1.87,5.59-.53,8,2.08,1.66,1.8,4.18,4.52,2.07,6.43s3.62,4.42,5.15,5.19,4.57,3.08,1.83,4.64-2.69,3.14-1.66,3.51-2.27-.55-2.27-.55.33,3.08-2.45,3.06-10.77-15.3-8.86-19.55C740.38,379.27,736.82,378.42,736.82,378.42Z" transform="translate(-585.75 -313.91)"/><path class="cls-4" d="M738,378c-7.46-.45-8.21,5.17-8.21,5.17,0,3.25,5.21,1.67,6.65,2.16,1.73-1.25,5.07-3.61,7.45-5.29A11.23,11.23,0,0,0,738,378Z" transform="translate(-585.75 -313.91)"/><path class="cls-11" d="M735.91,413.88s-6.7-31.4-48.63-54.17" transform="translate(-585.75 -313.91)"/><path class="cls-12" d="M689,359l.09.34-1.7.41.54,1.66-.34.11-.65-2Z" transform="translate(-585.75 -313.91)"/><path class="cls-9" d="M597.87,446c0,4-2.37,5.36-5.28,5.36h-.2l-.4,0c-2.64-.19-4.68-1.65-4.68-5.34s4.89-8.66,5.26-9h0l0,0S597.87,442,597.87,446Z" transform="translate(-585.75 -313.91)"/><path class="cls-12" d="M592.4,450.71l1.93-2.69-1.94,3v.31l-.41,0,.21-4v0h0l0-.38-1.94-3,2,2.72v.08l.16-3-1.66-3.1,1.68,2.57.17-6.23v0l0,4.92,1.65-1.95-1.66,2.37,0,2.69,1.54-2.58-1.55,3,0,1.49,2.24-3.59-2.25,4.12Z" transform="translate(-585.75 -313.91)"/><path class="cls-4" d="M623.05,444.92l1.13-.83s.75,4.17-.09,4.8-4,1.67-4,2.92-7.09,2.92-7.3,1a4.11,4.11,0,0,1,.63-2.92s3.33-3.34,3.75-4,1.46-1.88,1.46-1.88Z" transform="translate(-585.75 -313.91)"/><path class="cls-4" d="M606.37,393s0,.18.08.52.12.72.21,1.24c.87,5.34,3.43,21.08,3.25,21.6s-1.66,2.92,0,3.54a1.22,1.22,0,0,1,.52.57,12,12,0,0,1,.89,2.08,92.94,92.94,0,0,1,2.67,10.7c.27,1.41.45,2.54.51,3.13a1.41,1.41,0,0,1,0,.41c-.21.84,1.25,3.76,1.88,4.59s1.67,1.67,1.46,2.5,5.21,3.13,5.84,1.67a22.94,22.94,0,0,0,.83-2.71c.21-.42.42-3.34-.62-3.75s-.42-7.72-1.46-9.18A20.14,20.14,0,0,1,621,425.8c-.22-.78-.44-1.6-.66-2.43-.88-3.39-1.66-6.8-1.66-6.8l.21-24.41-11.47-1.46-.29.65-.59,1.29Z" transform="translate(-585.75 -313.91)"/><path class="cls-4" d="M605.74,433s-1.67-1.67-2.5,0-1.67,8.13-3.13,9.59-3.34,8.76-1.25,9.18,4.38-.63,4.59-1.88,4.58-7.72,4.58-8.34-2.92-2.92-2.92-2.92Z" transform="translate(-585.75 -313.91)"/><path class="cls-4" d="M631.39,381.53s-2.71,24.4-3.33,26.69-4,11.06-5,12.52-7.71,13.34-8.55,14S612,437,612,437s-3.13,3.13-3.55,3.75-4-1.25-4.17-2.5a12.76,12.76,0,0,1,.42-4.17c.21-.83-.42-2.09.21-2.71s3.75-3.76,3.75-5.22,5.42-10,7.51-11.88,1.67-5,1.67-5V396.54L606.37,393s.62-10,2.08-10S629.1,379.65,631.39,381.53Z" transform="translate(-585.75 -313.91)"/><path class="cls-13" d="M614.5,346.7a6.89,6.89,0,1,0-6.88-6.88A6.88,6.88,0,0,0,614.5,346.7Z" transform="translate(-585.75 -313.91)"/><path class="cls-13" d="M616.8,345.23s.83,3.13,1.87,4-2.71,4.38-2.71,4.38l-7.09.41-1.25-4s2.29-4.59,1.67-7.51S616.8,345.23,616.8,345.23Z" transform="translate(-585.75 -313.91)"/><path class="cls-9" d="M619.72,348.78s-1.88.21-2.3.84-3.33,2.5-5.63,2.09-3.75-1-4.17-.84-1.25,4.59-1.25,4.59l2.29,6.67-.41,18.36-.63,5s-1.25-1.67,3.75-.62,11.48-.84,13.56-1.05,5.63-.83,5.84-2.08-.62-5.84-.62-5.84l-3.34-14-2.09-7.5Z" transform="translate(-585.75 -313.91)"/><path class="cls-14" d="M617.74,347.84s1.77-.93,2.39-.1,8.55,2.09,8.55,2.71,1.67,17.52,1.25,19,.84,3.13.84,3.13l1.46,6.26s4,11.88,2.29,12.3a10.75,10.75,0,0,1-3.75,0c-.63,0-.42-7.92-2.09-10s-4-7.3-4.38-8.34-5.63-15.43-5.42-17.1S617.74,347.84,617.74,347.84Z" transform="translate(-585.75 -313.91)"/><path class="cls-14" d="M609.08,348.78s-1.67,0-1.88.42a22.7,22.7,0,0,1-3.13,3.76c-.83.62-3.75,3.33-3.75,4s6,5.21,6,5.21,2.5,12.31,1.25,16.48-3.13,14.18-2.3,14.81,2.72.83,2.72,0,1.25-9.81,2.29-11.68,4.17-13.77,2.92-17.1S609.08,348.78,609.08,348.78Z" transform="translate(-585.75 -313.91)"/><path class="cls-13" d="M636.61,369.43s.21,6.47-2.08,9.8a39.56,39.56,0,0,0-3.76,7.09s-3.75-1-4.38-2.29-4.59-.21-4.59-.63,4.8-2.5,5.22-2.92,1.87-.41,2.71-1.25a5.53,5.53,0,0,0,1-2.71l.84-5.42Z" transform="translate(-585.75 -313.91)"/><path class="cls-4" d="M619.24,335.57a4.08,4.08,0,0,0,1.55-.35,2.07,2.07,0,0,0,.52-3.06,3.44,3.44,0,0,0-.73-.59L619,330.49a7.92,7.92,0,0,0-2.24-1.19,7.31,7.31,0,0,0-2.29-.14,15.9,15.9,0,0,0-4.38.8,7.29,7.29,0,0,0-3.55,2.6,7.8,7.8,0,0,0-.62,6.8,23.21,23.21,0,0,0,3.53,6.11l.72-3.5a1.24,1.24,0,0,1,.4-.84c.65-.46,1.44.48,2.23.47a1.32,1.32,0,0,0,1.13-.89,5.35,5.35,0,0,0,.25-1.5c.09-1.07.47-2.56,1.48-3.16S618.18,335.67,619.24,335.57Z" transform="translate(-585.75 -313.91)"/><path class="cls-6" d="M618.86,393.17s-.71,20.37-1.13,21,0-21.07,0-21.07Z" transform="translate(-585.75 -313.91)"/><path class="cls-14" d="M627,350.45h1.66s7.1,9.59,6.26,10.22,0,2.29,0,2.29l1.67,3.13s2.09,1.88,1.46,2.3a7.42,7.42,0,0,0-1.46,2.08s-4.17-.62-5.42,1.88l-2.71-3.42Z" transform="translate(-585.75 -313.91)"/><path class="cls-4" d="M627.6,353.54l-5.72,2.36,4.4,10.67,5.73-2.36Z" transform="translate(-585.75 -313.91)"/><path class="cls-9" d="M626.93,359.79a1.18,1.18,0,0,0,.71-1.52,1.24,1.24,0,1,0-.71,1.52Z" transform="translate(-585.75 -313.91)"/><path class="cls-13" d="M622.84,367.14s-15,12.51-17.52,8.55,2.72-7.3,2.72-7.3a18.36,18.36,0,0,0,9.8-3.13l5.21-2.3s4.76-6.79,6.38-4.2S626.67,365.85,622.84,367.14Z" transform="translate(-585.75 -313.91)"/><path class="cls-14" d="M602.61,356.08l-2.29.84v6.25l-.84,1.25s.21,2.51.84,3.13,1.88.42,1.46,1.88a8,8,0,0,0-.21,2.92s3.75,4.8,4,4.17,3.13-8.34,3.55-8.34-4.17-12.1-4.17-12.1Z" transform="translate(-585.75 -313.91)"/><path class="cls-4" d="M630,387.68s2.16-2.09,1.08-2.19-4.83-2.19-5.46-1.15S630,387.68,630,387.68Z" transform="translate(-585.75 -313.91)"/><path class="cls-15" d="M671.05,347.89c1.67,0,3-.71,3-1.59s-1.34-1.59-3-1.59-3,.71-3,1.59S669.39,347.89,671.05,347.89Z" transform="translate(-585.75 -313.91)"/><path class="cls-11" d="M682.56,351.61a27.92,27.92,0,0,0-20.35,0v-8.32a35.26,35.26,0,0,1,20.35,0Z" transform="translate(-585.75 -313.91)"/><path class="cls-11" d="M679.73,349.89a20.13,20.13,0,0,0-14.69,0v-6a25.35,25.35,0,0,1,14.69,0Z" transform="translate(-585.75 -313.91)"/><path class="cls-11" d="M672.11,347.19c1.67,0,3-.72,3-1.6s-1.34-1.59-3-1.59-3,.71-3,1.59S670.45,347.19,672.11,347.19Z" transform="translate(-585.75 -313.91)"/><path class="cls-15" d="M673.27,357.87c1.62-.33,2.8-1.3,2.63-2.16s-1.64-1.29-3.27-1-2.81,1.3-2.63,2.16S671.64,358.2,673.27,357.87Z" transform="translate(-585.75 -313.91)"/><path class="cls-11" d="M685.28,359.21a27.85,27.85,0,0,0-19.94,4.07l-1.66-8.15a35.16,35.16,0,0,1,19.94-4.07Z" transform="translate(-585.75 -313.91)"/><path class="cls-11" d="M682.16,358.09A20.15,20.15,0,0,0,667.77,361l-1.2-5.88A25.35,25.35,0,0,1,681,352.21Z" transform="translate(-585.75 -313.91)"/><path class="cls-11" d="M674.16,357c1.63-.33,2.81-1.3,2.63-2.16s-1.63-1.29-3.26-1-2.81,1.3-2.63,2.16S672.54,357.29,674.16,357Z" transform="translate(-585.75 -313.91)"/><path class="cls-15" d="M675.33,366.42c.06-.88-1.24-1.68-2.89-1.8s-3.06.5-3.12,1.38,1.24,1.68,2.89,1.8S675.27,367.3,675.33,366.42Z" transform="translate(-585.75 -313.91)"/><path class="cls-11" d="M683.43,372.3a27.91,27.91,0,0,0-20.3-1.41l.57-8.3A35.29,35.29,0,0,1,684,364Z" transform="translate(-585.75 -313.91)"/><path class="cls-11" d="M680.73,370.39a20.1,20.1,0,0,0-14.66-1l.42-6a25.36,25.36,0,0,1,14.65,1Z" transform="translate(-585.75 -313.91)"/><path class="cls-11" d="M676.43,365.79c.06-.88-1.23-1.69-2.89-1.8s-3,.5-3.11,1.38,1.23,1.68,2.89,1.8S676.37,366.66,676.43,365.79Z" transform="translate(-585.75 -313.91)"/><path class="cls-11" d="M659.18,351.8s-13-1.78-22.29,3.67" transform="translate(-585.75 -313.91)"/><path class="cls-12" d="M637.2,353.64l.34.11-.53,1.66,1.7.41-.09.34-2.06-.49Z" transform="translate(-585.75 -313.91)"/></g></svg>