<svg id="Layer_1" data-name="Layer 1" xmlns="http://www.w3.org/2000/svg" xmlns:xlink="http://www.w3.org/1999/xlink" viewBox="0 0 289.18 214.21"><defs><style>.cls-1{fill:none;}.cls-2{clip-path:url(#clip-path);}.cls-3{fill:#3f3d56;}.cls-4{fill:#ccc;}.cls-5{fill:#ffb8b8;}.cls-6{fill:#109cf1;}.cls-7{fill:#2f2e41;}.cls-8{fill:#f2f2f2;}</style><clipPath id="clip-path"><rect class="cls-1" width="289.18" height="214.21"/></clipPath></defs><g class="cls-2"><path class="cls-3" d="M107.18,132,47.33,144.65a6.63,6.63,0,0,1-5-.94,6.76,6.76,0,0,1-2.88-4.22L29.15,90.55a6.75,6.75,0,0,1,1-5,6.67,6.67,0,0,1,4.2-2.9L94.16,70a6.7,6.7,0,0,1,7.91,5.17l10.27,48.94a6.72,6.72,0,0,1-5.16,7.93ZM34.46,83.39a5.9,5.9,0,0,0-4.53,7l10.26,48.93a5.93,5.93,0,0,0,2.54,3.73,5.84,5.84,0,0,0,4.43.83L107,131.21a5.8,5.8,0,0,0,3.7-2.55,5.9,5.9,0,0,0,.84-4.44L101.29,75.28a5.89,5.89,0,0,0-7-4.56Z"/><path class="cls-4" d="M90.44,86.09l-30.2,6.39a1,1,0,0,1-.78-.12,1,1,0,0,1-.49-.61.86.86,0,0,1,0-.42,1.09,1.09,0,0,1,.15-.39.92.92,0,0,1,.28-.31.91.91,0,0,1,.38-.16L90.5,84c1.21.68.83,1.94-.06,2.13Z"/><path class="cls-4" d="M91.56,91.41,61.34,97.8a1,1,0,0,1-.76-.12,1,1,0,0,1-.49-.61.86.86,0,0,1,0-.42,1.06,1.06,0,0,1,.13-.39,1.44,1.44,0,0,1,.29-.31.9.9,0,0,1,.39-.16l30.75-6.51c1.19.68.83,1.94-.06,2.13Z"/><path class="cls-4" d="M55.45,102.21l-9.21,2a1.09,1.09,0,0,1-.87-.16,1.15,1.15,0,0,1-.51-.74L42.57,92.34a1.23,1.23,0,0,1,.16-.88,1.14,1.14,0,0,1,.72-.5L52.68,89a1.11,1.11,0,0,1,.87.16,1.17,1.17,0,0,1,.51.74l2.29,10.92a1.19,1.19,0,0,1-.17.88,1.09,1.09,0,0,1-.73.5Z"/><path class="cls-4" d="M93.76,102.32l-46.11,9.76a1.07,1.07,0,0,1-1.26-.74,1.12,1.12,0,0,1,0-.41.87.87,0,0,1,.14-.39,1,1,0,0,1,.29-.31,1,1,0,0,1,.38-.17l46.65-9.87C95,100.87,94.63,102.13,93.76,102.32Z"/><path class="cls-4" d="M94.88,107.65,48.76,117.4a1,1,0,0,1-.76-.11,1,1,0,0,1-.49-.62.86.86,0,0,1,0-.42.92.92,0,0,1,.14-.39,1.1,1.1,0,0,1,.67-.47l46.65-9.87C96.13,106.19,95.77,107.46,94.88,107.65Z"/><path class="cls-4" d="M96,113l-46.12,9.76a1.07,1.07,0,0,1-.78-.12,1,1,0,0,1-.5-1,.94.94,0,0,1,.13-.4,1,1,0,0,1,.29-.3,1.05,1.05,0,0,1,.39-.17l46.65-9.87c1.19.68.81,1.94-.06,2.13Z"/><path class="cls-4" d="M97.11,118.28,51,128a1.06,1.06,0,0,1-1.26-.73,1.19,1.19,0,0,1,0-.42,1.3,1.3,0,0,1,.14-.39,1.42,1.42,0,0,1,.29-.31,1.14,1.14,0,0,1,.38-.16l46.65-9.88C98.37,116.83,98,118.1,97.11,118.28Z"/><path class="cls-4" d="M98.23,123.6l-46.12,9.76a1.06,1.06,0,0,1-.76-.11,1,1,0,0,1-.49-.62.86.86,0,0,1,0-.42.8.8,0,0,1,.14-.39,1.06,1.06,0,0,1,.29-.31.93.93,0,0,1,.38-.16l46.65-9.88C99.49,122.15,99.1,123.42,98.23,123.6Z"/><path class="cls-5" d="M105.57,99.24c-.09.19-.18.39-.26.6l-18.88,4.7-3.27-3.41-5.78,4.3L82.61,112a3.24,3.24,0,0,0,1.67,1.09,3.17,3.17,0,0,0,2-.13l20.49-8.41a4,4,0,0,0,2.31.8,4,4,0,0,0,2.35-.66,4.09,4.09,0,0,0,1.79-4.34,4,4,0,0,0-1.2-2.14,4.16,4.16,0,0,0-2.21-1.08,4.09,4.09,0,0,0-2.41.38,4.25,4.25,0,0,0-1.8,1.69Z"/><path class="cls-5" d="M41.16,141.09a4.22,4.22,0,0,0,2.63-2.4,4,4,0,0,0,.32-1.8,4.09,4.09,0,0,0-.46-1.78l13-36.25-9-1.61L37.69,133.4a4.23,4.23,0,0,0-1.86,2.37,4.31,4.31,0,0,0,.19,3,4.21,4.21,0,0,0,5.14,2.3Z"/><path class="cls-6" d="M55,105.3l-8.9-3.43a1.84,1.84,0,0,1-.68-.45,2.18,2.18,0,0,1-.43-.68,1.93,1.93,0,0,1,.14-1.58l4.67-8.32a5.25,5.25,0,0,1,9.79,3.81l-2.06,9.29a1.89,1.89,0,0,1-.34.73,2,2,0,0,1-.61.53,2,2,0,0,1-.78.22,1.82,1.82,0,0,1-.8-.12Z"/><path class="cls-5" d="M75.1,209.16h4.8l2.3-18.62H75.1Z"/><path class="cls-7" d="M73.87,207.58h9.47a6.06,6.06,0,0,1,2.31.46,6,6,0,0,1,2,1.32,6.16,6.16,0,0,1,1.3,2,6,6,0,0,1,.46,2.32v.2H73.87Z"/><path class="cls-5" d="M48,209.16h4.81l2.28-18.62H48Z"/><path class="cls-7" d="M46.8,207.58h9.48a6.14,6.14,0,0,1,2.31.46,6.2,6.2,0,0,1,3.27,3.28,6.35,6.35,0,0,1,.46,2.32v.2H46.8Z"/><path class="cls-7" d="M53.08,201.67H47a1.65,1.65,0,0,1-.69-.15,1.88,1.88,0,0,1-.58-.4,1.84,1.84,0,0,1-.38-.61,1.66,1.66,0,0,1-.11-.7l2.89-62.35h.18l29.38-.77,5.75,62.38a1.84,1.84,0,0,1-.07.7,2,2,0,0,1-.32.61,1.75,1.75,0,0,1-.55.43,1.78,1.78,0,0,1-.68.2l-6.82.54a1.76,1.76,0,0,1-1.21-.35,1.7,1.7,0,0,1-.66-1.06l-8.75-44.4a.55.55,0,0,0-.2-.35.64.64,0,0,0-.37-.13h0a.57.57,0,0,0-.37.14.52.52,0,0,0-.2.34l-8.41,44.5a1.78,1.78,0,0,1-1.73,1.43Z"/><path class="cls-5" d="M64.22,81.86a9.67,9.67,0,1,0-9.63-9.67A9.66,9.66,0,0,0,64.22,81.86Z"/><path class="cls-6" d="M61,144.76A19,19,0,0,1,47.78,140a1.84,1.84,0,0,1-.47-.69,1.92,1.92,0,0,1-.11-.83c.42-3.77,2.45-23.26,1.3-36.28a16,16,0,0,1,1-7.16,15.86,15.86,0,0,1,4.07-6,15.52,15.52,0,0,1,6.22-3.51,15.27,15.27,0,0,1,7.11-.36h0l.35.06a15.66,15.66,0,0,1,12.47,16.67c-.89,11.68-1.68,27.48-.43,36.41a1.8,1.8,0,0,1-.18,1.07,1.82,1.82,0,0,1-.77.76C75.52,141.6,68.42,144.76,61,144.76Z"/><path class="cls-6" d="M73.57,106a2,2,0,0,1-.57-.58,1.86,1.86,0,0,1-.26-.76L71.56,95.2a5.25,5.25,0,1,1,10.1-2.85l3.87,8.73a1.64,1.64,0,0,1,.15.79,2.14,2.14,0,0,1-.16.79,2.59,2.59,0,0,1-.49.64,2.06,2.06,0,0,1-.72.37l-9.2,2.57a1.77,1.77,0,0,1-.79.05A2,2,0,0,1,73.57,106Z"/><path class="cls-7" d="M60.87,81.72a6.84,6.84,0,0,1-2.68-.48c-.37-.14-.75-.26-1.13-.41a9.22,9.22,0,0,1-5.53-8.33A12.06,12.06,0,0,1,56,63.26a17.14,17.14,0,0,1,9.74-3.69c3.78-.29,8,.67,10.16,3.84a3.3,3.3,0,0,1,.63,2.88,2,2,0,0,1-.52.8c-1,.84-1.88.21-2.85.15a3.17,3.17,0,0,0-3,2.26,7.05,7.05,0,0,0,.11,3.94,9.69,9.69,0,0,1,.5,2.39A2.56,2.56,0,0,1,70.58,77a2.46,2.46,0,0,1-.76.93,2.73,2.73,0,0,1-2.74-.29,19.93,19.93,0,0,0-2.45-1.57,2.15,2.15,0,0,0-2.62.53,2.94,2.94,0,0,0-.32,1c-.47,2.14-.36,2-.82,4.14Z"/><path class="cls-3" d="M194.27,68.51H133.1a6.69,6.69,0,0,1-6.67-6.69v-50a6.69,6.69,0,0,1,6.67-6.69h61.17a6.61,6.61,0,0,1,4.72,2,6.7,6.7,0,0,1,1.95,4.73v50A6.7,6.7,0,0,1,199,66.55,6.61,6.61,0,0,1,194.27,68.51ZM133.1,5.9a5.92,5.92,0,0,0-5.89,5.91v50a5.92,5.92,0,0,0,5.89,5.91h61.17a5.92,5.92,0,0,0,5.89-5.91v-50a5.92,5.92,0,0,0-5.89-5.91Z"/><path class="cls-4" d="M187.33,20.13H156.45a1.08,1.08,0,0,1-1.09-1,.82.82,0,0,1,.06-.41,1.15,1.15,0,0,1,.22-.35.81.81,0,0,1,.34-.24,1,1,0,0,1,.41-.09h31.43c1,.92.41,2.07-.49,2.07Z"/><path class="cls-4" d="M187.33,25.57H156.45a1.08,1.08,0,0,1-1.09-1,.82.82,0,0,1,.06-.41,1.34,1.34,0,0,1,.22-.36,1,1,0,0,1,.34-.24,1.15,1.15,0,0,1,.41-.08h31.43c1,.91.41,2.07-.49,2.07Z"/><path class="cls-3" d="M149.78,28.67h-9.43a1.16,1.16,0,0,1-1.16-1.16V16.34a1.16,1.16,0,0,1,1.16-1.16h9.43a1.13,1.13,0,0,1,.81.34,1.19,1.19,0,0,1,.34.82V27.51a1.19,1.19,0,0,1-.34.82A1.13,1.13,0,0,1,149.78,28.67Z"/><path class="cls-4" d="M187.23,36.71H140.11a1.1,1.1,0,0,1-.74-.28,1.15,1.15,0,0,1-.35-.7,1.52,1.52,0,0,1,.06-.42,1.15,1.15,0,0,1,.22-.35,1.09,1.09,0,0,1,.35-.24.9.9,0,0,1,.4-.08h47.67c1,.91.42,2.07-.49,2.07Z"/><path class="cls-4" d="M187.23,42.15H140.11a1.1,1.1,0,0,1-.74-.28,1.15,1.15,0,0,1-.35-.7,1.52,1.52,0,0,1,.06-.42,1.15,1.15,0,0,1,.22-.35,1,1,0,0,1,.35-.24.9.9,0,0,1,.4-.09h47.67c1,.92.42,2.08-.49,2.08Z"/><path class="cls-4" d="M187.23,47.59H140.11a1.1,1.1,0,0,1-.74-.28,1.15,1.15,0,0,1-.35-.71,1.45,1.45,0,0,1,.06-.41,1.15,1.15,0,0,1,.22-.35,1,1,0,0,1,.35-.24.9.9,0,0,1,.4-.09h47.67c1,.92.42,2.08-.49,2.08Z"/><path class="cls-4" d="M187.23,53H140.11a1,1,0,0,1-.74-.27A1.15,1.15,0,0,1,139,52a1.4,1.4,0,0,1,.06-.41,1.15,1.15,0,0,1,.22-.35.85.85,0,0,1,.35-.24.9.9,0,0,1,.4-.09h47.67c1,.92.42,2.07-.49,2.07Z"/><path class="cls-4" d="M187.23,58.46H140.11a1,1,0,0,1-.74-.27,1.17,1.17,0,0,1-.35-.71,1.4,1.4,0,0,1,.06-.41,1.15,1.15,0,0,1,.22-.35.85.85,0,0,1,.35-.24.9.9,0,0,1,.4-.09h47.67C188.76,57.31,188.14,58.46,187.23,58.46Z"/><path class="cls-6" d="M181,0a1.91,1.91,0,0,1,1.37.58A2,2,0,0,1,182.9,2v6.3a2,2,0,0,1-.58,1.39,1.91,1.91,0,0,1-1.37.58H146.43a2,2,0,0,1-1.38-.58,2,2,0,0,1-.58-1.39V2a2,2,0,0,1,.58-1.39A2,2,0,0,1,146.43,0"/><path class="cls-3" d="M282.51,130.34H221.34a6.71,6.71,0,0,1-6.67-6.7v-50a6.69,6.69,0,0,1,6.67-6.69h61.17a6.61,6.61,0,0,1,4.71,2,6.68,6.68,0,0,1,2,4.73v50a6.65,6.65,0,0,1-2,4.73A6.58,6.58,0,0,1,282.51,130.34ZM221.34,67.73a5.86,5.86,0,0,0-4.16,1.73,5.94,5.94,0,0,0-1.73,4.17v50a6,6,0,0,0,1.73,4.18,5.86,5.86,0,0,0,4.16,1.73h61.17a5.91,5.91,0,0,0,5.89-5.91v-50a5.91,5.91,0,0,0-5.89-5.9Z"/><path class="cls-3" d="M275.57,82H244.69a1.1,1.1,0,0,1-.74-.28,1,1,0,0,1-.35-.7.88.88,0,0,1,.06-.42,1.15,1.15,0,0,1,.22-.35,1.12,1.12,0,0,1,.33-.24,1.25,1.25,0,0,1,.42-.08h31.43c1,.91.41,2.07-.49,2.07Z"/><path class="cls-3" d="M275.57,87.4H244.69a1.1,1.1,0,0,1-.74-.28,1,1,0,0,1-.35-.7.88.88,0,0,1,.06-.42,1.15,1.15,0,0,1,.22-.35,1.12,1.12,0,0,1,.33-.24,1,1,0,0,1,.42-.08h31.43c1,.91.41,2.07-.49,2.07Z"/><path class="cls-4" d="M238,90.49h-9.43a1.15,1.15,0,0,1-.82-.34,1.17,1.17,0,0,1-.34-.83V78.16a1.13,1.13,0,0,1,.34-.82,1.16,1.16,0,0,1,.82-.35H238a1.15,1.15,0,0,1,.81.35,1.17,1.17,0,0,1,.34.82V89.32a1.22,1.22,0,0,1-.34.83A1.14,1.14,0,0,1,238,90.49Z"/><path class="cls-3" d="M275.27,120.81h-9.42a1.14,1.14,0,0,1-1.16-1.16v-6.44a1.21,1.21,0,0,1,.33-.83,1.17,1.17,0,0,1,.83-.34h9.42a1.15,1.15,0,0,1,.82.34,1.21,1.21,0,0,1,.33.83v6.44a1.18,1.18,0,0,1-.33.82A1.15,1.15,0,0,1,275.27,120.81Z"/><path class="cls-4" d="M275.47,98.53H228.35a1.08,1.08,0,0,1-1.09-1,1.52,1.52,0,0,1,.06-.42,1,1,0,0,1,.22-.35,1,1,0,0,1,.35-.24.9.9,0,0,1,.4-.09H276c1,.92.42,2.08-.49,2.08Z"/><path class="cls-4" d="M275.47,104H228.35a1,1,0,0,1-.74-.27,1.15,1.15,0,0,1-.35-.71,1.4,1.4,0,0,1,.06-.41,1,1,0,0,1,.22-.36,1.09,1.09,0,0,1,.35-.24,1.06,1.06,0,0,1,.4-.08H276c1,.91.42,2.07-.49,2.07Z"/><path class="cls-4" d="M275.47,109.4H228.35a1,1,0,0,1-.74-.27,1.12,1.12,0,0,1-.35-.71,1.4,1.4,0,0,1,.06-.41,1,1,0,0,1,.22-.35.85.85,0,0,1,.35-.24.9.9,0,0,1,.4-.09H276c1,.91.42,2.07-.49,2.07Z"/><path class="cls-4" d="M250.76,114.84H228.35a1,1,0,0,1-.74-.27,1.12,1.12,0,0,1-.35-.71,1.4,1.4,0,0,1,.06-.41,1.13,1.13,0,0,1,.22-.36,1.09,1.09,0,0,1,.35-.24,1.06,1.06,0,0,1,.4-.08h23c1,.91.4,2.07-.51,2.07Z"/><path class="cls-4" d="M250.76,120.28H228.35a1,1,0,0,1-.74-.27,1.15,1.15,0,0,1-.35-.71,1.4,1.4,0,0,1,.06-.41,1.13,1.13,0,0,1,.22-.36,1.09,1.09,0,0,1,.35-.24,1.06,1.06,0,0,1,.4-.08h23C252.29,119.12,251.67,120.28,250.76,120.28Z"/><path class="cls-6" d="M269.19,72.06H234.67a2,2,0,0,1-2-2v-6.3a2,2,0,0,1,2-2h34.52a2,2,0,0,1,1.37.58,2,2,0,0,1,.58,1.39v6.3a1.93,1.93,0,0,1-.58,1.39A1.91,1.91,0,0,1,269.19,72.06Z"/><path class="cls-3" d="M149.81,214.21H.4a.35.35,0,0,1-.28-.12.4.4,0,0,1-.12-.27.4.4,0,0,1,.12-.28.35.35,0,0,1,.28-.12H149.81a.34.34,0,0,1,.27.12.37.37,0,0,1,.13.28.37.37,0,0,1-.13.27A.34.34,0,0,1,149.81,214.21Z"/><path class="cls-8" d="M38,11.73a2.55,2.55,0,1,0-2.54-2.54A2.54,2.54,0,0,0,38,11.73Z"/><path class="cls-8" d="M38,21.88a2.55,2.55,0,1,0-2.54-2.54A2.54,2.54,0,0,0,38,21.88Z"/><path class="cls-8" d="M38,32a2.55,2.55,0,1,0-2.54-2.55A2.55,2.55,0,0,0,38,32Z"/><path class="cls-8" d="M38,42.18a2.55,2.55,0,1,0-2.54-2.55A2.55,2.55,0,0,0,38,42.18Z"/><path class="cls-8" d="M48.53,11.73A2.55,2.55,0,1,0,46,9.19,2.54,2.54,0,0,0,48.53,11.73Z"/><path class="cls-8" d="M48.53,21.88A2.55,2.55,0,1,0,46,19.34,2.54,2.54,0,0,0,48.53,21.88Z"/><path class="cls-8" d="M48.53,32A2.55,2.55,0,1,0,46,29.48,2.54,2.54,0,0,0,48.53,32Z"/><path class="cls-8" d="M48.53,42.18A2.55,2.55,0,1,0,46,39.63,2.54,2.54,0,0,0,48.53,42.18Z"/><path class="cls-8" d="M59.12,11.73a2.55,2.55,0,1,0-2.54-2.54A2.54,2.54,0,0,0,59.12,11.73Z"/><path class="cls-8" d="M59.12,21.88a2.55,2.55,0,1,0-2.54-2.54A2.54,2.54,0,0,0,59.12,21.88Z"/><path class="cls-8" d="M59.12,32a2.55,2.55,0,1,0-2.54-2.55A2.54,2.54,0,0,0,59.12,32Z"/><path class="cls-8" d="M59.12,42.18a2.55,2.55,0,1,0-2.54-2.55A2.54,2.54,0,0,0,59.12,42.18Z"/><path class="cls-8" d="M69.71,11.73a2.55,2.55,0,1,0-2.54-2.54A2.54,2.54,0,0,0,69.71,11.73Z"/><path class="cls-8" d="M69.71,21.88a2.55,2.55,0,1,0-2.54-2.54A2.54,2.54,0,0,0,69.71,21.88Z"/><path class="cls-8" d="M69.71,32a2.55,2.55,0,1,0-2.54-2.55A2.54,2.54,0,0,0,69.71,32Z"/><path class="cls-8" d="M69.71,42.18a2.55,2.55,0,1,0-2.54-2.55A2.54,2.54,0,0,0,69.71,42.18Z"/><path class="cls-8" d="M80.3,11.73a2.55,2.55,0,1,0-2.53-2.54A2.54,2.54,0,0,0,80.3,11.73Z"/><path class="cls-8" d="M80.3,21.88a2.55,2.55,0,1,0-2.53-2.54A2.54,2.54,0,0,0,80.3,21.88Z"/><path class="cls-8" d="M80.3,32a2.55,2.55,0,1,0-2.53-2.55A2.54,2.54,0,0,0,80.3,32Z"/><path class="cls-8" d="M80.3,42.18a2.55,2.55,0,1,0-2.53-2.55A2.54,2.54,0,0,0,80.3,42.18Z"/><path class="cls-8" d="M90.89,11.73a2.55,2.55,0,1,0-2.53-2.54A2.54,2.54,0,0,0,90.89,11.73Z"/><path class="cls-8" d="M90.89,21.88a2.55,2.55,0,1,0-2.53-2.54A2.54,2.54,0,0,0,90.89,21.88Z"/><path class="cls-8" d="M90.89,32a2.55,2.55,0,1,0-2.53-2.55A2.55,2.55,0,0,0,90.89,32Z"/><path class="cls-8" d="M90.89,42.18a2.55,2.55,0,1,0-2.53-2.55A2.55,2.55,0,0,0,90.89,42.18Z"/><path class="cls-8" d="M236,152.7a2.55,2.55,0,1,0-2.54-2.55A2.55,2.55,0,0,0,236,152.7Z"/><path class="cls-8" d="M236,162.85a2.55,2.55,0,1,0-2.54-2.54A2.55,2.55,0,0,0,236,162.85Z"/><path class="cls-8" d="M236,173a2.55,2.55,0,1,0-2.54-2.55A2.55,2.55,0,0,0,236,173Z"/><path class="cls-8" d="M246.59,152.7a2.55,2.55,0,1,0-2.54-2.55A2.55,2.55,0,0,0,246.59,152.7Z"/><path class="cls-8" d="M246.59,162.85a2.55,2.55,0,1,0-2.54-2.54A2.55,2.55,0,0,0,246.59,162.85Z"/><path class="cls-8" d="M246.59,173a2.55,2.55,0,1,0-2.54-2.55A2.55,2.55,0,0,0,246.59,173Z"/><path class="cls-8" d="M257.17,152.7a2.55,2.55,0,1,0-2.54-2.55A2.55,2.55,0,0,0,257.17,152.7Z"/><path class="cls-8" d="M257.17,162.85a2.55,2.55,0,1,0-2.54-2.54A2.54,2.54,0,0,0,257.17,162.85Z"/><path class="cls-8" d="M257.17,173a2.55,2.55,0,1,0-2.54-2.55A2.55,2.55,0,0,0,257.17,173Z"/><path class="cls-8" d="M267.76,152.7a2.55,2.55,0,1,0-2.54-2.55A2.55,2.55,0,0,0,267.76,152.7Z"/><path class="cls-8" d="M267.76,162.85a2.55,2.55,0,1,0-2.54-2.54A2.55,2.55,0,0,0,267.76,162.85Z"/><path class="cls-8" d="M267.76,173a2.55,2.55,0,1,0-2.54-2.55A2.55,2.55,0,0,0,267.76,173Z"/></g></svg>