<svg id="Layer_1" data-name="Layer 1" xmlns="http://www.w3.org/2000/svg" xmlns:xlink="http://www.w3.org/1999/xlink" viewBox="0 0 299.57 225.49"><defs><style>.cls-1,.cls-32{fill:none;}.cls-2{clip-path:url(#clip-path);}.cls-3,.cls-9{fill:#109cf1;}.cls-16,.cls-3,.cls-8{opacity:0.1;}.cls-21,.cls-3,.cls-30,.cls-34,.cls-8{isolation:isolate;}.cls-4{fill:url(#linear-gradient);}.cls-5{fill:#d38884;}.cls-6{fill:#444053;}.cls-7{fill:#b07473;}.cls-10{fill:#67647e;}.cls-11{fill:#585268;}.cls-12{fill:#e1e7ef;}.cls-13{fill:url(#linear-gradient-2);}.cls-14{fill:#a27772;}.cls-15{fill:#cc818c;}.cls-17{fill:#f6f8fb;}.cls-18{fill:url(#linear-gradient-3);}.cls-19{fill:#65617d;}.cls-20{fill:#fbbebe;}.cls-21,.cls-28{opacity:0.05;}.cls-22{fill:#7c5c5c;}.cls-23{fill:url(#linear-gradient-4);}.cls-24{fill:#fdc2cc;}.cls-25{fill:#d39999;}.cls-26{fill:#7e5659;}.cls-27{fill:#865a61;}.cls-29{fill:url(#linear-gradient-5);}.cls-30{fill:#fff;opacity:0.5;}.cls-31{fill:#3f2b3b;}.cls-32{stroke:#3f2b3b;stroke-miterlimit:10;}.cls-33{fill:#a8a8a8;}.cls-34{opacity:0.2;}</style><clipPath id="clip-path"><rect class="cls-1" x="0.01" width="299.57" height="225.49"/></clipPath><linearGradient id="linear-gradient" x1="126.82" y1="59.16" x2="126.82" y2="214.21" gradientTransform="matrix(1, 0, 0, -1, 0, 245.46)" gradientUnits="userSpaceOnUse"><stop offset="0" stop-color="gray" stop-opacity="0.25"/><stop offset="0.54" stop-color="gray" stop-opacity="0.12"/><stop offset="1" stop-color="gray" stop-opacity="0.1"/></linearGradient><linearGradient id="linear-gradient-2" x1="177.03" y1="-125061.58" x2="177.03" y2="-27207.97" xlink:href="#linear-gradient"/><linearGradient id="linear-gradient-3" x1="222.47" y1="-127318.54" x2="222.47" y2="-36761.34" xlink:href="#linear-gradient"/><linearGradient id="linear-gradient-4" x1="83.72" y1="-126236.53" x2="83.72" y2="-35309.37" xlink:href="#linear-gradient"/><linearGradient id="linear-gradient-5" x1="139.72" y1="-31559.85" x2="139.72" y2="-26589.65" xlink:href="#linear-gradient"/></defs><g class="cls-2"><path class="cls-3" d="M3.24,106.62C8,125,18,140.92,33.88,148.63c33,16,107.28,7.76,162.77-1.73,28.7-4.9,53.9-18.44,72.23-37.5Z"/><path class="cls-3" d="M294.15,20H263.71a2.54,2.54,0,0,1-2.64-2.39,2.53,2.53,0,0,1,2.64-2.39H269a2.54,2.54,0,0,1-2.64-2.39A2.53,2.53,0,0,1,269,10.46h-3.75a2.53,2.53,0,0,1-2.64-2.39,2.54,2.54,0,0,1,2.64-2.39h15.88a45.46,45.46,0,0,0-12.39-3.1C225.4-2.47,209.93.87,204.46,4.31a63.67,63.67,0,0,1-22.26,8.86c-26.72,5-76.71,11-122-1.93C37.66,4.8,20.93,15.7,10.91,33.88H299.44a39.15,39.15,0,0,0-3.58-14.45A2.77,2.77,0,0,1,294.15,20Z"/><path class="cls-3" d="M.65,68.22a110.75,110.75,0,0,0,1.19,32.1l267.24,8.88a114.11,114.11,0,0,0,18.57-25.71Zm105.69,22.9h-5.27a2.4,2.4,0,1,1,0,4.77H70.65a2.4,2.4,0,1,1,0-4.77h5.26a2.4,2.4,0,1,1,0-4.78H72.16a2.4,2.4,0,1,1,0-4.78h30.43a2.4,2.4,0,1,1,0,4.78h3.75a2.4,2.4,0,1,1,0,4.78Z"/><path class="cls-3" d="M299.44,34,7.69,40.49a96.9,96.9,0,0,0-7,27.36H294.33a103.63,103.63,0,0,0,4.24-17.44A75.56,75.56,0,0,0,299.44,34ZM59.94,55.16H54.67a2.4,2.4,0,1,1,0,4.78H24.23a2.4,2.4,0,1,1,0-4.78H29.5a2.4,2.4,0,1,1,0-4.78H25.73a2.4,2.4,0,1,1,0-4.77H56.17a2.4,2.4,0,1,1,0,4.77h3.77a2.4,2.4,0,1,1,0,4.78Z"/><path class="cls-3" d="M175,201.13c10.94,0,19.81-2,19.81-4.43s-8.87-4.43-19.81-4.43-19.81,2-19.81,4.43S164,201.13,175,201.13Z"/><path class="cls-3" d="M221,213.68c19.74,0,35.74-1.31,35.74-2.92s-16-2.92-35.74-2.92-35.74,1.31-35.74,2.92S201.24,213.68,221,213.68Z"/><path class="cls-3" d="M77.48,210.76c19.74,0,35.74-2,35.74-4.43s-16-4.43-35.74-4.43-35.74,2-35.74,4.43S57.75,210.76,77.48,210.76Z"/><path class="cls-3" d="M132,188.59c14.85,0,26.9-2,26.9-4.43s-12.05-4.43-26.9-4.43-26.89,2-26.89,4.43S117.11,188.59,132,188.59Z"/><path class="cls-3" d="M139.49,225.49c11.88,0,21.51-2,21.51-4.43s-9.63-4.43-21.51-4.43-21.54,2-21.54,4.43S127.58,225.49,139.49,225.49Z"/><path class="cls-4" d="M152.06,78.77C151.48,75,148,66.06,148,66.06c0-.26-.13-.53-.2-.79-2.48-8.45-5.89-9.18-5.89-9.18l-12.23-2.62a.75.75,0,0,1,.26.24l-.19,0a4.6,4.6,0,0,1-1.07-2.31c0-.12,0-.26-.06-.39a8.69,8.69,0,0,0,2-3,8.42,8.42,0,0,0,.57-3.58,8.74,8.74,0,0,0-1-3.5,8.59,8.59,0,0,0-2.34-2.78l-.38-.29a2,2,0,0,0,.16-2.31,8.05,8.05,0,0,0-5.22-3.87,8.81,8.81,0,0,0-5.06-.11,17.51,17.51,0,0,0-2.64,1.22c-1.63.81-3.43,1.45-4.64,2.78a1.36,1.36,0,0,0-.47,1.12,3.34,3.34,0,0,0,.47.81,2.47,2.47,0,0,1,0,2,20.16,20.16,0,0,0-.76,2,2,2,0,0,0,.42,2c.24.18.5.36.76.52a3.75,3.75,0,0,1,.72.82c.48.64,1,1.29,1.45,2a20,20,0,0,1,1.82,2.74,13.58,13.58,0,0,0,1.11,2.1,4.56,4.56,0,0,0,.48.5L116,52a2.09,2.09,0,0,0,.72.49,2.17,2.17,0,0,0,.87.16h.08a.4.4,0,0,0,.29-.12v.26c0,.94,0,1.93,0,2.87l-.11-.06a1.05,1.05,0,0,0-.55-.09,1,1,0,0,0-.52.2l-11.26,9a14.79,14.79,0,0,0-2.11,9.09l-2,8.64S99,89.81,100.88,95s3,8.23,3,8.23.76,5.94,1.89,6.43,1.64.74,1.64.74l.22,1.42.21.38c.82,1.43,3.9,6.51,5.69,6a23.34,23.34,0,0,1,.29,4.17l1.77,11.82a17.86,17.86,0,0,1,1.16,4.9c-.08,1.68,1.43,4.08,1.43,4.08a7.76,7.76,0,0,0-.75,5.49c.71,3.15,1.62,17.65,1.62,17.65l1.32,3.51,0,4.12a4,4,0,0,1-.82,1.84c-.85.92-.79,2-2.85,3.25s-3.37,1.74-3.37,3.41a4.12,4.12,0,0,1,0,.7c-.19,1.22-.56,1.89,3.23,2.25a10,10,0,0,0,7.39-2.47s.66-1.18,3.74-1.66c0,0,1,0,1.11-1,0-.32,0-.93,0-1.6a10,10,0,0,0-.34-2.86,6,6,0,0,1-.69-1.84h.85s.79-5.95,0-9.8a15.63,15.63,0,0,1-.06-6.58l-.17-10.17a2.92,2.92,0,0,1-.22-3.11c.82-2,0-11.77,0-11.77s.3-3.52,1.17-4.34,0-5.15,0-5.37l1.57,5.19s.67,10.31,2.12,12.18l.41,4.68s3,4.3,2.4,6.61.61,10.7.61,10.7v8.56s-1.34,3.44.51,4.67l.79,0c-.26.25-.47.61-.77.93a7,7,0,0,0-.66,2.95c-.1,1-.13,1.87-.13,1.87a3.11,3.11,0,0,0,2.27,1.35c1.5.09,6.39,3.8,6.39,3.8a59,59,0,0,0,6.11-.26l.06,0a1.65,1.65,0,0,0,1-.77,2,2,0,0,0,.23-1.41,3.51,3.51,0,0,0-2-2.23c-3.23-1.7-3.72-3.3-3.72-3.3l-2.12-3.17h.3a13.47,13.47,0,0,1,2.13-7.14l-.15-16.64s.94-5.72-.69-8.83c0,0-.13-3.29,1-4.3S145.35,127,145.35,127s-.53-5.48-1.16-10.48c2.56,2.42,5.22-6.29,5.67-7.84h.06v-.12a.87.87,0,0,0,0-.11s-.56-2-.14-1.6,1.43-1.12,1.43-1.12-.14-8.34,1.64-12.54S152.06,78.77,152.06,78.77Zm-7.65,5.31,0,0c.27,5.09-.05,16-.05,16s-.35,1.39-.72,3l-.26-10.32L143.13,83Zm-32.68-3.51s1.31,16.07,0,18.39a12.67,12.67,0,0,0-.91,3.18c-.44-1.12-1.34-3.74-1-5.12.42-1.8-.84-6.51-.84-6.62a11.19,11.19,0,0,1,.79-4.54c.92-1.92.33-2.76.33-2.76S110.83,80,111.73,80.57Z"/><path class="cls-5" d="M114.89,116.77c-1.13,4.92-5.6-2.52-6.62-4.31l-.21-.37.49-2.26,2.57-1a6.68,6.68,0,0,1,1.15.75A6.87,6.87,0,0,1,114.89,116.77Z"/><path class="cls-5" d="M149.58,108.72a.31.31,0,0,1,0,.11.35.35,0,0,1,0,.12c-.43,1.54-3,10.19-5.57,7.79-2.76-2.63-1.42-8.69-1.42-8.69h0l5.78-.59,1.16,1.17Z"/><path class="cls-6" d="M146.23,151.31l.15,16.52a13.57,13.57,0,0,0-2.09,7.08l-7.49.3c-1.82-1.23-.52-4.64-.52-4.64v-8.51s-1.16-8.31-.6-10.61-2.35-6.56-2.35-6.56l-.42-4.64c-1.41-1.85-2.07-12.1-2.07-12.1L129.31,123c.05.22.83,4.54,0,5.34s-1.15,4.3-1.15,4.3.81,9.73,0,11.69a2.9,2.9,0,0,0,.21,3.08l.16,10.1a15.72,15.72,0,0,0,.07,6.53c.79,3.82,0,9.72,0,9.72h-8l0-4.12-1.31-3.48s-.9-14.4-1.61-17.52a7.9,7.9,0,0,1,.74-5.46s-1.48-2.37-1.4-4a17.29,17.29,0,0,0-1.16-4.86l-1.72-11.73a22.9,22.9,0,0,0-.85-6.68c-1-3.34-2.5-7.72-2.5-7.72l1.68.15L121,109s20.65-1.38,21.57-.23a4.22,4.22,0,0,1,.39,1.2c.93,4.15,2.15,17.14,2.15,17.14s2.5,10.13,1.42,11.13-.93,4.27-.93,4.27C147.17,145.62,146.23,151.31,146.23,151.31Z"/><path class="cls-7" d="M128.78,180c-.07.92-1.1,1-1.1,1-3,.47-3.66,1.64-3.66,1.64a9.7,9.7,0,0,1-7.26,2.45c-3.7-.36-3.35-1-3.16-2.24,0-.22.05-.45.07-.68,0-1.67,1.27-2.15,3.28-3.41s2-2.31,2.81-3.23a5.11,5.11,0,0,0,.91-2.7c1-1.64,3.35.26,3.35.26.12.58,3.69.5,3.69.5a8.11,8.11,0,0,0,.73,2,10,10,0,0,1,.32,2.83C128.79,179.08,128.79,179.68,128.78,180Z"/><path class="cls-8" d="M128.78,180c-.07.92-1.1,1-1.1,1-3,.48-3.66,1.64-3.66,1.64a9.7,9.7,0,0,1-7.26,2.45c-3.7-.35-3.35-1-3.16-2.23,1.66.41,4.83,1,6.69,0,2.56-1.39,4.41-2.36,4.41-2.36l4.06-2C128.79,179.08,128.79,179.69,128.78,180Z"/><path class="cls-7" d="M151.52,185a1.55,1.55,0,0,1-.94.76l-.06,0a56.53,56.53,0,0,1-6,.26s-4.81-3.7-6.26-3.78a3.07,3.07,0,0,1-2.24-1.34s0-.86.13-1.86a6.88,6.88,0,0,1,.66-2.92c.64-.67.79-1.58,2.22-1,0,0,2.08-3.62,4.51-.82l2.51,3.8s.47,1.58,3.66,3.28a3.52,3.52,0,0,1,2,2.22A2,2,0,0,1,151.52,185Z"/><path class="cls-8" d="M151.52,185l-.94.77h-.06a54.45,54.45,0,0,1-6,.27s-4.81-3.71-6.26-3.79a3.07,3.07,0,0,1-2.24-1.34s0-.86.13-1.86c1.46.44,3.72,1.22,4.31,2.06a18.15,18.15,0,0,0,3.72,3.06s5.22-.5,7.54-.57A2,2,0,0,1,151.52,185Z"/><path class="cls-5" d="M131.21,55.44l-6.88,7.24s-8.33-.61-6.86-3.06c.74-1.25.85-3.86.79-6.13s-.29-4.06-.29-4.06,11.67-5.79,10.79-.39a9.1,9.1,0,0,0,0,3.08A4,4,0,0,0,131.21,55.44Z"/><path class="cls-8" d="M128.74,49a9.1,9.1,0,0,0,0,3.08,8.61,8.61,0,0,1-6.12,2.55c-1.58,0-3.29-1.3-4.58-2,0-2.2-.06-3.2-.06-3.2S129.64,43.64,128.74,49Z"/><path class="cls-5" d="M131.21,45.65A8.55,8.55,0,0,1,129.34,51a8.59,8.59,0,0,1-15.12-7.25,8.51,8.51,0,0,1,3-4.79A8.63,8.63,0,0,1,128,39a8.3,8.3,0,0,1,2.38,3A8.42,8.42,0,0,1,131.21,45.65Z"/><path class="cls-8" d="M142.92,110c-2.15,5.08-15.93,5.19-15.93,5.19v-5.54l-.84,0c.35,1.58-.52,5.45-.52,5.45-10.88,1.53-13.54-4.65-13.54-4.65l.39-2.12L121,109s20.64-1.38,21.57-.23A4.22,4.22,0,0,1,142.92,110Z"/><path class="cls-9" d="M127,114.5V109l-.84,0c.35,1.57-.52,5.46-.52,5.46-8.19,1.15-11.72-2.07-13-3.73a5.26,5.26,0,0,1-.58-.92l3.33-18.65.79-27.45,1.19-4.81.28-2.31v0h0l.84.36L123.62,59l5.77-4.34.09-.06.28-.22.48.38,1.18.95,3.8,24.44s6.59,18.82,7.83,26.42c0,.3.08.58.11.85C144,114.37,127,114.5,127,114.5Z"/><path class="cls-10" d="M124.25,60.05a.49.49,0,1,0-.48-.49A.48.48,0,0,0,124.25,60.05Z"/><path class="cls-10" d="M124.47,64.5A.49.49,0,1,0,124,64,.49.49,0,0,0,124.47,64.5Z"/><path class="cls-10" d="M125,71.72a.49.49,0,1,0,0-1,.49.49,0,1,0,0,1Z"/><path class="cls-10" d="M125.76,79.48a.49.49,0,0,0,.5-.49.48.48,0,0,0-.5-.48.47.47,0,0,0-.48.48A.48.48,0,0,0,125.76,79.48Z"/><path class="cls-10" d="M126.26,86.77a.49.49,0,1,0-.48-.49A.48.48,0,0,0,126.26,86.77Z"/><path class="cls-10" d="M126.75,94.54a.49.49,0,1,0-.49-.48A.48.48,0,0,0,126.75,94.54Z"/><path class="cls-10" d="M126.55,102.21a.49.49,0,0,0,.5-.49.49.49,0,1,0-.5.49Z"/><path class="cls-8" d="M118,93.78s-.55,7.14-1.55,9.22-1.45,7.91-1.45,7.91l-2.33-.26a5,5,0,0,1-.58-.93l3.33-18.65.79-27.44,1.19-4.82.28-2.31h0a.86.86,0,0,1,.42-.09.9.9,0,0,1,.42.1l.11.06a2.47,2.47,0,0,0-.1.29,44.45,44.45,0,0,0-1.25,8.07s1.32,9.58,1.45,14S118,93.78,118,93.78Z"/><path class="cls-8" d="M112.27,109.53a1.62,1.62,0,0,0-.1.18c-.9,1.52-3.21,2.49-3.9,2.75l-.21-.37.49-2.26,2.57-1A7.33,7.33,0,0,1,112.27,109.53Z"/><path class="cls-10" d="M106.07,73.09l-2.13,1.26-2,8.57s-2.42,7.28-.55,12.47,2.93,8.17,2.93,8.17.76,5.9,1.87,6.39,1.61.74,1.61.74l.21,1.41s3-1,4.11-2.83-.79-6.3-.79-6.3-1.59-3.82-1.19-5.6-.82-6.46-.82-6.56a10.89,10.89,0,0,1,.79-4.51c.9-1.91.3-2.73.3-2.73l-.56-5.45Z"/><path class="cls-8" d="M143.09,108.39s-5.62,2.11-7.41.26-1.61-10.54-1.61-10.54-1.7-16-2.78-18.67-.53-21.63-.53-21.63a11.54,11.54,0,0,0-1.37-3.11.45.45,0,0,0-.13-.1l.22,0,.76.16,1.19.95,3.79,24.44s6.59,18.81,7.83,26.41Z"/><path class="cls-8" d="M149.58,108.94h-.06c-.71.09-7,.85-7-.45a3.39,3.39,0,0,1,0-.45l5.79-.59,1.15,1.18a1,1,0,0,1,.06.19Z"/><path class="cls-10" d="M143.58,64.51l4.1,2.13s3.43,8.83,4,12.62c0,0,2.53,10.13.79,14.3S150.84,106,150.84,106s-1,1.52-1.42,1.12.16,1.59.16,1.59-7,.93-7.05-.44,1.61-8,1.61-8,.45-15.62-.19-18.07S143.58,64.51,143.58,64.51Z"/><path class="cls-8" d="M131.32,81.15s-2.3,5.64-3.06,6,.16,1.85.16,1.85S132.62,83.15,131.32,81.15Z"/><path class="cls-8" d="M129.93,61.36c0-.1-2.75,2.72-3.49,3.15S129.16,64.48,129.93,61.36Z"/><path class="cls-8" d="M122.19,80.7s-4.25,2.74-3.69,3.82S122.19,80.7,122.19,80.7Z"/><path class="cls-8" d="M129.92,120.63a22.72,22.72,0,0,0,9.23,2.89Z"/><path class="cls-8" d="M121.22,126.2s3.35,4.2,4.88,4.31S121.22,126.2,121.22,126.2Z"/><path class="cls-8" d="M125.92,142.65c-.14.07-1.9,3.78-3.68,3.89S125.92,142.65,125.92,142.65Z"/><path class="cls-8" d="M141.45,150.77s3.32-.74,4.06,1.63C145.51,152.4,145.28,151.65,141.45,150.77Z"/><path class="cls-8" d="M139.21,164.35s4-.82,4.88.3S139.21,164.35,139.21,164.35Z"/><path class="cls-8" d="M127.82,166.25s-4.09.82-3.94,1.34,4.38.45,4.52-.37a.55.55,0,0,0,0-.31,1,1,0,0,0-.1-.29.58.58,0,0,0-.21-.23A.66.66,0,0,0,127.82,166.25Z"/><path class="cls-8" d="M137.88,169.77s6.73-.82,6.32.59S137.88,169.77,137.88,169.77Z"/><path class="cls-8" d="M102.63,87.16c0,.11,4.43.7,5,2.11a38.4,38.4,0,0,0-5-2"/><path class="cls-8" d="M108.82,98.62s-3.66,1.16-3.4,2.89S105.05,100.71,108.82,98.62Z"/><path class="cls-8" d="M107.11,107.46s1.34-1.82,2.6-1.48S107.11,107.46,107.11,107.46Z"/><path class="cls-8" d="M128,38.94a1.92,1.92,0,0,1-.43.32c-1.05.61-1.34,1.55-1.84,2.64a5.64,5.64,0,0,1-1.92,2.61c-1.22.73-2.82.46-4.07,1.1a3,3,0,0,0-1.32,1.29,3,3,0,0,0-.37,1.81,11.32,11.32,0,0,0,.35,1.42,10,10,0,0,1,.39,3.09v.09a8.55,8.55,0,0,1-4.66-9,8.6,8.6,0,0,1,3.77-5.87,8.5,8.5,0,0,1,3.34-1.31,8.6,8.6,0,0,1,3.57.17A8.47,8.47,0,0,1,128,38.94Z"/><path class="cls-11" d="M127.74,36.36a7.91,7.91,0,0,0-5.12-3.84,8.56,8.56,0,0,0-5-.11,18.72,18.72,0,0,0-2.61,1.22c-1.59.8-3.35,1.44-4.54,2.75a1.33,1.33,0,0,0-.45,1.11,2.56,2.56,0,0,0,.45.8,2.45,2.45,0,0,1,0,2,17.57,17.57,0,0,0-.74,1.94,2,2,0,0,0,.4,1.94,5.15,5.15,0,0,0,.76.53,4.14,4.14,0,0,1,.7.8l1.42,1.94a18.87,18.87,0,0,1,1.79,2.73A13.58,13.58,0,0,0,116,52.26a2.38,2.38,0,0,0,2,1.07.39.39,0,0,0,.18,0l.14-.11a.65.65,0,0,0,0-.2,10.66,10.66,0,0,0-.37-3.08,7.6,7.6,0,0,1-.37-1.42,3.31,3.31,0,0,1,.37-1.8,3.07,3.07,0,0,1,1.32-1.3c1.25-.64,2.86-.37,4.07-1.09a5.65,5.65,0,0,0,1.92-2.63c.51-1.08.79-2,1.85-2.63A1.85,1.85,0,0,0,127.74,36.36Z"/><path class="cls-8" d="M123.9,176.49s1.32,1.67,1,2.62S123.9,176.49,123.9,176.49Z"/><path class="cls-8" d="M141.71,180.67s.29-2.24,1.46-2.26a3.82,3.82,0,0,1,2.11.23c.91.34,1.74.87,1.49,1s-1.55-1.28-2.86-.59A9.26,9.26,0,0,0,141.71,180.67Z"/><path class="cls-8" d="M120,61.83l3.67-2.57s-5.38-3.18-6-2.73S116.52,61,116.52,61Z"/><path class="cls-12" d="M120,61.66,123.64,59s-5.4-3.17-6-2.73S116.52,61,116.52,61Z"/><path class="cls-9" d="M120,61.66,123.64,59s-5.4-3.17-6-2.73S116.52,61,116.52,61Z"/><path class="cls-10" d="M118.21,56.34l-.11-.06a1,1,0,0,0-.53-.1.93.93,0,0,0-.5.21L106,65.32a14.77,14.77,0,0,0-2.06,9l6.52,9.21s.74-3.12,1.63-2.53c0,0,1.27,16,0,18.26s-1.82,10.91-1.82,10.91l4.28.49s.45-5.83,1.45-7.91,1.57-9.22,1.57-9.22.9-10.37.75-14.83-1.45-14-1.45-14S117.23,59.09,118.21,56.34Z"/><path class="cls-8" d="M129.23,60.21l-4.59-1.7s5.84-6.38,6.57-2.84Z"/><path class="cls-12" d="M129.23,60l-4.59-1.7s5.84-6.38,6.57-2.84Z"/><path class="cls-9" d="M129.23,60l-4.59-1.7s5.84-6.38,6.57-2.84Z"/><path class="cls-8" d="M129.08,54.54a.23.23,0,0,1,.18.05Z"/><path class="cls-10" d="M129.52,54.11l12.19,2.62s3.35.74,5.78,9.13-3.32,18.66-3.32,18.66l-1.27-1.07.63,24.49s-5.62,2.12-7.41.27-1.59-10.55-1.59-10.55-1.73-16-2.81-18.67-.53-21.64-.53-21.64S130.21,54,129.52,54.11Z"/><path class="cls-8" d="M140.66,69.72a69.49,69.49,0,0,0,.39,13.21,73.38,73.38,0,0,0,2.09,10.17l-1.09-22.6S141.19,69.24,140.66,69.72Z"/><path class="cls-8" d="M139.18,63.33c.31.19,1.61,3.27,1,4.53S139.18,63.33,139.18,63.33Z"/><path class="cls-8" d="M127.68,36.37a6.66,6.66,0,0,0-2.69-2.8,6.37,6.37,0,0,1,2,2.36,1.87,1.87,0,0,1-.64,2.68c-1,.57-1.35,1.55-1.85,2.63a5.82,5.82,0,0,1-1.92,2.63c-1.21.73-2.82.45-4.07,1.09a3.16,3.16,0,0,0-1.7,3.11,8.61,8.61,0,0,0,.37,1.41,10.44,10.44,0,0,1,.38,3.09.28.28,0,0,1,0,.2.31.31,0,0,1-.14.11.34.34,0,0,1-.18,0,2,2,0,0,1-.92-.17,2.46,2.46,0,0,0,.73.47,2.23,2.23,0,0,0,.85.14.26.26,0,0,0,.15,0,.42.42,0,0,0,.13-.07.67.67,0,0,0,.06-.12.23.23,0,0,0,0-.14,10.68,10.68,0,0,0-.37-3.09,8.75,8.75,0,0,1-.38-1.42,3.18,3.18,0,0,1,1.7-3.1c1.25-.64,2.86-.37,4.07-1.1a5.69,5.69,0,0,0,1.92-2.62c.51-1.09.79-2,1.83-2.64A1.86,1.86,0,0,0,127.68,36.37Z"/><path class="cls-13" d="M202.69,69.3c-3.63-.08-6.83-2.63-8.65-5.74a5.77,5.77,0,0,1-.87-2.46,3.82,3.82,0,0,1,.09-.59,4.64,4.64,0,0,0,.26-.9,1.15,1.15,0,0,0,0-.37v0a2.1,2.1,0,0,0-.79-1.76c-.48-.46-1.09-.79-1.59-1.24-1.56-1.37-2-3.55-2.06-5.63v-.11c0-.9.09-1.79.08-2.68a9.62,9.62,0,0,0-.07-1.52,5,5,0,0,0-1.62-3.35c-2.6-2.1-7,.09-9.65-1.9-.66-.48-1.19-1.2-2-1.39a3.34,3.34,0,0,0-1.81.25c-2,.65-4.18,1.5-5,3.41-.43,1.09-.32,2.34-.72,3.45a19,19,0,0,1-1.13,2.08,3.12,3.12,0,0,0-.42,1.74,1.82,1.82,0,0,0,.13.92,2.19,2.19,0,0,0,.64.92,4.28,4.28,0,0,1-.38.62c-.52.61-1.29,1-1.82,1.66a3.9,3.9,0,0,0-.45,4c.48,1.32,1.35,2.52,2,3.81a2.11,2.11,0,0,1,.19,1.74,5.48,5.48,0,0,1-.87,1A3,3,0,0,0,165.4,67c-5.93,1.35-5.94,6.09-5.94,6.09l-3.21,8s-.5,1.35-1.11,3.14l-3.78-.68L154,88a13.52,13.52,0,0,0-.72,4.28s-1.18,5.51.91,6.47l4.61,2.07a3.15,3.15,0,0,0,.65.29l.19.08a.5.5,0,0,0,.21,0,.59.59,0,0,0,.22,0h0a.66.66,0,0,0,.28,0,.54.54,0,0,0,.22-.25v0l1.39-.39,1.17,1.38c.53.37,1.05.69,1.55,1l-1.82,17.94s-.29,23.87-1.18,29.31a15,15,0,0,0-.19,4.32l-.05.06c.23,1.53.81,1.84.81,1.84v0s0,0,0,0a13.88,13.88,0,0,1,.95-2v.39c0,2-.1,4.87-.31,6.71-.35,3.14.92,13.52.92,13.52l.45,9.44a8.69,8.69,0,0,1-1.08,4.6c-1.06,1.89-2.4,4.54-2.49,5.72a.31.31,0,0,0,0,.19l-2.28,2.71s-.86,1.36,1.12,1.9a10.79,10.79,0,0,0,4.41-.34,3,3,0,0,0,1.64-1,3.18,3.18,0,0,0,.65-1.83,9.86,9.86,0,0,1,1.85-3.56l.37,2.17,2.5.62.3-6a2.7,2.7,0,0,0,.18-1c.48-4.24-1.16-3.86-1.16-3.86a.19.19,0,0,1,.08.15l-.08-.15c-1-2-.52-5.24-.52-5.24s1.32-9.45,1.76-11.94c.34-1.76.19-7.53.1-10.75a2.61,2.61,0,0,0,0-.4c3.85-.05,8.57-.17,11.89-.49v.39l-.62,22.3a11.83,11.83,0,0,1-.85,4.15s0,0,0,.08a18,18,0,0,0-1.21,5.84l-.29,7.09v.19c-.5.19-1.27.74-1.29,2.33-.05,2.33,4.08,1.55,4.08,1.55,4.12,0,4.15-4.27,4.15-4.27s.13-3.92.32-6.53-.61-2.05-.61-2.05l-.06,7.46V187.8l.06-1v-.22l.52-7.69s3.8-12.81,4.38-15.27c.42-1.75.24-7,.11-9.92a1.58,1.58,0,0,0,0-.38c1.19-.11,2.22-.12,2.64-.12H195s-.19-20.57-.69-28.32-1.27-14.85-3.24-17c-1.17-1.29-2.83-5.27-3.94-8.22a40.78,40.78,0,0,0,7.26,2.36c6.2,1.29,5.36-4.08,5.36-4.08l-.62-10.16h0a50.36,50.36,0,0,0-.68-7.94,23.87,23.87,0,0,0-1.61-5.77c.68-.26,1.35-.54,2-.83,1.69-.74,3.59-1.79,3.83-3.61h-.08C202.65,69.56,202.67,69.43,202.69,69.3ZM164.18,84c0,1,0,2.87-.08,4.88l-2-2.62,2-3.19Zm27.25,9.3-3.29-1a14,14,0,0,1,2-2.5l.29-.26-.11,0,.16-.15.1,0-.15.15.18,0a5.55,5.55,0,0,0,1.11,2.24c1.18,1.28-.32,1.61-.32,1.61Z"/><path class="cls-14" d="M171.46,187.7l-.39,7.26-2.45-.61-.51-3Z"/><path class="cls-8" d="M171.46,187.7l-.39,7.26-2.45-.61-.51-3Z"/><path class="cls-15" d="M180.46,195.92l3.74.78,2.78-2.44v-6.88l.07-.94v-.22l.51-7.65s3.74-12.71,4.32-15.15c.42-1.74.24-7,.1-9.85,0-1.18-.1-2-.1-2l-8.26-2-.16,6.32-.62,22.14a12.1,12.1,0,0,1-.83,4.12l0,.08a17.7,17.7,0,0,0-1.19,5.8l-.29,7v.2Z"/><path class="cls-8" d="M180.46,195.92l3.74.78,2.78-2.44v-.59a.66.66,0,0,1-.13.36.64.64,0,0,1-.27.27l-.05,0a7.4,7.4,0,0,1-4.19.83l-1.46-.12a1.38,1.38,0,0,0-.39.09v.2Z"/><path class="cls-7" d="M186.55,194.52l0,0a.81.81,0,0,0,.4-.68l.07-7.4s.8-.57.61,2-.32,6.49-.32,6.49,0,4.24-4.11,4.24c0,0-4.06.77-4-1.55s1.68-2.41,1.68-2.41l1.46.13A7.5,7.5,0,0,0,186.55,194.52Z"/><path class="cls-15" d="M161,194.36c.09,1.67,5,.71,5,.71l3.32-6.42s2.77-2.13,1.38-4c-.08-.1-.14-.21-.21-.31v0a1.09,1.09,0,0,0-.08-.15c-1-2-.5-5.19-.5-5.19s1.28-9.38,1.74-11.86c.32-1.74.19-7.47.08-10.68-.05-1.33-.08-2.23-.08-2.23l-8.2-2.18v2.43c0,2-.08,4.83-.29,6.66-.36,3.11.9,13.42.9,13.42l.43,9.39a8.61,8.61,0,0,1-1,4.56c-1,1.88-2.37,4.51-2.47,5.68C161,194.24,161,194.3,161,194.36Z"/><path class="cls-8" d="M161,194.35c.09,1.67,5,.71,5,.71l3.32-6.42s2.79-2.13,1.39-4c-.07-.1-.13-.21-.2-.32a16.15,16.15,0,0,1-1.11,3.41s-2.75,5.47-3.62,6.72-4.66-.24-4.8-.29Z"/><path class="cls-7" d="M170.43,184.16s1.62-.38,1.14,3.83a2.71,2.71,0,0,1-1.29,2.41,9.14,9.14,0,0,0-3.85,5.33,2.88,2.88,0,0,1-.63,1.8,2.94,2.94,0,0,1-1.62,1,10.52,10.52,0,0,1-4.35.34c-2-.54-1.1-1.89-1.1-1.89l2.26-2.66s3.94,1.54,4.81.28,3.61-6.71,3.61-6.71S170.91,184.51,170.43,184.16Z"/><path class="cls-8" d="M183.63,150.39l-.17,6.32c2.19-.21,3.76-.51,4-.92.58-.9,2.69-1.28,4.49-1.43-.06-1.19-.11-2-.11-2Z"/><path class="cls-8" d="M163.47,155.24a2.86,2.86,0,0,1,.9-1.08c.87-.48.77,3.08.77,3.08s2.9,0,6.61,0c-.05-1.33-.08-2.23-.08-2.23l-8.2-2.18S163.48,153.82,163.47,155.24Z"/><path class="cls-6" d="M162.53,156.08s1-2.63,1.86-3.09.77,3.08.77,3.08,21.28.19,22.34-1.45,7.26-1.54,7.26-1.54-.19-20.43-.67-28.13-1.26-14.74-3.21-16.86c-1.24-1.38-3-5.81-4.12-8.77-.6-1.62-1-2.8-1-2.8l-20.31,1.16-.16,1.64-2.16,21.48s-.29,23.71-1.16,29.1S162.53,156.08,162.53,156.08Z"/><g class="cls-16"><path class="cls-8" d="M185.86,154.62c1-1.64,7.24-1.54,7.24-1.54s-.19-20.43-.67-28.13-1.26-14.74-3.19-16.86c-1.26-1.38-3-5.81-4.13-8.77-.51-1.36-.87-2.41-1-2.71l1.58-.09s.4,1.18,1,2.8c1.09,3,2.88,7.39,4.12,8.77,1.93,2.12,2.7,9.15,3.19,16.86s.69,28.13.69,28.13-6.2-.1-7.26,1.54c-.91,1.4-16.58,1.47-21.12,1.45C172.18,156.06,185,155.89,185.86,154.62Z"/><path class="cls-8" d="M162.74,153c.39-.21.58.39.68,1.12a16.74,16.74,0,0,0-.92,2s-.56-.3-.79-1.83A3.51,3.51,0,0,1,162.74,153Z"/></g><path class="cls-11" d="M168.82,47.1c-1.41,1.91,0,4.63-1.5,6.48-.5.62-1.26,1.05-1.79,1.66a3.93,3.93,0,0,0-.45,3.94c.48,1.32,1.32,2.51,1.92,3.79a2,2,0,0,1,.19,1.73,5,5,0,0,1-.86,1,3.66,3.66,0,0,0-.48,3.85A12.6,12.6,0,0,0,168.36,73a2.14,2.14,0,0,0,1.52.88,2.27,2.27,0,0,0,1-.31,9.7,9.7,0,0,0,4.44-12.67c-.82-2-2.19-3.82-2.19-5.88,0-1.63.84-3.19,1-4.82.19-2-1-5.11-3.39-6C170.84,45.47,169.52,46.12,168.82,47.1Z"/><path class="cls-8" d="M168.82,47.1c-1.41,1.91,0,4.63-1.5,6.48-.5.62-1.26,1.05-1.79,1.66a3.93,3.93,0,0,0-.45,3.94c.48,1.32,1.32,2.51,1.92,3.79a2,2,0,0,1,.19,1.73,5,5,0,0,1-.86,1,3.66,3.66,0,0,0-.48,3.85A12.6,12.6,0,0,0,168.36,73a2.14,2.14,0,0,0,1.52.88,2.27,2.27,0,0,0,1-.31,9.7,9.7,0,0,0,4.44-12.67c-.82-2-2.19-3.82-2.19-5.88,0-1.63.84-3.19,1-4.82.19-2-1-5.11-3.39-6C170.84,45.47,169.52,46.12,168.82,47.1Z"/><path class="cls-8" d="M184.41,116.56a18.85,18.85,0,0,0-7.94,2.72,56,56,0,0,1-7.49,3.88"/><path class="cls-8" d="M182.67,123.16a11.69,11.69,0,0,0-7.32,3.54c-.67.72-1.27,1.53-2,2.23a8.89,8.89,0,0,1-3.93,2.21"/><path class="cls-8" d="M183.23,128.2a12.86,12.86,0,0,0-5.88,3.53c-.42.47-.82,1-1.26,1.43-2.31,2.49-5.62,3.81-8.79,5.06"/><path class="cls-15" d="M183,58.47a57.5,57.5,0,0,0,.58,6.69,8.83,8.83,0,0,0,1.16,3.62c1.54,1.84-7.54,4.29-7.54,4.29l-5.36-4.14s4.25-3.91,2.27-7.71S183,58.47,183,58.47Z"/><path class="cls-8" d="M165.27,99.32h21.49c-.61-1.62-1-2.8-1-2.8l-20.31,1.16Z"/><path class="cls-9" d="M163.89,98.93h23a7.91,7.91,0,0,1,.92-6.06,13.46,13.46,0,0,1,2.4-3.11l.16-.14,8-1.77.43-.09s.07-14.52-5.09-16.52a30.1,30.1,0,0,1-8.26-4.68l-7.09,2.18-5.21-2.62c-1.68,1.79-6.14,1.09-6.14,1.09-7.28.83-7.28,6.29-7.28,6.29s4.25,9.89,4.57,9.89S163.89,98.93,163.89,98.93Z"/><path class="cls-8" d="M171.83,89.7s-4.69-1-6.28-2.84Z"/><path class="cls-8" d="M195.42,84.29,190,88.72a9.6,9.6,0,0,0,.18,1l.16-.15,8-1.76Z"/><path class="cls-8" d="M180.72,97.4s1.19.67,3,1.54h3.11a7.88,7.88,0,0,1,.92-6.06l-5.5-1.77C184.13,92.84,180.72,97.4,180.72,97.4Z"/><path class="cls-9" d="M162.92,71.76l-3.22,1.73-3.16,8s-3.28,8.73-3,11.05c0,0-1.16,5.46.9,6.42l5.36,2.42a.48.48,0,0,0,.31,0,.53.53,0,0,0,.26-.15.45.45,0,0,0,.14-.27.6.6,0,0,0-.06-.3c-.76-1.45-1.61-3.71-.26-5l-1.55-3.21,5.59-9.12,1.87-3.15Z"/><path class="cls-8" d="M170.09,87.88c.29,1.14,1.22,2.89,4.35,3.54l3.43,2.8,3.64,1.64,1.48.67.63-4.53-1.44-.79-1.66-.91s-3.76-6.78-9.71-3.93a1.25,1.25,0,0,0-.63.63A1.28,1.28,0,0,0,170.09,87.88Z"/><path class="cls-15" d="M170.3,87.49c.27,1.14,1.2,2.89,4.33,3.54l3.43,2.79,3.64,1.65,1.48.67.63-4.53-1.43-.79-1.66-.9S177,83.14,171,86a1.31,1.31,0,0,0-.63.62A1.25,1.25,0,0,0,170.3,87.49Z"/><path class="cls-8" d="M177,64.34a8.29,8.29,0,1,0-8.31-8.28A8.31,8.31,0,0,0,177,64.34Z"/><path class="cls-15" d="M177,64.15a8.29,8.29,0,1,0-8.31-8.28A8.31,8.31,0,0,0,177,64.15Z"/><path class="cls-8" d="M182.15,73.57l-2.5-4.84s3.66-1.48,3.93-3.18,3.5,2,2.81,3.23A46.87,46.87,0,0,1,182.15,73.57Z"/><path class="cls-9" d="M182.15,73.19l-2.5-4.85s3.66-1.47,3.93-3.18,3.5,2,2.81,3.23A47.22,47.22,0,0,1,182.15,73.19Z"/><path class="cls-17" d="M161.68,85.7l13.82,18.51S170.41,107,163.39,102l-3-3.59L151.71,83.9Z"/><path class="cls-15" d="M159,95.76l1.25,0s7.69-7.43,9.59-3.67-4.8,7.28-4.8,7.28l-2,1.09-2.64.78-1.69-2.26Z"/><path class="cls-8" d="M160.81,99.77a1.7,1.7,0,0,1,0,1.29.39.39,0,0,1-.22.25.48.48,0,0,1-.26,0,2.67,2.67,0,0,1-1.74-.86,8,8,0,0,1-1.13-1.62,2.91,2.91,0,0,1-.56-1.93,2.84,2.84,0,0,1,1.42-1.66c1.27-.84,1.32.14,1.59,1.22Z"/><path class="cls-9" d="M160.62,99.77a1.91,1.91,0,0,1,0,1.29.51.51,0,0,1-.23.25.48.48,0,0,1-.27,0,2.62,2.62,0,0,1-1.72-.86,7.59,7.59,0,0,1-1.13-1.62,2.19,2.19,0,0,1,.85-3.59c1.28-.84,1.31.14,1.6,1.22S160.33,98.68,160.62,99.77Z"/><path class="cls-8" d="M164.27,83.39l.65-1.08-.57,2Z"/><path class="cls-8" d="M181.7,95.48l1.48.67.63-4.53-1.43-.79C183.37,92,182.51,94,181.7,95.48Z"/><path class="cls-8" d="M187.66,90.22s-4.78.29-6.83-1Z"/><g class="cls-16"><path class="cls-8" d="M187.06,93.26a13.46,13.46,0,0,1,2.4-3.11,6.94,6.94,0,0,1,.71-.38l7.47-1.53.42-.09s.08-14.52-5.09-16.52a30.69,30.69,0,0,1-8-4.51l.56-.17a30.13,30.13,0,0,0,8.25,4.68c5.17,2,5.1,16.52,5.1,16.52h-.79l-7.63,1.45L190,90a14.43,14.43,0,0,0-2.45,3.22,8,8,0,0,0-.64,6.09h-.79A8,8,0,0,1,187.06,93.26Z"/><path class="cls-8" d="M166.69,67.64l.37,0a13.65,13.65,0,0,0,1.58.13A14.07,14.07,0,0,1,166.69,67.64Z"/><path class="cls-8" d="M177.64,69.13l-4.72-2.38c.08-.08.18-.16.26-.25L178.11,69Z"/></g><path class="cls-9" d="M195.6,83.9l3.17,3.85.65,10.47s.83,5.33-5.3,4S180.91,97,180.91,97s3.43-4.56,1.55-6.29l8.77,2.82s1.49-.32.33-1.6a7.24,7.24,0,0,1-1.37-3.6Z"/><path class="cls-8" d="M197,95l1.74,2a2.38,2.38,0,0,1-1.14-.75A2.45,2.45,0,0,1,197,95Z"/><path class="cls-8" d="M194.07,94.63l2.71,3.47-1.36.32Z"/><path class="cls-8" d="M167.08,52.06a2.68,2.68,0,0,1,.29-2.26,20.44,20.44,0,0,0,1.11-2.07c.4-1.09.27-2.33.71-3.41.77-1.9,2.94-2.75,4.89-3.41a3.36,3.36,0,0,1,1.79-.24c.79.19,1.3.9,1.95,1.38,2.64,2,7-.2,9.52,1.89a5,5,0,0,1,1.59,3.32,29.8,29.8,0,0,1,0,3.78c0,2.21.37,4.63,2,6.09.5.44,1.1.77,1.6,1.23a2.18,2.18,0,0,1,.79,1.75,5.53,5.53,0,0,1-.28.9,4.56,4.56,0,0,0,.78,3.41c1.79,3.08,4.94,5.63,8.52,5.7-.24,1.8-2.11,2.84-3.79,3.58a14.81,14.81,0,0,1-6.66,1.74c-2.32-.11-4.74-1.59-5.14-3.87-.15-.79-.13-1.73-.79-2.14-.42-.25-.95-.19-1.39-.37a2.45,2.45,0,0,1-1.17-1.64,14.94,14.94,0,0,1-.68-4.2c0-1.69.19-3.53-.77-4.92s-2.47-1.94-3.5-3.12-2-2.42-3.52-2.63C172.78,52.25,168.33,55.16,167.08,52.06Z"/><path class="cls-11" d="M167.08,51.68a2.67,2.67,0,0,1,.29-2.26,21.57,21.57,0,0,0,1.11-2.07c.4-1.1.27-2.34.71-3.41.77-1.9,2.94-2.75,4.89-3.41a3.36,3.36,0,0,1,1.79-.24c.79.19,1.3.9,1.95,1.38,2.64,2,7-.2,9.52,1.88a5,5,0,0,1,1.59,3.33,29.8,29.8,0,0,1,0,3.78c0,2.21.37,4.62,2,6.09.5.44,1.1.77,1.6,1.22a2.2,2.2,0,0,1,.79,1.76,5.73,5.73,0,0,1-.28.89,4.56,4.56,0,0,0,.78,3.41c1.79,3.08,4.93,5.63,8.52,5.7-.24,1.8-2.11,2.84-3.79,3.58-2.11.94-4.35,1.87-6.66,1.75s-4.76-1.6-5.16-3.88c-.13-.78-.11-1.73-.79-2.14-.4-.25-.93-.19-1.38-.37A2.45,2.45,0,0,1,183.41,67a15,15,0,0,1-.7-4.19c0-1.69.2-3.54-.75-4.93s-2.48-1.94-3.51-3.12-2-2.42-3.53-2.62C172.78,51.87,168.33,54.78,167.08,51.68Z"/><path class="cls-8" d="M173,73l4.77-3.86s-3.27-1.76-3.66-3.26-3,.71-2.74,2.06S173,73,173,73Z"/><path class="cls-9" d="M173.16,72.39l4.77-3.85s-3.27-1.76-3.64-3.27-3,.72-2.74,2.07S173.16,72.39,173.16,72.39Z"/><path class="cls-8" d="M178.11,72.13a.38.38,0,1,0,0-.75.38.38,0,0,0,0,.75Z"/><path class="cls-8" d="M178.11,74.23a.38.38,0,1,0,0-.75.38.38,0,0,0,0,.75Z"/><path class="cls-8" d="M178.11,76.34a.38.38,0,1,0,0-.76.38.38,0,0,0,0,.76Z"/><g class="cls-16"><path class="cls-8" d="M169,46.33c.38-1,.3-2.19.64-3.23a4.06,4.06,0,0,0-.4.74c-.44,1.09-.31,2.33-.71,3.41l0,.07A5.69,5.69,0,0,0,169,46.33Z"/><path class="cls-8" d="M199.06,72.29A14.82,14.82,0,0,1,192.39,74c-2.31-.12-4.73-1.59-5.13-3.87-.15-.79-.13-1.73-.79-2.14-.42-.25-.95-.19-1.39-.38A2.41,2.41,0,0,1,183.91,66a14.3,14.3,0,0,1-.68-4.2c0-1.69.19-3.53-.77-4.92S180,55,179,53.76s-2-2.41-3.53-2.62c-2.14-.29-6.58,2.62-7.84-.48a2.37,2.37,0,0,1,.08-1.79c-.1.16-.18.31-.26.47a2.71,2.71,0,0,0-.29,2.26c1.26,3.1,5.71.19,7.85.48,1.54.21,2.57,1.53,3.52,2.62s2.61,1.84,3.5,3.13.74,3.23.77,4.92a14.24,14.24,0,0,0,.68,4.19,2.43,2.43,0,0,0,1.18,1.64c.43.19,1,.13,1.38.37.68.41.66,1.37.79,2.15.4,2.27,2.82,3.75,5.14,3.87a14.89,14.89,0,0,0,6.67-1.74c1.53-.68,3.23-1.62,3.68-3.15A7.9,7.9,0,0,1,199.06,72.29Z"/></g><path class="cls-18" d="M245.61,87.08a61,61,0,0,0-7.7-4L237.8,83a4.4,4.4,0,0,1-1.4-1.77,1.21,1.21,0,0,1,0-.38v0c.08-1.69,1.28-3.23,2.43-4.58l2.93-3.43a3.19,3.19,0,0,0,.76-1.19,2.56,2.56,0,0,0,.08-.73v-.3c0-.85,0-1.71-.07-2.56s-.22-1.68-1-1.84c-.41-.08-.92.06-1.11-.26a.49.49,0,0,1-.05-.44v0a11.38,11.38,0,0,0,.27-1.75,2.27,2.27,0,0,0-.13-.89c-.43-1.24-1.91-1.75-3.24-2s-2.8-.43-3.62-1.46c-.22-.34-.47-.67-.72-1a2.94,2.94,0,0,0-1.36-.66,7.68,7.68,0,0,0-4.89.42,4.47,4.47,0,0,1-2,.63c-.71,0-1.36-.55-2.07-.67a3,3,0,0,0-2.85,1.66,4,4,0,0,0-.51,1.95v.11a2.84,2.84,0,0,0,.74,2c.51.52,1.26.87,1.46,1.55.08.27.05.57.13.85a1,1,0,0,0,0,.1l0,0a8.69,8.69,0,0,0-1.85,5.34A8.89,8.89,0,0,0,226,80.22v.26a3.79,3.79,0,0,1-1.21,2.94l-7.89,3.14s-4.77-.56-6.47,6.37a11.52,11.52,0,0,0-.31,3.51,10.17,10.17,0,0,1-1.32,5.27c-2,3.81-1.5,12.55,2.5,13.41,3.76.82,5.23.48,5.39.44v.15c-.06,1.64-.66,15.79-2.83,17.5-.6.48-.49.79,0,1,0,0,0,.09,0,.27-.06,1-.4,5-1.84,7.21-1.69,2.6-1.51,17.58-1.51,17.58l-1.14,8.82s.69,5.46,0,6.41-1.49,21-1.66,25.39h-.08a2.26,2.26,0,0,0-1,.32,2.19,2.19,0,0,0-.72.73,29.62,29.62,0,0,1-4.19,4.3c-.71,1-3.33,2-4.72,2.41a4.73,4.73,0,0,0-.53.23,2.88,2.88,0,0,0-1.19,1.25,1.32,1.32,0,0,0-.16.51,1,1,0,0,0,0,.54c.35.86,7.71,1.47,9.58.6,1.45-.68,7.26-1.57,9.66-1.92a1.92,1.92,0,0,0,1.16-.57,1.84,1.84,0,0,0,.57-1.15,1.14,1.14,0,0,0,0-.45,1.28,1.28,0,0,0-.19-.41,7.17,7.17,0,0,1-.79-3.14,2.2,2.2,0,0,0,.53-.32,23.3,23.3,0,0,1,1.32-9.26c1.77-4.68,2.3-13.33,1.87-19,0,0,5.41-23.19,9.66-25.36.07.09,2.14,2.73,2.4,10.91a32.78,32.78,0,0,0,3.29,13.76s-1.34,14.11,0,19.39l-1.74,8.33a2.26,2.26,0,0,1-.21-.2s.05.23.11.6l0,.18.08,0a17.28,17.28,0,0,1,.37,3.93c-.08.61-.24,1.44-.35,2.26-.2,1.28-.24,2.52.43,2.79,1.11.45,7.64,1.05,8.75-.37a2.09,2.09,0,0,0,.32-2.14,2.33,2.33,0,0,0-.32-.55s-1.74-2.82-1.24-4.8a1.51,1.51,0,0,0,0-.6,1.61,1.61,0,0,0-.21-.55,56.2,56.2,0,0,1,1.48-9.32c1.11-4.17,3.46-13.3,1.74-19.3-.07-.24-.15-.47-.23-.7a25.85,25.85,0,0,1-1-10.12,20.86,20.86,0,0,1,0-8.83c1.08-4.85,1.82-9.61,1.82-9.61A61,61,0,0,0,244.1,134a1.27,1.27,0,0,0,0-.26l.29-.06s-1.51-6.67-2-10.91c-.13-1-.29-2.27-.47-3.62a9.6,9.6,0,0,0,1.45-.36c4.78-1.65,6.3-16.53,6.3-16.53V97.54S251.2,90.29,245.61,87.08ZM209.9,202l-.22-.12Z"/><path class="cls-19" d="M242.71,173c2.08,5.95-.34,15.61-1.47,19.93a61.63,61.63,0,0,0-1.48,9.49,20.19,20.19,0,0,1-7.62-.17l1.82-8.88c-1.3-5.26,0-19.32,0-19.32a33.49,33.49,0,0,1-3.2-13.72c-.26-8.15-2.27-10.78-2.34-10.87-4.15,2.16-9.43,25.28-9.43,25.28.43,5.6-.08,14.23-1.82,18.88a23.19,23.19,0,0,0-1.29,9.23,2.84,2.84,0,0,1-2.37.45,16.17,16.17,0,0,1-5.44-2.52s1-25.18,1.64-26.13,0-6.39,0-6.39l1.13-8.8s-.18-14.92,1.46-17.5c1.44-2.24,1.76-6.17,1.82-7.2v-.26l2.5-3s24.25-1.81,26.07,0a5.06,5.06,0,0,1,.89,2.73,61.27,61.27,0,0,1-.08,10.29s-.73,4.75-1.76,9.57a21,21,0,0,0,0,8.8A26.51,26.51,0,0,0,242.71,173Z"/><path class="cls-14" d="M241.2,210.82c-1.08,1.42-7.44.82-8.52.37-.66-.26-.62-1.51-.44-2.79.11-.81.27-1.64.36-2.24a21,21,0,0,0-.54-4.7s1.42,1.51,1.78,0a1.61,1.61,0,0,1,1.24-1.17,3.12,3.12,0,0,1,2.23.14c1.13.49,3,1.52,2.68,2.92-.49,2,1.21,4.79,1.21,4.79a3,3,0,0,1,.32.54,2.22,2.22,0,0,1,.14,1.11A2.1,2.1,0,0,1,241.2,210.82Z"/><path class="cls-8" d="M241.2,210.81c-1.08,1.43-7.44.82-8.54.38-.66-.26-.61-1.51-.42-2.79a7.41,7.41,0,0,0,3.77.41,10.59,10.59,0,0,1,1.37-.05,31.83,31.83,0,0,0,4.14-.08,2.21,2.21,0,0,1,.14,1.11A2.11,2.11,0,0,1,241.2,210.81Z"/><path class="cls-8" d="M219,174.71c.43,5.61-.1,14.24-1.82,18.89a23.36,23.36,0,0,0-1.31,9.23,2.86,2.86,0,0,1-2.37.45c.54-3.64,2.76-19.32,4.18-31.7a51.79,51.79,0,0,1,9.21-23.81l1.51,1.66C224.27,151.6,219,174.71,219,174.71Z"/><path class="cls-20" d="M238.6,84.06l-1,5.17-5.19,8.67L226,95.19s-8.7-9.06-3.24-10.35a4.82,4.82,0,0,0,1.82-.81A3.74,3.74,0,0,0,226,80.91a9.65,9.65,0,0,0-.88-3.7l11.17-3.5a17.71,17.71,0,0,0-.79,4.51c-.09,3,1,4.52,2,5.24A3.29,3.29,0,0,0,238.6,84.06Z"/><path class="cls-8" d="M236.27,73.71a16.88,16.88,0,0,0-.79,4.51c-.21.24-.44.47-.66.69a8.88,8.88,0,0,1-8.83,2,9.84,9.84,0,0,0-.88-3.7Z"/><path class="cls-20" d="M237.56,72.29a8.88,8.88,0,0,1-1.5,4.89A8.84,8.84,0,0,1,227,80.92a8.79,8.79,0,0,1-6.44-12,8.78,8.78,0,0,1,3.25-4,8.91,8.91,0,0,1,8.3-.83,8.84,8.84,0,0,1,5.46,8.14Z"/><path class="cls-8" d="M238.6,84.06l-1,5.18-5.19,8.67L226,95.19s-8.7-9.06-3.24-10.35a4.81,4.81,0,0,0,1.82-.8c-1,2.69,3.08,8.3,3.08,8.3.48.7,1.56.26,1.56.26,2.63-.39,7.44-7.89,8.23-9.14A3.38,3.38,0,0,0,238.6,84.06Z"/><path class="cls-8" d="M243.6,134.24c-1.55.35-10,2.22-13.28,1.75-3.54-.52-10.45-.86-10.45-.86s-4.4.24-5.75-.38v-.26l2.51-3s24.24-1.81,26.06,0A5,5,0,0,1,243.6,134.24Z"/><path class="cls-9" d="M227.65,92.6s-4.57-6.3-2.85-8.76L217.09,87s-4.64-.56-6.32,6.35a11.8,11.8,0,0,0-.29,3.5,10.29,10.29,0,0,1-1.27,5.25c-1.9,3.79-1.48,12.51,2.42,13.37s5.28.43,5.28.43-.53,15.79-2.77,17.6,5.75,1.38,5.75,1.38,6.89.35,10.45.86,13.5-1.81,13.5-1.81-1.47-6.64-2-10.86-1.74-13.23-1.74-13.23l8.82-11.92s1.57-7.2-3.89-10.39a61.35,61.35,0,0,0-7.51-4s-5.48,8.89-8.34,9.32C229.21,92.85,228.12,93.29,227.65,92.6Z"/><path class="cls-8" d="M217.52,95.1a12.48,12.48,0,0,0,.43,4c.52,1.12,2.42,7.35,2.42,7.35H216s2.33-2.5,2.17-3.71S217.52,95.1,217.52,95.1Z"/><path class="cls-20" d="M230.34,116.58s-9.57-2.33-10.45-4.31-3.35-6.42-3.35-6.42l1-1.35,4.64,3.63s5.54,4.4,8.15,4.83S230.34,116.58,230.34,116.58Z"/><path class="cls-21" d="M230.34,116.58s-9.57-2.33-10.45-4.31-3.35-6.42-3.35-6.42l1-1.35,4.64,3.63s5.54,4.4,8.15,4.83S230.34,116.58,230.34,116.58Z"/><path class="cls-20" d="M238.6,105.37v5.17h-.83a24.42,24.42,0,0,0-11.78,3l-1.56.87-.42.23-2.69-6,2.51-2.24H224a15,15,0,0,0,4.4-.1c1.08-.36,2.4-1.51,5.56-.71,1.54.4,2.86,2.13,4.38,1.59Z"/><path class="cls-8" d="M247,96l1.74,1.94v4.7s-1.49,14.84-6.16,16.47-13-.95-13-.95-2.16-5.69-1.16-6,8.92-2.42,8.92-2.42-.11-8.7,1.61-11.29c0,0-1.11-8.11,2.79-8.28S247,96,247,96Z"/><path class="cls-9" d="M247.24,96,249,97.9v4.7s-1.47,14.84-6.15,16.47-13-.95-13-.95-2.16-5.69-1.14-6,8.91-2.42,8.91-2.42-.12-8.7,1.62-11.29c0,0-1.12-8.11,2.77-8.28S247.24,96,247.24,96Z"/><path class="cls-8" d="M235.11,76a3.34,3.34,0,0,0-.2-1.68,1.27,1.27,0,0,0-1.36-.78c-.75.17-1.07,1.13-1.79,1.36a1.43,1.43,0,0,1-1.58-.81,3.85,3.85,0,0,1-.31-1.88V70.08a3.46,3.46,0,0,0-.51-2.25,4,4,0,0,0-3-1.07,2.48,2.48,0,0,0-1.69.68,2.19,2.19,0,0,1-1.78.63,1.56,1.56,0,0,1-.78-.36,1.46,1.46,0,0,1-.46-.71v0a8.76,8.76,0,0,1,6.18-3.46,8.84,8.84,0,0,1,6.75,2.19,8.72,8.72,0,0,1,2.95,6.43,8.34,8.34,0,0,1-.7,3.55,8.59,8.59,0,0,1-2.06,3A21.19,21.19,0,0,0,235.11,76Z"/><path class="cls-22" d="M222.92,67.81a1.59,1.59,0,0,1-.78-.36,1.51,1.51,0,0,1-.46-.71c-.07-.28-.05-.58-.13-.85-.21-.68-.94-1-1.42-1.55a3.45,3.45,0,0,1-.23-4,2.89,2.89,0,0,1,2.77-1.64c.71.12,1.32.61,2,.66a4,4,0,0,0,1.93-.62,7.35,7.35,0,0,1,4.8-.43,2.82,2.82,0,0,1,1.32.67,11.46,11.46,0,0,1,.69,1c.81,1,2.26,1.23,3.55,1.46s2.73.74,3.15,2A5.16,5.16,0,0,1,240,66a.75.75,0,0,0,0,.53c.21.33.71.19,1.08.26.74.16.92,1.09,1,1.84s0,1.7.06,2.55a3,3,0,0,1-.06.94,3.41,3.41,0,0,1-.74,1.19l-2.87,3.42c-1.25,1.52-2.61,3.29-2.37,5.25a1.23,1.23,0,0,1-1.51-.88,4,4,0,0,1,.1-1.94,24,24,0,0,0,.46-3.37,3.45,3.45,0,0,0-.21-1.68,1.28,1.28,0,0,0-1.36-.79c-.75.18-1.05,1.14-1.79,1.37a1.44,1.44,0,0,1-1.58-.81,4.07,4.07,0,0,1-.29-1.87V69.81a3.54,3.54,0,0,0-.52-2.25,4.05,4.05,0,0,0-3-1.07,2.57,2.57,0,0,0-1.69.68A2.16,2.16,0,0,1,222.92,67.81Z"/><path class="cls-8" d="M224.91,94.89l2.72,11.1S229.78,106,224.91,94.89Z"/><path class="cls-8" d="M234.19,93s-3.54,5.79-2.16,11.78l.66,0S231.52,102.09,234.19,93Z"/><path class="cls-8" d="M236.43,125.81s4.36-1.44,4.67,1.9C241.12,127.71,240.29,125.42,236.43,125.81Z"/><path class="cls-8" d="M223.83,106.65s-.87,6,.7,8.46a19.06,19.06,0,0,1-7.62,1l-.53-9.49Z"/><path class="cls-8" d="M224.43,114.44l-.42.24-2.69-6,2.51-2.24H224C223.93,106.7,223.22,111.89,224.43,114.44Z"/><path class="cls-9" d="M223.83,106.4s-.87,6,.7,8.45a19,19,0,0,1-7.62,1l-3-9.49Z"/><path class="cls-14" d="M216.34,207.14a1.91,1.91,0,0,1-.54,1.15,2,2,0,0,1-1.15.57c-2.35.34-8,1.24-9.44,1.92-1.82.86-9,.26-9.35-.61a1.22,1.22,0,0,1,0-.54,1.19,1.19,0,0,1,.17-.51,2.78,2.78,0,0,1,1.16-1.24,2.83,2.83,0,0,1,.53-.23c1.35-.45,3.91-1.4,4.59-2.41a29.18,29.18,0,0,0,4.1-4.27,2,2,0,0,1,.7-.73,2.22,2.22,0,0,1,1-.31c.76,0,1.61.35,1.95,2,0,0,4.16,2.36,5.27.29,0,0,.18,3.18.87,4.06a.91.91,0,0,1,.19.41A1,1,0,0,1,216.34,207.14Z"/><path class="cls-8" d="M216.34,207.14a1.93,1.93,0,0,1-.54,1.15,2.05,2.05,0,0,1-1.15.56c-2.35.35-8,1.24-9.44,1.92-1.82.87-9,.27-9.35-.6a1.23,1.23,0,0,1,0-.54,1.19,1.19,0,0,1,.17-.51,2.78,2.78,0,0,1,1.16-1.24c1.17.78,3.76,1.53,9.5.64,5.46-.85,8.15-1.68,9.47-2.25a1.38,1.38,0,0,1,.21.42A1.36,1.36,0,0,1,216.34,207.14Z"/><g class="cls-16"><path class="cls-8" d="M240,66.1v0a8.79,8.79,0,0,0,.26-2c-.07.53-.15,1.05-.26,1.57A1,1,0,0,0,240,66.1Z"/><path class="cls-8" d="M234.93,74.17a2.58,2.58,0,0,1,.21,1,3.1,3.1,0,0,0-.21-1.38,1.28,1.28,0,0,0-1.37-.78c-.76.17-1.06,1.13-1.79,1.36a1.46,1.46,0,0,1-1.59-.81,4.09,4.09,0,0,1-.29-1.88V69.51a3.51,3.51,0,0,0-.52-2.24,4,4,0,0,0-3-1.08,2.6,2.6,0,0,0-1.71.68,2.17,2.17,0,0,1-1.77.64,1.53,1.53,0,0,1-1.25-1.07c-.07-.28-.05-.58-.13-.86-.21-.67-.94-1-1.42-1.54a2.89,2.89,0,0,1-.73-1.84,2.94,2.94,0,0,0,.13,1.18,3.18,3.18,0,0,0,.6,1c.48.52,1.21.86,1.42,1.54.08.26.06.57.13.85a1.65,1.65,0,0,0,.46.72,1.57,1.57,0,0,0,.79.35,2.13,2.13,0,0,0,1.77-.63,2.6,2.6,0,0,1,1.71-.68,3.94,3.94,0,0,1,3,1.07,3.56,3.56,0,0,1,.52,2.25v2.16a4.11,4.11,0,0,0,.29,1.88,1.46,1.46,0,0,0,1.59.81c.73-.23,1-1.19,1.79-1.37A1.34,1.34,0,0,1,234.93,74.17Z"/><path class="cls-8" d="M242,71.8a3.1,3.1,0,0,1-.72,1.19l-2.87,3.42c-1.21,1.44-2.48,3.11-2.37,5,.08-1.69,1.28-3.22,2.37-4.56l2.87-3.42a3.17,3.17,0,0,0,.72-1.19,2.54,2.54,0,0,0,.08-1A2.1,2.1,0,0,1,242,71.8Z"/><path class="cls-8" d="M234.58,80.77a2.33,2.33,0,0,1-.08-.46,2.41,2.41,0,0,0,.08.85,1.23,1.23,0,0,0,1.51.87c0-.12,0-.25,0-.37A1.22,1.22,0,0,1,234.58,80.77Z"/></g><path class="cls-8" d="M205.79,201.76s.91,1.57,4.19.18Z"/><path class="cls-8" d="M233.53,202.13s2.83,3.32,6.39,1.09Z"/><path class="cls-8" d="M241.76,162.91s-2,1.24-2.06,2,1-.53,1-.53Z"/><path class="cls-8" d="M242.55,172.44a4.18,4.18,0,0,1-2.47.95c-1.49.07-1.36,2-.38,1.43A23.86,23.86,0,0,0,242.55,172.44Z"/><path class="cls-8" d="M242.94,173.68s-1,4.69-1.74,3.79Z"/><path class="cls-23" d="M57.76,208.85s6,1.65,8.91-.54,4.16-1.48,4.16-1.48,6.9-.38,7.47-2-2.64-7.53-2.64-7.53c-.24-.53-.57-1.19-.73-1.19l0-2.5,1-10.42c2.32-5.9.05-13.52.05-13.52l-.42-1.89a4.83,4.83,0,0,1,.41-3.15l4.18-8.39a14.14,14.14,0,0,1,.79-1.61c.28-.48.61-1.08,1.07-1.79.12-.2.25-.41.4-.64.51-.78,1.13-1.68,1.87-2.7a22.55,22.55,0,0,0,3.35-8.13l.21.74h.22l.1,0h0l1.28,16.35c.08,6.38,2.44,9.91,2.44,9.91l-.33,14.08c.44,3.4-.53,7.92-1,9.72l-1,2.29a2.66,2.66,0,0,0-1,.85,2.52,2.52,0,0,0-.5,1.22,25.1,25.1,0,0,1-2,5.33c-.69.86-2.19,3.22-2.19,3.22s-.71,2.27-.28,3.12,4.11.76,4.11.76c4.17.92,7.36-1.31,7.17-2.85s.64-1.92.64-1.92c1.66-.53,1.5-1.65,1.5-1.65a10.25,10.25,0,0,0-1.26-6.7l-.25.61a8.92,8.92,0,0,1,.5-3.58l-.17.11,0,0h0c.27-2.3,2.69-6.56,2.69-6.56,4.46-7.78,2.83-18.33,2.83-18.33l-.67-3.29,0-1.24a40.32,40.32,0,0,1,.68-8.84c.24-1.29.48-2.85.67-4.57a40.49,40.49,0,0,1,2.29-9l.18,0h0l.74-.13h.05s.13-.77.26-2.07c.06-.83.13-1.89.13-3.1A35.17,35.17,0,0,0,104,125.13l.13-.19s.32-.43.9-1.18c1.06-1.35,2.74-3.41,4.78-5.73a9.78,9.78,0,0,0,2.6-8.39s-2.66-9.71-3.85-15.53a17.51,17.51,0,0,0-2.92-6.92,12,12,0,0,0,.37-2.8,10.28,10.28,0,0,0-.75-5.07,4.38,4.38,0,0,0-4.18-2.57,1.54,1.54,0,0,1-.74,0,1.1,1.1,0,0,1-.5-.43,6.4,6.4,0,0,1-.75-4.95c.3-1.69,1-3.31,1.24-5a6.18,6.18,0,0,0-.92-4.92c-1.27-1.57-3.5-2-5.14-3.2-1.16-.83-2-2-3.27-2.76s-2.37-.46-3.69-.18A30.11,30.11,0,0,0,80.86,57,17.46,17.46,0,0,0,75.21,61,5.58,5.58,0,0,0,74,63c-.52,1.73.5,3.58.29,5.37a10.5,10.5,0,0,1-1.5,3.52,4.56,4.56,0,0,0-.59,3.67c.74,1.86,3.14,2.25,4.89,3.24a1.48,1.48,0,0,1,.58.5c.44.75-.45,1.53-1,2.2A3.33,3.33,0,0,0,76,82.85a4.68,4.68,0,0,0-2.86,3.44c-.6,2.64.32,6,1.12,8.18-.88,4.91.26,6.84,1.1,7.58a4.19,4.19,0,0,1,1.46,2.87V105c0,.9.15,1.79.28,2.67,0-.21,0-.43-.07-.52a30.79,30.79,0,0,0-2.73,10,29.37,29.37,0,0,1-.68,3.46,19,19,0,0,0-.55,6.2l.13,1.76a.53.53,0,0,1-.35-.12l.91,1.69v2.84A10.7,10.7,0,0,1,73,136.7c-.06.17-.14.34-.22.52a3.17,3.17,0,0,0-.31,1.55c-2,3-6.54,20-6.54,20-2.48,5.57.19,9.18.19,9.18s1.31,15.52,1.55,16.32.77,10.27.77,10.27v.75a1.66,1.66,0,0,0-.45-.12c-2.16-.13-2.75,3.28-2.75,3.28l-4.43,4.22s-2-.34-5,1.89S57.76,208.85,57.76,208.85ZM102,119.13l0,0-.11.07-.06,0,0,0-2-7.19a11.94,11.94,0,0,1-.14-5.91l1.58-6.89V97.56l5,13.32C106.56,112.68,103.57,117,102,119.13Z"/><path class="cls-24" d="M104.25,140.81a41.2,41.2,0,0,0-2.55,9.63c-.18,1.69-.42,3.23-.66,4.51a40.44,40.44,0,0,0-.64,8.72l0,1.23.66,3.24s1.58,10.42-2.79,18.1c0,0-2.57,4.6-2.66,6.78l-1.75.67-3.54-1s1.7-6.1,1.16-10.38l.32-13.9s-2.31-3.48-2.39-9.78l-1.35-17.27Z"/><path class="cls-24" d="M88.07,138.35s-.43,6.73-3.76,11.38-4.06,6.65-4.06,6.65l-4.13,8.3a4.8,4.8,0,0,0-.38,3.1l.4,1.87s2.24,7.52,0,13.35L75,194.25H68.75s-.53-9.35-.76-10.14S66.48,168,66.48,168s-2.63-3.56-.2-9.07c0,0,5.5-20.6,7-20.24S88.07,138.35,88.07,138.35Z"/><g class="cls-16"><path class="cls-8" d="M75.51,169.66l-.4-1.87a4.65,4.65,0,0,1,.39-3.11l4.12-8.3s.71-2,4.06-6.66c3.2-4.46,3.73-10.85,3.77-11.34l.64,0s-.43,6.73-3.78,11.38-4.06,6.65-4.06,6.65l-4.11,8.3a4.74,4.74,0,0,0-.39,3.1l.41,1.87s2.22,7.52,0,13.35L75,194.25H74.4L75.48,183C77.75,177.17,75.51,169.66,75.51,169.66Z"/></g><path class="cls-8" d="M95,193c.08-2.17,2.67-6.77,2.67-6.77,4.37-7.69,2.77-18.1,2.77-18.1l-.66-3.25,0-1.22a41.18,41.18,0,0,1,.64-8.73c.24-1.27.48-2.81.68-4.51a39.62,39.62,0,0,1,2.53-9.6l.66,0a41.2,41.2,0,0,0-2.55,9.63c-.19,1.69-.43,3.23-.68,4.51a41.75,41.75,0,0,0-.64,8.72l0,1.23.66,3.24s1.58,10.42-2.77,18.1c0,0-2.59,4.6-2.67,6.78l-1.76.67-.37-.1Z"/><path class="cls-25" d="M93,193a3.09,3.09,0,0,0,1.5.19,2.91,2.91,0,0,0,1.4-.55,9.23,9.23,0,0,0-.23,5.23c.71,2.86-6.68-2.3-6.68-2.3l1.58-3.59A2.46,2.46,0,0,0,93,193Z"/><path class="cls-8" d="M93.53,193.1a2.83,2.83,0,0,0,1.23,0,3,3,0,0,0,1.13-.51,9.4,9.4,0,0,0-.25,5.23c.71,2.85-6.68-2.3-6.68-2.3l1.58-3.6a2.29,2.29,0,0,0,1.8,1C92.75,193,93.15,193,93.53,193.1Z"/><path class="cls-24" d="M76.19,126.29h3.09V108.82L77,108.41Z"/><path class="cls-21" d="M76.19,126.29h3.09V108.82L77,108.41Z"/><path class="cls-26" d="M91.23,194.29a3.08,3.08,0,0,1,2.82,1.63l1.06.83.53-1.23a10.2,10.2,0,0,1,1.23,6.62s.16,1.1-1.48,1.62c0,0-.82.4-.63,1.9s-3,3.73-7,2.81c0,0-3.59.09-4-.75s.29-3.05.29-3.05,1.47-2.32,2.15-3.18a25.13,25.13,0,0,0,1.94-5.25C88.27,194.59,90.18,193.38,91.23,194.29Z"/><path class="cls-25" d="M75.09,195.76l0-2.46a11.48,11.48,0,0,1-6.43-.14s.24,2.48-.16,2.82,1.33,3.52,1.33,3.52l1.94,2,3.32-1.21.91-2.83S75.33,195.76,75.09,195.76Z"/><path class="cls-8" d="M75.09,195.76l0-2.46a11.48,11.48,0,0,1-6.43-.14s.24,2.48-.16,2.82,1.33,3.52,1.33,3.52l1.94,2,3.32-1.21.91-2.83S75.33,195.76,75.09,195.76Z"/><path class="cls-26" d="M68.31,194.86s1.9.22,1.66,2.63.1,0,.1,0a6.88,6.88,0,0,1,2.72,1.94c.72,1.13,2-1,2.11-1.63s.9-.86.9-.86,3.16,5.83,2.61,7.44-7.34,2-7.34,2-1.24-.69-4.08,1.47-8.76.52-8.76.52-4.82-2-1.88-4.2,4.91-1.86,4.91-1.86l4.35-4.18S66.19,194.74,68.31,194.86Z"/><path class="cls-27" d="M90.89,56.9c1.21.73,2.06,1.91,3.21,2.73,1.63,1.16,3.8,1.6,5,3.16a6.18,6.18,0,0,1,.92,4.85c-.29,1.68-.94,3.27-1.24,4.94a6.38,6.38,0,0,0,.75,4.89,1.14,1.14,0,0,0,.49.43,1.75,1.75,0,0,0,.72,0,4.3,4.3,0,0,1,4.11,2.53,10.15,10.15,0,0,1,.74,5,10.36,10.36,0,0,1-.84,4.09c-1.06,2.14-3.25,3.46-5.41,4.47a41.45,41.45,0,0,1-4.32,1.74,6.48,6.48,0,0,1-3.12.47c-1.8-.31-3.08-1.94-4.78-2.58a10.16,10.16,0,0,0-4.43-.2c-1.27.11-2.72.11-3.59-.82-1.13-1.18-.63-3.09,0-4.62a3.31,3.31,0,0,1-1.69-.59A3.26,3.26,0,0,1,76.27,86,3.36,3.36,0,0,1,76,84.24a3.26,3.26,0,0,1,.72-1.63c.55-.66,1.4-1.43,1-2.17a1.5,1.5,0,0,0-.56-.5c-1.72-1-4.07-1.36-4.8-3.19a4.49,4.49,0,0,1,.57-3.63,10.71,10.71,0,0,0,1.48-3.47c.21-1.78-.79-3.6-.29-5.31a5.54,5.54,0,0,1,1.24-2,16.92,16.92,0,0,1,5.52-4,28.7,28.7,0,0,1,6.36-1.62C88.57,56.45,89.67,56.15,90.89,56.9Z"/><path class="cls-24" d="M79.28,83.3s-5-.26-6,4,2.06,10.4,2.06,10.4Z"/><path class="cls-21" d="M79.28,83.3s-5-.26-6,4,2.06,10.4,2.06,10.4Z"/><path class="cls-24" d="M76.06,96,78,97.54l8.9.4,5.56-3.81,5.65-9.66A7,7,0,0,1,92.73,79a11.77,11.77,0,0,1-.11-4.58s-9.07-4.68-8,2.62a9.85,9.85,0,0,1,.08,2.71c-.53,4.28-4.69,3.47-4.69,3.47l-1.61,2.46-1.82,6Z"/><path class="cls-8" d="M84.66,77a9.86,9.86,0,0,1,.1,2.71,7.94,7.94,0,0,0,4.07.69A8,8,0,0,0,92.73,79a11.77,11.77,0,0,1-.11-4.58S83.55,69.73,84.66,77Z"/><path class="cls-24" d="M88.09,80.14a8,8,0,1,0-8-8A8,8,0,0,0,88.09,80.14Z"/><path class="cls-9" d="M82.41,94.51c.19,0,.38,0,.58,0,1,.1,5.46.34,8-2.64,2.8-3.34,6.54-7.46,6.7-7.63l3.8,1.15s-3-1.07-5,4.5a5.81,5.81,0,0,0,1.95,6.64,6.16,6.16,0,0,0,2.5,1h0v2.45l-1.56,6.82a11.87,11.87,0,0,0,.14,5.83l2.39,8.35c-.37.24-15.08,10.2-24.89,3.33,0-.3,1.24-10.09.4-14.89a28.71,28.71,0,0,1-.43-3.7v-.09a4.19,4.19,0,0,0-1.45-2.83c-.89-.79-2.08-2.89-.9-8.43a20,20,0,0,1,1.32-4l3.3-7.41,3,.06v0c-.26.32-3.79,4.7-4.16,7.52S77.24,94.18,82.41,94.51Z"/><path class="cls-24" d="M104,86.74s3,2.54,4.14,8.3,3.77,15.32,3.77,15.32a9.79,9.79,0,0,1-2.55,8.29c-3.61,4.12-6,7.35-6,7.35L101,129.47a3,3,0,0,1-1.71,1.2,5.78,5.78,0,0,1-4.18-.29A2.43,2.43,0,0,1,94,129.05a2.35,2.35,0,0,1,.06-1.73l.53-1.22s-4.88,3.07-5.31,1.37S95,124.09,95,124.09s5-.84,6.06-3.22c0,0,5.39-6.92,5-9.3l-5.21-13.94s-6.54-.86-4.32-8.17S104,86.74,104,86.74Z"/><path class="cls-19" d="M72.76,139.35s11.93,2.38,14.73,2.06l.31,1s4.53,1,14.77-.61l2.09-.36.23,0s.14-.75.26-2A35.21,35.21,0,0,0,103.41,125l-1.73-5.28S91,126.06,84,125.47c-.63,0-1.26-.1-1.88-.12-1.45-.06-3.69,0-5.14-1.16l-3.06.52v8.66a10,10,0,0,1-.7,3.7c-.06.17-.12.34-.2.53A2.71,2.71,0,0,0,72.76,139.35Z"/><path class="cls-8" d="M87.8,139.72v2.7s5.2,1.16,17.09-1c0,0,.14-.75.26-2C101.49,140,91.44,141.35,87.8,139.72Z"/><path class="cls-8" d="M72.76,139.36s11.93,2.37,14.75,2.06l.29,1v-2.69c-1.35.56-11-1.77-14.56-2.65-.08.18-.14.35-.22.53A2.72,2.72,0,0,0,72.76,139.36Z"/><path class="cls-19" d="M101.7,136.35l.89,5.46c.66-.1,1.35-.22,2.07-.35-.27-1.6-.88-5.25-.7-5.85l-1.13-1Z"/><path class="cls-8" d="M101.81,136.23l.89,5.47,2.08-.35c-.28-1.6-.89-5.25-.71-5.85l-1.13-1Z"/><g class="cls-28"><path class="cls-21" d="M83.36,125.48c-.63,0-1.26-.1-1.89-.12-1.4-.06-3.56,0-5-1.08l.51-.09c1.47,1.16,3.69,1.11,5.16,1.17.62,0,1.24.07,1.86.12q.31,0,.63,0C84.19,125.52,83.77,125.51,83.36,125.48Z"/><path class="cls-21" d="M101.93,141.82l2.07-.36.25,0s.14-.76.25-2A35.21,35.21,0,0,0,102.76,125l-1.62-5,.53-.31,1.72,5.28a35.56,35.56,0,0,1,1.74,14.39,20.32,20.32,0,0,1-.26,2l-.24.05-2.08.35a66.51,66.51,0,0,1-10.72.92A69.82,69.82,0,0,0,101.93,141.82Z"/><path class="cls-21" d="M86.85,141.41v0h-.34Z"/></g><path class="cls-25" d="M103.17,137.37c.25,0,.45-.41.45-.92s-.2-.92-.45-.92-.45.41-.45.92S102.92,137.37,103.17,137.37Z"/><path class="cls-24" d="M74.43,117.75a30.86,30.86,0,0,1,2.69-9.82c0,.17.08.72.12.89a27.2,27.2,0,0,1,.06,2.78l-.68,12.16.91,3.8c.85,3-2.29.64-2.29.64a1.9,1.9,0,0,1-1.85,1.27l-.17-2.19a19.34,19.34,0,0,1,.55-6.11A26.8,26.8,0,0,0,74.43,117.75Z"/><path class="cls-21" d="M74.43,117.75a30.86,30.86,0,0,1,2.69-9.82c0,.17.08.72.12.89a27.2,27.2,0,0,1,.06,2.78l-.68,12.16.91,3.8c.85,3-2.29.64-2.29.64a1.9,1.9,0,0,1-1.85,1.27l-.17-2.19a19.34,19.34,0,0,1,.55-6.11A26.8,26.8,0,0,0,74.43,117.75Z"/><path class="cls-24" d="M104.65,124.31l-.89,1.16-2.37,3.47a2.86,2.86,0,0,1-1.7,1.2,5.7,5.7,0,0,1-4.17-.29,2.49,2.49,0,0,1-1.12-1.33,2.4,2.4,0,0,1,.07-1.73l.51-1.22s-4.88,3.07-5.29,1.38,5.66-3.38,5.66-3.38,5.05-.85,6.06-3.23c0,0,.45-.56,1.06-1.42"/><path class="cls-19" d="M101.68,130.13s-5.76-.55-7.6-3.84L93.24,129s6.06,4.17,7.45,3.63Z"/><path class="cls-8" d="M101.48,130.11s-5.77-.56-7.59-3.85L93.05,129s6.06,4.17,7.44,3.63Z"/><path class="cls-19" d="M75.43,128.6s-2,.71-2.41.32l.9,1.66,1.72-1.31Z"/><path class="cls-8" d="M75.43,128.6s-2,.71-2.41.32l.9,1.66,1.72-1.31Z"/><path class="cls-8" d="M87.8,139.72v-3.47L87,139.81Z"/><path class="cls-8" d="M96,67.91A3.09,3.09,0,0,1,93.82,69a16.31,16.31,0,0,1-2.52,0,6.34,6.34,0,0,0-3.79.95,9.22,9.22,0,0,0-1.74,1.84c-1.63,2-3.9,3.83-6.46,3.63a1.78,1.78,0,0,1-.64-.13,1.64,1.64,0,0,1-.55-.38,1.81,1.81,0,0,1-.3-1.08A24.32,24.32,0,0,1,78,69a10,10,0,0,1,.76-2.92,9.46,9.46,0,0,1,1.77-2.53A10.75,10.75,0,0,1,83.61,61a5.62,5.62,0,0,1,3.9-.5c1.53.41,2.72,1.61,4.19,2.23C93.37,63.46,97.82,65.33,96,67.91Z"/><path class="cls-27" d="M96,67.59a3.06,3.06,0,0,1-2.16,1.13,16.31,16.31,0,0,1-2.52,0,6.34,6.34,0,0,0-3.79,1,9.22,9.22,0,0,0-1.74,1.84c-1.63,2-3.9,3.83-6.46,3.63a1.78,1.78,0,0,1-.64-.13,1.64,1.64,0,0,1-.55-.38,1.81,1.81,0,0,1-.3-1.08,24.3,24.3,0,0,1,.14-4.9,9.91,9.91,0,0,1,.76-2.92,9.46,9.46,0,0,1,1.77-2.53,10.75,10.75,0,0,1,3.12-2.49,5.62,5.62,0,0,1,3.9-.5c1.53.41,2.72,1.61,4.19,2.23C93.37,63.14,97.82,65,96,67.59Z"/><path class="cls-24" d="M77,124.19l0,1-.22-.92Z"/><path class="cls-21" d="M77,124.19l0,1-.22-.92Z"/><g class="cls-28"><path class="cls-21" d="M97.29,89c-2.24,7.31,4.27,8.17,4.27,8.17l5.21,13.95c.44,2.37-5,9.29-5,9.29a4.63,4.63,0,0,1-2.35,2.06,3.69,3.69,0,0,0,1.38-1.52s5.41-6.92,5-9.29l-5.21-14s-6.51-.86-4.29-8.17c.76-2.44,1.85-3.55,3-3.95A6.71,6.71,0,0,0,97.29,89Z"/></g><g class="cls-16"><path class="cls-8" d="M97.38,95.59a5.31,5.31,0,0,0,1.07,1,6.07,6.07,0,0,0,2.48,1h0v.26a5.94,5.94,0,0,1-2.26-1A5.58,5.58,0,0,1,97.38,95.59Z"/><path class="cls-8" d="M77.19,106.05v.09a31,31,0,0,0,.45,3.72c.79,4.52-.24,13.5-.39,14.74a2.46,2.46,0,0,1-.27-.17c0-.29,1.25-10.09.42-14.88a28.73,28.73,0,0,1-.44-3.7v-.09a4.16,4.16,0,0,0-.71-2A4.23,4.23,0,0,1,77.19,106.05Z"/><path class="cls-8" d="M82,83.42l-2.58,0h0l-3.28,7.41a20,20,0,0,0-1.32,4c-1,4.48-.36,6.72.38,7.82-.84-1-1.67-3.17-.61-8.13a20.29,20.29,0,0,1,1.29-4l3.32-7.41,3,.06v0A3.42,3.42,0,0,0,82,83.42Z"/><path class="cls-8" d="M101.44,85.44h0Z"/><path class="cls-8" d="M100.51,85.39l-2.59-.77h0c-.17.16-3.9,4.28-6.7,7.62-2.5,3-6.9,2.75-8,2.65a5.67,5.67,0,0,0-.58,0c-2.88-.19-4-.53-4.38-1.25.53.52,1.72.78,4.14.93.19,0,.38,0,.58,0,1.06.1,5.46.34,8-2.64,2.82-3.34,6.54-7.46,6.7-7.63l3.76,1.13A2.39,2.39,0,0,0,100.51,85.39Z"/></g><path class="cls-8" d="M69.94,198.68s-3.62,1-4.33-.57Z"/><path class="cls-8" d="M93,197.94s-4.22,1.08-5.19-.6Z"/><path class="cls-29" d="M153.77,195.59c.07-.53.15-1.05.24-1.58a10.82,10.82,0,0,0-.53-5.31,4.06,4.06,0,0,0-.16-.43c-1.67-.46-8.29,4.65-10.71,6.57-.82,0-1.74,0-2.72.1a11.47,11.47,0,0,1-1.31,0H137c-2.23-1.79-9.15-7.19-10.88-6.72,0,0-.06.15-.16.43a10.7,10.7,0,0,0-.54,5.32c.09.52.17,1.05.24,1.57a7.56,7.56,0,0,0,2.36,4.86,32.33,32.33,0,0,0,2.87,8.48,6,6,0,0,0,.37,1.2c-.43,1.72-1,4-.8,4.73,0,0-2.36-.57-2.58,2.23v.09c-.85.39-1.9,1.27-.73,3.12a1.31,1.31,0,0,0,.62.5c.21.07.42.07.4-.22l1.46,1.64s2.65.3,2.68-1.23l.16,0c.35.06.72.1,1.11.14l.18.61s-2-.05-1.45,1.17c0,0,.5.46.67.3,0,0-.25.8.78.8,0,0,1.11.58,1.54.16s1.34-1,1.42-1.31c0-.07,0-.69.05-1.55h.16c2.22.05,4.58,0,6.73-.13h.16a14.71,14.71,0,0,0,0,1.69c.08.26,1,.88,1.42,1.31s1.55-.17,1.55-.17c1,0,.77-.8.77-.8.18.17.68-.29.68-.29.53-1.22-1.45-1.18-1.45-1.18l.24-.79,1.09-.09h.18c-.11,1.66,2.67,1.34,2.67,1.34l1.47-1.64c0,.3.18.3.39.22a1.19,1.19,0,0,0,.59-.5c1.79-2.79-1.51-3.38-1.51-3.38a1.19,1.19,0,0,0-.32-.05.76.76,0,0,1,0-.15,5.15,5.15,0,0,0,0-1.11,2.44,2.44,0,0,0-2-1.42c-.67-.09-.69-3.17-.62-5.31a6.89,6.89,0,0,0-.17-3.17,24.46,24.46,0,0,0,2.5-5.24A7.61,7.61,0,0,0,153.77,195.59Z"/><path class="cls-9" d="M151.23,216.85c-.12,1.45-.39,3.78-.39,3.78s-1.18.14-3,.31l-1.22.1c-.93.08-2,.15-3.12.21-2.07.12-4.34.19-6.48.13-1.06,0-2.11-.08-3.06-.17-.43,0-.85-.09-1.24-.15-2.46-.36-4.22-1.06-4.36-2.29a7.48,7.48,0,0,1-.07-1.57c.24-2.75,2.48-2.2,2.48-2.2a18.52,18.52,0,0,1,.86-4.83c.27-1.08.51-1.9.51-1.9L148,207.22H148a.66.66,0,0,1,.3.07.74.74,0,0,1,.25.17,1,1,0,0,1,.17.27.76.76,0,0,1,.05.3c-.1,1.89-.24,6.22.55,6.32a2.41,2.41,0,0,1,1.9,1.41A5.7,5.7,0,0,1,151.23,216.85Z"/><path class="cls-9" d="M137.78,196.09s-6,7.16-8.84,5.17l-.21-.14a7.29,7.29,0,0,1-2.58-5c-.05-.53-.13-1-.23-1.55a10.45,10.45,0,0,1,.54-5.22,3,3,0,0,1,.16-.42C128.6,188.38,137.78,196.09,137.78,196.09Z"/><path class="cls-9" d="M134.57,196.75s-1.88,1.31-4.54,3.46a8.86,8.86,0,0,1-1.3.9,7.22,7.22,0,0,1-2.58-5c-.06-.52-.15-1-.24-1.54a10.56,10.56,0,0,1,.53-5.22C130.16,189.61,134.57,196.75,134.57,196.75Z"/><path class="cls-30" d="M134.57,196.75s-1.88,1.31-4.54,3.46a8.86,8.86,0,0,1-1.3.9,7.22,7.22,0,0,1-2.58-5c-.06-.52-.15-1-.24-1.54a10.56,10.56,0,0,1,.53-5.22C130.16,189.61,134.57,196.75,134.57,196.75Z"/><path class="cls-8" d="M132.53,196.05s-1,.71-2.43,1.85a4.82,4.82,0,0,1-.7.48,3.8,3.8,0,0,1-1.37-2.66c0-.28-.08-.55-.12-.83a5.76,5.76,0,0,1,.29-2.79C130.16,192.24,132.53,196.05,132.53,196.05Z"/><path class="cls-9" d="M141.64,196.09s6,7.16,8.85,5.17l.21-.14a7.26,7.26,0,0,0,2.56-5c.06-.53.14-1,.24-1.55a10.6,10.6,0,0,0-.53-5.22l-.16-.42C150.82,188.38,141.64,196.09,141.64,196.09Z"/><path class="cls-9" d="M144.85,196.75s1.88,1.31,4.52,3.46a10.17,10.17,0,0,0,1.31.9,7.26,7.26,0,0,0,2.58-5c.06-.52.14-1,.24-1.54a10.56,10.56,0,0,0-.53-5.22C149.26,189.61,144.85,196.75,144.85,196.75Z"/><path class="cls-30" d="M144.85,196.75s1.88,1.31,4.52,3.46a10.17,10.17,0,0,0,1.31.9,7.26,7.26,0,0,0,2.58-5c.06-.52.14-1,.24-1.54a10.56,10.56,0,0,0-.53-5.22C149.26,189.61,144.85,196.75,144.85,196.75Z"/><path class="cls-8" d="M146.91,196s1,.7,2.4,1.84a7.64,7.64,0,0,0,.69.47,3.8,3.8,0,0,0,1.37-2.65c0-.26.08-.55.13-.82a5.8,5.8,0,0,0-.27-2.77C149.25,192.25,146.91,196,146.91,196Z"/><path class="cls-8" d="M148,207.23a14.2,14.2,0,0,1-2.27,2.9c-2.39,2.1-12.61,1.26-13.27,1.16-.15,0-.44-.44-.79-1.11.27-1.08.53-1.89.53-1.89Z"/><path class="cls-9" d="M139.87,195.49l-1.25,0c-2.13,0-9.33,0-10.12,2.95-1,3.41,3.25,12.54,3.92,12.65s10.88.93,13.27-1.16,5.47-8.66,5.3-9.25C151,200.71,154,194.51,139.87,195.49Z"/><path class="cls-8" d="M139.63,201a7.56,7.56,0,0,0-7.73,4.36,6.23,6.23,0,0,0-.63,3.23,6.12,6.12,0,0,0,1.1,3.11c.82,1.15,2,2,3.7,1.32C139.81,211.5,139.63,201,139.63,201Z"/><path class="cls-8" d="M139.49,200.68a7.58,7.58,0,0,0-7.75,4.36,6.41,6.41,0,0,0-.63,3.23,6.31,6.31,0,0,0,1.1,3.11c.82,1.15,2,2,3.7,1.31C139.65,211.16,139.49,200.68,139.49,200.68Z"/><path class="cls-9" d="M139.49,200.85a7.58,7.58,0,0,0-7.75,4.36,6.43,6.43,0,0,0-.63,3.23,6.31,6.31,0,0,0,1.1,3.11c.82,1.15,2,2,3.7,1.31C139.65,211.33,139.49,200.85,139.49,200.85Z"/><path class="cls-30" d="M139.49,200.85a7.58,7.58,0,0,0-7.75,4.36,6.43,6.43,0,0,0-.63,3.23,6.31,6.31,0,0,0,1.1,3.11c.82,1.15,2,2,3.7,1.31C139.65,211.33,139.49,200.85,139.49,200.85Z"/><path class="cls-31" d="M133.8,205.37s-.72.66-.45.83S133.8,205.37,133.8,205.37Z"/><path class="cls-31" d="M134.56,206.21s-.39.86-.12,1,.46-.62.46-.62Z"/><path class="cls-31" d="M132.83,207.52s-.38,1,0,1S132.83,207.52,132.83,207.52Z"/><path class="cls-32" d="M132.35,210.24a2.91,2.91,0,0,0,2.77,1.81"/><path class="cls-32" d="M134.15,210.82a1.38,1.38,0,0,0,1.66.21"/><path class="cls-8" d="M140.31,201a7.59,7.59,0,0,1,7.74,4.36,6.29,6.29,0,0,1-.46,6.34,2.93,2.93,0,0,1-3.71,1.32C140.15,211.5,140.31,201,140.31,201Z"/><path class="cls-8" d="M140.48,200.68a7.56,7.56,0,0,1,7.74,4.36,6.32,6.32,0,0,1-.47,6.34c-.82,1.15-2,2-3.71,1.31C140.32,211.16,140.48,200.68,140.48,200.68Z"/><path class="cls-9" d="M140.48,200.85a7.56,7.56,0,0,1,7.74,4.36,6.32,6.32,0,0,1-.47,6.34c-.82,1.15-2,2-3.71,1.31C140.32,211.33,140.48,200.85,140.48,200.85Z"/><path class="cls-30" d="M140.48,200.85a7.56,7.56,0,0,1,7.74,4.36,6.32,6.32,0,0,1-.47,6.34c-.82,1.15-2,2-3.71,1.31C140.32,211.33,140.48,200.85,140.48,200.85Z"/><path class="cls-31" d="M146.15,205.37s.71.66.44.83S146.15,205.37,146.15,205.37Z"/><path class="cls-31" d="M145.38,206.21s.39.86.11,1-.45-.62-.45-.62Z"/><path class="cls-31" d="M147.12,207.52s.37,1,0,1S147.12,207.52,147.12,207.52Z"/><path class="cls-32" d="M147.59,210.24a2.92,2.92,0,0,1-2.77,1.81"/><path class="cls-32" d="M145.78,210.82a1.38,1.38,0,0,1-1.66.21"/><path class="cls-31" d="M137.47,215.79a7.66,7.66,0,0,1,5.48,0Z"/><path class="cls-8" d="M132.72,221.07c-2.46-.37-4.22-1.07-4.36-2.29a7.51,7.51,0,0,1-.07-1.57,3.62,3.62,0,0,1,1-.35,4.14,4.14,0,0,1,2.14.3c1.18.33,1.08,1.69,1.33,3.46A1.36,1.36,0,0,1,132.72,221.07Z"/><path class="cls-9" d="M129.07,217s-3.19.59-1.47,3.33a1.19,1.19,0,0,0,.6.48c.2.07.4.07.37-.21l1.41,1.61s2.82.33,2.58-1.45-.18-3.15-1.32-3.47A4.43,4.43,0,0,0,129.07,217Z"/><path class="cls-32" d="M129.84,218.88s.67,1.54,1.61.25"/><path class="cls-32" d="M128.28,219.5s.35,1.46,1.67.37"/><path class="cls-8" d="M151.23,216.84c-.1,1.46-.39,3.79-.39,3.79s-1.18.14-3,.3a.76.76,0,0,1,0-.3c.24-1.78.16-3.15,1.32-3.47A5.14,5.14,0,0,1,151.23,216.84Z"/><path class="cls-9" d="M151.5,217s3.19.59,1.47,3.33a1.14,1.14,0,0,1-.58.48c-.21.07-.41.07-.39-.21l-1.4,1.61s-2.82.33-2.58-1.45.16-3.15,1.32-3.47A4.4,4.4,0,0,1,151.5,217Z"/><path class="cls-32" d="M150.74,218.88s-.67,1.54-1.61.25"/><path class="cls-32" d="M152.31,219.5s-.36,1.46-1.68.37"/><path class="cls-8" d="M137,221.38c-1.06,0-2.11-.08-3.06-.17l-1-3.2a2.89,2.89,0,0,1-.08-.59,2.1,2.1,0,0,1,.62-1.4,2.05,2.05,0,0,1,3.48,1.39C137,218.65,137,220.24,137,221.38Z"/><path class="cls-9" d="M132.83,218l1.13,3.79s-1.92,0-1.38,1.15c0,0,.48.46.64.29,0,0-.26.79.74.79,0,0,1.08.58,1.5.16s1.29-1,1.37-1.28,0-3.32,0-5.5a2,2,0,0,0-.61-1.43,2,2,0,0,0-1.43-.59,2.1,2.1,0,0,0-.92.21,2,2,0,0,0-.72.61,1.74,1.74,0,0,0-.37.86A1.87,1.87,0,0,0,132.83,218Z"/><path class="cls-32" d="M134.36,222.77s-.83.79-.4,1.25"/><path class="cls-32" d="M134,222.26a1.13,1.13,0,0,0-.77,1"/><path class="cls-8" d="M147.62,217.41a2.33,2.33,0,0,1-.08.59l-.9,3c-.94.08-2,.15-3.11.22,0-1.14,0-2.65,0-3.85a2,2,0,0,1,.6-1.44,2.06,2.06,0,0,1,2.9,0,2,2,0,0,1,.6,1.44Z"/><path class="cls-9" d="M147.68,218l-1.12,3.79s1.91,0,1.4,1.15c0,0-.49.46-.65.29,0,0,.24.79-.75.79,0,0-1.07.58-1.49.16s-1.28-1-1.36-1.28-.05-3.32,0-5.5a2,2,0,0,1,.6-1.43,2,2,0,0,1,1.44-.59,2.13,2.13,0,0,1,.92.21,2.25,2.25,0,0,1,.73.61,2.21,2.21,0,0,1,.37.86A2,2,0,0,1,147.68,218Z"/><path class="cls-32" d="M146.17,222.77s.84.79.39,1.25"/><path class="cls-32" d="M146.54,222.26a1.13,1.13,0,0,1,.77,1"/><path class="cls-8" d="M139.47,200s-3.9-.12-4,2.88,6.09,1.74,6.09,1.74,2.63-.35,2.16-2.18S142.29,200.19,139.47,200Z"/><path class="cls-8" d="M139.47,199.69s-3.9-.12-4,2.89,6.09,1.73,6.09,1.73,2.63-.35,2.16-2.18S142.29,199.86,139.47,199.69Z"/><path class="cls-31" d="M139.47,199.86s-3.9-.12-4,2.89,6.09,1.73,6.09,1.73,2.63-.35,2.16-2.18S142.29,200,139.47,199.86Z"/><path class="cls-8" d="M130.77,215s1.32.47,1.58,1.37Z"/><path class="cls-8" d="M149.34,214.34s-.93.4-.87,2Z"/><path class="cls-9" d="M131.84,222.71c.29-.17.3-.69,0-1.18s-.74-.74-1-.57-.31.7,0,1.18S131.55,222.88,131.84,222.71Z"/><path class="cls-9" d="M150.39,221.24c.27-.48.26-1,0-1.17s-.76.08-1,.56-.28,1,0,1.18S150.1,221.72,150.39,221.24Z"/><path class="cls-30" d="M131.84,222.71c.29-.17.3-.69,0-1.18s-.74-.74-1-.57-.31.7,0,1.18S131.55,222.88,131.84,222.71Z"/><path class="cls-30" d="M150.39,221.24c.27-.48.26-1,0-1.17s-.76.08-1,.56-.28,1,0,1.18S150.1,221.72,150.39,221.24Z"/><path class="cls-3" d="M50.71,189c3.93,0,7.1-.54,7.1-1.2s-3.17-1.19-7.1-1.19-7.09.54-7.09,1.19S46.79,189,50.71,189Z"/><path class="cls-3" d="M22.8,205.93c3.91,0,7.08-.54,7.08-1.19s-3.17-1.2-7.08-1.2-7.09.54-7.09,1.2S18.88,205.93,22.8,205.93Z"/><path class="cls-9" d="M15.39,191.38c5.86,0,10.6-.8,10.6-1.78s-4.74-1.79-10.6-1.79-10.58.8-10.58,1.79S9.54,191.38,15.39,191.38Z"/><path class="cls-9" d="M11,186.67a3,3,0,0,1-1-1.51,1.37,1.37,0,0,1,.7-1.55,2,2,0,0,1,1.87.65,2.49,2.49,0,0,0,1.82.87,2.66,2.66,0,0,1-.78-1.17,2.77,2.77,0,0,1-.08-1.4,1.07,1.07,0,0,1,.24-.53c.36-.38,1-.21,1.44.09,1.37,1,1.75,2.81,1.75,4.48a7.55,7.55,0,0,0,0-1.84,1.88,1.88,0,0,1,.7-1.63,2,2,0,0,1,1-.26,2.21,2.21,0,0,1,1.73.49,1.67,1.67,0,0,1-.07,2.09,6.75,6.75,0,0,1-1.78,1.43,4.18,4.18,0,0,0-1.28,1.2l-.09.22H13.42A10.81,10.81,0,0,1,11,186.67Z"/><path class="cls-3" d="M271.19,199c3.91,0,7.08-.53,7.08-1.19s-3.17-1.19-7.08-1.19-7.09.53-7.09,1.19S267.27,199,271.19,199Z"/><path class="cls-33" d="M266.42,192.24s4-.12,5.27-1,6.21-1.89,6.52-.51,6.07,6.9,1.51,6.94-10.61-.71-11.82-1.45S266.42,192.24,266.42,192.24Z"/><path class="cls-34" d="M279.8,197.19c-4.57,0-10.61-.7-11.84-1.44-.91-.57-1.28-2.58-1.41-3.51h-.13s.26,3.25,1.46,4,7.27,1.49,11.84,1.45c1.31,0,1.77-.48,1.74-1.17C281.28,196.93,280.78,197.19,279.8,197.19Z"/></g></svg>