<svg id="Layer_1" data-name="Layer 1" xmlns="http://www.w3.org/2000/svg" xmlns:xlink="http://www.w3.org/1999/xlink" viewBox="0 0 296.86 283.47"><defs><style>.cls-1{fill:none;}.cls-2{clip-path:url(#clip-path);}.cls-3{fill:url(#linear-gradient);}.cls-17,.cls-4{fill:#fff;}.cls-5,.cls-8{fill:#109cf1;}.cls-11,.cls-15,.cls-17,.cls-5{opacity:0.2;isolation:isolate;}.cls-6{fill:url(#linear-gradient-2);}.cls-7{fill:url(#linear-gradient-3);}.cls-9{fill:#e0e0e0;}.cls-10{fill:#f5f5f5;}.cls-11,.cls-12{fill:#69f0ae;}.cls-13{fill:url(#linear-gradient-4);}.cls-14{fill:url(#linear-gradient-5);}.cls-16{fill:url(#linear-gradient-6);}</style><clipPath id="clip-path"><rect class="cls-1" width="296.86" height="283.47"/></clipPath><linearGradient id="linear-gradient" x1="171.23" y1="152.32" x2="171.23" y2="435.79" gradientTransform="matrix(1, 0, 0, -1, 0, 435.79)" gradientUnits="userSpaceOnUse"><stop offset="0" stop-color="gray" stop-opacity="0.25"/><stop offset="0.54" stop-color="gray" stop-opacity="0.12"/><stop offset="1" stop-color="gray" stop-opacity="0.1"/></linearGradient><linearGradient id="linear-gradient-2" x1="79.18" y1="-29966.55" x2="79.18" y2="-8691.25" xlink:href="#linear-gradient"/><linearGradient id="linear-gradient-3" x1="1748.7" y1="350.11" x2="9354.15" y2="350.11" xlink:href="#linear-gradient"/><linearGradient id="linear-gradient-4" x1="80.03" y1="-5130.87" x2="80.03" y2="-4924.05" xlink:href="#linear-gradient"/><linearGradient id="linear-gradient-5" x1="216.42" y1="-19106.35" x2="216.42" y2="-17185.58" xlink:href="#linear-gradient"/><linearGradient id="linear-gradient-6" x1="238.38" y1="-13835.81" x2="238.38" y2="-4904.99" xlink:href="#linear-gradient"/></defs><g class="cls-2"><path class="cls-3" d="M296.86,0H45.6V283.47H296.86Z"/><path class="cls-4" d="M292.64,5.46H49.39v273H292.64Z"/><path class="cls-5" d="M163,50.39H24.91v87.35H163Z"/><path class="cls-6" d="M158.36,38.21H0v89.45H158.36Z"/><path class="cls-4" d="M156.24,51.23H1.7v74.33H156.24Z"/><path class="cls-7" d="M65.87,57.53H12.25v56.28H65.87Z"/><path class="cls-8" d="M64.62,58.8H13.93v53.75H64.62Z"/><path class="cls-4" d="M53.41,80a34.59,34.59,0,0,0-2.16-9.38,15.39,15.39,0,0,0-6-7.43A6.86,6.86,0,0,0,42,62.08a6.2,6.2,0,0,0-5.25,3.2,13.6,13.6,0,0,0-1,2,4.6,4.6,0,0,0-2.66,1.45,4.64,4.64,0,0,0-1.2,2.77,11.94,11.94,0,0,0-5.47,4.71,11.8,11.8,0,0,0,1,13.66,11.89,11.89,0,0,0,6.11,3.85v2a11.94,11.94,0,0,0-6.38,4.19,11.8,11.8,0,0,0-2.48,7.19v5.47H48.37v-5.47a11.63,11.63,0,0,0-2.48-7.19,11.89,11.89,0,0,0-6.38-4.2v-2a11.83,11.83,0,0,0,6.4-4.19,11.68,11.68,0,0,0,2.48-7.2v-.08l1.32,2.94C51,88,52.27,91,51.78,94,54.22,89.89,54,84.77,53.41,80Z"/><path class="cls-8" d="M156.24,39.9H1.7V51.24H156.24Z"/><path class="cls-9" d="M144,74.54H85.29v3.78H144Z"/><path class="cls-10" d="M144,90.5H85.29v3.78H144Z"/><path class="cls-5" d="M119.5,82.52H84.88v3.77H119.5Z"/><path class="cls-11" d="M108.52,98.48H84.88v3.78h23.64Z"/><path class="cls-12" d="M136.4,98.48H112.74v3.78H136.4Z"/><path class="cls-9" d="M274.05,157.91H70.11V165H274.05Z"/><path class="cls-9" d="M138.1,173.43h-68v7.14h68Z"/><path class="cls-12" d="M274.05,173.43h-68v7.14h68Z"/><path class="cls-9" d="M274.05,189H70.11v7.14H274.05Z"/><path class="cls-9" d="M274.05,204.52H70.11v7.14H274.05Z"/><path class="cls-13" d="M90.8,219.22H69.26V228H90.8Z"/><path class="cls-8" d="M90.37,220.05H70.11v7.14H90.37Z"/><path class="cls-12" d="M181.57,220.05H161.31v7.14h20.26Z"/><path class="cls-12" d="M274.05,220.05H253.78v7.14h20.27Z"/><path class="cls-14" d="M276.59,243.15H156.24V270H276.59Z"/><path class="cls-8" d="M274.05,246.09H158.36v20.58H274.05Z"/><path class="cls-15" d="M274.05,246.09H158.36v20.58H274.05Z"/><path class="cls-16" d="M276.59,34.44H200.17v58h76.42Z"/><path class="cls-8" d="M274.07,38.21h-71v50.4h71Z"/><path class="cls-17" d="M274.07,38.21h-71v50.4h71Z"/></g></svg>