<svg id="Layer_1" data-name="Layer 1" xmlns="http://www.w3.org/2000/svg" xmlns:xlink="http://www.w3.org/1999/xlink" viewBox="0 0 295.29 178.41"><defs><style>.cls-1{fill:none;}.cls-2{clip-path:url(#clip-path);}.cls-3{fill:#e6e6e6;}.cls-4{fill:#3f3d56;}.cls-5{fill:#2f2e41;}.cls-6{fill:#a0616a;}.cls-7{fill:#cfcce0;}.cls-8{fill:#fff;}.cls-9{fill:#109cf1;}</style><clipPath id="clip-path" transform="translate(0 0)"><rect class="cls-1" width="295.29" height="178.41"/></clipPath></defs><g class="cls-2"><path class="cls-3" d="M19.37,130.62l-1.78-7A92.14,92.14,0,0,0,8,120.14l-.23,3.26-.9-3.59C2.77,118.65,0,118.14,0,118.14s3.73,14.23,11.55,25.11l9.13,1.6-7.08,1a37.27,37.27,0,0,0,3.16,3.37c11.39,10.6,24.06,15.46,28.32,10.86s-1.51-16.92-12.91-27.52a47.75,47.75,0,0,0-12.4-8Z" transform="translate(0 0)"/><path class="cls-3" d="M36.23,123l2.1-6.92a91.75,91.75,0,0,0-6.46-8L30,110.8l1.07-3.55c-2.88-3.1-5-5-5-5s-4.13,14.12-3,27.49l7,6.1-6.59-2.79a37.13,37.13,0,0,0,1,4.52c4.29,15,12.63,25.71,18.65,24s7.42-15.27,3.14-30.25a48.68,48.68,0,0,0-6.5-13.27Z" transform="translate(0 0)"/><path class="cls-4" d="M295.29,162.63H0v.74H295.29Z" transform="translate(0 0)"/><path class="cls-5" d="M46.68,85.24s-2.3,27.73-2.79,33.67a42.48,42.48,0,0,1-2.48,10.9,10.32,10.32,0,0,0-1,4V159a1.48,1.48,0,0,0-1.49,2c.51,2,1,5.45,1,5.45h7.41a1.52,1.52,0,0,1,1-2c1.48-.5,0-4.46,0-4.46l7.9-29.71,11.85-24.76S75,127.83,76.47,130.3c0,0,5.42,27.73,6.42,30.21s1.48,2.47,1,3.46a2.2,2.2,0,0,0,0,2.48c.49.49,9.86,0,9.86,0l-2.46-35.16L86.84,89.2,64.13,82.27Z" transform="translate(0 0)"/><path class="cls-5" d="M45.36,162.49s-2.47-8.91-6.42-2S35,169.92,35,169.92s-6.41,9.4,2.48,8.41,6.91-5.44,6.91-5.44,3.46-2,3.46-3.47S45.36,162.49,45.36,162.49Z" transform="translate(0 0)"/><path class="cls-5" d="M85.35,161.5s2.47-8.91,6.42-2,4,9.41,4,9.41,6.43,9.4-2.47,8.41-6.9-5.44-6.9-5.44-3.46-2-3.46-3.47S85.35,161.5,85.35,161.5Z" transform="translate(0 0)"/><path class="cls-6" d="M62.15,18.4s1,6.44-2,7.92,6.41,6.93,8.88,6.93S76,28.3,76,28.3s-2.48-7.43-2-8.91Z" transform="translate(0 0)"/><path class="cls-6" d="M67.59,23.35A10.4,10.4,0,1,0,57.21,13,10.37,10.37,0,0,0,67.59,23.35Z" transform="translate(0 0)"/><path class="cls-7" d="M87.82,34.25l-12.34-7.5s-7,8-14.61-.92l-13,3.46,2,33.67s-3,13.37-2,15.85-2.48,3.47-1.49,4,0,4,0,4,19.25,9.91,40.49,2.48l-2-6.44a5.22,5.22,0,0,0,.15-2.6,5.36,5.36,0,0,0-1.13-2.35,4.41,4.41,0,0,0-.5-5.45s1-4.45-1.49-6.43L81.4,59l1.49-3.46Z" transform="translate(0 0)"/><path class="cls-5" d="M62.27,8.12S61,10.81,66,9.73c0,0,1.84,1.08,1.84-.53,0,0,2.47,2.68,3.09,1.07s1.86.54,1.86.54L74,8.12l1.23,1.61h4.33S80.81-1,66,.08s-7.55,18.07-7.55,18.07.13-3,1.36-1.44S62.27,8.12,62.27,8.12Z" transform="translate(0 0)"/><path class="cls-6" d="M92.27,54.05l.49,10.4s2,19.31-2,27.73v4.45s-1,11.39-5.93,10.9,1.48-16.34,1.48-16.34l-1-21.79L84.37,57Z" transform="translate(0 0)"/><path class="cls-7" d="M82.4,34.74l4.92-.8a24.19,24.19,0,0,1,6.93,12.68c1.47,7.93,2,9.41,2,9.41L84.37,59,78,46.62Z" transform="translate(0 0)"/><path class="cls-8" d="M139.09,29.09H61.19V67.9h77.9Z" transform="translate(0 0)"/><path class="cls-9" d="M69.69,31.42a9.14,9.14,0,0,0-5.33-1,9.08,9.08,0,0,0,3.4,4.25,9.08,9.08,0,0,0,5.34,1A9.25,9.25,0,0,0,69.69,31.42Z" transform="translate(0 0)"/><path class="cls-9" d="M79.1,55.38H66.59a2.76,2.76,0,0,0-1.07.21A2.78,2.78,0,0,0,64,57.12a2.76,2.76,0,0,0,0,2.16,3,3,0,0,0,.61.92,2.84,2.84,0,0,0,.92.61,2.76,2.76,0,0,0,1.07.21H79.1a2.85,2.85,0,0,0,1.08-.21,2.7,2.7,0,0,0,.91-.61,3.17,3.17,0,0,0,.62-.92,2.88,2.88,0,0,0,0-2.16,3,3,0,0,0-.62-.92,2.7,2.7,0,0,0-.91-.61,2.85,2.85,0,0,0-1.08-.21Z" transform="translate(0 0)"/><path class="cls-9" d="M135.75,25.58H65.6a6.22,6.22,0,0,0-2.37.47,6.39,6.39,0,0,0-2,1.35,6.14,6.14,0,0,0-1.34,2,6.06,6.06,0,0,0-.48,2.38V66.08a6.3,6.3,0,0,0,1.82,4.41,6.22,6.22,0,0,0,4.39,1.83h70.15A6.23,6.23,0,0,0,142,66.08V31.81a6.23,6.23,0,0,0-.47-2.38,6.33,6.33,0,0,0-1.35-2,6.2,6.2,0,0,0-4.39-1.82ZM63.87,29.83A9.72,9.72,0,0,1,70,30.89a9.86,9.86,0,0,1,3.8,4.94l.11.35-.35.06a9.72,9.72,0,0,1-1.52.11,9,9,0,0,1-4.62-1.17,9.7,9.7,0,0,1-3.8-4.95l-.12-.34ZM79.1,61.65H66.59a3.45,3.45,0,0,1-3.45-3.45,3.49,3.49,0,0,1,1-2.44,3.45,3.45,0,0,1,2.44-1H79.1a3.45,3.45,0,0,1,0,6.9ZM136,61a3.7,3.7,0,0,1-1.11,2.66,3.75,3.75,0,0,1-2.64,1.11h-9.39a3.77,3.77,0,0,1-2.65-1.11,3.81,3.81,0,0,1-1.1-2.66V55.38a3.81,3.81,0,0,1,1.1-2.66,3.77,3.77,0,0,1,2.65-1.11h9.39a3.75,3.75,0,0,1,2.64,1.11A3.7,3.7,0,0,1,136,55.38Z" transform="translate(0 0)"/><path class="cls-9" d="M125.86,59.92h-4.08a1.1,1.1,0,0,0,0,2.2h4.08a1.1,1.1,0,0,0,0-2.2Zm0,1.57h-4.08a.47.47,0,0,1-.17,0,.57.57,0,0,1-.16-.11.56.56,0,0,1-.1-.15.52.52,0,0,1,0-.18.57.57,0,0,1,0-.18.56.56,0,0,1,.1-.15.39.39,0,0,1,.16-.1.33.33,0,0,1,.17,0h4.08a.47.47,0,0,1,.33.14.51.51,0,0,1,.13.33.46.46,0,0,1-.46.47Z" transform="translate(0 0)"/><path class="cls-9" d="M133.36,59.92h-4.07a1.07,1.07,0,0,0-.76.32,1.11,1.11,0,0,0,0,1.56,1.07,1.07,0,0,0,.76.32h4.07a1.12,1.12,0,0,0,.78-.32,1.11,1.11,0,0,0,0-1.56,1.12,1.12,0,0,0-.78-.32Zm0,1.57h-4.07a.51.51,0,0,1-.17,0,.46.46,0,0,1-.16-.11.4.4,0,0,1-.1-.15.37.37,0,0,1,0-.18.5.5,0,0,1,.14-.33.34.34,0,0,1,.16-.1.35.35,0,0,1,.17,0h4.07a.45.45,0,0,1,.33.14.47.47,0,0,1,.14.33.44.44,0,0,1-.14.33.45.45,0,0,1-.33.14Z" transform="translate(0 0)"/><path class="cls-9" d="M125.86,57.1h-4.08a1.1,1.1,0,0,0,0,2.2h4.08a1.1,1.1,0,0,0,0-2.2Zm0,1.57h-4.08a.47.47,0,0,1-.17,0,.57.57,0,0,1-.16-.11.56.56,0,0,1-.1-.15.56.56,0,0,1,0-.36.56.56,0,0,1,.1-.15.39.39,0,0,1,.16-.1.33.33,0,0,1,.17,0h4.08a.33.33,0,0,1,.17,0,.39.39,0,0,1,.16.1,1,1,0,0,1,.1.15.56.56,0,0,1,0,.36,1,1,0,0,1-.1.15.57.57,0,0,1-.16.11.47.47,0,0,1-.17,0Z" transform="translate(0 0)"/><path class="cls-9" d="M133.36,57.1h-4.07a1.07,1.07,0,0,0-.76.32,1.11,1.11,0,0,0,0,1.56,1.07,1.07,0,0,0,.76.32h4.07a1.12,1.12,0,0,0,.78-.32,1.11,1.11,0,0,0,0-1.56,1.12,1.12,0,0,0-.78-.32Zm0,1.57h-4.07a.51.51,0,0,1-.17,0,.35.35,0,0,1-.15-.11.33.33,0,0,1-.11-.15.42.42,0,0,1,0-.36.33.33,0,0,1,.11-.15.27.27,0,0,1,.15-.1.35.35,0,0,1,.17,0h4.07a.46.46,0,0,1,.19,0,.53.53,0,0,1,.14.1.47.47,0,0,1,0,.66,1.1,1.1,0,0,1-.14.11l-.19,0Z" transform="translate(0 0)"/><path class="cls-9" d="M125.86,54.28h-4.08a1.09,1.09,0,0,0-1.09,1.1,1.11,1.11,0,0,0,1.09,1.1h4.08a1.11,1.11,0,0,0,1.09-1.1,1.09,1.09,0,0,0-1.09-1.1Zm0,1.57h-4.08a.33.33,0,0,1-.17,0,.39.39,0,0,1-.16-.1.56.56,0,0,1-.1-.15.56.56,0,0,1,0-.36.56.56,0,0,1,.1-.15.57.57,0,0,1,.16-.11.47.47,0,0,1,.17,0h4.08a.46.46,0,0,1,.46.47.51.51,0,0,1-.13.33.47.47,0,0,1-.33.14Z" transform="translate(0 0)"/><path class="cls-9" d="M133.36,54.28h-4.07a1.07,1.07,0,0,0-.76.32,1.1,1.1,0,0,0-.32.78,1.06,1.06,0,0,0,.32.77,1,1,0,0,0,.76.33h4.07a1.09,1.09,0,0,0,.78-.33,1.06,1.06,0,0,0,.32-.77,1.1,1.1,0,0,0-.32-.78,1.12,1.12,0,0,0-.78-.32Zm0,1.57h-4.07a.35.35,0,0,1-.17,0,.34.34,0,0,1-.16-.1.47.47,0,0,1,0-.66.46.46,0,0,1,.16-.11.51.51,0,0,1,.17,0h4.07a.45.45,0,0,1,.33.14.44.44,0,0,1,.14.33.47.47,0,0,1-.14.33.45.45,0,0,1-.33.14Z" transform="translate(0 0)"/><path class="cls-6" d="M40.43,48.11s-4.45,18.81,1,18.81S59.67,45.63,59.67,45.63,73,38.7,67.59,36.22s-12.36,4-12.36,4l-8,11.1-.42-5.66Z" transform="translate(0 0)"/><path class="cls-7" d="M50.8,32.26l-3-3s-5.93,3.47-6.43,6.94-3,14.35-3,14.35l9.14.75,2.95-4.46Z" transform="translate(0 0)"/><path class="cls-9" d="M191.12,25.22c-.37-1.1-5-4.84-2.18-5.47l2.35,3.13,10.76-10.81,1.1,1.09Z" transform="translate(0 0)"/><path class="cls-9" d="M191.12,62c-.37-1.1-5-4.85-2.18-5.48l2.35,3.14,10.76-10.81,1.1,1.09Z" transform="translate(0 0)"/><path class="cls-9" d="M191.12,99.24c-.37-1.1-5-4.85-2.18-5.47l2.35,3.13,10.76-10.81,1.1,1.09Z" transform="translate(0 0)"/><path class="cls-4" d="M223.76,24.09a3.34,3.34,0,1,0-3.32-3.34A3.34,3.34,0,0,0,223.76,24.09Z" transform="translate(0 0)"/><path class="cls-4" d="M289.76,20.42H236.22v.66h53.54Z" transform="translate(0 0)"/><path class="cls-4" d="M223.76,60.84a3.34,3.34,0,1,0-3.32-3.34A3.34,3.34,0,0,0,223.76,60.84Z" transform="translate(0 0)"/><path class="cls-4" d="M289.76,57.16H236.22v.67h53.54Z" transform="translate(0 0)"/><path class="cls-4" d="M223.76,98.11a3.34,3.34,0,1,0-3.32-3.34A3.34,3.34,0,0,0,223.76,98.11Z" transform="translate(0 0)"/><path class="cls-4" d="M289.76,94.44H236.22v.67h53.54Z" transform="translate(0 0)"/><path class="cls-4" d="M199.52,104.21H182.88v-17h11.31v.67H183.56v15.67h15.29V95.87h.67Z" transform="translate(0 0)"/><path class="cls-4" d="M199.52,66.86H182.88v-17h11.31v.67H183.56V66.19h15.29V58.52h.67Z" transform="translate(0 0)"/><path class="cls-4" d="M199.52,28.84H182.88v-17h11.31v.67H183.56V28.17h15.29V20.5h.67Z" transform="translate(0 0)"/></g></svg>