<svg id="Layer_1" data-name="Layer 1" xmlns="http://www.w3.org/2000/svg" xmlns:xlink="http://www.w3.org/1999/xlink" viewBox="0 0 295.3 181.64"><defs><style>.cls-1{fill:none;}.cls-2{clip-path:url(#clip-path);}.cls-3{fill:#e6e6e6;}.cls-4{fill:#2f2e41;}.cls-5{fill:#fbbebe;}.cls-6{fill:#109cf1;}.cls-7{fill:#fff;}</style><clipPath id="clip-path"><rect class="cls-1" width="295.29" height="181.64"/></clipPath></defs><g class="cls-2"><path class="cls-3" d="M40.62,181.64c22.42,0,40.61-2.19,40.61-4.89S63,171.87,40.62,171.87,0,174.05,0,176.75,18.18,181.64,40.62,181.64Z"/><path class="cls-4" d="M51,47.25c0,.11,0,.21-.07.31a27.93,27.93,0,0,0,.5,14.1H28.94l3.54-16.32a8.38,8.38,0,0,1,.75-3.46A8.16,8.16,0,0,1,35.32,39c.16-.13.31-.26.48-.38a8.17,8.17,0,0,1,5-1.68h1.93a8.59,8.59,0,0,1,3.36.68,5.24,5.24,0,0,1,.53.25,8.58,8.58,0,0,1,5.52,9.15A28,28,0,0,0,54.28,61l-1.17.14A27.65,27.65,0,0,1,51,47.25Z"/><path class="cls-5" d="M37.36,49.62s1.78,7.73-1.77,8.32,9.16,2.38,9.16,2.38-.88-6.24,1.19-8.32Z"/><path class="cls-5" d="M22.56,103.13s-.72,9.09,2.37,9.22,1.37-9,1.37-9Z"/><path class="cls-5" d="M63.68,107.61s3,8.63,0,9.52-3.54-8.33-3.54-8.33Z"/><path class="cls-6" d="M48,64.78l4.16-.63,1.75,1.23,1.48,4.46L59,88l2.65,11.9,4.15,8.33-6.8,3L52.44,89.77Z"/><path class="cls-4" d="M31.59,86.94S29.82,98.83,31,101.21c0,0-2.19,13.81-3.84,22.9L24.8,137.2l-5.32,19.93,8.58,2.37,17.43-48.77,5,27.36.88,19.63,9.18-.3-1.18-34.2s5.32-22.6-3.85-30.93S44.91,84,44.91,84Z"/><path class="cls-4" d="M57.76,156.54l2.38,8,1.46,7.13s5.33,8,0,7.14S55.69,175,55.69,175v-1.78l-1.48-.89v-3s-2.07-1.48,0-3.86l-.88-8.33Z"/><path class="cls-4" d="M21.68,156.54l-2.36,8-1.48,7.13s-5.32,8,0,7.14S23.75,175,23.75,175v-1.78l1.48-.89v-3s2.07-1.48,0-3.86l.9-8.33Z"/><path class="cls-5" d="M43,53.78a7.44,7.44,0,1,0-7.39-7.44A7.42,7.42,0,0,0,43,53.78Z"/><path class="cls-6" d="M35.59,56.46s7.68,3.27,9.75,2.67S48,61.21,48,61.21l5.91,4.17L52.14,75.49s1.48,5.35-.29,8.92c0,0,4.74,1.49,3,3.87a3.9,3.9,0,0,1,1.47,5.35s-8.86-2.38-9.75-6.84L37.36,88,30.85,93s-3.24-.3-2.07-5.06a17,17,0,0,0-.29-8.92L25.23,58.24Z"/><path class="cls-6" d="M26.21,58,25,58.28A2.06,2.06,0,0,0,24,59l-.38.45A2.7,2.7,0,0,0,23,61l-.27,3.79-.42,18.46.38,12.19-1.94,9.1L28,105.7l1-22.37L27.19,58.66a.75.75,0,0,0-.1-.33,1,1,0,0,0-.22-.25,1,1,0,0,0-.32-.13A.78.78,0,0,0,26.21,58Z"/><path class="cls-4" d="M44.43,60.81c-1.21-3-3-6.08-4.2-8.88-.83-3.28-1-6.08.82-7.52,0-3.15.11-5.21-2.38-6.75a8.45,8.45,0,0,0-1.69,1h0l-.29.23-.11.1-.07,0h0a8.28,8.28,0,0,0-2.1,2.84,8.41,8.41,0,0,0-.75,3.46V61.07h9.16c-.29-1.33-.69-2.71-1.11-4.08.65,1.33,1.31,2.67,1.84,4Z"/><path class="cls-4" d="M51.4,44.41c-4,1.13-8.51,1-13.3,0V38.47h7.39a5.85,5.85,0,0,1,4.18,1.74,5.92,5.92,0,0,1,1.73,4.2Z"/><path class="cls-3" d="M295.3,13.51H111.86V128.4H295.3Z"/><path class="cls-7" d="M157.76,35.65h-33.6v22h33.6Z"/><path class="cls-7" d="M199.51,35.65H165.9v22h33.61Z"/><path class="cls-7" d="M241.24,35.65H207.65v22h33.59Z"/><path class="cls-7" d="M283,35.65H249.4v22H283Z"/><path class="cls-7" d="M157.76,66.73h-33.6v22h33.6Z"/><path class="cls-7" d="M199.51,66.73H165.9v22h33.61Z"/><path class="cls-7" d="M241.24,66.73H207.65v22h33.59Z"/><path class="cls-7" d="M283,66.73H249.4v22H283Z"/><path class="cls-7" d="M157.76,97.82h-33.6v22h33.6Z"/><path class="cls-7" d="M199.51,97.82H165.9v22h33.61Z"/><path class="cls-7" d="M241.24,97.82H207.65v22h33.59Z"/><path class="cls-7" d="M283,97.82H249.4v22H283Z"/><path class="cls-7" d="M159.9,27a5.07,5.07,0,1,0-5-5.06A5,5,0,0,0,159.9,27Z"/><path class="cls-7" d="M243.23,27a5.07,5.07,0,1,0-5-5.06A5,5,0,0,0,243.23,27Z"/><path class="cls-3" d="M161.92,0h-4V23.32h4Z"/><path class="cls-3" d="M245.24,0h-4V23.32h4Z"/><path class="cls-6" d="M273.8,46.63a7.67,7.67,0,0,1-1.86,5,7.56,7.56,0,0,1-13-2.88,7.75,7.75,0,0,1,.39-5.32,7.59,7.59,0,0,1,14.47,3.21Z"/><path class="cls-7" d="M272.62,42.55l-7.47,7.52c-.48-.73-3.1-4.14-3.1-4.14a9.68,9.68,0,0,1,1.07-1l2.18,2.91,6.44-6.48A8.23,8.23,0,0,1,272.62,42.55Z"/><path class="cls-6" d="M190.3,77.72a7.64,7.64,0,0,1-1.86,5,7.57,7.57,0,0,1-9.84,1.4,7.61,7.61,0,1,1,10.53-10.48A7.77,7.77,0,0,1,190.3,77.72Z"/><path class="cls-7" d="M189.13,73.63l-7.48,7.52c-.47-.73-3.09-4.13-3.09-4.13a11.81,11.81,0,0,1,1.06-1L181.8,79l6.45-6.48A8,8,0,0,1,189.13,73.63Z"/><path class="cls-6" d="M148.55,77.72a7.64,7.64,0,0,1-1.86,5,7.56,7.56,0,0,1-13-2.88,7.74,7.74,0,0,1,.4-5.32,7.57,7.57,0,0,1,14.45,3.21Z"/><path class="cls-7" d="M147.38,73.63l-7.48,7.52c-.47-.73-3.09-4.13-3.09-4.13a9.79,9.79,0,0,1,1.08-1L140.06,79l6.44-6.48A7.3,7.3,0,0,1,147.38,73.63Z"/></g></svg>