<svg id="Layer_1" data-name="Layer 1" xmlns="http://www.w3.org/2000/svg" xmlns:xlink="http://www.w3.org/1999/xlink" viewBox="0 0 297.88 124.42"><defs><style>.cls-1,.cls-11,.cls-19{fill:none;}.cls-2{clip-path:url(#clip-path);}.cls-3{fill:#3f3d56;}.cls-4{fill:#57b894;}.cls-11,.cls-18,.cls-5{opacity:0.1;}.cls-11,.cls-13,.cls-21,.cls-5,.cls-8{isolation:isolate;}.cls-6{fill:#f2f2f2;}.cls-7,.cls-8{fill:#109cf1;}.cls-8{opacity:0.3;}.cls-9{fill:#192534;}.cls-10{fill:#a0616a;}.cls-11{stroke:#000;}.cls-11,.cls-19{stroke-miterlimit:10;}.cls-12{fill:#ffc1c7;}.cls-13{opacity:0.05;}.cls-14{fill:#fbbebe;}.cls-15{fill:url(#linear-gradient);}.cls-16{fill:#575a89;}.cls-17{fill:#cbceda;}.cls-19{stroke:#3f3d56;stroke-width:4px;}.cls-20{fill:#656380;}.cls-21{opacity:0.2;}</style><clipPath id="clip-path"><rect class="cls-1" y="0.01" width="297.88" height="124.4"/></clipPath><linearGradient id="linear-gradient" x1="82.44" y1="46.25" x2="82.44" y2="46.31" gradientTransform="matrix(1, 0, 0, -1, 0, 161.5)" gradientUnits="userSpaceOnUse"><stop offset="0" stop-color="gray" stop-opacity="0.25"/><stop offset="0.54" stop-color="gray" stop-opacity="0.12"/><stop offset="1" stop-color="gray" stop-opacity="0.1"/></linearGradient></defs><g class="cls-2"><path class="cls-3" d="M148.94,124.42c82.25,0,148.94-2.37,148.94-5.29s-66.69-5.29-148.94-5.29S0,116.21,0,119.13,66.69,124.42,148.94,124.42Z"/><path class="cls-3" d="M265.1,89.57a6.14,6.14,0,0,0,.83-3.15c0-2.86-1.77-5.17-4-5.17s-4,2.31-4,5.17a6.33,6.33,0,0,0,.82,3.15,6.48,6.48,0,0,0,0,6.31,6.5,6.5,0,0,0,0,6.32,6.48,6.48,0,0,0,0,6.31,6.33,6.33,0,0,0-.82,3.15c0,2.86,1.77,5.17,4,5.17s4-2.31,4-5.17a6.14,6.14,0,0,0-.83-3.15,6.41,6.41,0,0,0,0-6.31,6.43,6.43,0,0,0,0-6.32,6.41,6.41,0,0,0,0-6.31Z"/><path class="cls-3" d="M262,85.27c2.19,0,4-2.31,4-5.17s-1.78-5.16-4-5.16-4,2.31-4,5.16S259.76,85.27,262,85.27Z"/><path class="cls-3" d="M262,79c2.19,0,4-2.31,4-5.16s-1.78-5.17-4-5.17-4,2.32-4,5.17S259.76,79,262,79Z"/><path class="cls-4" d="M247.1,30.6a20.15,20.15,0,0,1-1.47-2.17l10.42-1.7-11.28.09A19.19,19.19,0,0,1,243,19.37a18.85,18.85,0,0,1,1.38-7.53l15.12,7.81L245.6,9.45a18.77,18.77,0,0,1,5.15-5.75A19,19,0,0,1,280.83,16,18.81,18.81,0,0,1,277,30.59,18.2,18.2,0,0,1,279.14,34l-13.53,7L280,36.22a19,19,0,0,1,.72,9.26A18.8,18.8,0,0,1,277,54a18.84,18.84,0,0,1-4.85,27.71,19,19,0,0,1-27.18-7.77A18.87,18.87,0,0,1,247.1,54a18.83,18.83,0,0,1,0-23.36Z"/><path class="cls-5" d="M281,42.28A18.66,18.66,0,0,1,277,54a19,19,0,1,1-29.87,0C244.56,50.75,281,40.16,281,42.28Z"/><path class="cls-6" d="M249.3,1.77H48.57A5.16,5.16,0,0,0,43.4,6.91v104.5a5.16,5.16,0,0,0,5.17,5.14H249.3a5.15,5.15,0,0,0,5.17-5.14V6.91A5.16,5.16,0,0,0,249.3,1.77Z"/><path class="cls-7" d="M43.53,7.44h67.83V116.67H48.7a5.16,5.16,0,0,1-5.17-5.14Z"/><path class="cls-3" d="M254.47,6.92V9.83H43.4V6.92a5.07,5.07,0,0,1,1.52-3.64,5.36,5.36,0,0,1,1.67-1.11,5.18,5.18,0,0,1,2-.39H249.3a5.14,5.14,0,0,1,2,.39A5.29,5.29,0,0,1,253,3.28,5.22,5.22,0,0,1,254.08,5,5.09,5.09,0,0,1,254.47,6.92Z"/><path class="cls-7" d="M48.85,7.44a1.51,1.51,0,1,0,0-3,1.51,1.51,0,1,0,0,3Z"/><path class="cls-7" d="M52.64,7.44a1.51,1.51,0,1,0-1.52-1.51A1.51,1.51,0,0,0,52.64,7.44Z"/><path class="cls-7" d="M56.44,7.44a1.51,1.51,0,1,0,0-3,1.51,1.51,0,1,0,0,3Z"/><path class="cls-8" d="M242,23.45H154.82a.31.31,0,0,0-.31.31v2.15a.31.31,0,0,0,.31.31H242a.32.32,0,0,0,.32-.31V23.76A.32.32,0,0,0,242,23.45Z"/><path class="cls-7" d="M240.74,28.74H222.9a.31.31,0,0,0-.31.31v5.67a.31.31,0,0,0,.31.31h17.84a.31.31,0,0,0,.32-.31V29.05A.31.31,0,0,0,240.74,28.74Z"/><path class="cls-8" d="M242,57.12H154.82a.31.31,0,0,0-.31.31v2.15a.31.31,0,0,0,.31.31H242a.32.32,0,0,0,.32-.31V57.43A.32.32,0,0,0,242,57.12Z"/><path class="cls-7" d="M240.74,62.41H222.9a.31.31,0,0,0-.31.31v5.67a.31.31,0,0,0,.31.31h17.84a.31.31,0,0,0,.32-.31V62.72A.31.31,0,0,0,240.74,62.41Z"/><path class="cls-8" d="M242,91.35H154.82a.31.31,0,0,0-.31.31v2.15a.31.31,0,0,0,.31.31H242a.32.32,0,0,0,.32-.31V91.66A.32.32,0,0,0,242,91.35Z"/><path class="cls-7" d="M240.74,96.64H222.9a.31.31,0,0,0-.31.31v5.67a.31.31,0,0,0,.31.31h17.84a.31.31,0,0,0,.32-.31V97A.31.31,0,0,0,240.74,96.64Z"/><path class="cls-3" d="M135.45,75.37a12.46,12.46,0,1,0-12.53-12.46A12.5,12.5,0,0,0,135.45,75.37Z"/><path class="cls-9" d="M146.51,69.48a.47.47,0,0,1-.06.09c-.14.22-.28.44-.43.65a12.64,12.64,0,0,1-5.52,4.27c-.21.09-.43.17-.66.25a6,6,0,0,1-.58-.55,4.33,4.33,0,0,1-1-2.09,6,6,0,0,1-1,.09.17.17,0,0,1-.1,0,6.61,6.61,0,0,1-5.85-4.65l0-.11a9.45,9.45,0,0,1-.2-5.47l.06-.18c.86-2.93,3.11-5.05,5.8-5.22h.57c3.4.12,6.14,3.39,6.27,7.48a4.45,4.45,0,0,1,1.59,1.85,4.34,4.34,0,0,1,.33,2.41A4.39,4.39,0,0,1,146.51,69.48Z"/><path class="cls-5" d="M146.45,69.57c-.14.22-.28.44-.44.65a4,4,0,0,0-.68-.9,3.18,3.18,0,0,0,0-.62,4.37,4.37,0,0,0-2-3.63c-.15-4.18-3-7.52-6.51-7.52a6.45,6.45,0,0,0-5.75,4.19,1.63,1.63,0,0,0-.09.19c-.09.22-.17.44-.25.67a9.45,9.45,0,0,1,.37-1.36l0,0a6.63,6.63,0,0,1,5.7-4.68h.58c3.35.2,6,3.46,6.17,7.51a4.31,4.31,0,0,1,1.58,1.85,4.25,4.25,0,0,1,.35,2.41A4.32,4.32,0,0,1,146.45,69.57Z"/><path class="cls-10" d="M133.25,66a1.77,1.77,0,0,1-.08.76c-.15.34-.52.65-.41,1A.75.75,0,0,0,133,68a.82.82,0,0,0,.33.15,12.27,12.27,0,0,0,3.44.2,11,11,0,0,0,1.15,0,1.84,1.84,0,0,0,1.07-.37A8.65,8.65,0,0,1,137.28,67a2.11,2.11,0,0,1-.35-.32,2,2,0,0,1-.29-1.15v-1.2h-2.48c-.25,0-1.06-.07-1.16.22-.05.14.13.55.15.71A6.26,6.26,0,0,1,133.25,66Z"/><path class="cls-5" d="M133.25,66a1.77,1.77,0,0,1-.08.76c-.15.34-.52.65-.41,1A.75.75,0,0,0,133,68a.82.82,0,0,0,.33.15,12.27,12.27,0,0,0,3.44.2,11,11,0,0,0,1.15,0,1.84,1.84,0,0,0,1.07-.37A8.65,8.65,0,0,1,137.28,67a2.11,2.11,0,0,1-.35-.32,2,2,0,0,1-.29-1.15v-1.2h-2.48c-.25,0-1.06-.07-1.16.22-.05.14.13.55.15.71A6.26,6.26,0,0,1,133.25,66Z"/><path class="cls-10" d="M135,65.63a2.9,2.9,0,1,0-2.91-2.9A2.92,2.92,0,0,0,135,65.63Z"/><path class="cls-7" d="M140.46,71.13a2.42,2.42,0,0,1,0,.25,7.23,7.23,0,0,1-.42,1.37,6.09,6.09,0,0,1-.37.88c-.12.19-.27.37-.38.56l-.16.27a3,3,0,0,0-.27.57,13,13,0,0,1-1.49.27,14.52,14.52,0,0,1-1.48.08,13.72,13.72,0,0,1-7.51-2.07s.29-.21.25-.25,0-.23,0-.35a2.66,2.66,0,0,1,.14-.88,1.81,1.81,0,0,1,.44-.71c.25-.25.58-.41.86-.65a2.56,2.56,0,0,0,.71-1.22,4.61,4.61,0,0,0,.14-.62,3.86,3.86,0,0,1,.24-.82s0-.06.06-.1a.55.55,0,0,1,.14-.17,2.85,2.85,0,0,1,.89-.6c.27-.14.66-.25.85,0v0a3.89,3.89,0,0,1,.16.44c.15.32.59.36.93.35a28.69,28.69,0,0,0,3.7-.3l.59-.1c.42-.07.72.3,1,.67A5,5,0,0,1,140.46,71.13Z"/><path class="cls-11" d="M131.58,71.32c-.27.06-.43.34-.56.58a2.27,2.27,0,0,0-.3,1.34,2,2,0,0,0,.06.55.7.7,0,0,0,.32.43"/><path class="cls-9" d="M138.84,61.46c.22-.85-1-1.91-2.75-2.35s-3.33-.11-3.55.75,1,1.9,2.75,2.34S138.62,62.31,138.84,61.46Z"/><path class="cls-5" d="M135.45,61.6c-1.54-.39-2.68-1.26-2.79-2.06a.87.87,0,0,0-.14.31c-.22.85,1,1.9,2.75,2.34s3.33.11,3.55-.75a.94.94,0,0,0,0-.29C138.37,61.78,137,62,135.45,61.6Z"/><path class="cls-10" d="M140.54,73.18c0,.44,0,.87,0,1.3-.21.09-.43.18-.66.26a8.89,8.89,0,0,1-1,.28,9.3,9.3,0,0,1-1.49.27,17.81,17.81,0,0,1-.19-3.1,5,5,0,0,1,.82-2.27,1.89,1.89,0,0,1,.73-.7,1,1,0,0,1,.5-.11,1,1,0,0,1,.47.18,1.46,1.46,0,0,1,.36.64,12.53,12.53,0,0,1,.41,1.45,1.11,1.11,0,0,0,0,.17A11.06,11.06,0,0,1,140.54,73.18Z"/><path class="cls-3" d="M148,97.14a12.35,12.35,0,0,1-1.52,6q-.17.3-.36.6a.41.41,0,0,1,0,.09c-.14.22-.28.44-.44.65a12.17,12.17,0,0,1-3.59,3.3l-.07,0a12.9,12.9,0,0,1-1.43.74l-.41.18c-.15,0-.28.11-.43.15l-.21.08h0a4.42,4.42,0,0,1-.48.15l-.11,0-.42.11a12.74,12.74,0,0,1-1.5.27,11.8,11.8,0,0,1-1.46.09h-.15a12.67,12.67,0,0,1-2-.19l-.11,0-.38-.08-.24,0a6.05,6.05,0,0,1-.73-.2,12,12,0,0,1-1.45-.54l-.06,0a12.74,12.74,0,0,1-2-1.11l-.15-.11a12.46,12.46,0,0,1-4.06-4.84,12.61,12.61,0,0,1-1.17-6.2,12.41,12.41,0,0,1,2-6,12.56,12.56,0,0,1,17-3.77A12.41,12.41,0,0,1,146.39,91a12.2,12.2,0,0,1,1.61,6.1Z"/><path class="cls-9" d="M138.47,94.14a2.6,2.6,0,0,1-.81,1.79,2.68,2.68,0,0,1-1.83.74,2.71,2.71,0,0,1-1.85-.74,2.6,2.6,0,0,1-.81-1.79V94a2.63,2.63,0,0,1,.77-1.87,2.66,2.66,0,0,1,1.89-.77A2.63,2.63,0,0,1,138.47,94Z"/><path class="cls-5" d="M138.47,94.13a2.6,2.6,0,0,1-.81,1.8,2.67,2.67,0,0,1-1.83.73,2.7,2.7,0,0,1-1.85-.73,2.6,2.6,0,0,1-.81-1.8V94a4.17,4.17,0,0,1,5.3,0Z"/><path class="cls-9" d="M135.83,101.65a4.18,4.18,0,1,0-4.2-4.17A4.18,4.18,0,0,0,135.83,101.65Z"/><path class="cls-9" d="M133.28,93.55a2.64,2.64,0,0,1,.65-1.74,2.71,2.71,0,0,1,1.66-.88,2.69,2.69,0,0,0-1.13.09,2.74,2.74,0,0,0-1,.54,2.83,2.83,0,0,0-.67.9,2.74,2.74,0,0,0-.24,1.09,2.79,2.79,0,0,0,.24,1.1,2.68,2.68,0,0,0,.67.89,2.76,2.76,0,0,0,1,.55,2.86,2.86,0,0,0,1.13.08,2.62,2.62,0,0,1-1.66-.88A2.64,2.64,0,0,1,133.28,93.55Z"/><path class="cls-9" d="M131.08,99.17a2.65,2.65,0,0,1-.45-3.45,3,3,0,0,0-.25.25,2.65,2.65,0,0,0-.55.89,2.83,2.83,0,0,0-.16,1,2.91,2.91,0,0,0,.27,1,2.64,2.64,0,0,0,.64.84,2.57,2.57,0,0,0,.91.52,2.43,2.43,0,0,0,1,.13,2.54,2.54,0,0,0,1-.28,2.49,2.49,0,0,0,.82-.65,3,3,0,0,0,.22-.28,2.66,2.66,0,0,1-1.74.65A2.69,2.69,0,0,1,131.08,99.17Z"/><path class="cls-12" d="M133.62,102.77a2.29,2.29,0,0,0-.62.22,1,1,0,0,0-.23,1.17,3.18,3.18,0,0,0,1.7,2.21,4.26,4.26,0,0,0,1.73.26A2.18,2.18,0,0,0,138,106a2.13,2.13,0,0,0,.35-.87,6.55,6.55,0,0,0,.32-2.32,1.55,1.55,0,0,1-1.12-.18,2.44,2.44,0,0,1-.5-1.09.22.22,0,0,0-.1-.15.27.27,0,0,0-.17,0,7,7,0,0,1-1.21-.05c-.25,0-.87-.29-1.05-.07s-.06.64-.16.86a1.11,1.11,0,0,1-.29.39A1.15,1.15,0,0,1,133.62,102.77Z"/><path class="cls-13" d="M133.62,102.77a2.29,2.29,0,0,0-.62.22,1,1,0,0,0-.23,1.17,3.18,3.18,0,0,0,1.7,2.21,4.26,4.26,0,0,0,1.73.26A2.18,2.18,0,0,0,138,106a2.13,2.13,0,0,0,.35-.87,6.55,6.55,0,0,0,.32-2.32,1.55,1.55,0,0,1-1.12-.18,2.44,2.44,0,0,1-.5-1.09.22.22,0,0,0-.1-.15.27.27,0,0,0-.17,0,7,7,0,0,1-1.21-.05c-.25,0-.87-.29-1.05-.07s-.06.64-.16.86a1.11,1.11,0,0,1-.29.39A1.15,1.15,0,0,1,133.62,102.77Z"/><path class="cls-12" d="M135.76,102.41a2.92,2.92,0,1,0-2.94-2.92A2.93,2.93,0,0,0,135.76,102.41Z"/><path class="cls-7" d="M142.19,105.82a.56.56,0,0,0-.05.08l-.13.16a9.53,9.53,0,0,0-1.51,2.48l-.41.17-.42.16-.22.08h0l-.48.15-.11,0-.42.11a12.74,12.74,0,0,1-1.5.27,14.13,14.13,0,0,1-1.46.08h-.15a11.52,11.52,0,0,1-2-.18l-.11,0-.38-.08-.24,0c-.25-.06-.49-.12-.73-.2a2.24,2.24,0,0,1,.54-1.14c-.57-.67-1.51-.94-2.12-1.58,0-.06-.1-.12-.14-.19A.51.51,0,0,1,130,106a.25.25,0,0,1,0-.14.86.86,0,0,1,0-.28,2.36,2.36,0,0,1,.57-2,2.79,2.79,0,0,1,.9-.4,12.47,12.47,0,0,0,1.66-.66,1.39,1.39,0,0,1,.09.35c0,.29,0,.6.11.89a2.19,2.19,0,0,0,.9,1.26,3.57,3.57,0,0,0,1.49.54,3,3,0,0,0,1.43-.38,1.72,1.72,0,0,0,.59-.33A1.42,1.42,0,0,0,138,104c0-.34,0-.67,0-1,0,0,0-.07,0-.1a.46.46,0,0,1,.08-.25.45.45,0,0,1,.21-.15.54.54,0,0,1,.28,0l1,.36a6.91,6.91,0,0,1,1.17.54,3.3,3.3,0,0,1,1,1A3.21,3.21,0,0,1,142.19,105.82Z"/><path class="cls-5" d="M133.27,109.41l-.12,0a2.21,2.21,0,0,1-.37-.08l-.24,0a6.05,6.05,0,0,1-.73-.2,12,12,0,0,1-1.45-.54,6.12,6.12,0,0,1-.26-2.37,4.24,4.24,0,0,1,.21-1c.54.5,1.44.22,2.05.62a1.24,1.24,0,0,1,.38.44,3.14,3.14,0,0,1,.35,1c0,.2.06.4.1.6V108c0,.14,0,.29,0,.43A7.79,7.79,0,0,1,133.27,109.41Z"/><path class="cls-7" d="M133.15,109.39l-.37-.08-.24,0a6.05,6.05,0,0,1-.73-.2,12,12,0,0,1-1.45-.54l-.06,0a6.2,6.2,0,0,1-.32-2.63,4.36,4.36,0,0,1,.21-1c.52.5,1.44.22,2,.63a1.38,1.38,0,0,1,.5.66,3.8,3.8,0,0,1,.22.8c.06.29.11.59.15.89a.49.49,0,0,1,0,.12v.2A11.43,11.43,0,0,1,133.15,109.39Z"/><path class="cls-5" d="M141.94,107.8a13,13,0,0,1-1.44.74l-.41.18c-.14,0-.27.11-.42.15l-.22.08h0a4.42,4.42,0,0,1-.48.15l-.11,0c0-.22,0-.45,0-.68l.07-.54a.38.38,0,0,1,0-.1v-.06c0-.17.06-.34.09-.52a3.41,3.41,0,0,1,.34-1,1.28,1.28,0,0,1,.39-.44c.61-.4,1.52-.13,2-.62a3.57,3.57,0,0,1,.21.9A5.71,5.71,0,0,1,141.94,107.8Z"/><path class="cls-7" d="M142,107.75l-.07,0a13,13,0,0,1-1.44.74l-.41.18c-.14,0-.27.11-.42.15l-.22.08h0a4.42,4.42,0,0,1-.48.15,6.48,6.48,0,0,1,0-.88,1.69,1.69,0,0,1,0-.23v-.18q.06-.41.15-.81a3.54,3.54,0,0,1,.21-.79,1.41,1.41,0,0,1,.51-.67c.6-.4,1.51-.13,2-.63a4.74,4.74,0,0,1,.2,1A5.81,5.81,0,0,1,142,107.75Z"/><path class="cls-9" d="M135.7,99.08c2,0,3.53-1,3.53-2.33s-1.58-2.34-3.53-2.34-3.52,1-3.52,2.34S133.76,99.08,135.7,99.08Z"/><path class="cls-13" d="M132.78,109v.34s0,0,0,0l-.24-.06v-.13a1.5,1.5,0,0,1,.15-.68,1.59,1.59,0,0,1,.41-.55.16.16,0,0,1,.08-.06,1.56,1.56,0,0,1,.45-.26,1.94,1.94,0,0,1,.48-.09h.11a1.62,1.62,0,0,0-1,.51.36.36,0,0,0-.08.09A1.62,1.62,0,0,0,132.78,109Z"/><path class="cls-7" d="M135.36,109.13a4,4,0,0,1-.06.47,12.57,12.57,0,0,1-2-.19l-.12,0-.37-.08V109a1.87,1.87,0,0,1,.33-.94l.08-.09a1,1,0,0,1,.44-.34,1.08,1.08,0,0,1,.43-.1h.16A1.58,1.58,0,0,1,135.36,109.13Z"/><path class="cls-13" d="M139.67,108.87l-.22.08a1.54,1.54,0,0,0-.45-1l-.07-.07a1.62,1.62,0,0,0-.91-.41h-.08a.2.2,0,0,1,.11,0,.09.09,0,0,1,.07,0,1.28,1.28,0,0,1,.48.09,1.58,1.58,0,0,1,.35.16l.07.06a1.57,1.57,0,0,1,.43.46A1.41,1.41,0,0,1,139.67,108.87Z"/><path class="cls-7" d="M139.45,109h0a4.42,4.42,0,0,1-.48.15l-.11,0-.42.11a12.74,12.74,0,0,1-1.5.27,2.56,2.56,0,0,1,0-.39A1.56,1.56,0,0,1,138,107.5h.15a1,1,0,0,1,.43.1.86.86,0,0,1,.33.23.19.19,0,0,1,.08.07A1.76,1.76,0,0,1,139.45,109Z"/><path class="cls-5" d="M135.7,98.85c-1.88,0-3.42-1-3.52-2.22v.12c0,1.29,1.58,2.33,3.53,2.33s3.52-1,3.52-2.33v-.12C139.14,97.87,137.58,98.85,135.7,98.85Z"/><path class="cls-3" d="M122.92,29.24a12.22,12.22,0,0,0,1.52,6c.11.2.22.41.35.61a.42.42,0,0,0,.06.08,5.67,5.67,0,0,0,.45.64,11.8,11.8,0,0,0,1.81,2,4.47,4.47,0,0,0,.4.34,12.16,12.16,0,0,0,1.37,1l.07,0a14.86,14.86,0,0,0,1.43.74l.42.17.43.16.21.08h0l.47.15.11,0a2.26,2.26,0,0,0,.43.11c.2.05.38.1.58.13a9.07,9.07,0,0,0,.91.14,11.92,11.92,0,0,0,1.46.09h.15a11.62,11.62,0,0,0,2-.19l.12,0,.37-.07.24-.06c.25-.05.5-.12.73-.19l.44-.15a8.44,8.44,0,0,0,.88-.34l.13-.05.05,0a8.74,8.74,0,0,0,1.1-.56c.3-.17.59-.36.88-.55h0l.13-.09a12.49,12.49,0,1,0-19.79-10.15Z"/><path class="cls-7" d="M138.23,34.18a1.17,1.17,0,0,1,.37.62,1.61,1.61,0,0,1-1.09-.25,13.6,13.6,0,0,0-3.29-1.06.56.56,0,0,1-.27-.1.47.47,0,0,1-.08-.26.4.4,0,0,1,.11-.27c.12-.13.36-.11.53-.12a4.91,4.91,0,0,1,3.72,1.43Z"/><path class="cls-14" d="M134.52,33.18a1.41,1.41,0,0,1-.33.5,1.53,1.53,0,0,1-.5.34c-.2.07-.43.08-.64.14a.62.62,0,0,0-.28.14.64.64,0,0,0-.21.25,1.18,1.18,0,0,0,0,.27,5.87,5.87,0,0,0,.28,2.57,5.79,5.79,0,0,0,1.41,1.75,6,6,0,0,0,2.15,1.49,1.63,1.63,0,0,0,1.48-.14,2.37,2.37,0,0,0,.41-.48,5.54,5.54,0,0,0,.7-1.2,5.59,5.59,0,0,0,.12-2.82.22.22,0,0,0-.06-.15.29.29,0,0,0-.18,0,1,1,0,0,1-1.05-.6,1.33,1.33,0,0,1-.06-.56V33.58a1,1,0,0,0,0-.35.89.89,0,0,0-.46-.39,11.82,11.82,0,0,0-1.85-.72c-.27-.08-.49-.22-.6.08S134.67,32.87,134.52,33.18Z"/><path class="cls-5" d="M134.52,33.18a1.41,1.41,0,0,1-.33.5,1.53,1.53,0,0,1-.5.34c-.2.07-.43.08-.64.14a.62.62,0,0,0-.28.14.64.64,0,0,0-.21.25,1.18,1.18,0,0,0,0,.27,5.87,5.87,0,0,0,.28,2.57,5.79,5.79,0,0,0,1.41,1.75,6,6,0,0,0,2.15,1.49,1.63,1.63,0,0,0,1.48-.14,2.37,2.37,0,0,0,.41-.48,5.54,5.54,0,0,0,.7-1.2,5.59,5.59,0,0,0,.12-2.82.22.22,0,0,0-.06-.15.29.29,0,0,0-.18,0,1,1,0,0,1-1.05-.6,1.33,1.33,0,0,1-.06-.56V33.58a1,1,0,0,0,0-.35.89.89,0,0,0-.46-.39,11.82,11.82,0,0,0-1.85-.72c-.27-.08-.49-.22-.6.08S134.67,32.87,134.52,33.18Z"/><path class="cls-14" d="M137.46,34.05a3.29,3.29,0,1,0-3.31-3.29A3.3,3.3,0,0,0,137.46,34.05Z"/><path class="cls-6" d="M133.06,41.48l.92.14a10.13,10.13,0,0,0,1.46.08h.15a11.41,11.41,0,0,0,2-.18l.12,0,.38-.08.23-.05a7.22,7.22,0,0,0,.74-.2l.44-.15a8.44,8.44,0,0,0,.88-.34,5.23,5.23,0,0,1-.18-.68,8.23,8.23,0,0,1-.1-1.49c0-.4,0-.79,0-1.19a2.77,2.77,0,0,0-.14-1,1.22,1.22,0,0,0-.23-.42,1.45,1.45,0,0,0-.39-.3,1.7,1.7,0,0,0-1.31-.06l-.12.08a.69.69,0,0,0-.19.25c-.11.3-.25.6-.36.91a2.81,2.81,0,0,1-.3.6,1.47,1.47,0,0,1-.73.52,1.49,1.49,0,0,1-.91,0l-.11,0c-.5-.2-1-.65-1.49-.53a1,1,0,0,0-.4.21.93.93,0,0,0-.26.36.13.13,0,0,1,0,0,2.57,2.57,0,0,0-.18.82A11.76,11.76,0,0,0,133.06,41.48Z"/><path class="cls-7" d="M127.11,38.53a3.26,3.26,0,0,0,.4.34,11,11,0,0,0,1.37,1l.07,0a12.9,12.9,0,0,0,1.43.74l.42.18.41.15.23.08h0a3.68,3.68,0,0,0,.47.15l.11,0,.43.11.58.13c.29.05.6.11.91.14a11.92,11.92,0,0,0,1.46.09h.15a12.67,12.67,0,0,0,2-.19l.11,0,.38-.08.24,0c.25-.06.5-.12.73-.2l.44-.14c.3-.11.6-.22.88-.34l.13-.06.05,0c.38-.17.75-.36,1.1-.56a17.51,17.51,0,0,0,.63-2v0c-.39-.69-.74-1.42-1.13-2.12a1.71,1.71,0,0,0-.53-.66,1.54,1.54,0,0,0-.77-.31,3.11,3.11,0,0,0-.86-.16,2.67,2.67,0,0,1-.48-.08c-.33-.07-.69-.15-.82,0h0v0a.67.67,0,0,0,.06.5c0,.16.12.33.17.46a.76.76,0,0,1,0,.21,6.47,6.47,0,0,1,0,.88,11.06,11.06,0,0,1-.43,1.22c0,.2-.06.4-.1.6a6.49,6.49,0,0,1-.35,1.31,1.26,1.26,0,0,1-.13.26c-.2.25-.56.15-.88.1s-.22-.56-.25-.86a4.65,4.65,0,0,0-.47-1.45l-.08-.18c-.25-.52-.51-1-.74-1.57a2.73,2.73,0,0,1-.37-2.06c.08-.2.19-.38.27-.57l0-.09a.62.62,0,0,0,0-.23.5.5,0,0,0,0-.21.54.54,0,0,0-.11-.18l0,0,0,0a.6.6,0,0,0-.27-.07.5.5,0,0,0-.27,0,2.08,2.08,0,0,0-.3.13c-.49.28-1,.59-1.44.92a.72.72,0,0,0-.29.35c0,.09,0,.19-.05.28s-.29.23-.47.27a6,6,0,0,0-2.12,1,5.8,5.8,0,0,0-1.55,1.72,2.89,2.89,0,0,0-.32.69A2.7,2.7,0,0,0,127.11,38.53Z"/><path class="cls-9" d="M138.91,28.91a2.41,2.41,0,0,1-1.81.46l0-.25-.91.32a2.25,2.25,0,0,0,.6-.63.53.53,0,0,0-.22-.08.54.54,0,0,0-.22.05,1,1,0,0,0-.33.33,2.87,2.87,0,0,0-.46,1.26,2.93,2.93,0,0,0,.13,1.35.67.67,0,0,1-.28.06.56.56,0,0,1-.29-.1,1,1,0,0,1-.37-.47c-.06-.12-.11-.25-.24-.3a.3.3,0,0,0-.16,0,.22.22,0,0,0-.12.11.52.52,0,0,0-.07.32c0,.25.22.5.27.75s.41.46.21.63a2.89,2.89,0,0,1-.72.16.29.29,0,0,1-.12-.07.26.26,0,0,1-.08-.13,7.44,7.44,0,0,1-.25-1.41,3.59,3.59,0,0,0-.53-1,1.31,1.31,0,0,0-.19-.27.61.61,0,0,1-.2-.22c0-.09,0-.22.13-.2-.16-.15-.33-.29-.5-.42.17-.22.34-.44.5-.67a.31.31,0,0,0,.08-.27l-.1-.1-.46-.3c0-.21.43-.13.49-.33a.22.22,0,0,0,0-.16l-.15-.57.6.27a.33.33,0,0,0,.22.05c.16,0,.23-.2.26-.36a1.07,1.07,0,0,1,0-.47h.81a.47.47,0,0,0-.09-.38l2-.11a2.86,2.86,0,0,1,1,.07.81.81,0,0,0,.35.07.19.19,0,0,0,.19-.22,3.23,3.23,0,0,1,.81.62.83.83,0,0,0,.23.19.25.25,0,0,0,.15,0,.19.19,0,0,0,.13-.06c.06-.05.08-.16.16-.16s.09,0,.13.08a2,2,0,0,1,.27.47,1.38,1.38,0,0,0,.41-.11.53.53,0,0,0-.11.24.44.44,0,0,0,.05.27,4.31,4.31,0,0,0,.26.47,2.05,2.05,0,0,1,.16.55c0,.24,0,.53-.17.65a.65.65,0,0,1-.31,0,.76.76,0,0,1-.28-.15C139.37,28.43,139.28,28.53,138.91,28.91Z"/><path class="cls-7" d="M127.51,38.87a11,11,0,0,0,1.37,1l.07,0a12.9,12.9,0,0,0,1.43.74l.42.18.41.15.23.08c-.09-.25-.15-.5-.23-.75a4.26,4.26,0,0,0-1.08-1.78c-.43-.43-1.13-1.06-1.77-.68a2,2,0,0,0-.51.48,2,2,0,0,0-.31.47Z"/><path class="cls-7" d="M139.53,41a8.44,8.44,0,0,0,.88-.34l.13,0,.06,0a11.2,11.2,0,0,0,1.09-.56c.3-.17.6-.36.88-.55h0a6,6,0,0,1,0-.85.66.66,0,0,0,0-.28.45.45,0,0,0-.15-.19l-.1-.12c-.29-.32-.51-.66-1-.61a1.48,1.48,0,0,0-1.13.94.42.42,0,0,0-.06.14,10.08,10.08,0,0,0-.33,1.34c-.07.28-.15.55-.21.83C139.57,40.79,139.56,40.9,139.53,41Z"/><path class="cls-15" d="M82.49,115.18l-.11.06Z"/><path class="cls-16" d="M66.94,101.59c-1,2.8.17,7.34.69,9.37a26.72,26.72,0,0,1,.7,4.46,9.37,9.37,0,0,0,3.58-.09l-.85-4.17c.61-2.47,0-9.08,0-9.08a15.67,15.67,0,0,0,1.51-6.45c.13-3.83,1.08-5.07,1.11-5.11,1.95,1,4.44,11.88,4.44,11.88a25.47,25.47,0,0,0,.86,8.88,10.87,10.87,0,0,1,.61,4.34,1.4,1.4,0,0,0,.53.23,1.42,1.42,0,0,0,.58,0,7.45,7.45,0,0,0,2.56-1.18s-.45-11.83-.78-12.29,0-3,0-3L82,95.22s.08-7-.7-8.23a8.66,8.66,0,0,1-.86-3.38v-.12l-1.17-1.41s-11.41-.85-12.28,0a2.49,2.49,0,0,0-.41,1.29,28.6,28.6,0,0,0,0,4.84s.34,2.23.83,4.5a9.63,9.63,0,0,1,0,4.14A12.27,12.27,0,0,1,66.94,101.59Z"/><path class="cls-17" d="M67.64,119.37c.51.67,3.51.39,4,.18.31-.13.29-.71.21-1.31-.06-.38-.14-.77-.17-1.06A9.47,9.47,0,0,1,72,115s-.67.71-.85,0a.69.69,0,0,0-.2-.35.78.78,0,0,0-.38-.2,1.52,1.52,0,0,0-1,.07c-.53.22-1.41.71-1.26,1.37a4,4,0,0,1-.58,2.27,1,1,0,0,0-.22.63,1,1,0,0,0,.22.63Z"/><path class="cls-5" d="M67.64,119.37c.51.67,3.51.38,4,.17.31-.12.29-.7.21-1.3a3.57,3.57,0,0,1-1.78.18c-.21,0-.43,0-.64,0a15.73,15.73,0,0,1-1.94,0,.92.92,0,0,0-.08.52A1.09,1.09,0,0,0,67.64,119.37Z"/><path class="cls-5" d="M78.1,102.4a25.5,25.5,0,0,0,.85,8.88,10.67,10.67,0,0,1,.62,4.34,1.29,1.29,0,0,0,.54.22,1.37,1.37,0,0,0,.57,0c-.25-1.71-1.29-9.08-2-14.9a24.53,24.53,0,0,0-4.34-11.2l-.72.78C75.62,91.53,78.1,102.4,78.1,102.4Z"/><path class="cls-14" d="M68.87,59.78l.51,2.43,2.43,4.08,3-1.28s4.09-4.26,1.52-4.87a2.23,2.23,0,0,1-.85-.37,2,2,0,0,1-.52-.66,1.86,1.86,0,0,1-.15-.81,4.46,4.46,0,0,1,.43-1.75L70,54.92A8.9,8.9,0,0,1,70.36,57a2.79,2.79,0,0,1-.94,2.46A1.51,1.51,0,0,1,68.87,59.78Z"/><path class="cls-5" d="M70,54.92A8,8,0,0,1,70.35,57c.1.11.2.22.31.32a4.15,4.15,0,0,0,2.86,1.14,4,4,0,0,0,1.29-.2,4.44,4.44,0,0,1,.41-1.75Z"/><path class="cls-14" d="M69.37,54.25a4.19,4.19,0,0,0,.69,2.3,4.21,4.21,0,0,0,4.27,1.76,4.22,4.22,0,0,0,2.14-1.14,4.11,4.11,0,0,0,.9-4.51,4.16,4.16,0,0,0-6.79-1.34,3.91,3.91,0,0,0-.9,1.34A4.1,4.1,0,0,0,69.37,54.25Z"/><path class="cls-5" d="M68.87,59.78l.51,2.43,2.43,4.08,3-1.28s4.09-4.26,1.52-4.87a2.23,2.23,0,0,1-.85-.37C76,61,74,63.67,74,63.67c-.22.33-.73.12-.73.12-1.24-.18-3.51-3.71-3.89-4.3A1.39,1.39,0,0,1,68.87,59.78Z"/><path class="cls-5" d="M66.51,83.36c.72.16,4.73,1,6.25.82,1.68-.25,4.93-.4,4.93-.4a9.61,9.61,0,0,0,2.7-.18v-.12l-1.18-1.4s-11.42-.86-12.27,0A2.37,2.37,0,0,0,66.51,83.36Z"/><path class="cls-3" d="M74,63.8s2.16-3,1.34-4.12L79,61.16s2.18-.26,3,3a6.11,6.11,0,0,1,.14,1.65,4.85,4.85,0,0,0,.59,2.47c.9,1.78.7,5.88-1.14,6.29a5.55,5.55,0,0,1-2.49.2s.25,7.42,1.3,8.27-2.69.65-2.69.65-3.25.16-4.93.41-6.36-.86-6.36-.86.7-3.12.94-5.11.82-6.21.82-6.21L64,66.29s-.73-3.38,1.84-4.88a29.32,29.32,0,0,1,3.54-1.87s2.59,4.18,3.94,4.38C73.29,63.92,73.81,64.12,74,63.8Z"/><path class="cls-5" d="M78.8,65a6,6,0,0,1-.21,1.87c-.24.53-1.14,3.44-1.14,3.44h2s-1.11-1.17-1-1.74S78.8,65,78.8,65Z"/><path class="cls-14" d="M72.76,75.07s4.51-1.1,4.93-2,1.57-3,1.57-3l-.48-.64-2.19,1.71s-2.6,2.07-3.83,2.27S72.76,75.07,72.76,75.07Z"/><path class="cls-13" d="M72.76,75.07s4.51-1.1,4.93-2,1.57-3,1.57-3l-.48-.64-2.19,1.71s-2.6,2.07-3.83,2.27S72.76,75.07,72.76,75.07Z"/><path class="cls-14" d="M68.87,69.79v2.43h.4a11.47,11.47,0,0,1,5.53,1.43l.74.41.2.11L77,71.34l-1.17-1.06h-.07a7.3,7.3,0,0,1-2.07,0,3.38,3.38,0,0,0-2.61-.34c-.73.19-1.36,1-2.07.76Z"/><path class="cls-5" d="M64.94,65.38l-.82.91v2.22s.69,7,2.9,7.74,6.13-.44,6.13-.44,1-2.68.53-2.84-4.19-1.14-4.19-1.14.05-4.09-.76-5.31c0,0,.54-3.81-1.3-3.89S64.94,65.38,64.94,65.38Z"/><path class="cls-3" d="M64.81,65.38l-.82.91v2.22s.7,7,2.9,7.74S73,75.81,73,75.81s1-2.68.54-2.84-4.2-1.14-4.2-1.14,0-4.09-.76-5.31c0,0,.53-3.81-1.31-3.89S64.81,65.38,64.81,65.38Z"/><path class="cls-5" d="M70.51,56a1.49,1.49,0,0,1,.09-.78.59.59,0,0,1,.26-.3.64.64,0,0,1,.38-.08c.35.08.51.54.84.65a.74.74,0,0,0,.44-.07.71.71,0,0,0,.31-.31,1.93,1.93,0,0,0,.13-.89v-1a1.7,1.7,0,0,1,.24-1.05,1.94,1.94,0,0,1,1.41-.51,1.26,1.26,0,0,1,.8.32,1,1,0,0,0,.38.25,1,1,0,0,0,.45.05.81.81,0,0,0,.38-.17.72.72,0,0,0,.21-.33v0a4.3,4.3,0,0,0-1.29-1.11,4.19,4.19,0,0,0-1.62-.5,4.12,4.12,0,0,0-4.56,4,4.35,4.35,0,0,0,.32,1.67,4.2,4.2,0,0,0,1,1.39A10.23,10.23,0,0,1,70.51,56Z"/><path class="cls-3" d="M76.25,52.15a.74.74,0,0,0,.37-.17.68.68,0,0,0,.21-.34c0-.13,0-.27.07-.4.09-.32.43-.48.66-.73a1.6,1.6,0,0,0,.11-1.86,1.33,1.33,0,0,0-1.31-.77c-.33,0-.61.29-.94.31a2.17,2.17,0,0,1-.92-.3,3.45,3.45,0,0,0-2.24-.19,1.25,1.25,0,0,0-.63.31,4.84,4.84,0,0,0-.33.46,2.6,2.6,0,0,1-1.67.68c-.6.11-1.29.35-1.48.93a2.35,2.35,0,0,0,.07,1.2.35.35,0,0,1,0,.25c-.1.16-.33.1-.51.13-.34.07-.42.51-.44.86s0,.8,0,1.2a1.13,1.13,0,0,0,.07.55,1,1,0,0,0,.31.46L69,56.34a3.4,3.4,0,0,1,1.1,2.47.59.59,0,0,0,.72-.42,1.87,1.87,0,0,0,0-.91,9.39,9.39,0,0,1-.22-1.58,1.63,1.63,0,0,1,.09-.79.7.7,0,0,1,.26-.3.65.65,0,0,1,.39-.07c.34.08.5.53.85.64a.72.72,0,0,0,.43-.06.66.66,0,0,0,.3-.32,1.8,1.8,0,0,0,.14-.89v-1a1.75,1.75,0,0,1,.24-1.06,1.88,1.88,0,0,1,1.41-.5,1.2,1.2,0,0,1,.79.32,1.25,1.25,0,0,0,.38.23A1.19,1.19,0,0,0,76.25,52.15Z"/><path class="cls-5" d="M75.31,64.87l-1.26,5.21S73,70.08,75.31,64.87Z"/><path class="cls-5" d="M70.94,64a8.24,8.24,0,0,1,1,5.53l-.31,0S72.21,68.26,70.94,64Z"/><path class="cls-5" d="M69.88,79.41s-2-.68-2.2.89C67.68,80.3,68.07,79.22,69.88,79.41Z"/><path class="cls-5" d="M75.82,70.4s.41,2.84-.32,4a8.93,8.93,0,0,0,3.59.48l.25-4.46Z"/><path class="cls-5" d="M75.54,74.06l.21.11L77,71.34l-1.18-1.06h-.07A8.75,8.75,0,0,1,75.54,74.06Z"/><path class="cls-3" d="M75.82,70.28s.41,2.84-.32,4a8.93,8.93,0,0,0,3.59.48l1.43-4.46Z"/><path class="cls-17" d="M79.34,117.64a1,1,0,0,0,.25.54,1,1,0,0,0,.54.27,28.08,28.08,0,0,1,4.45.9c.86.4,4.24.12,4.41-.28a.71.71,0,0,0,0-.25.84.84,0,0,0-.07-.24,1.42,1.42,0,0,0-.55-.59,1.17,1.17,0,0,0-.26-.1A5.37,5.37,0,0,1,86,116.75a13.61,13.61,0,0,1-1.93-2,1,1,0,0,0-.33-.34,1,1,0,0,0-.45-.14c-.36,0-.77.16-.92.94,0,0-2,1.11-2.49.13a5,5,0,0,1-.41,1.91A.56.56,0,0,0,79.34,117.64Z"/><path class="cls-5" d="M79.34,117.64a1,1,0,0,0,.25.54.93.93,0,0,0,.54.27,28.08,28.08,0,0,1,4.45.9c.86.41,4.25.12,4.41-.28a.7.7,0,0,0,0-.25.61.61,0,0,0-.07-.24,1.31,1.31,0,0,0-.55-.59c-.56.37-1.78.73-4.47.31a19.36,19.36,0,0,1-4.46-1.06A.5.5,0,0,0,79.34,117.64Z"/><g class="cls-18"><path class="cls-5" d="M68.23,51.33v0a3.58,3.58,0,0,1-.13-.92c0,.25.06.5.1.75A.42.42,0,0,1,68.23,51.33Z"/><path class="cls-5" d="M70.6,55.13a1,1,0,0,0-.1.46,1.61,1.61,0,0,1,.1-.65.73.73,0,0,1,.26-.29.66.66,0,0,1,.39-.08c.34.08.5.54.83.64a.7.7,0,0,0,.45-.06.72.72,0,0,0,.3-.32A1.88,1.88,0,0,0,73,54v-1a1.77,1.77,0,0,1,.24-1,1.91,1.91,0,0,1,1.4-.51,1.26,1.26,0,0,1,.8.32,1.19,1.19,0,0,0,.38.25,1,1,0,0,0,.46,0,.74.74,0,0,0,.37-.17.65.65,0,0,0,.21-.33c0-.13,0-.28.07-.4.09-.32.43-.49.66-.73a1.26,1.26,0,0,0,.34-.86,1.32,1.32,0,0,1-.05.56,1.47,1.47,0,0,1-.29.48c-.23.25-.57.41-.66.73-.05.13,0,.27-.07.4a.65.65,0,0,1-.21.33.74.74,0,0,1-.37.17,1,1,0,0,1-.46,0,1,1,0,0,1-.38-.25,1.21,1.21,0,0,0-.8-.32,2,2,0,0,0-1.4.5A1.75,1.75,0,0,0,73,53.12c0,.37,0,.68,0,1a1.9,1.9,0,0,1-.14.88.62.62,0,0,1-.3.32.7.7,0,0,1-.45.06c-.34-.11-.49-.56-.83-.64a.62.62,0,0,0-.65.38Z"/><path class="cls-5" d="M67.25,54a1.43,1.43,0,0,0,.35.56L69,56.18a3.65,3.65,0,0,1,1.11,2.32A4,4,0,0,0,69,56.36L67.6,54.75a1.23,1.23,0,0,1-.32-.46,1.27,1.27,0,0,1-.07-.55A.84.84,0,0,0,67.25,54Z"/><path class="cls-5" d="M70.77,58.23a.78.78,0,0,0,0-.22,1.07,1.07,0,0,1,0,.4.58.58,0,0,1-.72.41.91.91,0,0,0,0-.17.6.6,0,0,0,.71-.42Z"/></g><path class="cls-5" d="M84.31,115.11s-.42.76-2,.09Z"/><path class="cls-5" d="M71.25,115.29a2.34,2.34,0,0,1-3,.5Z"/><path class="cls-5" d="M67.38,96.85s.94.58,1,.91-.49-.25-.49-.25Z"/><path class="cls-5" d="M67,101.33a2,2,0,0,0,1.16.45c.7,0,.64.94.18.67A12,12,0,0,1,67,101.33Z"/><path class="cls-5" d="M66.82,101.91s.46,2.21.82,1.78Z"/><path class="cls-19" d="M21.08,115.73c.76-1.38-.1-3.08-1.09-4.32s-2.18-2.52-2.15-4.1c0-2.27,2.45-3.6,4.39-4.8a21.31,21.31,0,0,0,3.93-3.15,5.73,5.73,0,0,0,1.21-1.61,6.62,6.62,0,0,0,.37-2.87Q27.6,90,27.25,85.2"/><path class="cls-4" d="M30.93,85a3.56,3.56,0,0,0-.52-1.67,3.48,3.48,0,0,0-1.25-1.22l-.8,1.56,0-1.89a3.49,3.49,0,0,0-2.19.07,3.55,3.55,0,0,0-1.74,1.34,3.45,3.45,0,0,0-.6,2.09,3.54,3.54,0,0,0,4.77,3.18A3.52,3.52,0,0,0,30.93,85Z"/><path class="cls-4" d="M24.59,108.93a3.56,3.56,0,0,1-4.09,1.78,3.5,3.5,0,0,1-2.59-3.61,3.43,3.43,0,0,1,.92-2.16,3.55,3.55,0,0,1,4.41-.66,3.51,3.51,0,0,1,1.52,1.81l-2.22,1.79,2.45-.56A3.49,3.49,0,0,1,24.59,108.93Z"/><path class="cls-4" d="M22.84,102.07a3.6,3.6,0,0,1-2.45-.75,3.52,3.52,0,0,1,1.32-6.18l0,1.46L22.5,95a3.57,3.57,0,0,1,1.37.21,3.24,3.24,0,0,1,1.18.71A3.48,3.48,0,0,1,25.88,97a3.43,3.43,0,0,1,.33,1.34,3.49,3.49,0,0,1-1.37,3A3.46,3.46,0,0,1,22.84,102.07Z"/><path class="cls-4" d="M31.46,96.37a3.57,3.57,0,0,1-1.58-.31,3.66,3.66,0,0,1-1.29-1,3.54,3.54,0,0,1-.71-1.44,3.47,3.47,0,0,1,.72-3,3.66,3.66,0,0,1,1.29-1,3.59,3.59,0,0,1,1.58-.3,3.68,3.68,0,0,1,1.56.43l-.63,1.71,1.3-1.23a3.51,3.51,0,0,1,1.14,2.44,3.17,3.17,0,0,1-.09,1,3.49,3.49,0,0,1-1.18,1.91A3.64,3.64,0,0,1,31.46,96.37Z"/><path class="cls-5" d="M30.45,86c-.82.09-1.62.34-2.44.39a2.65,2.65,0,0,1-2.25-.77,10.91,10.91,0,0,1-.65-1.15,2.58,2.58,0,0,0-.9-.84A3.5,3.5,0,0,0,23.86,85a3.55,3.55,0,0,0,.27,1.44A3.49,3.49,0,0,0,25,87.66a3.57,3.57,0,0,0,4.13.55,3.61,3.61,0,0,0,1.76-2.28Z"/><path class="cls-5" d="M31.46,96.37A3.62,3.62,0,0,1,29.69,96a3.72,3.72,0,0,1-1.36-1.19,3.55,3.55,0,0,1-.25-3.47,2.43,2.43,0,0,1,.72.71,10.5,10.5,0,0,0,.7,1.16,2.9,2.9,0,0,0,2.36.82c.85,0,1.68-.28,2.53-.36l.36,0a3.55,3.55,0,0,1-3.29,2.72Z"/><path class="cls-5" d="M22.84,102.07a3.54,3.54,0,0,1-3.11-1.53,3.52,3.52,0,0,1-.3-3.44,2.74,2.74,0,0,1,.76.72A13.43,13.43,0,0,0,21,99a3.28,3.28,0,0,0,2.51.87c.91,0,1.73-.23,2.61-.3a3.64,3.64,0,0,1-1.22,1.76A3.53,3.53,0,0,1,22.84,102.07Z"/><path class="cls-5" d="M24.59,108.93a3.51,3.51,0,0,1-2,1.85,3.54,3.54,0,0,1-4.58-2,3.47,3.47,0,0,1,.08-2.7,3.65,3.65,0,0,1,.78.69,13.86,13.86,0,0,0,1,1.26,4.41,4.41,0,0,0,2.94,1A15.51,15.51,0,0,0,24.59,108.93Z"/><path class="cls-20" d="M15.72,114.14s2.81-.08,3.64-.69,4.3-1.31,4.52-.35,4.22,4.78,1.05,4.8-7.35-.51-8.2-1S15.72,114.14,15.72,114.14Z"/><path class="cls-21" d="M25,117.57c-3.17,0-7.36-.49-8.2-1-.64-.39-.9-1.79-1-2.43h-.09s.18,2.25,1,2.77,5,1,8.2,1c.91,0,1.23-.32,1.21-.8C26,117.38,25.69,117.56,25,117.57Z"/></g></svg>