<svg id="Layer_1" data-name="Layer 1" xmlns="http://www.w3.org/2000/svg" xmlns:xlink="http://www.w3.org/1999/xlink" viewBox="0 0 293.03 162.02"><defs><style>.cls-1{fill:none;}.cls-2{clip-path:url(#clip-path);}.cls-3{fill:#e6e6e6;}.cls-4{fill:#ccc;}.cls-5{fill:#fff;}.cls-6{fill:#109cf1;}.cls-7{fill:#ffb8b8;}.cls-8{fill:#2f2e41;}.cls-9{fill:#3f3d56;}</style><clipPath id="clip-path"><rect class="cls-1" width="293.02" height="162.02"/></clipPath></defs><g class="cls-2"><path class="cls-3" d="M186.48,138.83H25.14a3.59,3.59,0,0,1-3.56-3.56V41.37a3.59,3.59,0,0,1,3.56-3.56H186.48A3.57,3.57,0,0,1,190,41.37v93.9a3.57,3.57,0,0,1-3.56,3.56Z"/><path class="cls-4" d="M196.53,152H15.09V32a4,4,0,0,1,4-4H192.55a4,4,0,0,1,2.81,1.16A3.94,3.94,0,0,1,196.53,32Zm-180.61-.84H195.7V32a3.16,3.16,0,0,0-3.15-3.15H19.07A3.16,3.16,0,0,0,15.92,32Z"/><path class="cls-3" d="M105.81,34.88a1.68,1.68,0,1,0-1.68-1.68A1.68,1.68,0,0,0,105.81,34.88Z"/><path class="cls-5" d="M146.25,118.9H65.38a3.55,3.55,0,0,1-3.57-3.56v-54a3.55,3.55,0,0,1,3.57-3.56h80.87a3.55,3.55,0,0,1,3.56,3.56v54a3.55,3.55,0,0,1-3.56,3.56Z"/><path class="cls-4" d="M78.67,80.78a3.36,3.36,0,0,1-1.86-.57,3.35,3.35,0,0,1-1.42-3.44,3.32,3.32,0,0,1,.91-1.71A3.44,3.44,0,0,1,78,74.14a3.33,3.33,0,0,1,3.43,1.43A3.32,3.32,0,0,1,82,77.43a3.35,3.35,0,0,1-3.36,3.35Z"/><path class="cls-6" d="M78.67,91.67a3.44,3.44,0,0,1-1.86-.56,3.5,3.5,0,0,1-1.23-1.51,3.39,3.39,0,0,1-.19-1.94A3.32,3.32,0,0,1,76.3,86,3.44,3.44,0,0,1,78,85a3.37,3.37,0,0,1,1.93.19,3.42,3.42,0,0,1,1.5,1.24A3.34,3.34,0,0,1,82,88.32a3.35,3.35,0,0,1-3.36,3.35Z"/><path class="cls-6" d="M78.67,102.56a3.44,3.44,0,0,1-1.86-.56,3.5,3.5,0,0,1-1.23-1.51,3.39,3.39,0,0,1-.19-1.94,3.32,3.32,0,0,1,.91-1.71A3.44,3.44,0,0,1,78,95.92a3.37,3.37,0,0,1,1.93.19,3.42,3.42,0,0,1,1.5,1.24A3.34,3.34,0,0,1,82,99.21a3.35,3.35,0,0,1-3.36,3.35Z"/><path class="cls-4" d="M94.6,74.71a2.71,2.71,0,0,0-2.72,2.72,2.68,2.68,0,0,0,.8,1.92,2.72,2.72,0,0,0,1.92.8h39a2.75,2.75,0,0,0,1.94-.8,2.72,2.72,0,0,0-1.94-4.64Z"/><path class="cls-6" d="M94.6,85.6a2.71,2.71,0,0,0-2.72,2.72,2.68,2.68,0,0,0,.8,1.92,2.72,2.72,0,0,0,1.92.8h39a2.75,2.75,0,0,0,1.94-.8,2.72,2.72,0,0,0-1.94-4.64Z"/><path class="cls-6" d="M94.6,96.49a2.71,2.71,0,0,0-2.72,2.72,2.68,2.68,0,0,0,.8,1.92,2.72,2.72,0,0,0,1.92.8h39a2.75,2.75,0,0,0,1.94-.8,2.72,2.72,0,0,0-1.94-4.64Z"/><path class="cls-7" d="M278,157.24l-5.14-.09L270.7,137.3l7.58.13Z"/><path class="cls-8" d="M269.16,155.62l9.91.17L279,162l-16.15-.27a6.14,6.14,0,0,1,.52-2.38,6.26,6.26,0,0,1,5.82-3.75Z"/><path class="cls-7" d="M227,157.19l-4.76-1.93L227.37,136l7,2.85Z"/><path class="cls-8" d="M219.35,152.53l9.19,3.71L226.21,162l-15-6.05a6.25,6.25,0,0,1,8.12-3.44Z"/><path class="cls-8" d="M244.14,82.91l-15.09,39.8-6.28,27.65,6.71,3.35,30.59-59.48,11.3,59.69h6.72s3.06-70.8-1.4-76.35Z"/><path class="cls-6" d="M225.44,126.49a11.8,11.8,0,1,0-11.8-11.8A11.8,11.8,0,0,0,225.44,126.49Z"/><path class="cls-5" d="M224.46,119.91l-3.75-4.82,2.17-1.69,1.79,2.28,6-6.33,2,1.9Z"/><path class="cls-8" d="M251.48,27.83A13.83,13.83,0,1,0,237.65,14,13.83,13.83,0,0,0,251.48,27.83Z"/><path class="cls-7" d="M232.18,108.08a4.41,4.41,0,0,0,1.51-1.23,4.29,4.29,0,0,0,.86-1.75,4.58,4.58,0,0,0,0-1.95,4.33,4.33,0,0,0-.79-1.78l10.49-58-9.79-.13-7.29,57.39a4.58,4.58,0,0,0-1.55,2.82,4.54,4.54,0,0,0,6.53,4.67Z"/><path class="cls-7" d="M292.29,96.74a4.47,4.47,0,0,0,.7-1.87,4.49,4.49,0,0,0-1.2-3.7,4.41,4.41,0,0,0-1.67-1.11L271.4,44.58a8.33,8.33,0,0,0-5.13-4.74,8.37,8.37,0,0,0-3.55-.34,8.51,8.51,0,0,0-3.37,1.19h0L284.16,93a4.53,4.53,0,0,0,8.13,3.78Z"/><path class="cls-7" d="M251.75,29.5a10.29,10.29,0,1,0-10.29-10.29A10.29,10.29,0,0,0,251.75,29.5Z"/><path class="cls-4" d="M239.24,35.48a33.57,33.57,0,0,1,27.56.41,10.38,10.38,0,0,1,5.58,6.44l4.87,16.29L271,64.9l5.87,13s-22.42,13.61-32.48,5.23l-6.07-21.57-8-2.1L233,43.32a10.38,10.38,0,0,1,6.21-7.84Z"/><path class="cls-8" d="M242.12,11.6A30.62,30.62,0,0,0,255.37,16L254,14.29a10.1,10.1,0,0,0,3.17.63A3.41,3.41,0,0,0,260,13.6a3.16,3.16,0,0,0,.48-1.46,3.3,3.3,0,0,0-.26-1.52,6.09,6.09,0,0,0-1.92-2.41,11.45,11.45,0,0,0-10.66-1.9,6.91,6.91,0,0,0-3.18,2,3.94,3.94,0,0,0-.79,3.59"/><path class="cls-8" d="M240.2,2.45c-.16-1.76-2.33-2.85-4-2.31a5,5,0,0,0-3.13,4,5.72,5.72,0,0,0,.77,4.29,3.9,3.9,0,0,0,3.88,1.68,4.48,4.48,0,0,0,3.15-3.65,13,13,0,0,0-.33-5.07"/><path class="cls-8" d="M268.69,3.28c-.16-1.76-2.31-2.84-4-2.31a5,5,0,0,0-3.13,4,5.65,5.65,0,0,0,.76,4.29A4,4,0,0,0,264,10.64a3.93,3.93,0,0,0,2.19.27,4.5,4.5,0,0,0,3.16-3.66A13.14,13.14,0,0,0,269,2.19"/><path class="cls-9" d="M199.68,146.52h-7.34v-1.25a1.7,1.7,0,0,0-.48-1.19,1.73,1.73,0,0,0-1.2-.49h-8.79a1.71,1.71,0,0,0-1.19.49,1.66,1.66,0,0,0-.49,1.19v1.25h-1.26v-1.25a1.66,1.66,0,0,0-.49-1.19,1.69,1.69,0,0,0-1.19-.49h-8.79a1.69,1.69,0,0,0-1.68,1.68v1.25h-1.25v-1.25a1.72,1.72,0,0,0-.5-1.19,1.68,1.68,0,0,0-1.18-.49H155a1.66,1.66,0,0,0-1.66,1.68v1.25h-1.26v-1.25a1.69,1.69,0,0,0-1.68-1.68h-8.8a1.69,1.69,0,0,0-1.19.49,1.71,1.71,0,0,0-.49,1.19v1.25H138.7v-1.25a1.66,1.66,0,0,0-1.68-1.68h-8.79a1.68,1.68,0,0,0-1.18.49,1.63,1.63,0,0,0-.5,1.19v1.25H125.3v-1.25a1.69,1.69,0,0,0-1.68-1.68h-8.8a1.69,1.69,0,0,0-1.68,1.68v1.25h-1.25v-1.25a1.69,1.69,0,0,0-1.68-1.68h-8.8a1.66,1.66,0,0,0-1.67,1.68v1.25H98.47v-1.25a1.66,1.66,0,0,0-1.67-1.68H88a1.69,1.69,0,0,0-1.68,1.68v1.25H85.06v-1.25a1.7,1.7,0,0,0-.48-1.19,1.72,1.72,0,0,0-1.19-.49h-8.8a1.68,1.68,0,0,0-1.18.49,1.72,1.72,0,0,0-.5,1.19v1.25H71.66v-1.25a1.63,1.63,0,0,0-.5-1.19,1.68,1.68,0,0,0-1.18-.49H61.19a1.73,1.73,0,0,0-1.2.49,1.7,1.7,0,0,0-.48,1.19v1.25H58.25v-1.25a1.67,1.67,0,0,0-1.68-1.68h-8.8a1.72,1.72,0,0,0-1.19.49,1.7,1.7,0,0,0-.48,1.19v1.25H44.83v-1.25a1.66,1.66,0,0,0-1.66-1.68H34.36a1.68,1.68,0,0,0-1.18.49,1.66,1.66,0,0,0-.49,1.19v1.25H31.43v-1.25a1.67,1.67,0,0,0-1.68-1.68H21a1.68,1.68,0,0,0-1.18.49,1.66,1.66,0,0,0-.49,1.19v1.25H11.94A11.95,11.95,0,0,0,0,158.46H0A3.55,3.55,0,0,0,3.56,162h204.5a3.57,3.57,0,0,0,3.56-3.56h0a11.95,11.95,0,0,0-11.94-11.94Z"/></g></svg>