<svg id="Layer_1" data-name="Layer 1" xmlns="http://www.w3.org/2000/svg" xmlns:xlink="http://www.w3.org/1999/xlink" viewBox="0 0 296.17 239.6"><defs><style>.cls-1{fill:none;}.cls-2{clip-path:url(#clip-path);}.cls-3{fill:#109cf1;}.cls-4{fill:#2f2e41;}.cls-5{fill:#e6e6e6;}.cls-6{fill:#fff;}.cls-7{fill:#3f3d56;}</style><clipPath id="clip-path"><rect class="cls-1" width="296.17" height="239.6"/></clipPath></defs><g class="cls-2"><path class="cls-3" d="M53.36,157.87a2.42,2.42,0,0,1-.76-.12,2.49,2.49,0,0,1-.86-.47,2.66,2.66,0,0,1-.61-.77l-2.42-4.72a2.52,2.52,0,0,1,1.08-3.39L88.9,128.14a2.51,2.51,0,0,1,3.38,1.08l2.42,4.72a2.52,2.52,0,0,1-1.08,3.39L54.51,157.59a2.44,2.44,0,0,1-1.15.28Z"/><path class="cls-4" d="M67.55,139.5a3.47,3.47,0,0,1,.27.46L72,149A2.55,2.55,0,0,1,72,151a2.33,2.33,0,0,1-.52.83,2.46,2.46,0,0,1-.8.56l-13.9,4.89a6.26,6.26,0,0,1-7.68-3.18l.16-.08-.16.08a6.3,6.3,0,0,1,2.59-8.25l12.82-7.12a2.46,2.46,0,0,1,1.67-.14,2.52,2.52,0,0,1,1.38.95Z"/><path class="cls-5" d="M231.24,115.75h-67a6.28,6.28,0,0,1-4.15-1.57L132.55,89.74a5.17,5.17,0,0,0-3.43-1.31h-23.8V5.93A5.92,5.92,0,0,1,111.22,0H225.34a5.92,5.92,0,0,1,5.9,5.93Z"/><path class="cls-6" d="M132.68,38.29a12.59,12.59,0,1,0-12.52-12.58A12.55,12.55,0,0,0,132.68,38.29Z"/><path class="cls-6" d="M181.34,19H158.08a1.61,1.61,0,0,0-1.13.47,1.65,1.65,0,0,0-.47,1.15,1.6,1.6,0,0,0,1.6,1.61h23.26a1.65,1.65,0,0,0,1.14-.47,1.61,1.61,0,0,0,.47-1.14A1.6,1.6,0,0,0,181.34,19Z"/><path class="cls-6" d="M215.09,29.21H157.78a1.65,1.65,0,0,0,0,3.23h57.31a1.65,1.65,0,0,0,0-3.23Z"/><path class="cls-6" d="M210.59,50.86H126a1.68,1.68,0,0,0,0,3.24h84.62a1.68,1.68,0,0,0,0-3.24Z"/><path class="cls-6" d="M210.59,60.93H126a1.68,1.68,0,0,0,0,3.24h84.62a1.68,1.68,0,0,0,0-3.24Z"/><path class="cls-6" d="M210.59,71H126a1.68,1.68,0,0,0,0,3.24h84.62a1.68,1.68,0,0,0,0-3.24Z"/><path class="cls-6" d="M210.59,81.06H126a1.68,1.68,0,0,0,0,3.24h84.62a1.68,1.68,0,0,0,0-3.24Z"/><path class="cls-3" d="M286.69,115.75H164.27a6.13,6.13,0,0,1-3.42-1l-.08,0V30.73a5.92,5.92,0,0,1,5.9-5.93H280.79A5.91,5.91,0,0,1,285,26.54a6,6,0,0,1,1.73,4.19Z"/><path class="cls-6" d="M188.13,63.09a12.59,12.59,0,1,0-12.52-12.58A12.55,12.55,0,0,0,188.13,63.09Z"/><path class="cls-6" d="M236.79,43.77H213.53a1.62,1.62,0,0,0,0,3.23h23.26a1.61,1.61,0,0,0,1.13-.47,1.59,1.59,0,0,0,.47-1.14,1.6,1.6,0,0,0-1.6-1.62Z"/><path class="cls-6" d="M270.54,54H213.23a1.66,1.66,0,0,0,0,3.24h57.31a1.66,1.66,0,0,0,0-3.24Z"/><path class="cls-6" d="M266,75.67H181.42a1.67,1.67,0,0,0,0,3.23H266a1.67,1.67,0,0,0,0-3.23Z"/><path class="cls-6" d="M266,85.74H181.42a1.67,1.67,0,0,0,0,3.24H266a1.68,1.68,0,0,0,0-3.24Z"/><path class="cls-6" d="M266,95.8H181.42a1.67,1.67,0,0,0,0,3.24H266a1.68,1.68,0,0,0,0-3.24Z"/><path class="cls-6" d="M266,105.87H181.42a1.67,1.67,0,0,0,0,3.24H266a1.68,1.68,0,0,0,0-3.24Z"/><path class="cls-7" d="M290.09,114.86H164.28a5.3,5.3,0,0,1-3.33-1.17l-.22-.18-10.65-9.44-16.94-15a6.08,6.08,0,0,0-4-1.53H98.34a6.11,6.11,0,0,0-6.08,6.12V233.49a6.09,6.09,0,0,0,6.08,6.11H290.09a6.09,6.09,0,0,0,6.08-6.11V121a6.12,6.12,0,0,0-1.78-4.32,6.05,6.05,0,0,0-4.3-1.79Zm5.36,118.63a5.38,5.38,0,0,1-5.36,5.39H98.34A5.38,5.38,0,0,1,93,233.49V93.65a5.39,5.39,0,0,1,5.36-5.4h30.78a5.34,5.34,0,0,1,3.55,1.35L149,104.07l11.25,10a6.18,6.18,0,0,0,4,1.53H290.09a5.3,5.3,0,0,1,3.79,1.58,5.38,5.38,0,0,1,1.57,3.81Z"/><path class="cls-3" d="M36.93,136.46a19.24,19.24,0,1,0-19.14-19.24A19.19,19.19,0,0,0,36.93,136.46Z"/><path class="cls-3" d="M36.79,239.39H31.51a2.44,2.44,0,0,1-1.77-.74,2.52,2.52,0,0,1-.74-1.78V192.65a2.56,2.56,0,0,1,.74-1.78,2.47,2.47,0,0,1,1.77-.73h5.28a2.51,2.51,0,0,1,1.77.73,2.59,2.59,0,0,1,.73,1.78v44.22a2.55,2.55,0,0,1-.73,1.78,2.47,2.47,0,0,1-1.77.74Z"/><path class="cls-3" d="M48.23,239.39H43a2.47,2.47,0,0,1-1.77-.74,2.51,2.51,0,0,1-.73-1.78V192.65a2.55,2.55,0,0,1,.73-1.78,2.51,2.51,0,0,1,1.77-.73h5.28a2.51,2.51,0,0,1,1.77.73,2.55,2.55,0,0,1,.73,1.78v44.22a2.51,2.51,0,0,1-.73,1.78,2.47,2.47,0,0,1-1.77.74Z"/><path class="cls-4" d="M67.4,182.86c0,15.68-14.68,20.74-30.29,20.74s-26.23-5.06-26.23-20.74S21.39,140.44,37,140.44,67.4,167.18,67.4,182.86Z"/><path class="cls-4" d="M36.53,124.36l0-.72a5.91,5.91,0,0,0,3.39-.77,2.18,2.18,0,0,0,.6-.72,2.07,2.07,0,0,0,.25-.91,1.24,1.24,0,0,0-.08-.57,1.29,1.29,0,0,0-.33-.47,2.14,2.14,0,0,0-2.21,0l-.6.27,1.14-8.33.71.09-1,7.09a2.53,2.53,0,0,1,2.39.35,1.88,1.88,0,0,1,.52.73,1.93,1.93,0,0,1,.15.89,3,3,0,0,1-.33,1.21,3,3,0,0,1-.82,1A6.62,6.62,0,0,1,36.53,124.36Z"/><path class="cls-4" d="M46.74,112.82H42.88v.72h3.86Z"/><path class="cls-4" d="M34.58,112.82H30.72v.72h3.86Z"/><path class="cls-5" d="M249.66,214.79H144.49a5.33,5.33,0,0,1-3.79-1.58,5.39,5.39,0,0,1-1.58-3.81V151.16a5.39,5.39,0,0,1,1.58-3.81,5.33,5.33,0,0,1,3.79-1.58H249.66a5.33,5.33,0,0,1,3.79,1.58,5.39,5.39,0,0,1,1.58,3.81V209.4a5.39,5.39,0,0,1-1.58,3.81A5.33,5.33,0,0,1,249.66,214.79Zm-105.17-68.3a4.61,4.61,0,0,0-3.29,1.37,4.69,4.69,0,0,0-1.36,3.3V209.4a4.67,4.67,0,0,0,1.36,3.3,4.61,4.61,0,0,0,3.29,1.37H249.66A4.61,4.61,0,0,0,253,212.7a4.67,4.67,0,0,0,1.36-3.3V151.16a4.69,4.69,0,0,0-1.36-3.3,4.61,4.61,0,0,0-3.29-1.37Z"/><path class="cls-5" d="M161.48,179.92A12.58,12.58,0,1,0,149,167.34,12.55,12.55,0,0,0,161.48,179.92Z"/><path class="cls-5" d="M210.14,160.6H186.88a1.62,1.62,0,0,0,0,3.24h23.26a1.62,1.62,0,0,0,0-3.24Z"/><path class="cls-5" d="M243.89,170.85H186.58a1.65,1.65,0,0,0,0,3.23h57.31a1.65,1.65,0,0,0,0-3.23Z"/><path class="cls-5" d="M239.39,192.5H154.77a1.68,1.68,0,0,0,0,3.24h84.62a1.68,1.68,0,0,0,0-3.24Z"/><path class="cls-5" d="M239.39,202.57H154.77a1.68,1.68,0,0,0,0,3.24h84.62a1.68,1.68,0,0,0,0-3.24Z"/><path class="cls-4" d="M21.66,111.93c1.49-2.25,4.11-3.21,6.69-3.44a30.49,30.49,0,0,1,8.56.85c3.12.6,6.43,1.17,9.58.4a9.47,9.47,0,0,0,6.42-5.21,12.18,12.18,0,0,0,.7-8.09,14.76,14.76,0,0,0-4.79-7.31,24.52,24.52,0,0,0-16.56-5.48A28,28,0,0,0,16,89.39a26.43,26.43,0,0,0-9.35,14.73A27.68,27.68,0,0,0,8,121.49c1.29,3,3.15,5.72,4.59,8.65,1.35,2.73,2.38,5.91,1.54,9a8.28,8.28,0,0,1-5.58,5.78,5.83,5.83,0,0,1-6.51-2.68c-1.35-2.13-1.38-4.93.64-6.66a5,5,0,0,1,1.75-1,5.15,5.15,0,0,1,2-.21,5,5,0,0,1,1.91.6,4.9,4.9,0,0,1,1.52,1.31,5.15,5.15,0,0,1,1,3.77c-.1.68.93,1,1,.29a6.15,6.15,0,0,0-.75-4.13,6.05,6.05,0,0,0-10.54.2,6.59,6.59,0,0,0,1,7.06,6.9,6.9,0,0,0,3.13,2.3,6.78,6.78,0,0,0,3.86.23,9.29,9.29,0,0,0,6.22-5.56c1.2-2.95.65-6.24-.53-9.1-1.27-3.1-3.16-5.87-4.66-8.85a25.24,25.24,0,0,1-2.54-8.61A27.35,27.35,0,0,1,11,96.59,25.24,25.24,0,0,1,24.84,86a26.26,26.26,0,0,1,17.43.46C47.72,88.61,53,93.32,52.92,99.64a9.69,9.69,0,0,1-3.08,7.25c-2.46,2.15-5.88,2.33-9,2s-6.13-1.25-9.26-1.48a14.28,14.28,0,0,0-8.07,1.36,8.08,8.08,0,0,0-2.81,2.61c-.38.59.55,1.13.93.55Z"/><path class="cls-3" d="M16.14,202.11a2.43,2.43,0,0,1-.38,0l-5.22-.8a2.53,2.53,0,0,1-2.09-2.87l6.62-43.72a2.47,2.47,0,0,1,1-1.64,2.52,2.52,0,0,1,1.86-.47l5.22.8a2.5,2.5,0,0,1,1.64,1,2.54,2.54,0,0,1,.46,1.87L18.62,200a2.53,2.53,0,0,1-2.48,2.14Z"/><path class="cls-4" d="M22.38,172.31a3.07,3.07,0,0,1-.53-.05l-9.73-2a2.49,2.49,0,0,1-.9-.39,2.56,2.56,0,0,1-.68-.71,2.41,2.41,0,0,1-.36-.91,2.48,2.48,0,0,1,0-1l4.23-14.18a6.31,6.31,0,0,1,2.71-3.54,6.24,6.24,0,0,1,4.36-.83l0,.17,0-.17a6.26,6.26,0,0,1,5.12,6.95l-1.79,14.61a2.61,2.61,0,0,1-.87,1.44,2.52,2.52,0,0,1-1.58.56Z"/><path class="cls-7" d="M68.63,239.6H12.47a.36.36,0,0,1-.26-.11.4.4,0,0,1-.1-.26.39.39,0,0,1,.1-.25.35.35,0,0,1,.26-.1H68.63a.32.32,0,0,1,.25.1.36.36,0,0,1,.11.25.36.36,0,0,1-.11.26A.33.33,0,0,1,68.63,239.6Z"/></g></svg>