<svg id="Layer_1" data-name="Layer 1" xmlns="http://www.w3.org/2000/svg" xmlns:xlink="http://www.w3.org/1999/xlink" viewBox="0 0 296.86 215.34"><defs><style>.cls-1,.cls-10,.cls-11{fill:none;}.cls-2{clip-path:url(#clip-path);}.cls-3{fill:#f2f2f2;}.cls-4{fill:#2f2e41;}.cls-5{fill:#ffb9b9;}.cls-6{opacity:0.1;}.cls-10,.cls-6,.cls-8{isolation:isolate;}.cls-7{fill:#575a89;}.cls-10,.cls-8{opacity:0.2;}.cls-9{fill:#109cf1;}.cls-10{stroke:#000;}.cls-10,.cls-11{stroke-miterlimit:10;stroke-width:2px;}.cls-11{stroke:#3f3d56;}.cls-12{fill:#3f3d56;}.cls-13{fill:#9f616a;}.cls-14{fill:#d0cde1;}.cls-15{fill:#57b894;}</style><clipPath id="clip-path"><rect class="cls-1" width="296.86" height="215.34"/></clipPath></defs><g class="cls-2"><path class="cls-3" d="M127.23,201.39A100.7,100.7,0,1,0,26.47,100.69,100.73,100.73,0,0,0,127.23,201.39Z"/><path class="cls-3" d="M40,215.34c22.08,0,40-2.86,40-6.4s-17.89-6.39-40-6.39-40,2.87-40,6.39S17.9,215.34,40,215.34Z"/><path class="cls-3" d="M235,208.85c34.16,0,61.86-4.43,61.86-9.9s-27.7-9.89-61.86-9.89-61.85,4.43-61.85,9.89S200.83,208.85,235,208.85Z"/><path class="cls-4" d="M221.26,103.87s.52,1.76-2.46,3.33-3.86,7.55-.36,9.3,4.57,4,2.82,5.62-4.92,5.79-.71,6.84,4.74,3.16,3.51,4,2.81-1.57,2.81-1.57.71,4.21,4.39,3.15,14-21,8.78-23.86S221.26,103.87,221.26,103.87Z"/><path class="cls-5" d="M227.61,120.82s1.83,6.37-1.35,6.82a12.48,12.48,0,0,0-5.48,2.28l5.92,7.73h10.94l6.81-6.82s-9.09-6.83-7.27-10.92S227.61,120.82,227.61,120.82Z"/><path class="cls-6" d="M227.61,120.82s1.83,6.37-1.35,6.82a12.48,12.48,0,0,0-5.48,2.28l5.92,7.73h10.94l6.81-6.82s-9.09-6.83-7.27-10.92S227.61,120.82,227.61,120.82Z"/><path class="cls-5" d="M230.35,200l10.47,3.64,7.28.46-.45-6.38-15-4.44Z"/><path class="cls-7" d="M243.78,198.61s0,6.38.91,6.38,13.21-1.37,16.84,0,9.1-3.65,6.38-6.38-7.18-6.82-10-5.91-14.16,3.18-14.16,3.18Z"/><path class="cls-7" d="M210.32,192.7s-5.46,10.92-1.81,11.82,7.74-.44,8.18-.9,6.83-2.28,7.74-1.37.92-3.64.92-3.64Z"/><path class="cls-4" d="M214.88,177.68s-8.65,11.83-2.28,15,36.87,3.18,39.15,0,3.18-13.2,0-14.11S214.88,177.68,214.88,177.68Z"/><path class="cls-8" d="M214.88,177.68s-8.65,11.83-2.28,15,36.87,3.18,39.15,0,3.18-13.2,0-14.11S214.88,177.68,214.88,177.68Z"/><path class="cls-5" d="M231.26,124a10.47,10.47,0,1,0-10.48-10.46A10.46,10.46,0,0,0,231.26,124Z"/><path class="cls-9" d="M214.88,129.92l9.1-1.82s2.28,7.28,9.55,5.91,9.11-5.91,9.11-5.91,5.46,2.27,5.92,2.27,6.37,2.28,6.37,3.64-6.83,15-6.83,15l.92,24.57-33.68-.91,2.26-24.11Z"/><path class="cls-5" d="M209.86,141.74s-2.72,24.11-.91,25.93,9.11,6.83,9.11,6.83V169l-3.65-6.82,3.65-15.93Z"/><path class="cls-5" d="M257,141.06s-1.6,24.8-1.6,25.71-4.09,4.09-5.46,4.09-2.28-2.27-2.28-2.27l3.19-3.64-2.28-18.66Z"/><path class="cls-4" d="M252.65,175.86s20.49-11.37,21,0-10.47,15.93-10.47,15.93-28.23,8.46-29.37,5.37-3.41-8.1-1.58-8.56,4.09-1.36,5-.45,12.29-6.82,12.29-6.82Z"/><path class="cls-10" d="M262.22,174.5s-4.11,1.82-5.46,3.18-7.29,3.64-7.29,3.64"/><path class="cls-9" d="M217.6,130.83l-2.72-.91s-10,10.46-6.83,13.19,5,3.64,5.92,4.55,5.46,1.37,5.46,1.37Z"/><path class="cls-9" d="M250.84,133.1l4.09.91s3.18,6.83,4.11,7.74-1.37.45-2.74,2.27-2.74,5-5.46,5-6.37-4.55-6.37-4.55Z"/><path class="cls-4" d="M215.78,180s-17.28-12.28-23.21-3.19,25.49,21.39,30,23.21,8.65,3.64,8.65,3.64,4.1-10,4.1-11.83-3.18-1.82-4.1-1.82-5-.91-5.91-2.28S215.78,180,215.78,180Z"/><path class="cls-10" d="M206.22,176.78s4.55,3.64,8.66,4.55,5.46,3.18,5.46,3.18"/><path class="cls-7" d="M212.65,159.67l.35,19.26a2.46,2.46,0,0,0,.74,1.69,2.42,2.42,0,0,0,1.71.68l35.86-.4a2.41,2.41,0,0,0,2.39-2.28l1.09-18.86a2.28,2.28,0,0,0-.15-1,2.3,2.3,0,0,0-.51-.83,2.43,2.43,0,0,0-1.75-.76H215.06a2.5,2.5,0,0,0-.94.19,2.37,2.37,0,0,0-.78.54,2.31,2.31,0,0,0-.52.79A2,2,0,0,0,212.65,159.67Z"/><path class="cls-4" d="M231.83,100.39s.58,2-2.73,3.7-4.27,8.35-.4,10.3,5.06,4.47,3.13,6.21-5.45,6.42-.79,7.58,5.25,3.5,3.89,4.47,3.11-1.74,3.11-1.74.79,4.66,4.86,3.49,8.17-22.36,3.62-27.82C242.29,101.51,231.83,100.39,231.83,100.39Z"/><path class="cls-4" d="M230.58,98.39c0-2.85,8.52-.8,12.18,3.18,2.53,2.75,6.37,6.89,3.16,9.81s5.52,6.75,7.86,7.91,7,4.71,2.8,7.09-4.13,4.78-2.54,5.35-3.48-.85-3.48-.85.51,4.7-3.74,4.68-16.42-23.35-13.52-29.83C236,99.7,230.58,98.39,230.58,98.39Z"/><path class="cls-4" d="M232.43,97.77c-11.4-.69-12.54,7.89-12.54,7.89.08,5,8,2.54,10.15,3.28,2.63-1.9,7.74-5.49,11.37-8.06A17.18,17.18,0,0,0,232.43,97.77Z"/><path class="cls-11" d="M229.18,152.48S219,104.59,155,69.85"/><path class="cls-12" d="M157.6,68.81l.12.52-2.58.63.81,2.53-.51.17-1-3.09Z"/><path class="cls-9" d="M18.5,201.41c0,6.07-3.61,8.19-8.06,8.19h-.3c-.22,0-.42,0-.62,0-4-.29-7.14-2.51-7.14-8.16,0-5.83,7.46-13.2,8-13.74h0l0,0S18.5,195.35,18.5,201.41Z"/><path class="cls-12" d="M10.15,208.68l2.94-4.12-2.95,4.56v.48c-.22,0-.42,0-.62,0l.31-6.08v0h0l0-.58-3-4.58,3,4.15,0,.12.23-4.58-2.54-4.74,2.57,3.93.26-9.5v0l0,7.49,2.52-3-2.54,3.62-.06,4.1L12.64,196l-2.37,4.55,0,2.28,3.42-5.49-3.43,6.29Z"/><path class="cls-4" d="M56.93,199.84l1.72-1.28s1.15,6.38-.12,7.33-6.05,2.54-6.05,4.45-10.83,4.46-11.15,1.6a6.36,6.36,0,0,1,1-4.46s5.11-5.09,5.74-6,2.23-2.86,2.23-2.86Z"/><path class="cls-4" d="M31.47,120.63s.05.28.12.79.19,1.1.31,1.89c1.34,8.16,5.25,32.16,5,32.95-.32,1-2.55,4.46,0,5.41a1.91,1.91,0,0,1,.79.86A18.51,18.51,0,0,1,39,165.71,137.22,137.22,0,0,1,43.1,182c.41,2.14.69,3.87.77,4.77a2.66,2.66,0,0,1,0,.63c-.32,1.27,1.91,5.73,2.86,7S49.3,197,49,198.26s8,4.77,8.93,2.54a38.18,38.18,0,0,0,1.26-4.14c.32-.63.64-5.08-1-5.72s-.63-11.77-2.23-14a30.85,30.85,0,0,1-2.18-6.27c-.34-1.18-.68-2.44-1-3.71-1.36-5.17-2.54-10.38-2.54-10.38l.32-37.22-17.52-2.23-.44,1-.89,2Z"/><path class="cls-4" d="M30.52,181.71s-2.56-2.54-3.83,0-2.54,12.41-4.77,14.63-5.09,13.37-1.91,14,6.68-1,7-2.86,7-11.77,7-12.73-4.45-4.45-4.45-4.45Z"/><path class="cls-4" d="M69.66,103.13s-4.14,37.23-5.09,40.73-6,16.86-7.64,19.08-11.77,20.36-13,21.32-3.81,3.5-3.81,3.5-4.79,4.77-5.42,5.72-6-1.9-6.36-3.81a19.59,19.59,0,0,1,.63-6.37c.32-1.27-.63-3.18.32-4.13S35,173.44,35,171.22s8.29-15.28,11.46-18.14S49,145.45,49,145.45V126l-17.5-5.41s1-15.27,3.18-15.27S66.17,100.27,69.66,103.13Z"/><path class="cls-13" d="M43.88,50a10.5,10.5,0,1,0-10.5-10.49A10.51,10.51,0,0,0,43.88,50Z"/><path class="cls-13" d="M47.39,47.78s1.26,4.77,2.86,6-4.14,6.68-4.14,6.68l-10.83.64-1.9-6s3.5-7,2.55-11.45S47.39,47.78,47.39,47.78Z"/><path class="cls-9" d="M51.83,53.19s-2.86.31-3.49,1.27-5.09,3.82-8.59,3.18S34,56.05,33.38,56.37s-1.91,7-1.91,7L35,73.55l-.65,28-.95,7.64s-1.91-2.55,5.73-1S56.62,107,59.8,106.63s8.6-1.27,8.91-3.18-1-8.91-1-8.91L62.66,73.23,59.48,61.78Z"/><path class="cls-14" d="M48.84,51.75s2.69-1.43,3.64-.16,13,3.18,13,4.14,2.56,26.72,1.91,29,1.28,4.77,1.28,4.77L70.94,99s6,18.14,3.51,18.77-4.79,0-5.74,0-.63-12.08-3.19-15.27-6-11.13-6.67-12.72-8.6-23.54-8.28-26.09S48.84,51.75,48.84,51.75Z"/><path class="cls-14" d="M35.61,53.19s-2.56,0-2.86.63A35.34,35.34,0,0,1,28,59.55c-1.27,1-5.72,5.09-5.72,6s9.23,8,9.23,8,3.81,18.77,1.91,25.13-4.77,21.63-3.51,22.59,4.14,1.27,4.14,0,1.92-15,3.5-17.82,6.37-21,4.47-26.09S35.61,53.19,35.61,53.19Z"/><path class="cls-13" d="M77.63,84.68s.31,9.86-3.18,14.95a60.2,60.2,0,0,0-5.74,10.82S63,108.86,62,107s-7-.32-7-1,7.32-3.82,8-4.46,2.86-.63,4.13-1.91,1.59-4.13,1.59-4.13L70,87.23Z"/><path class="cls-4" d="M51.11,33a6,6,0,0,0,2.37-.54,3.14,3.14,0,0,0,.8-4.66,5.67,5.67,0,0,0-1.12-.9l-2.42-1.65a11.79,11.79,0,0,0-3.41-1.81,10.73,10.73,0,0,0-3.49-.21,24.09,24.09,0,0,0-6.69,1.22,11.18,11.18,0,0,0-5.42,4c-2,3-2.07,7-.94,10.38s3.26,6.4,5.39,9.32l1.09-5.35a1.92,1.92,0,0,1,.61-1.28c1-.7,2.19.74,3.4.73A2.06,2.06,0,0,0,43,40.88a8.32,8.32,0,0,0,.38-2.29c.14-1.63.71-3.91,2.26-4.82S49.5,33.18,51.11,33Z"/><path class="cls-6" d="M50.53,120.89s-1.08,31.08-1.71,32,0-32.13,0-32.13Z"/><path class="cls-14" d="M63,55.73h2.53s10.83,14.63,9.56,15.59,0,3.49,0,3.49l2.55,4.78s3.18,2.86,2.23,3.5-2.23,3.18-2.23,3.18-6.37-1-8.28,2.86l-4.13-5.21Z"/><path class="cls-4" d="M63.88,60.44,55.14,64l6.72,16.28,8.74-3.61Z"/><path class="cls-9" d="M62.86,70a1.74,1.74,0,1,0-2.41-.88A1.81,1.81,0,0,0,62.86,70Z"/><path class="cls-13" d="M56.62,81.18s-22.92,19.09-26.75,13S34,83.09,34,83.09s7,.32,15-4.77l8-3.5s7.27-10.37,9.75-6.42S62.45,79.22,56.62,81.18Z"/><path class="cls-14" d="M25.73,64.32l-3.49,1.27v9.55L21,77s.33,3.82,1.28,4.78,2.86.63,2.23,2.86a12.14,12.14,0,0,0-.32,4.45s5.72,7.32,6,6.37S35,82.77,35.61,82.77s-6.37-18.45-6.37-18.45Z"/><path class="cls-4" d="M67.6,112.52s3.29-3.18,1.65-3.34-7.39-3.34-8.34-1.75S67.6,112.52,67.6,112.52Z"/><path class="cls-15" d="M130.2,51.83c2.53,0,4.59-1.09,4.59-2.43S132.73,47,130.2,47s-4.6,1.09-4.6,2.43S127.66,51.83,130.2,51.83Z"/><path class="cls-11" d="M147.75,57.5a42.56,42.56,0,0,0-31,0V44.81a53.83,53.83,0,0,1,31.05,0Z"/><path class="cls-11" d="M143.43,54.88a30.64,30.64,0,0,0-22.41,0V45.72a38.7,38.7,0,0,1,22.41,0Z"/><path class="cls-11" d="M131.82,50.75c2.54,0,4.6-1.09,4.6-2.43s-2.06-2.43-4.6-2.43-4.6,1.09-4.6,2.43S129.28,50.75,131.82,50.75Z"/><path class="cls-15" d="M133.57,67.05c2.49-.51,4.28-2,4-3.3s-2.51-2-5-1.47-4.29,2-4,3.3S131.08,67.55,133.57,67.05Z"/><path class="cls-11" d="M151.91,69.09a42.61,42.61,0,0,0-30.44,6.21l-2.54-12.43a53.78,53.78,0,0,1,30.44-6.21Z"/><path class="cls-11" d="M147.15,67.39a30.71,30.71,0,0,0-22,4.48l-1.83-9a38.89,38.89,0,0,1,22-4.48Z"/><path class="cls-11" d="M134.94,65.66c2.49-.5,4.29-2,4-3.3s-2.49-2-5-1.46-4.28,2-4,3.3S132.46,66.17,134.94,65.66Z"/><path class="cls-15" d="M136.71,80.08c.11-1.34-1.88-2.56-4.4-2.74s-4.66.77-4.75,2.11S129.43,82,132,82.19,136.62,81.42,136.71,80.08Z"/><path class="cls-11" d="M149.09,89.07a42.61,42.61,0,0,0-31-2.16L119,74.25a53.86,53.86,0,0,1,31,2.16Z"/><path class="cls-11" d="M145,86.15a30.73,30.73,0,0,0-22.36-1.56l.63-9.13A38.86,38.86,0,0,1,145.6,77Z"/><path class="cls-11" d="M138.4,79.12c.09-1.34-1.88-2.56-4.4-2.74s-4.66.77-4.75,2.1,1.88,2.57,4.41,2.75S138.31,80.46,138.4,79.12Z"/><path class="cls-11" d="M112.08,57.8s-19.85-2.72-34,5.59"/><path class="cls-12" d="M78.52,60.59l.52.17-.81,2.53,2.6.62-.12.53-3.16-.76Z"/></g></svg>