<svg id="Layer_1" data-name="Layer 1" xmlns="http://www.w3.org/2000/svg" xmlns:xlink="http://www.w3.org/1999/xlink" viewBox="0 0 296.18 171.3"><defs><style>.cls-1,.cls-10,.cls-5{fill:none;}.cls-2{clip-path:url(#clip-path);}.cls-11,.cls-12,.cls-3,.cls-4{fill:#109cf1;}.cls-3{opacity:0.5;}.cls-11,.cls-12,.cls-17,.cls-3,.cls-6{isolation:isolate;}.cls-10,.cls-5{stroke:#535461;stroke-miterlimit:10;}.cls-6{opacity:0.1;}.cls-7{fill:url(#linear-gradient);}.cls-8{fill:#535461;}.cls-9{fill:#fff;}.cls-10{stroke-width:2px;}.cls-11{opacity:0.7;}.cls-12{opacity:0.8;}.cls-13{fill:url(#linear-gradient-2);}.cls-14{fill:#fec3be;}.cls-15{fill:#8b416f;}.cls-16{fill:#4d4981;}.cls-17{opacity:0.05;}.cls-18{fill:#fd6f8d;}.cls-19{fill:#784f69;}</style><clipPath id="clip-path" transform="translate(0 -0.02)"><rect class="cls-1" width="296.17" height="171.34"/></clipPath><linearGradient id="linear-gradient" x1="138.49" y1="169.32" x2="138.49" y2="283.3" gradientTransform="matrix(1, 0, 0, -1, 0, 300.62)" gradientUnits="userSpaceOnUse"><stop offset="0" stop-color="gray" stop-opacity="0.25"/><stop offset="0.54" stop-color="gray" stop-opacity="0.12"/><stop offset="1" stop-color="gray" stop-opacity="0.1"/></linearGradient><linearGradient id="linear-gradient-2" x1="234.48" y1="-93718.86" x2="234.48" y2="-25267.5" xlink:href="#linear-gradient"/></defs><g class="cls-2"><path class="cls-3" d="M73.49,112.21c-17.9-6.21-38.37-11.47-55.1-2.54A12.38,12.38,0,0,0,13,114.34c-3,5.58,1.78,12.8-.56,18.7S1.34,141.9,2.06,148.19a8.82,8.82,0,0,0,2.12,4.42c6.56,8,18.57,8.85,28.73,6.86s20.08-6.14,30.42-5.61c9.93.51,19.07,5.29,28.18,9.32,15.34,6.8,33.26,11.69,48.6,4.85,7-3.14,12.83-8.48,19.55-12.2a48,48,0,0,1,29.72-5.47c6.83,1,13.35,3.39,20,5.07,15.18,3.8,31,3.68,46.67,3.53a31,31,0,0,0,8.66-.9c4.14-1.24,7.54-4.11,10.82-6.92,4.32-3.69,8.86-7.74,10.24-13.25,1.66-6.54-1.75-13.5-6.79-17.95s-11.49-6.87-17.78-9.22c-1.56-.57-3.21-1.15-4.8-.72a6.62,6.62,0,0,0-2.7,1.74c-4.46,4.31-8.24,11.6-14.32,10.43-2.18-.41-4-1.93-5.67-3.34-9.19-7.47-21.54-13.25-32.63-9.12-8.1,3-13.83,10.79-22,13.53-5.84,2-12.19,1.1-18.33,1.48-9,.55-17.65,3.72-26.59,3.53-22.84-.49-41.86-22.4-64.6-20.31-1.79.16-3.72.57-4.82,2" transform="translate(0 -0.02)"/><path class="cls-4" d="M44.7,91.37s-19,11.49,16,29.2c0,0,7.71-14.37-.8-26.08A11.48,11.48,0,0,0,45,91.21Z" transform="translate(0 -0.02)"/><path class="cls-5" d="M44.93,91.13s16.25,12.46,15.8,29.43" transform="translate(0 -0.02)"/><path class="cls-4" d="M284.73,81.79c3.84,14.11-12.55,54.29-12.55,54.29s-34.5-26.21-38.34-40.32a26.44,26.44,0,0,1,18.32-33.12,26.29,26.29,0,0,1,20.29,2.69,26.48,26.48,0,0,1,12.28,16.46Z" transform="translate(0 -0.02)"/><path class="cls-6" d="M284.73,81.79c3.84,14.11-12.55,54.29-12.55,54.29s-34.5-26.21-38.34-40.32a26.44,26.44,0,0,1,18.32-33.12,26.29,26.29,0,0,1,20.29,2.69,26.48,26.48,0,0,1,12.28,16.46Z" transform="translate(0 -0.02)"/><path class="cls-5" d="M252.47,63.32s21.46,32.54,19.86,72.85" transform="translate(0 -0.02)"/><path class="cls-4" d="M290.21,107.58s-19.47-10.63-17,28.61c0,0,16.25-.58,22-13.88a11.56,11.56,0,0,0-4.72-14.57Z" transform="translate(0 -0.02)"/><path class="cls-5" d="M290.53,107.65S288,128,273.2,136.19" transform="translate(0 -0.02)"/><path class="cls-4" d="M5.14,103.2s-19,11.49,16,29.19c0,0,7.71-14.37-.82-26.08A11.46,11.46,0,0,0,5.43,103Z" transform="translate(0 -0.02)"/><path class="cls-5" d="M5.36,103s16.24,12.46,15.79,29.43" transform="translate(0 -0.02)"/><path class="cls-7" d="M242,118.16H222a6.83,6.83,0,0,0,.7-3V24a6.73,6.73,0,0,0-2-4.74,6.66,6.66,0,0,0-4.73-2H61.64A6.71,6.71,0,0,0,55,24v91.16a6.73,6.73,0,0,0,.7,3H35a1.72,1.72,0,0,0-.68.13,1.74,1.74,0,0,0-.58.39,1.77,1.77,0,0,0-.38.58,1.72,1.72,0,0,0-.13.68v1.43a9.88,9.88,0,0,0,9.88,9.91H233.86a9.88,9.88,0,0,0,9.88-9.91V120a1.72,1.72,0,0,0-.13-.68,1.62,1.62,0,0,0-.38-.58,1.65,1.65,0,0,0-.58-.39A1.71,1.71,0,0,0,242,118.16Zm-122.91,5.67-1.72-1.94h42.46l-1.89,2Z" transform="translate(0 -0.02)"/><path class="cls-8" d="M213.6,18.6H64.08a7.24,7.24,0,0,0-7.22,7.25v87.71a7.23,7.23,0,0,0,7.22,7.24H213.6a7.23,7.23,0,0,0,7.22-7.24V25.85A7.24,7.24,0,0,0,213.6,18.6Z" transform="translate(0 -0.02)"/><path class="cls-9" d="M217,33.5H60.31V117H217Z" transform="translate(0 -0.02)"/><path class="cls-9" d="M138.67,27.61a1.39,1.39,0,1,0-1.38-1.39A1.39,1.39,0,0,0,138.67,27.61Z" transform="translate(0 -0.02)"/><path class="cls-8" d="M162.87,117.16l-5.39,5.55h-38l-4.86-5.55H37.36a1.73,1.73,0,0,0-1.22.51,1.78,1.78,0,0,0-.51,1.23v1.39A9.68,9.68,0,0,0,45.29,130H231.7a9.69,9.69,0,0,0,6.83-2.84,9.39,9.39,0,0,0,2.09-3.14,9.62,9.62,0,0,0,.73-3.71V118.9a1.77,1.77,0,0,0-.5-1.23,1.73,1.73,0,0,0-1.22-.51Z" transform="translate(0 -0.02)"/><path class="cls-10" d="M80.33,38.69v71h117" transform="translate(0 -0.02)"/><path class="cls-3" d="M102.77,88.24H90.69V107h12.08Z" transform="translate(0 -0.02)"/><path class="cls-11" d="M123.47,71.61H111.39V107h12.08Z" transform="translate(0 -0.02)"/><path class="cls-3" d="M144.19,81.65H132.11v25.29h12.08Z" transform="translate(0 -0.02)"/><path class="cls-12" d="M164.9,66.07H152.82V107H164.9Z" transform="translate(0 -0.02)"/><path class="cls-4" d="M185.61,51.52H173.53V107h12.08Z" transform="translate(0 -0.02)"/><path class="cls-10" d="M96.56,76.81l21-19.05,20.71,18L158.7,53.94l20.7-8.66" transform="translate(0 -0.02)"/><path class="cls-4" d="M96.56,79.23a2.43,2.43,0,1,0-2.42-2.42A2.41,2.41,0,0,0,96.56,79.23Z" transform="translate(0 -0.02)"/><path class="cls-4" d="M138,77.84a2.42,2.42,0,1,0-2.42-2.42A2.41,2.41,0,0,0,138,77.84Z" transform="translate(0 -0.02)"/><path class="cls-4" d="M159,56.37A2.43,2.43,0,1,0,156.61,54,2.43,2.43,0,0,0,159,56.37Z" transform="translate(0 -0.02)"/><path class="cls-4" d="M117.61,59.83a2.43,2.43,0,1,0-2.41-2.43A2.42,2.42,0,0,0,117.61,59.83Z" transform="translate(0 -0.02)"/><path class="cls-4" d="M179.4,47.7A2.43,2.43,0,1,0,177,45.28,2.41,2.41,0,0,0,179.4,47.7Z" transform="translate(0 -0.02)"/><path class="cls-13" d="M269.26,120.2a11.92,11.92,0,0,0-4.65-.73,23.41,23.41,0,0,1-7.07-3.91,49.76,49.76,0,0,0-.15-6c-1.18-13.36,1.46-22.17,1.46-22.17s2.07-6.72,1.84-12.29l.21.4a41.56,41.56,0,0,1,3-12.88l.14,0,1.37-3.26a3.2,3.2,0,0,0,.26-.6l.22-.51-.07,0c0-.08,0-.18.07-.27a123,123,0,0,0,1.55-12.49,16.31,16.31,0,0,0-3.22-15l-9.43-8.14a1.35,1.35,0,0,1,.09.33l-.07-.07c-.13-.38-.28-.84-.43-1.36a7.13,7.13,0,0,0,.93-.8,7.29,7.29,0,0,0,2.12-3.79,14,14,0,0,0,.13-3.42l-.14-3.93A13.48,13.48,0,0,0,257.21,7c-.71-3.12-3.89-5.3-7.08-5.44a23.69,23.69,0,0,0-3,.16,20.53,20.53,0,0,1-2.48.05.42.42,0,0,1-.27-.07.35.35,0,0,1-.11-.27,1.09,1.09,0,0,1,.06-.54,1.27,1.27,0,0,1,.27-.48A1.14,1.14,0,0,1,245,.17l-.24,0a1.16,1.16,0,0,1,.38-.2,7.45,7.45,0,0,0-2.36.86,3.36,3.36,0,0,0-.55.46,2.37,2.37,0,0,0-.78,1.48,2.8,2.8,0,0,1-.85-1.24,1.26,1.26,0,0,1,0-.61l-.16.21V1.12a6.35,6.35,0,0,0-1.24,2.54,1.08,1.08,0,0,1-.19-.35,1,1,0,0,1,0-.38c0,.14-.08.29-.13.44a1.5,1.5,0,0,1,0-.3,10.34,10.34,0,0,0-.48,3.49c0,1.17.52,3,1.78,3.42a1.39,1.39,0,0,0,.19.06,7.85,7.85,0,0,0-1.22,3.67,7.94,7.94,0,0,0,3,6.87,7.82,7.82,0,0,0,3.53,1.56c0,.14.05.29.06.45h.05c0,.31.06.66.08,1a6.38,6.38,0,0,1-1,.84,8.4,8.4,0,0,1-3.45,1.15,10.3,10.3,0,0,0-4.15,1.24c-1.5.85-3.17,2.08-3.69,3.57-.87,2.5-5.66,6.38-8.86,6.86l-1.14-.07-.09,0v0h-.66s0,.13-.07.37c-1.62-.56-5-2.11-9.51-6.17-5-4.53-11.69-3.64-14.27-3.07a.44.44,0,0,0-.23.13.47.47,0,0,0-.13.24.58.58,0,0,0,.05.26.41.41,0,0,0,.19.2,14.28,14.28,0,0,0,3.41,1.5s-1.55,1.63.1,2.5a1.24,1.24,0,0,0,.64.11,1.13,1.13,0,0,0,.59-.23c.81-.59,3,.74,6.26,1.44,0,0,9.1,9.45,13.62,10.9a5.88,5.88,0,0,0,.35.6l.27,0v0h.13l0,.31s7-.37,9.32-2.93a3.94,3.94,0,0,0,.44-.47L231.5,73.7h0V74h1.79a67.42,67.42,0,0,1-.48,11.36v20.11s-.1,1.77,3.56,4.36a132.22,132.22,0,0,1,11.09,8.63l.45.39c-.67,6.15-2.09,17.62-3.26,18.05l.73.12c-1.25,1.58-4.77,5.92-5.85,6-1.31.15-2.19,2.2,0,2.64a24.52,24.52,0,0,0,13.05-1.29,2,2,0,0,0,1.23-2.12l-.43-3.24a.46.46,0,0,1,.2.19c.28.88,0-1.17,0-1.17a94.38,94.38,0,0,0,2.83-11.84l4.34,3.77s.09-.11.23-.31c1.07,2.42,3,7.38,2.55,11-.59,5,5,.59,4.38-2.34-.46-2.38,1.64-12.44,2.46-16.21a1.6,1.6,0,0,0-.18-1.19,1.67,1.67,0,0,0-.93-.76Z" transform="translate(0 -0.02)"/><path class="cls-14" d="M223.84,38.77s-4.15-.72-10.28-6.31c-4.86-4.42-11.42-3.55-13.94-3a.45.45,0,0,0-.23.13.38.38,0,0,0-.11.23.4.4,0,0,0,.05.26.37.37,0,0,0,.17.18,14.66,14.66,0,0,0,3.35,1.48s-1.53,1.58.1,2.44a1.17,1.17,0,0,0,.62.11,1.2,1.2,0,0,0,.6-.23c.77-.58,3,.73,6.1,1.4,0,0,12.29,12.76,15.14,10.6Z" transform="translate(0 -0.02)"/><path class="cls-14" d="M245,21.42s1.15,4.88,0,8.32l5.14.71,4.57-2.29v-3a20.85,20.85,0,0,1-1.58-9.89Z" transform="translate(0 -0.02)"/><path class="cls-15" d="M259.54,127.06s3.72,7.31,3.13,12.18,4.86.58,4.29-2.29c-.46-2.32,1.6-12.15,2.41-15.81a1.62,1.62,0,0,0-.19-1.16,1.54,1.54,0,0,0-.9-.74c-1.72-.57-4.59-1.27-6-.2C260.12,120.61,259.54,127.06,259.54,127.06Z" transform="translate(0 -0.02)"/><path class="cls-15" d="M245.4,135.09s-4.85,6.3-6.14,6.45-2.14,2.15,0,2.58A24,24,0,0,0,252,142.87a1.92,1.92,0,0,0,1-.83,1.87,1.87,0,0,0,.25-1.25l-.82-6.13Z" transform="translate(0 -0.02)"/><path class="cls-16" d="M237.41,68.15l-4.66.62a68.93,68.93,0,0,1-.05,16.43v19.63s-.1,1.73,3.49,4.25A134.5,134.5,0,0,1,247,117.49l13,11.27s5.14-6.31,4.43-10c0,0-8.57-2.72-9.72-7.16-.65-2.55-4-4.68-6.69-6a8.4,8.4,0,0,1-3.9-4,8.5,8.5,0,0,1-.56-5.53,7,7,0,0,1,.74-1.84c2.28-4,5.56-13,5.56-13l-6.27-12Z" transform="translate(0 -0.02)"/><path class="cls-17" d="M237.41,68.15l-4.66.62a68.93,68.93,0,0,1-.05,16.43v19.63s-.1,1.73,3.49,4.25A134.5,134.5,0,0,1,247,117.49l13,11.27s5.14-6.31,4.43-10c0,0-8.57-2.72-9.72-7.16-.65-2.55-4-4.68-6.69-6a8.4,8.4,0,0,1-3.9-4,8.5,8.5,0,0,1-.56-5.53,7,7,0,0,1,.74-1.84c2.28-4,5.56-13,5.56-13l-6.27-12Z" transform="translate(0 -0.02)"/><path class="cls-16" d="M244.27,135.53s8.43,1.43,8.71,2.29,0-1.15,0-1.15,4.86-14.76,3.72-27.8,1.43-21.65,1.43-21.65,3-9.74,1.29-15.33-19.71-3.16-19.71-3.16S246,83.5,245.85,90.52c0,0,.72,21.22,2,23.65C247.84,114.16,245.83,134.94,244.27,135.53Z" transform="translate(0 -0.02)"/><path class="cls-9" d="M245.26,25.16s.85,5.29,9.42,3L249,71.74s-16.56.57-16.43-1.44L236,43.93Z" transform="translate(0 -0.02)"/><path class="cls-6" d="M245.48,24.86a6.92,6.92,0,0,1-4.13,2,10,10,0,0,0-4,1.21c-1.47.83-3.11,2-3.61,3.49-1,2.86-7.28,7.59-10.13,6.59l1,8.6s8.15-.43,9.57-3.58L231.7,73.83h2.14s1.15-8.32,2-10,2.57-11.18,2.7-13.47,2.29-15.48,4.15-17.76l2.79-6.81Z" transform="translate(0 -0.02)"/><path class="cls-6" d="M245.48,25.29a8.73,8.73,0,0,1-4.41,1.83A10,10,0,0,0,237,28.33c-1.46.83-3.1,2-3.6,3.49-1,2.87-7.28,7.6-10.13,6.59l1,8.6s8.15-.43,9.57-3.58L231.42,74.1h2.14s1.14-8.31,2-10,2.57-11.18,2.72-13.48,2.29-15.48,4.14-17.76l3.07-6.68Z" transform="translate(0 -0.02)"/><path class="cls-18" d="M245.48,25a8.8,8.8,0,0,1-4.42,1.82A10,10,0,0,0,237,28c-1.47.83-3.11,2-3.6,3.49-1,2.86-7.28,7.59-10.14,6.59l1,8.6s8.14-.43,9.57-3.58l-2.42,30.69h2.14s1.14-8.32,2-10,2.57-11.18,2.72-13.47,2.29-15.48,4.14-17.76l3.07-6.67Z" transform="translate(0 -0.02)"/><path class="cls-6" d="M252.76,19.49a14.89,14.89,0,0,1,.35-3.8L245,21.86s.19.83.34,2.05a7.53,7.53,0,0,0,1.25.1C249.39,24,251.43,21.79,252.76,19.49Z" transform="translate(0 -0.02)"/><path class="cls-14" d="M246.55,23.58a7.74,7.74,0,1,0-7.71-7.74A7.74,7.74,0,0,0,246.55,23.58Z" transform="translate(0 -0.02)"/><path class="cls-6" d="M238.13,8.25a10,10,0,0,1,.62-3.83,1,1,0,0,0-.15.66.88.88,0,0,0,.32.59,6.13,6.13,0,0,1,1.93-3.45,1.06,1.06,0,0,0-.7,1.32,3,3,0,0,0,1,1.34,2.39,2.39,0,0,1,1.17-2,7.32,7.32,0,0,1,2.3-.84,1.32,1.32,0,0,0-.67.54,1.36,1.36,0,0,0-.21.83.39.39,0,0,0,.11.27.48.48,0,0,0,.26.07,19.3,19.3,0,0,0,2.41-.06,24.68,24.68,0,0,1,3-.15c3.1.13,6.22,2.25,6.92,5.29A12.06,12.06,0,0,1,256.6,11l.16,3.84a13.45,13.45,0,0,1-.15,3.35,6.93,6.93,0,0,1-1.27,2.82,7,7,0,0,1-2.36,2c-1.11-1.63-1.21-3.72-1.6-5.66a3,3,0,0,0-.49-1.25,1.09,1.09,0,0,0-.53-.39,1,1,0,0,0-.66,0,.69.69,0,0,0-.26,1.09c-.3.37-.89.1-1.23-.23a6.69,6.69,0,0,1-1.94-3.47c-.14-.67-.28-1.49-.93-1.72a1.79,1.79,0,0,0-.69,0c-1.36.09-3.49.65-4.8.22S238.13,9.4,238.13,8.25Z" transform="translate(0 -0.02)"/><path class="cls-19" d="M238.28,8.11a10,10,0,0,1,.61-3.83,1,1,0,0,0-.14.65.87.87,0,0,0,.32.59A6.1,6.1,0,0,1,241,2.08a1.06,1.06,0,0,0-.7,1.31,3,3,0,0,0,1,1.35,2.41,2.41,0,0,1,1.17-2,7,7,0,0,1,2.3-.83,1.35,1.35,0,0,0-.67.53,1.39,1.39,0,0,0-.21.84.39.39,0,0,0,.11.27.42.42,0,0,0,.26.06,19.55,19.55,0,0,0,2.42,0,26.56,26.56,0,0,1,3-.16c3.11.13,6.23,2.26,6.93,5.3a11.27,11.27,0,0,1,.22,2.24l.16,3.83a14.43,14.43,0,0,1-.14,3.35,7.24,7.24,0,0,1-1.28,2.82,7.1,7.1,0,0,1-2.35,2c-1.13-1.63-1.22-3.73-1.62-5.67a2.93,2.93,0,0,0-.47-1.24,1.18,1.18,0,0,0-.54-.4,1.14,1.14,0,0,0-.66,0,.7.7,0,0,0-.26,1.1c-.31.37-.88.09-1.24-.23A6.75,6.75,0,0,1,246.42,13c-.15-.67-.28-1.49-.93-1.72a1.83,1.83,0,0,0-.7,0c-1.36.1-3.47.66-4.79.23S238.28,9.26,238.28,8.11Z" transform="translate(0 -0.02)"/><path class="cls-6" d="M222.91,38.13s-1.15,5.29,1,8.6l1.21-.1-.66-8.42Z" transform="translate(0 -0.02)"/><path class="cls-18" d="M223.22,38.13s-1.14,5.29,1,8.6l1.21-.1-.66-8.42Z" transform="translate(0 -0.02)"/><path class="cls-6" d="M253.91,23.66l9.2,8a16,16,0,0,1,3.15,14.63s-1,13.18-2.14,13.76c0,0-4,8-4.29,15.62,0,0-5.36-10.82-7.78-4.23A11.34,11.34,0,0,1,244,78.92l3.14-39S255.05,26.08,253.91,23.66Z" transform="translate(0 -0.02)"/><path class="cls-18" d="M254.19,23.66l9.2,8a16,16,0,0,1,3.15,14.63s-1,13.18-2.14,13.76c0,0-4,8-4.28,15.62,0,0-5.65-11.4-8.07-4.8s-7.78,8.1-7.78,8.1l3.13-39S255.33,26.08,254.19,23.66Z" transform="translate(0 -0.02)"/><path class="cls-14" d="M258.4,57.26s2.29-1.58,6,2.72l-9.13,16.63L252.2,72S258.7,59.12,258.4,57.26Z" transform="translate(0 -0.02)"/><path class="cls-6" d="M256.19,58.19s5.05,5.7,7,4.79L265,58.71l-6.85-3Z" transform="translate(0 -0.02)"/><path class="cls-18" d="M256.19,57.9s5.05,5.7,7,4.79L265,58.42l-6.85-3Z" transform="translate(0 -0.02)"/><path class="cls-6" d="M252.5,70.87s2.41,4.95,3.69,5.23l-1.86,2.15-2.72-5.16Z" transform="translate(0 -0.02)"/><path class="cls-16" d="M252.36,71s2.41,4.94,3.69,5.23l-1.87,2.15-2.72-5.17Z" transform="translate(0 -0.02)"/><path class="cls-6" d="M256.9,40.41s.29,10.33-.86,14.2Z" transform="translate(0 -0.02)"/><path class="cls-6" d="M233.77,42.42s1.71-.57,1.71-2Z" transform="translate(0 -0.02)"/><path class="cls-10" d="M25.67,44.15a58,58,0,0,0-2.79,36.9c5.34,20,3.65,43.94-1.69,49.86" transform="translate(0 -0.02)"/><path class="cls-4" d="M25.67,46.41a2.26,2.26,0,1,0-2.24-2.26A2.25,2.25,0,0,0,25.67,46.41Z" transform="translate(0 -0.02)"/><path class="cls-10" d="M22.29,55S30.73,56.55,33,53.47" transform="translate(0 -0.02)"/><path class="cls-10" d="M21.49,59.93s-5.08-5.64-4.8-9" transform="translate(0 -0.02)"/><path class="cls-10" d="M21.05,70.26s4.62,1.22,8.83-7.79" transform="translate(0 -0.02)"/><path class="cls-10" d="M22.29,77.77S10.8,70.35,12.2,65.56" transform="translate(0 -0.02)"/><path class="cls-10" d="M24.08,86.26S32.13,79.09,31.29,72" transform="translate(0 -0.02)"/><path class="cls-10" d="M25,91.25S14.71,88.38,15,83.87" transform="translate(0 -0.02)"/><path class="cls-10" d="M25.67,97.2s6.46-6,7.3-9.66" transform="translate(0 -0.02)"/><path class="cls-10" d="M26.12,107.4s-6.62-7.75-6.9-11.7" transform="translate(0 -0.02)"/><path class="cls-10" d="M26.12,113.82s7.41-8.26,8-12.2" transform="translate(0 -0.02)"/><path class="cls-4" d="M16.69,53.73a2.25,2.25,0,1,0-2.25-2.25A2.24,2.24,0,0,0,16.69,53.73Z" transform="translate(0 -0.02)"/><path class="cls-4" d="M14.17,86.13a2.26,2.26,0,1,0-2.25-2.26A2.25,2.25,0,0,0,14.17,86.13Z" transform="translate(0 -0.02)"/><path class="cls-4" d="M12.2,67.81A2.25,2.25,0,1,0,10,65.56,2.25,2.25,0,0,0,12.2,67.81Z" transform="translate(0 -0.02)"/><path class="cls-4" d="M33,55.7a2.25,2.25,0,1,0-2.25-2.25A2.24,2.24,0,0,0,33,55.7Z" transform="translate(0 -0.02)"/><path class="cls-4" d="M33,90.35a2.25,2.25,0,1,0-2.25-2.25A2.24,2.24,0,0,0,33,90.35Z" transform="translate(0 -0.02)"/><path class="cls-4" d="M29.32,64.72a2.26,2.26,0,1,0-2.24-2.26A2.26,2.26,0,0,0,29.32,64.72Z" transform="translate(0 -0.02)"/><path class="cls-4" d="M33.81,105.28A2.25,2.25,0,1,0,31.57,103,2.25,2.25,0,0,0,33.81,105.28Z" transform="translate(0 -0.02)"/><path class="cls-4" d="M18.66,99.36a2.25,2.25,0,1,0-2.25-2.25A2.24,2.24,0,0,0,18.66,99.36Z" transform="translate(0 -0.02)"/><path class="cls-4" d="M31.57,74.29A2.25,2.25,0,1,0,29.32,72,2.24,2.24,0,0,0,31.57,74.29Z" transform="translate(0 -0.02)"/></g></svg>