<svg id="Layer_1" data-name="Layer 1" xmlns="http://www.w3.org/2000/svg" viewBox="0 0 64 75"><defs><style>.cls-1,.cls-2{fill:#43ce5a;}.cls-1{fill-opacity:0.2;}</style></defs><rect class="cls-1" width="64" height="75" rx="5"/><path class="cls-2" d="M692.83,396.42H672.17a1.32,1.32,0,0,1-.92-.38,1.29,1.29,0,0,1-.37-.92V371.87a1.29,1.29,0,0,1,.37-.91,1.32,1.32,0,0,1,.92-.38h20.66a1.32,1.32,0,0,1,.92.38,1.29,1.29,0,0,1,.37.91v23.25a1.29,1.29,0,0,1-.37.92A1.32,1.32,0,0,1,692.83,396.42Zm-1.29-2.59V373.16H673.46v20.67ZM676,375.75h5.17v5.16H676Zm0,7.75H689v2.58H676Zm0,5.16H689v2.59H676ZM683.79,377H689v2.58h-5.17Z" transform="translate(-651 -347)"/></svg>