<svg id="Layer_1" data-name="Layer 1" xmlns="http://www.w3.org/2000/svg" viewBox="0 0 64 75"><defs><style>.cls-1,.cls-2{fill:#f7685b;}.cls-1{fill-opacity:0.2;}</style></defs><rect class="cls-1" width="64" height="75" rx="5"/><path class="cls-2" d="M694.83,397.42H674.17a1.32,1.32,0,0,1-.92-.38,1.29,1.29,0,0,1-.37-.92V372.87a1.29,1.29,0,0,1,.37-.91,1.32,1.32,0,0,1,.92-.38h20.66a1.32,1.32,0,0,1,.92.38,1.29,1.29,0,0,1,.37.91v23.25a1.29,1.29,0,0,1-.37.92A1.32,1.32,0,0,1,694.83,397.42Zm-1.29-2.59V374.16H675.46v20.67ZM678,376.75h5.17v5.16H678Zm0,7.75H691v2.58H678Zm0,5.16H691v2.59H678ZM685.79,378H691v2.58h-5.17Z" transform="translate(-651 -347)"/></svg>