<svg id="Layer_1" data-name="Layer 1" xmlns="http://www.w3.org/2000/svg" viewBox="0 0 64 75"><defs><style>.cls-1{fill:#3291f0;fill-opacity:0.2;}.cls-2{fill:#007aff;}</style></defs><rect class="cls-1" width="64" height="75" rx="5"/><path class="cls-2" d="M689.25,373.56h5.4a1.36,1.36,0,0,1,1,.37,1.24,1.24,0,0,1,.4.91V395.3a1.21,1.21,0,0,1-.4.9,1.37,1.37,0,0,1-1,.38h-24.3a1.37,1.37,0,0,1-1-.38,1.21,1.21,0,0,1-.4-.9V374.84a1.24,1.24,0,0,1,.4-.91,1.36,1.36,0,0,1,1-.37h5.4V371h2.7v2.56h8.1V371h2.7Zm-2.7,2.56h-8.1v2.55h-2.7v-2.55h-4v5.11h21.6v-5.11h-4v2.55h-2.7Zm6.75,7.67H671.7V394h21.6Z" transform="translate(-651 -347)"/></svg>