<svg id="Layer_1" data-name="Layer 1" xmlns="http://www.w3.org/2000/svg" viewBox="0 0 64 75"><defs><style>.cls-1,.cls-2{fill:#885af8;}.cls-2{fill-opacity:0.2;}</style></defs><path class="cls-1" d="M693.83,397.42H673.17a1.32,1.32,0,0,1-.92-.38,1.29,1.29,0,0,1-.37-.92V372.87a1.29,1.29,0,0,1,.37-.91,1.32,1.32,0,0,1,.92-.38h20.66a1.32,1.32,0,0,1,.92.38,1.29,1.29,0,0,1,.37.91v23.25a1.29,1.29,0,0,1-.37.92A1.32,1.32,0,0,1,693.83,397.42Zm-1.29-2.59V374.16H674.46v20.67ZM677,376.75h5.17v5.16H677Zm0,7.75H690v2.58H677Zm0,5.16H690v2.59H677ZM684.79,378H690v2.58h-5.17Z" transform="translate(-651 -347)"/><rect class="cls-2" width="64" height="75" rx="5"/></svg>